<svg width="231" height="68" viewBox="0 0 231 68" fill="none" xmlns="http://www.w3.org/2000/svg">
<path d="M66.3056 8.1C67.7856 8.1 69.079 8.38667 70.1856 8.96C71.3056 9.52 72.1656 10.3333 72.7656 11.4C73.379 12.4533 73.6856 13.6867 73.6856 15.1C73.6856 16.5133 73.379 17.74 72.7656 18.78C72.1656 19.82 71.3056 20.62 70.1856 21.18C69.079 21.7267 67.7856 22 66.3056 22H61.7656V8.1H66.3056ZM66.3056 20.14C67.9323 20.14 69.179 19.7 70.0456 18.82C70.9123 17.94 71.3456 16.7 71.3456 15.1C71.3456 13.4867 70.9123 12.2267 70.0456 11.32C69.179 10.4133 67.9323 9.96 66.3056 9.96H64.0456V20.14H66.3056ZM80.7253 22.18C79.6853 22.18 78.7453 21.9467 77.9053 21.48C77.0653 21 76.4053 20.3333 75.9253 19.48C75.4453 18.6133 75.2053 17.6133 75.2053 16.48C75.2053 15.36 75.452 14.3667 75.9453 13.5C76.4386 12.6333 77.112 11.9667 77.9653 11.5C78.8186 11.0333 79.772 10.8 80.8253 10.8C81.8786 10.8 82.832 11.0333 83.6853 11.5C84.5386 11.9667 85.212 12.6333 85.7053 13.5C86.1986 14.3667 86.4453 15.36 86.4453 16.48C86.4453 17.6 86.192 18.5933 85.6853 19.46C85.1786 20.3267 84.4853 21 83.6053 21.48C82.7386 21.9467 81.7786 22.18 80.7253 22.18ZM80.7253 20.2C81.312 20.2 81.8586 20.06 82.3653 19.78C82.8853 19.5 83.3053 19.08 83.6253 18.52C83.9453 17.96 84.1053 17.28 84.1053 16.48C84.1053 15.68 83.952 15.0067 83.6453 14.46C83.3386 13.9 82.932 13.48 82.4253 13.2C81.9186 12.92 81.372 12.78 80.7853 12.78C80.1986 12.78 79.652 12.92 79.1453 13.2C78.652 13.48 78.2586 13.9 77.9653 14.46C77.672 15.0067 77.5253 15.68 77.5253 16.48C77.5253 17.6667 77.8253 18.5867 78.4253 19.24C79.0386 19.88 79.8053 20.2 80.7253 20.2ZM103.499 10.98L100.079 22H97.6792L95.4592 13.86L93.2392 22H90.8392L87.3992 10.98H89.7192L92.0192 19.84L94.3592 10.98H96.7392L98.9792 19.8L101.259 10.98H103.499ZM110.763 10.8C111.63 10.8 112.403 10.98 113.083 11.34C113.776 11.7 114.316 12.2333 114.703 12.94C115.09 13.6467 115.283 14.5 115.283 15.5V22H113.023V15.84C113.023 14.8533 112.776 14.1 112.283 13.58C111.79 13.0467 111.116 12.78 110.263 12.78C109.41 12.78 108.73 13.0467 108.223 13.58C107.73 14.1 107.483 14.8533 107.483 15.84V22H105.203V10.98H107.483V12.24C107.856 11.7867 108.33 11.4333 108.903 11.18C109.49 10.9267 110.11 10.8 110.763 10.8ZM120.471 7.2V22H118.191V7.2H120.471ZM128.245 22.18C127.205 22.18 126.265 21.9467 125.425 21.48C124.585 21 123.925 20.3333 123.445 19.48C122.965 18.6133 122.725 17.6133 122.725 16.48C122.725 15.36 122.972 14.3667 123.465 13.5C123.958 12.6333 124.632 11.9667 125.485 11.5C126.338 11.0333 127.292 10.8 128.345 10.8C129.398 10.8 130.352 11.0333 131.205 11.5C132.058 11.9667 132.732 12.6333 133.225 13.5C133.718 14.3667 133.965 15.36 133.965 16.48C133.965 17.6 133.712 18.5933 133.205 19.46C132.698 20.3267 132.005 21 131.125 21.48C130.258 21.9467 129.298 22.18 128.245 22.18ZM128.245 20.2C128.832 20.2 129.378 20.06 129.885 19.78C130.405 19.5 130.825 19.08 131.145 18.52C131.465 17.96 131.625 17.28 131.625 16.48C131.625 15.68 131.472 15.0067 131.165 14.46C130.858 13.9 130.452 13.48 129.945 13.2C129.438 12.92 128.892 12.78 128.305 12.78C127.718 12.78 127.172 12.92 126.665 13.2C126.172 13.48 125.778 13.9 125.485 14.46C125.192 15.0067 125.045 15.68 125.045 16.48C125.045 17.6667 125.345 18.5867 125.945 19.24C126.558 19.88 127.325 20.2 128.245 20.2ZM135.459 16.44C135.459 15.3333 135.685 14.3533 136.139 13.5C136.605 12.6467 137.232 11.9867 138.019 11.52C138.819 11.04 139.699 10.8 140.659 10.8C141.525 10.8 142.279 10.9733 142.919 11.32C143.572 11.6533 144.092 12.0733 144.479 12.58V10.98H146.779V22H144.479V20.36C144.092 20.88 143.565 21.3133 142.899 21.66C142.232 22.0067 141.472 22.18 140.619 22.18C139.672 22.18 138.805 21.94 138.019 21.46C137.232 20.9667 136.605 20.2867 136.139 19.42C135.685 18.54 135.459 17.5467 135.459 16.44ZM144.479 16.48C144.479 15.72 144.319 15.06 143.999 14.5C143.692 13.94 143.285 13.5133 142.779 13.22C142.272 12.9267 141.725 12.78 141.139 12.78C140.552 12.78 140.005 12.9267 139.499 13.22C138.992 13.5 138.579 13.92 138.259 14.48C137.952 15.0267 137.799 15.68 137.799 16.44C137.799 17.2 137.952 17.8667 138.259 18.44C138.579 19.0133 138.992 19.4533 139.499 19.76C140.019 20.0533 140.565 20.2 141.139 20.2C141.725 20.2 142.272 20.0533 142.779 19.76C143.285 19.4667 143.692 19.04 143.999 18.48C144.319 17.9067 144.479 17.24 144.479 16.48ZM149.013 16.44C149.013 15.3333 149.24 14.3533 149.693 13.5C150.16 12.6467 150.787 11.9867 151.573 11.52C152.373 11.04 153.26 10.8 154.233 10.8C154.953 10.8 155.66 10.96 156.353 11.28C157.06 11.5867 157.62 12 158.033 12.52V7.2H160.333V22H158.033V20.34C157.66 20.8733 157.14 21.3133 156.473 21.66C155.82 22.0067 155.067 22.18 154.213 22.18C153.253 22.18 152.373 21.94 151.573 21.46C150.787 20.9667 150.16 20.2867 149.693 19.42C149.24 18.54 149.013 17.5467 149.013 16.44ZM158.033 16.48C158.033 15.72 157.873 15.06 157.553 14.5C157.247 13.94 156.84 13.5133 156.333 13.22C155.827 12.9267 155.28 12.78 154.693 12.78C154.107 12.78 153.56 12.9267 153.053 13.22C152.547 13.5 152.133 13.92 151.813 14.48C151.507 15.0267 151.353 15.68 151.353 16.44C151.353 17.2 151.507 17.8667 151.813 18.44C152.133 19.0133 152.547 19.4533 153.053 19.76C153.573 20.0533 154.12 20.2 154.693 20.2C155.28 20.2 155.827 20.0533 156.333 19.76C156.84 19.4667 157.247 19.04 157.553 18.48C157.873 17.9067 158.033 17.24 158.033 16.48ZM173.303 22.18C172.263 22.18 171.323 21.9467 170.483 21.48C169.643 21 168.983 20.3333 168.503 19.48C168.023 18.6133 167.783 17.6133 167.783 16.48C167.783 15.36 168.03 14.3667 168.523 13.5C169.017 12.6333 169.69 11.9667 170.543 11.5C171.397 11.0333 172.35 10.8 173.403 10.8C174.457 10.8 175.41 11.0333 176.263 11.5C177.117 11.9667 177.79 12.6333 178.283 13.5C178.777 14.3667 179.023 15.36 179.023 16.48C179.023 17.6 178.77 18.5933 178.263 19.46C177.757 20.3267 177.063 21 176.183 21.48C175.317 21.9467 174.357 22.18 173.303 22.18ZM173.303 20.2C173.89 20.2 174.437 20.06 174.943 19.78C175.463 19.5 175.883 19.08 176.203 18.52C176.523 17.96 176.683 17.28 176.683 16.48C176.683 15.68 176.53 15.0067 176.223 14.46C175.917 13.9 175.51 13.48 175.003 13.2C174.497 12.92 173.95 12.78 173.363 12.78C172.777 12.78 172.23 12.92 171.723 13.2C171.23 13.48 170.837 13.9 170.543 14.46C170.25 15.0067 170.103 15.68 170.103 16.48C170.103 17.6667 170.403 18.5867 171.003 19.24C171.617 19.88 172.383 20.2 173.303 20.2ZM186.837 10.8C187.704 10.8 188.477 10.98 189.157 11.34C189.851 11.7 190.391 12.2333 190.777 12.94C191.164 13.6467 191.357 14.5 191.357 15.5V22H189.097V15.84C189.097 14.8533 188.851 14.1 188.357 13.58C187.864 13.0467 187.191 12.78 186.337 12.78C185.484 12.78 184.804 13.0467 184.297 13.58C183.804 14.1 183.557 14.8533 183.557 15.84V22H181.277V10.98H183.557V12.24C183.931 11.7867 184.404 11.4333 184.977 11.18C185.564 10.9267 186.184 10.8 186.837 10.8ZM202.121 12.84V18.94C202.121 19.3533 202.214 19.6533 202.401 19.84C202.601 20.0133 202.934 20.1 203.401 20.1H204.801V22H203.001C201.974 22 201.188 21.76 200.641 21.28C200.094 20.8 199.821 20.02 199.821 18.94V12.84H198.521V10.98H199.821V8.24H202.121V10.98H204.801V12.84H202.121ZM212.602 10.8C213.442 10.8 214.189 10.98 214.842 11.34C215.509 11.7 216.029 12.2333 216.402 12.94C216.789 13.6467 216.982 14.5 216.982 15.5V22H214.722V15.84C214.722 14.8533 214.476 14.1 213.982 13.58C213.489 13.0467 212.816 12.78 211.962 12.78C211.109 12.78 210.429 13.0467 209.922 13.58C209.429 14.1 209.182 14.8533 209.182 15.84V22H206.902V7.2H209.182V12.26C209.569 11.7933 210.056 11.4333 210.642 11.18C211.242 10.9267 211.896 10.8 212.602 10.8ZM229.991 16.22C229.991 16.6333 229.964 17.0067 229.911 17.34H221.491C221.557 18.22 221.884 18.9267 222.471 19.46C223.057 19.9933 223.777 20.26 224.631 20.26C225.857 20.26 226.724 19.7467 227.231 18.72H229.691C229.357 19.7333 228.751 20.5667 227.871 21.22C227.004 21.86 225.924 22.18 224.631 22.18C223.577 22.18 222.631 21.9467 221.791 21.48C220.964 21 220.311 20.3333 219.831 19.48C219.364 18.6133 219.131 17.6133 219.131 16.48C219.131 15.3467 219.357 14.3533 219.811 13.5C220.277 12.6333 220.924 11.9667 221.751 11.5C222.591 11.0333 223.551 10.8 224.631 10.8C225.671 10.8 226.597 11.0267 227.411 11.48C228.224 11.9333 228.857 12.5733 229.311 13.4C229.764 14.2133 229.991 15.1533 229.991 16.22ZM227.611 15.5C227.597 14.66 227.297 13.9867 226.711 13.48C226.124 12.9733 225.397 12.72 224.531 12.72C223.744 12.72 223.071 12.9733 222.511 13.48C221.951 13.9733 221.617 14.6467 221.511 15.5H227.611Z" fill="#333333"/>
<path d="M74.9186 51.74H66.1886L64.6886 56H61.1186L68.5886 35.12H72.5486L80.0186 56H76.4186L74.9186 51.74ZM73.9586 48.95L70.5686 39.26L67.1486 48.95H73.9586ZM86.6866 41.9C87.2666 41.14 88.0566 40.5 89.0566 39.98C90.0566 39.46 91.1866 39.2 92.4466 39.2C93.8866 39.2 95.1966 39.56 96.3766 40.28C97.5766 40.98 98.5166 41.97 99.1966 43.25C99.8766 44.53 100.217 46 100.217 47.66C100.217 49.32 99.8766 50.81 99.1966 52.13C98.5166 53.43 97.5766 54.45 96.3766 55.19C95.1966 55.91 93.8866 56.27 92.4466 56.27C91.1866 56.27 90.0666 56.02 89.0866 55.52C88.1066 55 87.3066 54.36 86.6866 53.6V63.86H83.2666V39.47H86.6866V41.9ZM96.7366 47.66C96.7366 46.52 96.4966 45.54 96.0166 44.72C95.5566 43.88 94.9366 43.25 94.1566 42.83C93.3966 42.39 92.5766 42.17 91.6966 42.17C90.8366 42.17 90.0166 42.39 89.2366 42.83C88.4766 43.27 87.8566 43.91 87.3766 44.75C86.9166 45.59 86.6866 46.58 86.6866 47.72C86.6866 48.86 86.9166 49.86 87.3766 50.72C87.8566 51.56 88.4766 52.2 89.2366 52.64C90.0166 53.08 90.8366 53.3 91.6966 53.3C92.5766 53.3 93.3966 53.08 94.1566 52.64C94.9366 52.18 95.5566 51.52 96.0166 50.66C96.4966 49.8 96.7366 48.8 96.7366 47.66ZM107.019 41.9C107.599 41.14 108.389 40.5 109.389 39.98C110.389 39.46 111.519 39.2 112.779 39.2C114.219 39.2 115.529 39.56 116.709 40.28C117.909 40.98 118.849 41.97 119.529 43.25C120.209 44.53 120.549 46 120.549 47.66C120.549 49.32 120.209 50.81 119.529 52.13C118.849 53.43 117.909 54.45 116.709 55.19C115.529 55.91 114.219 56.27 112.779 56.27C111.519 56.27 110.399 56.02 109.419 55.52C108.439 55 107.639 54.36 107.019 53.6V63.86H103.599V39.47H107.019V41.9ZM117.069 47.66C117.069 46.52 116.829 45.54 116.349 44.72C115.889 43.88 115.269 43.25 114.489 42.83C113.729 42.39 112.909 42.17 112.029 42.17C111.169 42.17 110.349 42.39 109.569 42.83C108.809 43.27 108.189 43.91 107.709 44.75C107.249 45.59 107.019 46.58 107.019 47.72C107.019 48.86 107.249 49.86 107.709 50.72C108.189 51.56 108.809 52.2 109.569 52.64C110.349 53.08 111.169 53.3 112.029 53.3C112.909 53.3 113.729 53.08 114.489 52.64C115.269 52.18 115.889 51.52 116.349 50.66C116.829 49.8 117.069 48.8 117.069 47.66ZM138.594 56.21C137.194 56.21 135.934 55.97 134.814 55.49C133.694 54.99 132.814 54.29 132.174 53.39C131.534 52.49 131.214 51.44 131.214 50.24H134.874C134.954 51.14 135.304 51.88 135.924 52.46C136.564 53.04 137.454 53.33 138.594 53.33C139.774 53.33 140.694 53.05 141.354 52.49C142.014 51.91 142.344 51.17 142.344 50.27C142.344 49.57 142.134 49 141.714 48.56C141.314 48.12 140.804 47.78 140.184 47.54C139.584 47.3 138.744 47.04 137.664 46.76C136.304 46.4 135.194 46.04 134.334 45.68C133.494 45.3 132.774 44.72 132.174 43.94C131.574 43.16 131.274 42.12 131.274 40.82C131.274 39.62 131.574 38.57 132.174 37.67C132.774 36.77 133.614 36.08 134.694 35.6C135.774 35.12 137.024 34.88 138.444 34.88C140.464 34.88 142.114 35.39 143.394 36.41C144.694 37.41 145.414 38.79 145.554 40.55H141.774C141.714 39.79 141.354 39.14 140.694 38.6C140.034 38.06 139.164 37.79 138.084 37.79C137.104 37.79 136.304 38.04 135.684 38.54C135.064 39.04 134.754 39.76 134.754 40.7C134.754 41.34 134.944 41.87 135.324 42.29C135.724 42.69 136.224 43.01 136.824 43.25C137.424 43.49 138.244 43.75 139.284 44.03C140.664 44.41 141.784 44.79 142.644 45.17C143.524 45.55 144.264 46.14 144.864 46.94C145.484 47.72 145.794 48.77 145.794 50.09C145.794 51.15 145.504 52.15 144.924 53.09C144.364 54.03 143.534 54.79 142.434 55.37C141.354 55.93 140.074 56.21 138.594 56.21ZM153.819 42.26V51.41C153.819 52.03 153.959 52.48 154.239 52.76C154.539 53.02 155.039 53.15 155.739 53.15H157.839V56H155.139C153.599 56 152.419 55.64 151.599 54.92C150.779 54.2 150.369 53.03 150.369 51.41V42.26H148.419V39.47H150.369V35.36H153.819V39.47H157.839V42.26H153.819ZM168.161 56.27C166.601 56.27 165.191 55.92 163.931 55.22C162.671 54.5 161.681 53.5 160.961 52.22C160.241 50.92 159.881 49.42 159.881 47.72C159.881 46.04 160.251 44.55 160.991 43.25C161.731 41.95 162.741 40.95 164.021 40.25C165.301 39.55 166.731 39.2 168.311 39.2C169.891 39.2 171.321 39.55 172.601 40.25C173.881 40.95 174.891 41.95 175.631 43.25C176.371 44.55 176.741 46.04 176.741 47.72C176.741 49.4 176.361 50.89 175.601 52.19C174.841 53.49 173.801 54.5 172.481 55.22C171.181 55.92 169.741 56.27 168.161 56.27ZM168.161 53.3C169.041 53.3 169.861 53.09 170.621 52.67C171.401 52.25 172.031 51.62 172.511 50.78C172.991 49.94 173.231 48.92 173.231 47.72C173.231 46.52 173.001 45.51 172.541 44.69C172.081 43.85 171.471 43.22 170.711 42.8C169.951 42.38 169.131 42.17 168.251 42.17C167.371 42.17 166.551 42.38 165.791 42.8C165.051 43.22 164.461 43.85 164.021 44.69C163.581 45.51 163.361 46.52 163.361 47.72C163.361 49.5 163.811 50.88 164.711 51.86C165.631 52.82 166.781 53.3 168.161 53.3ZM183.542 41.87C184.042 41.03 184.702 40.38 185.522 39.92C186.362 39.44 187.352 39.2 188.492 39.2V42.74H187.622C186.282 42.74 185.262 43.08 184.562 43.76C183.882 44.44 183.542 45.62 183.542 47.3V56H180.122V39.47H183.542V41.87ZM206.786 47.33C206.786 47.95 206.746 48.51 206.666 49.01H194.036C194.136 50.33 194.626 51.39 195.506 52.19C196.386 52.99 197.466 53.39 198.746 53.39C200.586 53.39 201.886 52.62 202.646 51.08H206.336C205.836 52.6 204.926 53.85 203.606 54.83C202.306 55.79 200.686 56.27 198.746 56.27C197.166 56.27 195.746 55.92 194.486 55.22C193.246 54.5 192.266 53.5 191.546 52.22C190.846 50.92 190.496 49.42 190.496 47.72C190.496 46.02 190.836 44.53 191.516 43.25C192.216 41.95 193.186 40.95 194.426 40.25C195.686 39.55 197.126 39.2 198.746 39.2C200.306 39.2 201.696 39.54 202.916 40.22C204.136 40.9 205.086 41.86 205.766 43.1C206.446 44.32 206.786 45.73 206.786 47.33ZM203.216 46.25C203.196 44.99 202.746 43.98 201.866 43.22C200.986 42.46 199.896 42.08 198.596 42.08C197.416 42.08 196.406 42.46 195.566 43.22C194.726 43.96 194.226 44.97 194.066 46.25H203.216Z" fill="#333333"/>
<path d="M31.7969 14H8.20312C3.67992 14 0 17.6799 0 22.2031V45.7969C0 50.3201 3.67992 54 8.20312 54H31.7969C36.3201 54 40 50.3201 40 45.7969V22.2031C40 17.6799 36.3201 14 31.7969 14ZM12.3163 44.8215C11.955 45.4473 11.2971 45.7976 10.6216 45.7977C10.2904 45.7977 9.95508 45.7135 9.64828 45.5364C8.71562 44.998 8.39492 43.8011 8.93336 42.8684L9.3175 42.2031H13.828L12.3163 44.8215ZM8.63281 40.6406C7.55586 40.6406 6.67969 39.7645 6.67969 38.6875C6.67969 37.6105 7.55586 36.7344 8.63281 36.7344H12.4748L17.7447 27.6067L16.3165 25.133C15.778 24.2003 16.0987 23.0034 17.0313 22.4649H17.0314C17.9641 21.9265 19.1609 22.2473 19.6994 23.1798L20 23.7005L20.3006 23.1799C20.8393 22.2472 22.0362 21.9266 22.9686 22.465C23.4204 22.7259 23.7436 23.147 23.8786 23.6509C24.0137 24.1548 23.9443 24.6813 23.6834 25.133L16.9854 36.7344H21.2103L23.4656 40.6406H8.63281ZM31.3672 40.6406H29.7804L31.0666 42.8684C31.6051 43.8009 31.2844 44.9978 30.3518 45.5363C30.0508 45.7101 29.7167 45.7989 29.3783 45.7989C29.2086 45.7989 29.038 45.7766 28.8696 45.7315C28.3656 45.5964 27.9445 45.2732 27.6836 44.8213L20.902 33.0754L23.1573 29.1691L27.5252 36.7344H31.3672C32.4441 36.7344 33.3203 37.6105 33.3203 38.6875C33.3203 39.7645 32.4441 40.6406 31.3672 40.6406Z" fill="black"/>
</svg>
