<svg width="240" height="68" viewBox="0 0 240 68" fill="none" xmlns="http://www.w3.org/2000/svg">
<path d="M71.9116 12.1C71.5516 11.4067 71.0516 10.8867 70.4116 10.54C69.7716 10.18 69.0316 10 68.1916 10C67.2716 10 66.4516 10.2067 65.7316 10.62C65.0116 11.0333 64.4449 11.62 64.0316 12.38C63.6316 13.14 63.4316 14.02 63.4316 15.02C63.4316 16.02 63.6316 16.9067 64.0316 17.68C64.4449 18.44 65.0116 19.0267 65.7316 19.44C66.4516 19.8533 67.2716 20.06 68.1916 20.06C69.4316 20.06 70.4382 19.7133 71.2116 19.02C71.9849 18.3267 72.4582 17.3867 72.6316 16.2H67.4116V14.38H75.0716V16.16C74.9249 17.24 74.5382 18.2333 73.9116 19.14C73.2982 20.0467 72.4916 20.7733 71.4916 21.32C70.5049 21.8533 69.4049 22.12 68.1916 22.12C66.8849 22.12 65.6916 21.82 64.6116 21.22C63.5316 20.6067 62.6716 19.76 62.0316 18.68C61.4049 17.6 61.0916 16.38 61.0916 15.02C61.0916 13.66 61.4049 12.44 62.0316 11.36C62.6716 10.28 63.5316 9.44 64.6116 8.84C65.7049 8.22667 66.8982 7.92 68.1916 7.92C69.6716 7.92 70.9849 8.28667 72.1316 9.02C73.2916 9.74 74.1316 10.7667 74.6516 12.1H71.9116ZM79.6003 9.94V14.02H84.4003V15.88H79.6003V20.14H85.0003V22H77.3203V8.08H85.0003V9.94H79.6003ZM96.7886 8.1V9.96H93.0886V22H90.8086V9.96H87.0886V8.1H96.7886ZM106.573 8.1V22H104.293V8.1H106.573ZM118.546 8.1V9.96H114.846V22H112.566V9.96H108.846V8.1H118.546ZM132.391 22.14C131.097 22.14 129.904 21.84 128.811 21.24C127.731 20.6267 126.871 19.78 126.231 18.7C125.604 17.6067 125.291 16.38 125.291 15.02C125.291 13.66 125.604 12.44 126.231 11.36C126.871 10.28 127.731 9.44 128.811 8.84C129.904 8.22667 131.097 7.92 132.391 7.92C133.697 7.92 134.891 8.22667 135.971 8.84C137.064 9.44 137.924 10.28 138.551 11.36C139.177 12.44 139.491 13.66 139.491 15.02C139.491 16.38 139.177 17.6067 138.551 18.7C137.924 19.78 137.064 20.6267 135.971 21.24C134.891 21.84 133.697 22.14 132.391 22.14ZM132.391 20.16C133.311 20.16 134.131 19.9533 134.851 19.54C135.571 19.1133 136.131 18.5133 136.531 17.74C136.944 16.9533 137.151 16.0467 137.151 15.02C137.151 13.9933 136.944 13.0933 136.531 12.32C136.131 11.5467 135.571 10.9533 134.851 10.54C134.131 10.1267 133.311 9.92 132.391 9.92C131.471 9.92 130.651 10.1267 129.931 10.54C129.211 10.9533 128.644 11.5467 128.231 12.32C127.831 13.0933 127.631 13.9933 127.631 15.02C127.631 16.0467 127.831 16.9533 128.231 17.74C128.644 18.5133 129.211 19.1133 129.931 19.54C130.651 19.9533 131.471 20.16 132.391 20.16ZM153.154 22H150.874L144.014 11.62V22H141.734V8.08H144.014L150.874 18.44V8.08H153.154V22Z" fill="#333333"/>
<path d="M77.5597 41.15C77.0197 40.11 76.2697 39.33 75.3097 38.81C74.3497 38.27 73.2397 38 71.9797 38C70.5997 38 69.3697 38.31 68.2897 38.93C67.2097 39.55 66.3597 40.43 65.7397 41.57C65.1397 42.71 64.8397 44.03 64.8397 45.53C64.8397 47.03 65.1397 48.36 65.7397 49.52C66.3597 50.66 67.2097 51.54 68.2897 52.16C69.3697 52.78 70.5997 53.09 71.9797 53.09C73.8397 53.09 75.3497 52.57 76.5097 51.53C77.6697 50.49 78.3797 49.08 78.6397 47.3H70.8097V44.57H82.2997V47.24C82.0797 48.86 81.4997 50.35 80.5597 51.71C79.6397 53.07 78.4297 54.16 76.9297 54.98C75.4497 55.78 73.7997 56.18 71.9797 56.18C70.0197 56.18 68.2297 55.73 66.6097 54.83C64.9897 53.91 63.6997 52.64 62.7397 51.02C61.7997 49.4 61.3297 47.57 61.3297 45.53C61.3297 43.49 61.7997 41.66 62.7397 40.04C63.6997 38.42 64.9897 37.16 66.6097 36.26C68.2497 35.34 70.0397 34.88 71.9797 34.88C74.1997 34.88 76.1697 35.43 77.8897 36.53C79.6297 37.61 80.8897 39.15 81.6697 41.15H77.5597ZM92.8429 56.27C91.2829 56.27 89.8729 55.92 88.6129 55.22C87.3529 54.5 86.3629 53.5 85.6429 52.22C84.9229 50.92 84.5629 49.42 84.5629 47.72C84.5629 46.04 84.9329 44.55 85.6729 43.25C86.4129 41.95 87.4229 40.95 88.7029 40.25C89.9829 39.55 91.4129 39.2 92.9929 39.2C94.5729 39.2 96.0029 39.55 97.2829 40.25C98.5629 40.95 99.5729 41.95 100.313 43.25C101.053 44.55 101.423 46.04 101.423 47.72C101.423 49.4 101.043 50.89 100.283 52.19C99.5229 53.49 98.4829 54.5 97.1629 55.22C95.8629 55.92 94.4229 56.27 92.8429 56.27ZM92.8429 53.3C93.7229 53.3 94.5429 53.09 95.3029 52.67C96.0829 52.25 96.7129 51.62 97.1929 50.78C97.6729 49.94 97.9129 48.92 97.9129 47.72C97.9129 46.52 97.6829 45.51 97.2229 44.69C96.7629 43.85 96.1529 43.22 95.3929 42.8C94.6329 42.38 93.8129 42.17 92.9329 42.17C92.0529 42.17 91.2329 42.38 90.4729 42.8C89.7329 43.22 89.1429 43.85 88.7029 44.69C88.2629 45.51 88.0429 46.52 88.0429 47.72C88.0429 49.5 88.4929 50.88 89.3929 51.86C90.3129 52.82 91.4629 53.3 92.8429 53.3ZM111.974 56.27C110.414 56.27 109.004 55.92 107.744 55.22C106.484 54.5 105.494 53.5 104.774 52.22C104.054 50.92 103.694 49.42 103.694 47.72C103.694 46.04 104.064 44.55 104.804 43.25C105.544 41.95 106.554 40.95 107.834 40.25C109.114 39.55 110.544 39.2 112.124 39.2C113.704 39.2 115.134 39.55 116.414 40.25C117.694 40.95 118.704 41.95 119.444 43.25C120.184 44.55 120.554 46.04 120.554 47.72C120.554 49.4 120.174 50.89 119.414 52.19C118.654 53.49 117.614 54.5 116.294 55.22C114.994 55.92 113.554 56.27 111.974 56.27ZM111.974 53.3C112.854 53.3 113.674 53.09 114.434 52.67C115.214 52.25 115.844 51.62 116.324 50.78C116.804 49.94 117.044 48.92 117.044 47.72C117.044 46.52 116.814 45.51 116.354 44.69C115.894 43.85 115.284 43.22 114.524 42.8C113.764 42.38 112.944 42.17 112.064 42.17C111.184 42.17 110.364 42.38 109.604 42.8C108.864 43.22 108.274 43.85 107.834 44.69C107.394 45.51 107.174 46.52 107.174 47.72C107.174 49.5 107.624 50.88 108.524 51.86C109.444 52.82 110.594 53.3 111.974 53.3ZM130.595 39.2C131.875 39.2 133.005 39.46 133.985 39.98C134.985 40.48 135.765 41.11 136.325 41.87V39.47H139.775V56.27C139.775 57.79 139.455 59.14 138.815 60.32C138.175 61.52 137.245 62.46 136.025 63.14C134.825 63.82 133.385 64.16 131.705 64.16C129.465 64.16 127.605 63.63 126.125 62.57C124.645 61.53 123.805 60.11 123.605 58.31H126.995C127.255 59.17 127.805 59.86 128.645 60.38C129.505 60.92 130.525 61.19 131.705 61.19C133.085 61.19 134.195 60.77 135.035 59.93C135.895 59.09 136.325 57.87 136.325 56.27V53.51C135.745 54.29 134.955 54.95 133.955 55.49C132.975 56.01 131.855 56.27 130.595 56.27C129.155 56.27 127.835 55.91 126.635 55.19C125.455 54.45 124.515 53.43 123.815 52.13C123.135 50.81 122.795 49.32 122.795 47.66C122.795 46 123.135 44.53 123.815 43.25C124.515 41.97 125.455 40.98 126.635 40.28C127.835 39.56 129.155 39.2 130.595 39.2ZM136.325 47.72C136.325 46.58 136.085 45.59 135.605 44.75C135.145 43.91 134.535 43.27 133.775 42.83C133.015 42.39 132.195 42.17 131.315 42.17C130.435 42.17 129.615 42.39 128.855 42.83C128.095 43.25 127.475 43.88 126.995 44.72C126.535 45.54 126.305 46.52 126.305 47.66C126.305 48.8 126.535 49.8 126.995 50.66C127.475 51.52 128.095 52.18 128.855 52.64C129.635 53.08 130.455 53.3 131.315 53.3C132.195 53.3 133.015 53.08 133.775 52.64C134.535 52.2 135.145 51.56 135.605 50.72C136.085 49.86 136.325 48.86 136.325 47.72ZM147.687 33.8V56H144.267V33.8H147.687ZM167.327 47.33C167.327 47.95 167.287 48.51 167.207 49.01H154.577C154.677 50.33 155.167 51.39 156.047 52.19C156.927 52.99 158.007 53.39 159.287 53.39C161.127 53.39 162.427 52.62 163.187 51.08H166.877C166.377 52.6 165.467 53.85 164.147 54.83C162.847 55.79 161.227 56.27 159.287 56.27C157.707 56.27 156.287 55.92 155.027 55.22C153.787 54.5 152.807 53.5 152.087 52.22C151.387 50.92 151.037 49.42 151.037 47.72C151.037 46.02 151.377 44.53 152.057 43.25C152.757 41.95 153.727 40.95 154.967 40.25C156.227 39.55 157.667 39.2 159.287 39.2C160.847 39.2 162.237 39.54 163.457 40.22C164.677 40.9 165.627 41.86 166.307 43.1C166.987 44.32 167.327 45.73 167.327 47.33ZM163.757 46.25C163.737 44.99 163.287 43.98 162.407 43.22C161.527 42.46 160.437 42.08 159.137 42.08C157.957 42.08 156.947 42.46 156.107 43.22C155.267 43.96 154.767 44.97 154.607 46.25H163.757ZM193.065 41.36C193.065 42.42 192.815 43.42 192.315 44.36C191.815 45.3 191.015 46.07 189.915 46.67C188.815 47.25 187.405 47.54 185.685 47.54H181.905V56H178.485V35.15H185.685C187.285 35.15 188.635 35.43 189.735 35.99C190.855 36.53 191.685 37.27 192.225 38.21C192.785 39.15 193.065 40.2 193.065 41.36ZM185.685 44.75C186.985 44.75 187.955 44.46 188.595 43.88C189.235 43.28 189.555 42.44 189.555 41.36C189.555 39.08 188.265 37.94 185.685 37.94H181.905V44.75H185.685ZM199.747 33.8V56H196.327V33.8H199.747ZM203.097 47.66C203.097 46 203.437 44.53 204.117 43.25C204.817 41.97 205.757 40.98 206.937 40.28C208.137 39.56 209.457 39.2 210.897 39.2C212.197 39.2 213.327 39.46 214.287 39.98C215.267 40.48 216.047 41.11 216.627 41.87V39.47H220.077V56H216.627V53.54C216.047 54.32 215.257 54.97 214.257 55.49C213.257 56.01 212.117 56.27 210.837 56.27C209.417 56.27 208.117 55.91 206.937 55.19C205.757 54.45 204.817 53.43 204.117 52.13C203.437 50.81 203.097 49.32 203.097 47.66ZM216.627 47.72C216.627 46.58 216.387 45.59 215.907 44.75C215.447 43.91 214.837 43.27 214.077 42.83C213.317 42.39 212.497 42.17 211.617 42.17C210.737 42.17 209.917 42.39 209.157 42.83C208.397 43.25 207.777 43.88 207.297 44.72C206.837 45.54 206.607 46.52 206.607 47.66C206.607 48.8 206.837 49.8 207.297 50.66C207.777 51.52 208.397 52.18 209.157 52.64C209.937 53.08 210.757 53.3 211.617 53.3C212.497 53.3 213.317 53.08 214.077 52.64C214.837 52.2 215.447 51.56 215.907 50.72C216.387 49.86 216.627 48.86 216.627 47.72ZM239.449 39.47L229.309 63.77H225.769L229.129 55.73L222.619 39.47H226.429L231.079 52.07L235.909 39.47H239.449Z" fill="#333333"/>
<g clip-path="url(#clip0)">
<path d="M29.8727 29.7211C25.2259 27.1221 17.7678 22.9487 6.19965 16.4715C5.41973 15.9564 4.52238 15.8889 3.74707 16.1513L23.5948 35.999L29.8727 29.7211Z" fill="#32BBFF"/>
<path d="M3.74711 16.1509C3.6018 16.2001 3.46039 16.2595 3.32516 16.3312C2.46899 16.7943 1.83984 17.6855 1.83984 18.8126V53.1846C1.83984 54.3117 2.46891 55.2028 3.32516 55.6659C3.46016 55.7375 3.60149 55.7971 3.74664 55.8467L23.5948 35.9986L3.74711 16.1509Z" fill="#32BBFF"/>
<path d="M23.5947 35.9985L3.74658 55.8466C4.52213 56.111 5.41948 56.0487 6.19963 55.5261C17.4183 49.244 24.7923 45.1201 29.4928 42.499C29.6237 42.4255 29.7519 42.3536 29.8786 42.2825L23.5947 35.9985Z" fill="#32BBFF"/>
<path d="M1.83984 35.9985V53.1845C1.83984 54.3116 2.46891 55.2028 3.32516 55.6658C3.46016 55.7375 3.60149 55.7971 3.74664 55.8466L23.5948 35.9985H1.83984Z" fill="#2C9FD9"/>
<path d="M6.19973 16.4709C5.27356 15.8594 4.18137 15.8768 3.3252 16.3312L23.2936 36.2996L29.8727 29.7206C25.226 27.1216 17.7679 22.9482 6.19973 16.4709Z" fill="#29CC5E"/>
<path d="M23.2937 35.6975L3.3252 55.6659C4.18145 56.1202 5.27356 56.1465 6.19973 55.5261C17.4183 49.2441 24.7924 45.1202 29.4929 42.4991C29.6238 42.4256 29.752 42.3537 29.8787 42.2825L23.2937 35.6975Z" fill="#D93F21"/>
<path d="M38.1602 35.9984C38.1602 35.046 37.6796 34.085 36.7272 33.552C36.7272 33.552 34.946 32.5582 29.4864 29.5044L22.9924 35.9984L29.4928 42.4988C34.8925 39.467 36.7271 38.4447 36.7271 38.4447C37.6796 37.9118 38.1602 36.9507 38.1602 35.9984Z" fill="#FFD500"/>
<path d="M36.7272 38.4449C37.6796 37.912 38.1602 36.9509 38.1602 35.9985H22.9924L29.4928 42.4989C34.8925 39.4672 36.7272 38.4449 36.7272 38.4449Z" fill="#FFAA00"/>
</g>
<defs>
<clipPath id="clip0">
<rect width="40" height="40" fill="white" transform="translate(0 16)"/>
</clipPath>
</defs>
</svg>
