<svg width="300" height="397" viewBox="0 0 300 397" fill="none" xmlns="http://www.w3.org/2000/svg">
<rect x="0.5" y="0.5" width="299" height="396" fill="white" stroke="#DADADA"/>
<rect x="103" y="67" width="106" height="110" rx="5" fill="#DADADA" fill-opacity="0.3"/>
<path d="M188.138 108.88C187.434 108.11 186.361 107.78 185.465 107.635C186.127 106.76 186.519 105.719 186.519 104.597C186.519 101.524 183.627 99.0222 180.074 99.0222C177.65 99.0222 175.481 100.193 174.375 102.028L166.102 102.587C164.836 102.587 163.679 103.18 163.157 104.098C162.649 104.987 162.479 106.457 164.562 108.407C164.948 108.769 165.266 109.084 165.555 109.379C162.996 110.219 161.536 111.639 160.786 113.971C160.785 113.973 160.784 113.976 160.783 113.978C160.781 113.985 160.778 113.99 160.776 113.997C160.409 115.154 158.747 116.174 157.647 116.71C157.245 116.192 156.866 115.652 156.548 115.071L156.056 114.159C153.924 110.193 152.09 106.77 145.686 108.352C140.748 109.575 128.651 113.475 123.678 115.096C123.077 115.292 122.648 115.736 122.531 116.284C122.415 116.835 122.637 117.387 123.127 117.758C123.495 118.037 123.944 118.176 124.452 118.152L127.039 118.022C127.405 118.005 127.769 117.943 128.122 117.835C128.947 117.584 129.858 117.577 130.686 117.82L131.008 117.914C132.376 118.314 133.855 118.014 134.872 117.134C135.477 116.614 136.27 116.318 137.109 116.3C139.566 116.247 143.604 115.991 147.329 114.994C147.795 117.422 149.319 123.881 152.743 126.858H128.679C128.187 126.858 127.786 127.205 127.786 127.631C127.786 128.056 128.187 128.403 128.679 128.403H156.568C156.581 128.403 156.592 128.407 156.605 128.407C156.632 128.407 156.66 128.403 156.688 128.403H177.517C178.009 128.403 178.41 128.057 178.41 127.631C178.41 127.205 178.009 126.858 177.517 126.858H161.636C162.747 126.047 163.738 124.857 164.281 123.102C165.424 122.398 168.416 120.559 169.321 120.073L175.581 116.716C177.264 115.68 177.82 113.747 176.901 112.117C176.861 112.047 176.802 111.984 176.756 111.917C177.64 110.241 179.235 110.127 179.323 110.122C179.323 110.122 179.323 110.121 179.323 110.121C179.571 110.147 179.82 110.173 180.074 110.173C181.224 110.173 182.29 109.889 183.226 109.43C183.197 110.234 182.875 111.618 181.429 113.607C181.056 114.122 180.741 114.698 180.486 115.322C179.255 118.366 180.871 121.794 184.243 123.293C184.243 123.295 184.245 123.295 184.245 123.295C184.26 123.303 184.472 123.389 184.487 123.395C184.6 123.438 184.722 123.461 184.844 123.461C185.029 123.461 185.214 123.41 185.369 123.312C185.626 123.15 185.763 122.883 185.731 122.609L185.641 121.858C185.389 119.738 185.794 117.673 186.813 115.885C187.571 114.557 188.172 113.225 188.604 111.93C189.013 110.69 188.859 109.663 188.138 108.88ZM157.062 126.843C152.31 127.235 149.761 118.57 149.036 114.474C149.768 114.219 150.475 113.931 151.14 113.603C151.569 113.392 151.719 112.921 151.475 112.552C151.234 112.179 150.68 112.055 150.26 112.262C146.017 114.348 139.618 114.702 137.065 114.758C135.769 114.785 134.543 115.24 133.61 116.041C133.077 116.505 132.295 116.665 131.58 116.452L131.258 116.358C130.047 116.002 128.725 116.013 127.531 116.378C127.34 116.437 127.141 116.471 126.939 116.48L124.308 116.539C129.258 114.926 141.301 111.045 146.178 109.837C151.112 108.61 152.29 110.817 154.438 114.811L154.936 115.73C156.98 119.475 160.945 122.069 162.422 122.946C162.428 122.97 162.448 122.991 162.458 123.015C161.092 126.801 157.325 126.839 157.062 126.843ZM163.48 121.701C162.593 121.182 160.545 119.87 158.716 117.954C159.685 117.463 161.105 116.596 161.947 115.431L167.362 119.347C166.158 120.056 164.444 121.107 163.48 121.701ZM174.594 115.431L168.928 118.468L162.673 113.944C163.347 112.234 164.543 111.265 166.714 110.669C167.169 111.243 167.336 111.579 167.393 111.738C167.596 112.312 167.833 112.761 168.138 113.143C169.192 114.477 170.569 115.21 172.015 115.21C172.024 115.21 172.03 115.21 172.037 115.21C172.531 115.207 172.927 114.86 172.925 114.434C172.921 114.008 172.522 113.665 172.032 113.665C172.03 113.665 172.028 113.665 172.028 113.665C172.024 113.665 172.019 113.665 172.015 113.665C170.941 113.665 170.113 112.908 169.608 112.271C169.408 112.019 169.246 111.708 169.1 111.288C168.919 110.778 168.466 110.119 167.799 109.346C167.775 109.314 167.75 109.286 167.721 109.259C167.221 108.687 166.626 108.065 165.873 107.359C165.104 106.64 164.285 105.607 164.755 104.78C164.982 104.386 165.509 104.132 166.171 104.128L174.779 103.546C175.053 103.557 176.528 103.823 177.72 104.058C178.014 104.123 178.249 104.309 178.349 104.558C178.445 104.795 178.386 105.178 178.312 105.455C178.201 105.46 178.046 105.458 177.905 105.447C177.166 105.151 176.354 104.995 175.543 104.995H170.166C169.499 104.995 168.913 105.343 168.672 105.882C168.432 106.423 168.597 107.022 169.068 107.389L174.762 112.209C175.003 112.396 175.184 112.593 175.297 112.795C175.84 113.756 175.533 114.852 174.594 115.431ZM174.371 107.172C174.075 107.454 173.389 107.84 171.985 107.699L170.615 106.54H174.037C174.131 106.759 174.247 106.968 174.371 107.172ZM175.488 110.665L173.723 109.171C174.482 109.019 175.04 108.735 175.426 108.434C175.838 108.806 176.305 109.124 176.816 109.384C176.351 109.684 175.888 110.101 175.488 110.665ZM180.074 108.627C178.402 108.627 176.915 107.817 176.09 106.595C176.494 106.646 176.891 106.732 177.256 106.89C177.345 106.928 177.439 106.954 177.537 106.966C178.268 107.054 179.554 107.071 179.911 106.227C179.963 106.101 180.405 104.974 180.035 104.051C179.736 103.308 179.033 102.751 178.133 102.559C177.383 102.41 176.803 102.301 176.348 102.221C177.213 101.204 178.567 100.567 180.074 100.567C182.644 100.567 184.733 102.374 184.733 104.597C184.733 106.82 182.644 108.627 180.074 108.627ZM186.887 111.504C186.487 112.712 185.925 113.955 185.215 115.203C184.184 117.01 183.699 119.056 183.797 121.168C182.098 119.838 181.401 117.735 182.17 115.832C182.381 115.316 182.64 114.843 182.941 114.427C184.733 111.96 185.066 110.191 185.023 109.134C185.652 109.225 186.365 109.426 186.744 109.841C187.081 110.212 187.131 110.773 186.887 111.504Z" fill="#F63541"/>
<path d="M72.06 195.06L68.02 209H65.98L62.74 197.78L59.38 209L57.36 209.02L53.46 195.06H55.4L58.44 206.88L61.8 195.06H63.84L67.04 206.84L70.1 195.06H72.06ZM78.8317 209.18C77.8051 209.18 76.8717 208.947 76.0317 208.48C75.2051 208.013 74.5517 207.353 74.0717 206.5C73.6051 205.633 73.3717 204.633 73.3717 203.5C73.3717 202.38 73.6117 201.393 74.0917 200.54C74.5851 199.673 75.2517 199.013 76.0917 198.56C76.9317 198.093 77.8717 197.86 78.9117 197.86C79.9517 197.86 80.8917 198.093 81.7317 198.56C82.5717 199.013 83.2317 199.667 83.7117 200.52C84.2051 201.373 84.4517 202.367 84.4517 203.5C84.4517 204.633 84.1984 205.633 83.6917 206.5C83.1984 207.353 82.5251 208.013 81.6717 208.48C80.8184 208.947 79.8717 209.18 78.8317 209.18ZM78.8317 207.58C79.4851 207.58 80.0984 207.427 80.6717 207.12C81.2451 206.813 81.7051 206.353 82.0517 205.74C82.4117 205.127 82.5917 204.38 82.5917 203.5C82.5917 202.62 82.4184 201.873 82.0717 201.26C81.7251 200.647 81.2717 200.193 80.7117 199.9C80.1517 199.593 79.5451 199.44 78.8917 199.44C78.2251 199.44 77.6117 199.593 77.0517 199.9C76.5051 200.193 76.0651 200.647 75.7317 201.26C75.3984 201.873 75.2317 202.62 75.2317 203.5C75.2317 204.393 75.3917 205.147 75.7117 205.76C76.0451 206.373 76.4851 206.833 77.0317 207.14C77.5784 207.433 78.1784 207.58 78.8317 207.58ZM88.6647 199.82C88.9847 199.193 89.438 198.707 90.0247 198.36C90.6247 198.013 91.3514 197.84 92.2047 197.84V199.72H91.7247C89.6847 199.72 88.6647 200.827 88.6647 203.04V209H86.8447V198.04H88.6647V199.82ZM100.426 209L96.1256 204.16V209H94.3056V194.2H96.1256V202.9L100.346 198.04H102.886L97.7256 203.5L102.906 209H100.426ZM109.379 209.18C108.352 209.18 107.419 208.947 106.579 208.48C105.752 208.013 105.099 207.353 104.619 206.5C104.152 205.633 103.919 204.633 103.919 203.5C103.919 202.38 104.159 201.393 104.639 200.54C105.132 199.673 105.799 199.013 106.639 198.56C107.479 198.093 108.419 197.86 109.459 197.86C110.499 197.86 111.439 198.093 112.279 198.56C113.119 199.013 113.779 199.667 114.259 200.52C114.752 201.373 114.999 202.367 114.999 203.5C114.999 204.633 114.745 205.633 114.239 206.5C113.745 207.353 113.072 208.013 112.219 208.48C111.365 208.947 110.419 209.18 109.379 209.18ZM109.379 207.58C110.032 207.58 110.645 207.427 111.219 207.12C111.792 206.813 112.252 206.353 112.599 205.74C112.959 205.127 113.139 204.38 113.139 203.5C113.139 202.62 112.965 201.873 112.619 201.26C112.272 200.647 111.819 200.193 111.259 199.9C110.699 199.593 110.092 199.44 109.439 199.44C108.772 199.44 108.159 199.593 107.599 199.9C107.052 200.193 106.612 200.647 106.279 201.26C105.945 201.873 105.779 202.62 105.779 203.5C105.779 204.393 105.939 205.147 106.259 205.76C106.592 206.373 107.032 206.833 107.579 207.14C108.125 207.433 108.725 207.58 109.379 207.58ZM127.112 198.04V209H125.292V207.38C124.945 207.94 124.458 208.38 123.832 208.7C123.218 209.007 122.538 209.16 121.792 209.16C120.938 209.16 120.172 208.987 119.492 208.64C118.812 208.28 118.272 207.747 117.872 207.04C117.485 206.333 117.292 205.473 117.292 204.46V198.04H119.092V204.22C119.092 205.3 119.365 206.133 119.912 206.72C120.458 207.293 121.205 207.58 122.152 207.58C123.125 207.58 123.892 207.28 124.452 206.68C125.012 206.08 125.292 205.207 125.292 204.06V198.04H127.112ZM132.405 199.54V206C132.405 206.533 132.518 206.913 132.745 207.14C132.971 207.353 133.365 207.46 133.925 207.46H135.265V209H133.625C132.611 209 131.851 208.767 131.345 208.3C130.838 207.833 130.585 207.067 130.585 206V199.54H129.165V198.04H130.585V195.28H132.405V198.04H135.265V199.54H132.405ZM152.122 199.14C152.122 200.3 151.722 201.267 150.922 202.04C150.135 202.8 148.928 203.18 147.302 203.18H144.622V209H142.802V195.06H147.302C148.875 195.06 150.068 195.44 150.882 196.2C151.708 196.96 152.122 197.94 152.122 199.14ZM147.302 201.68C148.315 201.68 149.062 201.46 149.542 201.02C150.022 200.58 150.262 199.953 150.262 199.14C150.262 197.42 149.275 196.56 147.302 196.56H144.622V201.68H147.302ZM156.204 199.82C156.524 199.193 156.977 198.707 157.564 198.36C158.164 198.013 158.89 197.84 159.744 197.84V199.72H159.264C157.224 199.72 156.204 200.827 156.204 203.04V209H154.384V198.04H156.204V199.82ZM166.625 209.18C165.598 209.18 164.665 208.947 163.825 208.48C162.998 208.013 162.345 207.353 161.865 206.5C161.398 205.633 161.165 204.633 161.165 203.5C161.165 202.38 161.405 201.393 161.885 200.54C162.378 199.673 163.045 199.013 163.885 198.56C164.725 198.093 165.665 197.86 166.705 197.86C167.745 197.86 168.685 198.093 169.525 198.56C170.365 199.013 171.025 199.667 171.505 200.52C171.998 201.373 172.245 202.367 172.245 203.5C172.245 204.633 171.991 205.633 171.485 206.5C170.991 207.353 170.318 208.013 169.465 208.48C168.611 208.947 167.665 209.18 166.625 209.18ZM166.625 207.58C167.278 207.58 167.891 207.427 168.465 207.12C169.038 206.813 169.498 206.353 169.845 205.74C170.205 205.127 170.385 204.38 170.385 203.5C170.385 202.62 170.211 201.873 169.865 201.26C169.518 200.647 169.065 200.193 168.505 199.9C167.945 199.593 167.338 199.44 166.685 199.44C166.018 199.44 165.405 199.593 164.845 199.9C164.298 200.193 163.858 200.647 163.525 201.26C163.191 201.873 163.025 202.62 163.025 203.5C163.025 204.393 163.185 205.147 163.505 205.76C163.838 206.373 164.278 206.833 164.825 207.14C165.371 207.433 165.971 207.58 166.625 207.58ZM179.158 197.86C180.104 197.86 180.931 198.067 181.638 198.48C182.358 198.893 182.891 199.413 183.238 200.04V198.04H185.078V209.24C185.078 210.24 184.864 211.127 184.438 211.9C184.011 212.687 183.398 213.3 182.598 213.74C181.811 214.18 180.891 214.4 179.838 214.4C178.398 214.4 177.198 214.06 176.238 213.38C175.278 212.7 174.711 211.773 174.538 210.6H176.338C176.538 211.267 176.951 211.8 177.578 212.2C178.204 212.613 178.958 212.82 179.838 212.82C180.838 212.82 181.651 212.507 182.278 211.88C182.918 211.253 183.238 210.373 183.238 209.24V206.94C182.878 207.58 182.344 208.113 181.638 208.54C180.931 208.967 180.104 209.18 179.158 209.18C178.184 209.18 177.298 208.94 176.498 208.46C175.711 207.98 175.091 207.307 174.638 206.44C174.184 205.573 173.958 204.587 173.958 203.48C173.958 202.36 174.184 201.38 174.638 200.54C175.091 199.687 175.711 199.027 176.498 198.56C177.298 198.093 178.184 197.86 179.158 197.86ZM183.238 203.5C183.238 202.673 183.071 201.953 182.738 201.34C182.404 200.727 181.951 200.26 181.378 199.94C180.818 199.607 180.198 199.44 179.518 199.44C178.838 199.44 178.218 199.6 177.658 199.92C177.098 200.24 176.651 200.707 176.318 201.32C175.984 201.933 175.818 202.653 175.818 203.48C175.818 204.32 175.984 205.053 176.318 205.68C176.651 206.293 177.098 206.767 177.658 207.1C178.218 207.42 178.838 207.58 179.518 207.58C180.198 207.58 180.818 207.42 181.378 207.1C181.951 206.767 182.404 206.293 182.738 205.68C183.071 205.053 183.238 204.327 183.238 203.5ZM189.973 199.82C190.293 199.193 190.747 198.707 191.333 198.36C191.933 198.013 192.66 197.84 193.513 197.84V199.72H193.033C190.993 199.72 189.973 200.827 189.973 203.04V209H188.153V198.04H189.973V199.82ZM194.934 203.48C194.934 202.36 195.161 201.38 195.614 200.54C196.068 199.687 196.688 199.027 197.474 198.56C198.274 198.093 199.161 197.86 200.134 197.86C201.094 197.86 201.928 198.067 202.634 198.48C203.341 198.893 203.868 199.413 204.214 200.04V198.04H206.054V209H204.214V206.96C203.854 207.6 203.314 208.133 202.594 208.56C201.888 208.973 201.061 209.18 200.114 209.18C199.141 209.18 198.261 208.94 197.474 208.46C196.688 207.98 196.068 207.307 195.614 206.44C195.161 205.573 194.934 204.587 194.934 203.48ZM204.214 203.5C204.214 202.673 204.048 201.953 203.714 201.34C203.381 200.727 202.928 200.26 202.354 199.94C201.794 199.607 201.174 199.44 200.494 199.44C199.814 199.44 199.194 199.6 198.634 199.92C198.074 200.24 197.628 200.707 197.294 201.32C196.961 201.933 196.794 202.653 196.794 203.48C196.794 204.32 196.961 205.053 197.294 205.68C197.628 206.293 198.074 206.767 198.634 207.1C199.194 207.42 199.814 207.58 200.494 207.58C201.174 207.58 201.794 207.42 202.354 207.1C202.928 206.767 203.381 206.293 203.714 205.68C204.048 205.053 204.214 204.327 204.214 203.5ZM222.31 197.84C223.163 197.84 223.923 198.02 224.59 198.38C225.257 198.727 225.783 199.253 226.17 199.96C226.557 200.667 226.75 201.527 226.75 202.54V209H224.95V202.8C224.95 201.707 224.677 200.873 224.13 200.3C223.597 199.713 222.87 199.42 221.95 199.42C221.003 199.42 220.25 199.727 219.69 200.34C219.13 200.94 218.85 201.813 218.85 202.96V209H217.05V202.8C217.05 201.707 216.777 200.873 216.23 200.3C215.697 199.713 214.97 199.42 214.05 199.42C213.103 199.42 212.35 199.727 211.79 200.34C211.23 200.94 210.95 201.813 210.95 202.96V209H209.13V198.04H210.95V199.62C211.31 199.047 211.79 198.607 212.39 198.3C213.003 197.993 213.677 197.84 214.41 197.84C215.33 197.84 216.143 198.047 216.85 198.46C217.557 198.873 218.083 199.48 218.43 200.28C218.737 199.507 219.243 198.907 219.95 198.48C220.657 198.053 221.443 197.84 222.31 197.84ZM233.615 209.18C232.775 209.18 232.022 209.04 231.355 208.76C230.689 208.467 230.162 208.067 229.775 207.56C229.389 207.04 229.175 206.447 229.135 205.78H231.015C231.069 206.327 231.322 206.773 231.775 207.12C232.242 207.467 232.849 207.64 233.595 207.64C234.289 207.64 234.835 207.487 235.235 207.18C235.635 206.873 235.835 206.487 235.835 206.02C235.835 205.54 235.622 205.187 235.195 204.96C234.769 204.72 234.109 204.487 233.215 204.26C232.402 204.047 231.735 203.833 231.215 203.62C230.709 203.393 230.269 203.067 229.895 202.64C229.535 202.2 229.355 201.627 229.355 200.92C229.355 200.36 229.522 199.847 229.855 199.38C230.189 198.913 230.662 198.547 231.275 198.28C231.889 198 232.589 197.86 233.375 197.86C234.589 197.86 235.569 198.167 236.315 198.78C237.062 199.393 237.462 200.233 237.515 201.3H235.695C235.655 200.727 235.422 200.267 234.995 199.92C234.582 199.573 234.022 199.4 233.315 199.4C232.662 199.4 232.142 199.54 231.755 199.82C231.369 200.1 231.175 200.467 231.175 200.92C231.175 201.28 231.289 201.58 231.515 201.82C231.755 202.047 232.049 202.233 232.395 202.38C232.755 202.513 233.249 202.667 233.875 202.84C234.662 203.053 235.302 203.267 235.795 203.48C236.289 203.68 236.709 203.987 237.055 204.4C237.415 204.813 237.602 205.353 237.615 206.02C237.615 206.62 237.449 207.16 237.115 207.64C236.782 208.12 236.309 208.5 235.695 208.78C235.095 209.047 234.402 209.18 233.615 209.18Z" fill="#333333"/>
<path d="M57.1923 229.418L53.6283 242H52.2243L49.0563 231.272L45.8163 242L44.4483 242.018L40.9563 229.418H42.3063L45.1863 240.452L48.4083 229.418H49.8123L52.9443 240.452L55.8423 229.418H57.1923ZM63.4217 242.144C62.4977 242.144 61.6637 241.94 60.9197 241.532C60.1877 241.112 59.6057 240.524 59.1737 239.768C58.7537 239 58.5437 238.106 58.5437 237.086C58.5437 236.066 58.7597 235.178 59.1917 234.422C59.6237 233.654 60.2117 233.066 60.9557 232.658C61.6997 232.238 62.5337 232.028 63.4577 232.028C64.3817 232.028 65.2157 232.238 65.9597 232.658C66.7157 233.066 67.3037 233.654 67.7237 234.422C68.1557 235.178 68.3717 236.066 68.3717 237.086C68.3717 238.094 68.1557 238.982 67.7237 239.75C67.2917 240.518 66.6977 241.112 65.9417 241.532C65.1857 241.94 64.3457 242.144 63.4217 242.144ZM63.4217 241.046C64.0697 241.046 64.6697 240.902 65.2217 240.614C65.7737 240.314 66.2177 239.87 66.5537 239.282C66.9017 238.682 67.0757 237.95 67.0757 237.086C67.0757 236.222 66.9077 235.496 66.5717 234.908C66.2357 234.308 65.7917 233.864 65.2397 233.576C64.6877 233.276 64.0877 233.126 63.4397 233.126C62.7917 233.126 62.1917 233.276 61.6397 233.576C61.0877 233.864 60.6437 234.308 60.3077 234.908C59.9837 235.496 59.8217 236.222 59.8217 237.086C59.8217 237.95 59.9837 238.682 60.3077 239.282C60.6437 239.87 61.0817 240.314 61.6217 240.614C62.1737 240.902 62.7737 241.046 63.4217 241.046ZM71.9285 233.918C72.2045 233.306 72.6245 232.832 73.1885 232.496C73.7645 232.16 74.4665 231.992 75.2945 231.992V233.306H74.9525C74.0405 233.306 73.3085 233.552 72.7565 234.044C72.2045 234.536 71.9285 235.358 71.9285 236.51V242H70.6685V232.172H71.9285V233.918ZM82.5 242L78.45 237.59V242H77.19V228.68H78.45V236.564L82.41 232.172H84.174L79.512 237.068L84.21 242H82.5ZM90.1404 242.144C89.2164 242.144 88.3824 241.94 87.6384 241.532C86.9064 241.112 86.3244 240.524 85.8924 239.768C85.4724 239 85.2624 238.106 85.2624 237.086C85.2624 236.066 85.4784 235.178 85.9104 234.422C86.3424 233.654 86.9304 233.066 87.6744 232.658C88.4184 232.238 89.2524 232.028 90.1764 232.028C91.1004 232.028 91.9344 232.238 92.6784 232.658C93.4344 233.066 94.0224 233.654 94.4424 234.422C94.8744 235.178 95.0904 236.066 95.0904 237.086C95.0904 238.094 94.8744 238.982 94.4424 239.75C94.0104 240.518 93.4164 241.112 92.6604 241.532C91.9044 241.94 91.0644 242.144 90.1404 242.144ZM90.1404 241.046C90.7884 241.046 91.3884 240.902 91.9404 240.614C92.4924 240.314 92.9364 239.87 93.2724 239.282C93.6204 238.682 93.7944 237.95 93.7944 237.086C93.7944 236.222 93.6264 235.496 93.2904 234.908C92.9544 234.308 92.5104 233.864 91.9584 233.576C91.4064 233.276 90.8064 233.126 90.1584 233.126C89.5104 233.126 88.9104 233.276 88.3584 233.576C87.8064 233.864 87.3624 234.308 87.0264 234.908C86.7024 235.496 86.5404 236.222 86.5404 237.086C86.5404 237.95 86.7024 238.682 87.0264 239.282C87.3624 239.87 87.8004 240.314 88.3404 240.614C88.8924 240.902 89.4924 241.046 90.1404 241.046ZM105.901 232.172V242H104.641V240.272C104.353 240.884 103.909 241.352 103.309 241.676C102.709 242 102.037 242.162 101.293 242.162C100.117 242.162 99.1573 241.802 98.4133 241.082C97.6693 240.35 97.2973 239.294 97.2973 237.914V232.172H98.5393V237.77C98.5393 238.838 98.8033 239.654 99.3313 240.218C99.8713 240.782 100.603 241.064 101.527 241.064C102.475 241.064 103.231 240.764 103.795 240.164C104.359 239.564 104.641 238.682 104.641 237.518V232.172H105.901ZM110.416 233.234V239.336C110.416 239.936 110.53 240.35 110.758 240.578C110.986 240.806 111.388 240.92 111.964 240.92H113.116V242H111.766C110.878 242 110.218 241.796 109.786 241.388C109.354 240.968 109.138 240.284 109.138 239.336V233.234H107.77V232.172H109.138V229.706H110.416V232.172H113.116V233.234H110.416ZM123.517 242.144C122.389 242.144 121.465 241.886 120.745 241.37C120.037 240.842 119.641 240.128 119.557 239.228H120.853C120.913 239.78 121.171 240.23 121.627 240.578C122.095 240.914 122.719 241.082 123.499 241.082C124.183 241.082 124.717 240.92 125.101 240.596C125.497 240.272 125.695 239.87 125.695 239.39C125.695 239.054 125.587 238.778 125.371 238.562C125.155 238.346 124.879 238.178 124.543 238.058C124.219 237.926 123.775 237.788 123.211 237.644C122.479 237.452 121.885 237.26 121.429 237.068C120.973 236.876 120.583 236.594 120.259 236.222C119.947 235.838 119.791 235.328 119.791 234.692C119.791 234.212 119.935 233.768 120.223 233.36C120.511 232.952 120.919 232.628 121.447 232.388C121.975 232.148 122.575 232.028 123.247 232.028C124.303 232.028 125.155 232.298 125.803 232.838C126.451 233.366 126.799 234.098 126.847 235.034H125.587C125.551 234.458 125.323 233.996 124.903 233.648C124.495 233.288 123.931 233.108 123.211 233.108C122.575 233.108 122.059 233.258 121.663 233.558C121.267 233.858 121.069 234.23 121.069 234.674C121.069 235.058 121.183 235.376 121.411 235.628C121.651 235.868 121.945 236.06 122.293 236.204C122.641 236.336 123.109 236.486 123.697 236.654C124.405 236.846 124.969 237.032 125.389 237.212C125.809 237.392 126.169 237.656 126.469 238.004C126.769 238.352 126.925 238.814 126.937 239.39C126.937 239.918 126.793 240.392 126.505 240.812C126.217 241.22 125.815 241.544 125.299 241.784C124.783 242.024 124.189 242.144 123.517 242.144ZM138.201 236.582C138.201 237.014 138.189 237.344 138.165 237.572H130.011C130.047 238.316 130.227 238.952 130.551 239.48C130.875 240.008 131.301 240.41 131.829 240.686C132.357 240.95 132.933 241.082 133.557 241.082C134.373 241.082 135.057 240.884 135.609 240.488C136.173 240.092 136.545 239.558 136.725 238.886H138.057C137.817 239.846 137.301 240.632 136.509 241.244C135.729 241.844 134.745 242.144 133.557 242.144C132.633 242.144 131.805 241.94 131.073 241.532C130.341 241.112 129.765 240.524 129.345 239.768C128.937 239 128.733 238.106 128.733 237.086C128.733 236.066 128.937 235.172 129.345 234.404C129.753 233.636 130.323 233.048 131.055 232.64C131.787 232.232 132.621 232.028 133.557 232.028C134.493 232.028 135.309 232.232 136.005 232.64C136.713 233.048 137.253 233.6 137.625 234.296C138.009 234.98 138.201 235.742 138.201 236.582ZM136.923 236.546C136.935 235.814 136.785 235.19 136.473 234.674C136.173 234.158 135.759 233.768 135.231 233.504C134.703 233.24 134.127 233.108 133.503 233.108C132.567 233.108 131.769 233.408 131.109 234.008C130.449 234.608 130.083 235.454 130.011 236.546H136.923ZM139.93 237.086C139.93 236.066 140.134 235.178 140.542 234.422C140.95 233.654 141.514 233.066 142.234 232.658C142.954 232.238 143.776 232.028 144.7 232.028C145.912 232.028 146.908 232.328 147.688 232.928C148.48 233.528 148.99 234.344 149.218 235.376H147.868C147.7 234.668 147.334 234.116 146.77 233.72C146.218 233.312 145.528 233.108 144.7 233.108C144.04 233.108 143.446 233.258 142.918 233.558C142.39 233.858 141.97 234.308 141.658 234.908C141.358 235.496 141.208 236.222 141.208 237.086C141.208 237.95 141.358 238.682 141.658 239.282C141.97 239.882 142.39 240.332 142.918 240.632C143.446 240.932 144.04 241.082 144.7 241.082C145.528 241.082 146.218 240.884 146.77 240.488C147.334 240.08 147.7 239.516 147.868 238.796H149.218C148.99 239.804 148.48 240.614 147.688 241.226C146.896 241.838 145.9 242.144 144.7 242.144C143.776 242.144 142.954 241.94 142.234 241.532C141.514 241.112 140.95 240.524 140.542 239.768C140.134 239 139.93 238.106 139.93 237.086ZM153.183 233.234V239.336C153.183 239.936 153.297 240.35 153.525 240.578C153.753 240.806 154.155 240.92 154.731 240.92H155.883V242H154.533C153.645 242 152.985 241.796 152.553 241.388C152.121 240.968 151.905 240.284 151.905 239.336V233.234H150.537V232.172H151.905V229.706H153.183V232.172H155.883V233.234H153.183ZM158.591 230.318C158.339 230.318 158.123 230.228 157.943 230.048C157.763 229.868 157.673 229.646 157.673 229.382C157.673 229.118 157.763 228.902 157.943 228.734C158.123 228.554 158.339 228.464 158.591 228.464C158.843 228.464 159.059 228.554 159.239 228.734C159.419 228.902 159.509 229.118 159.509 229.382C159.509 229.646 159.419 229.868 159.239 230.048C159.059 230.228 158.843 230.318 158.591 230.318ZM159.221 232.172V242H157.961V232.172H159.221ZM166.377 242.144C165.453 242.144 164.619 241.94 163.875 241.532C163.143 241.112 162.561 240.524 162.129 239.768C161.709 239 161.499 238.106 161.499 237.086C161.499 236.066 161.715 235.178 162.147 234.422C162.579 233.654 163.167 233.066 163.911 232.658C164.655 232.238 165.489 232.028 166.413 232.028C167.337 232.028 168.171 232.238 168.915 232.658C169.671 233.066 170.259 233.654 170.679 234.422C171.111 235.178 171.327 236.066 171.327 237.086C171.327 238.094 171.111 238.982 170.679 239.75C170.247 240.518 169.653 241.112 168.897 241.532C168.141 241.94 167.301 242.144 166.377 242.144ZM166.377 241.046C167.025 241.046 167.625 240.902 168.177 240.614C168.729 240.314 169.173 239.87 169.509 239.282C169.857 238.682 170.031 237.95 170.031 237.086C170.031 236.222 169.863 235.496 169.527 234.908C169.191 234.308 168.747 233.864 168.195 233.576C167.643 233.276 167.043 233.126 166.395 233.126C165.747 233.126 165.147 233.276 164.595 233.576C164.043 233.864 163.599 234.308 163.263 234.908C162.939 235.496 162.777 236.222 162.777 237.086C162.777 237.95 162.939 238.682 163.263 239.282C163.599 239.87 164.037 240.314 164.577 240.614C165.129 240.902 165.729 241.046 166.377 241.046ZM178.232 231.992C179.408 231.992 180.368 232.358 181.112 233.09C181.856 233.81 182.228 234.86 182.228 236.24V242H180.986V236.384C180.986 235.316 180.716 234.5 180.176 233.936C179.648 233.372 178.922 233.09 177.998 233.09C177.05 233.09 176.294 233.39 175.73 233.99C175.166 234.59 174.884 235.472 174.884 236.636V242H173.624V232.172H174.884V233.846C175.196 233.246 175.646 232.79 176.234 232.478C176.822 232.154 177.488 231.992 178.232 231.992ZM202.914 232.172L199.836 242H198.576L195.858 233.756L193.14 242H191.862L188.784 232.172H190.062L192.51 240.722L195.264 232.172H196.524L199.242 240.74L201.672 232.172H202.914ZM205.261 230.318C205.009 230.318 204.793 230.228 204.613 230.048C204.433 229.868 204.343 229.646 204.343 229.382C204.343 229.118 204.433 228.902 204.613 228.734C204.793 228.554 205.009 228.464 205.261 228.464C205.513 228.464 205.729 228.554 205.909 228.734C206.089 228.902 206.179 229.118 206.179 229.382C206.179 229.646 206.089 229.868 205.909 230.048C205.729 230.228 205.513 230.318 205.261 230.318ZM205.891 232.172V242H204.631V232.172H205.891ZM210.383 233.234V239.336C210.383 239.936 210.497 240.35 210.725 240.578C210.953 240.806 211.355 240.92 211.931 240.92H213.083V242H211.733C210.845 242 210.185 241.796 209.753 241.388C209.321 240.968 209.105 240.284 209.105 239.336V233.234H207.737V232.172H209.105V229.706H210.383V232.172H213.083V233.234H210.383ZM219.841 231.992C220.585 231.992 221.251 232.148 221.839 232.46C222.439 232.772 222.907 233.252 223.243 233.9C223.591 234.536 223.765 235.316 223.765 236.24V242H222.523V236.384C222.523 235.316 222.253 234.5 221.713 233.936C221.185 233.372 220.459 233.09 219.535 233.09C218.587 233.09 217.831 233.39 217.267 233.99C216.703 234.59 216.421 235.472 216.421 236.636V242H215.161V228.68H216.421V233.846C216.733 233.258 217.189 232.802 217.789 232.478C218.401 232.154 219.085 231.992 219.841 231.992ZM235.793 242.144C234.869 242.144 234.035 241.94 233.291 241.532C232.559 241.112 231.977 240.524 231.545 239.768C231.125 239 230.915 238.106 230.915 237.086C230.915 236.066 231.131 235.178 231.563 234.422C231.995 233.654 232.583 233.066 233.327 232.658C234.071 232.238 234.905 232.028 235.829 232.028C236.753 232.028 237.587 232.238 238.331 232.658C239.087 233.066 239.675 233.654 240.095 234.422C240.527 235.178 240.743 236.066 240.743 237.086C240.743 238.094 240.527 238.982 240.095 239.75C239.663 240.518 239.069 241.112 238.313 241.532C237.557 241.94 236.717 242.144 235.793 242.144ZM235.793 241.046C236.441 241.046 237.041 240.902 237.593 240.614C238.145 240.314 238.589 239.87 238.925 239.282C239.273 238.682 239.447 237.95 239.447 237.086C239.447 236.222 239.279 235.496 238.943 234.908C238.607 234.308 238.163 233.864 237.611 233.576C237.059 233.276 236.459 233.126 235.811 233.126C235.163 233.126 234.563 233.276 234.011 233.576C233.459 233.864 233.015 234.308 232.679 234.908C232.355 235.496 232.193 236.222 232.193 237.086C232.193 237.95 232.355 238.682 232.679 239.282C233.015 239.87 233.453 240.314 233.993 240.614C234.545 240.902 235.145 241.046 235.793 241.046ZM251.554 232.172V242H250.294V240.272C250.006 240.884 249.562 241.352 248.962 241.676C248.362 242 247.69 242.162 246.946 242.162C245.77 242.162 244.81 241.802 244.066 241.082C243.322 240.35 242.95 239.294 242.95 237.914V232.172H244.192V237.77C244.192 238.838 244.456 239.654 244.984 240.218C245.524 240.782 246.256 241.064 247.18 241.064C248.128 241.064 248.884 240.764 249.448 240.164C250.012 239.564 250.294 238.682 250.294 237.518V232.172H251.554ZM255.69 233.918C255.966 233.306 256.386 232.832 256.95 232.496C257.526 232.16 258.228 231.992 259.056 231.992V233.306H258.714C257.802 233.306 257.07 233.552 256.518 234.044C255.966 234.536 255.69 235.358 255.69 236.51V242H254.43V232.172H255.69V233.918ZM54.4752 259.172L51.3972 269H50.1372L47.4192 260.756L44.7012 269H43.4232L40.3452 259.172H41.6232L44.0712 267.722L46.8252 259.172H48.0852L50.8032 267.74L53.2332 259.172H54.4752ZM65.0849 263.582C65.0849 264.014 65.0729 264.344 65.0489 264.572H56.8949C56.9309 265.316 57.1109 265.952 57.4349 266.48C57.7589 267.008 58.1849 267.41 58.7129 267.686C59.2409 267.95 59.8169 268.082 60.4409 268.082C61.2569 268.082 61.9409 267.884 62.4929 267.488C63.0569 267.092 63.4289 266.558 63.6089 265.886H64.9409C64.7009 266.846 64.1849 267.632 63.3929 268.244C62.6129 268.844 61.6289 269.144 60.4409 269.144C59.5169 269.144 58.6889 268.94 57.9569 268.532C57.2249 268.112 56.6489 267.524 56.2289 266.768C55.8209 266 55.6169 265.106 55.6169 264.086C55.6169 263.066 55.8209 262.172 56.2289 261.404C56.6369 260.636 57.2069 260.048 57.9389 259.64C58.6709 259.232 59.5049 259.028 60.4409 259.028C61.3769 259.028 62.1929 259.232 62.8889 259.64C63.5969 260.048 64.1369 260.6 64.5089 261.296C64.8929 261.98 65.0849 262.742 65.0849 263.582ZM63.8069 263.546C63.8189 262.814 63.6689 262.19 63.3569 261.674C63.0569 261.158 62.6429 260.768 62.1149 260.504C61.5869 260.24 61.0109 260.108 60.3869 260.108C59.4509 260.108 58.6529 260.408 57.9929 261.008C57.3329 261.608 56.9669 262.454 56.8949 263.546H63.8069ZM68.6502 255.68V269H67.3902V255.68H68.6502ZM72.7635 255.68V269H71.5035V255.68H72.7635ZM82.1942 260.234V266.336C82.1942 266.936 82.3082 267.35 82.5362 267.578C82.7642 267.806 83.1662 267.92 83.7422 267.92H84.8942V269H83.5442C82.6562 269 81.9962 268.796 81.5642 268.388C81.1322 267.968 80.9162 267.284 80.9162 266.336V260.234H79.5482V259.172H80.9162V256.706H82.1942V259.172H84.8942V260.234H82.1942ZM88.2322 260.918C88.5082 260.306 88.9282 259.832 89.4922 259.496C90.0682 259.16 90.7702 258.992 91.5982 258.992V260.306H91.2562C90.3442 260.306 89.6122 260.552 89.0602 261.044C88.5082 261.536 88.2322 262.358 88.2322 263.51V269H86.9722V259.172H88.2322V260.918ZM92.9177 264.068C92.9177 263.06 93.1157 262.178 93.5117 261.422C93.9197 260.654 94.4777 260.066 95.1857 259.658C95.9057 259.238 96.7157 259.028 97.6157 259.028C98.5517 259.028 99.3557 259.244 100.028 259.676C100.712 260.108 101.204 260.66 101.504 261.332V259.172H102.764V269H101.504V266.822C101.192 267.494 100.694 268.052 100.01 268.496C99.3377 268.928 98.5337 269.144 97.5977 269.144C96.7097 269.144 95.9057 268.934 95.1857 268.514C94.4777 268.094 93.9197 267.5 93.5117 266.732C93.1157 265.964 92.9177 265.076 92.9177 264.068ZM101.504 264.086C101.504 263.294 101.342 262.598 101.018 261.998C100.694 261.398 100.25 260.936 99.6857 260.612C99.1337 260.288 98.5217 260.126 97.8497 260.126C97.1537 260.126 96.5297 260.282 95.9777 260.594C95.4257 260.906 94.9877 261.362 94.6637 261.962C94.3517 262.55 94.1957 263.252 94.1957 264.068C94.1957 264.872 94.3517 265.58 94.6637 266.192C94.9877 266.792 95.4257 267.254 95.9777 267.578C96.5297 267.89 97.1537 268.046 97.8497 268.046C98.5217 268.046 99.1337 267.884 99.6857 267.56C100.25 267.236 100.694 266.774 101.018 266.174C101.342 265.574 101.504 264.878 101.504 264.086ZM106.27 257.318C106.018 257.318 105.802 257.228 105.622 257.048C105.442 256.868 105.352 256.646 105.352 256.382C105.352 256.118 105.442 255.902 105.622 255.734C105.802 255.554 106.018 255.464 106.27 255.464C106.522 255.464 106.738 255.554 106.918 255.734C107.098 255.902 107.188 256.118 107.188 256.382C107.188 256.646 107.098 256.868 106.918 257.048C106.738 257.228 106.522 257.318 106.27 257.318ZM106.9 259.172V269H105.64V259.172H106.9ZM114.361 258.992C115.537 258.992 116.497 259.358 117.241 260.09C117.985 260.81 118.357 261.86 118.357 263.24V269H117.115V263.384C117.115 262.316 116.845 261.5 116.305 260.936C115.777 260.372 115.051 260.09 114.127 260.09C113.179 260.09 112.423 260.39 111.859 260.99C111.295 261.59 111.013 262.472 111.013 263.636V269H109.753V259.172H111.013V260.846C111.325 260.246 111.775 259.79 112.363 259.478C112.951 259.154 113.617 258.992 114.361 258.992ZM130.036 263.582C130.036 264.014 130.024 264.344 130 264.572H121.846C121.882 265.316 122.062 265.952 122.386 266.48C122.71 267.008 123.136 267.41 123.664 267.686C124.192 267.95 124.768 268.082 125.392 268.082C126.208 268.082 126.892 267.884 127.444 267.488C128.008 267.092 128.38 266.558 128.56 265.886H129.892C129.652 266.846 129.136 267.632 128.344 268.244C127.564 268.844 126.58 269.144 125.392 269.144C124.468 269.144 123.64 268.94 122.908 268.532C122.176 268.112 121.6 267.524 121.18 266.768C120.772 266 120.568 265.106 120.568 264.086C120.568 263.066 120.772 262.172 121.18 261.404C121.588 260.636 122.158 260.048 122.89 259.64C123.622 259.232 124.456 259.028 125.392 259.028C126.328 259.028 127.144 259.232 127.84 259.64C128.548 260.048 129.088 260.6 129.46 261.296C129.844 261.98 130.036 262.742 130.036 263.582ZM128.758 263.546C128.77 262.814 128.62 262.19 128.308 261.674C128.008 261.158 127.594 260.768 127.066 260.504C126.538 260.24 125.962 260.108 125.338 260.108C124.402 260.108 123.604 260.408 122.944 261.008C122.284 261.608 121.918 262.454 121.846 263.546H128.758ZM131.765 264.068C131.765 263.06 131.969 262.178 132.377 261.422C132.785 260.654 133.343 260.066 134.051 259.658C134.771 259.238 135.581 259.028 136.481 259.028C137.345 259.028 138.125 259.238 138.821 259.658C139.517 260.078 140.027 260.624 140.351 261.296V255.68H141.611V269H140.351V266.804C140.051 267.488 139.559 268.052 138.875 268.496C138.191 268.928 137.387 269.144 136.463 269.144C135.563 269.144 134.753 268.934 134.033 268.514C133.325 268.094 132.767 267.5 132.359 266.732C131.963 265.964 131.765 265.076 131.765 264.068ZM140.351 264.086C140.351 263.294 140.189 262.598 139.865 261.998C139.541 261.398 139.097 260.936 138.533 260.612C137.981 260.288 137.369 260.126 136.697 260.126C136.001 260.126 135.377 260.282 134.825 260.594C134.273 260.906 133.835 261.362 133.511 261.962C133.199 262.55 133.043 263.252 133.043 264.068C133.043 264.872 133.199 265.58 133.511 266.192C133.835 266.792 134.273 267.254 134.825 267.578C135.377 267.89 136.001 268.046 136.697 268.046C137.369 268.046 137.981 267.884 138.533 267.56C139.097 267.236 139.541 266.774 139.865 266.174C140.189 265.574 140.351 264.878 140.351 264.086ZM150.057 257.318C149.805 257.318 149.589 257.228 149.409 257.048C149.229 256.868 149.139 256.646 149.139 256.382C149.139 256.118 149.229 255.902 149.409 255.734C149.589 255.554 149.805 255.464 150.057 255.464C150.309 255.464 150.525 255.554 150.705 255.734C150.885 255.902 150.975 256.118 150.975 256.382C150.975 256.646 150.885 256.868 150.705 257.048C150.525 257.228 150.309 257.318 150.057 257.318ZM150.687 259.172V269H149.427V259.172H150.687ZM158.149 258.992C159.325 258.992 160.285 259.358 161.029 260.09C161.773 260.81 162.145 261.86 162.145 263.24V269H160.903V263.384C160.903 262.316 160.633 261.5 160.093 260.936C159.565 260.372 158.839 260.09 157.915 260.09C156.967 260.09 156.211 260.39 155.647 260.99C155.083 261.59 154.801 262.472 154.801 263.636V269H153.541V259.172H154.801V260.846C155.113 260.246 155.563 259.79 156.151 259.478C156.739 259.154 157.405 258.992 158.149 258.992ZM168.315 269.144C167.187 269.144 166.263 268.886 165.543 268.37C164.835 267.842 164.439 267.128 164.355 266.228H165.651C165.711 266.78 165.969 267.23 166.425 267.578C166.893 267.914 167.517 268.082 168.297 268.082C168.981 268.082 169.515 267.92 169.899 267.596C170.295 267.272 170.493 266.87 170.493 266.39C170.493 266.054 170.385 265.778 170.169 265.562C169.953 265.346 169.677 265.178 169.341 265.058C169.017 264.926 168.573 264.788 168.009 264.644C167.277 264.452 166.683 264.26 166.227 264.068C165.771 263.876 165.381 263.594 165.057 263.222C164.745 262.838 164.589 262.328 164.589 261.692C164.589 261.212 164.733 260.768 165.021 260.36C165.309 259.952 165.717 259.628 166.245 259.388C166.773 259.148 167.373 259.028 168.045 259.028C169.101 259.028 169.953 259.298 170.601 259.838C171.249 260.366 171.597 261.098 171.645 262.034H170.385C170.349 261.458 170.121 260.996 169.701 260.648C169.293 260.288 168.729 260.108 168.009 260.108C167.373 260.108 166.857 260.258 166.461 260.558C166.065 260.858 165.867 261.23 165.867 261.674C165.867 262.058 165.981 262.376 166.209 262.628C166.449 262.868 166.743 263.06 167.091 263.204C167.439 263.336 167.907 263.486 168.495 263.654C169.203 263.846 169.767 264.032 170.187 264.212C170.607 264.392 170.967 264.656 171.267 265.004C171.567 265.352 171.723 265.814 171.735 266.39C171.735 266.918 171.591 267.392 171.303 267.812C171.015 268.22 170.613 268.544 170.097 268.784C169.581 269.024 168.987 269.144 168.315 269.144ZM175.745 260.234V266.336C175.745 266.936 175.859 267.35 176.087 267.578C176.315 267.806 176.717 267.92 177.293 267.92H178.445V269H177.095C176.207 269 175.547 268.796 175.115 268.388C174.683 267.968 174.467 267.284 174.467 266.336V260.234H173.099V259.172H174.467V256.706H175.745V259.172H178.445V260.234H175.745ZM181.783 260.918C182.059 260.306 182.479 259.832 183.043 259.496C183.619 259.16 184.321 258.992 185.149 258.992V260.306H184.807C183.895 260.306 183.163 260.552 182.611 261.044C182.059 261.536 181.783 262.358 181.783 263.51V269H180.523V259.172H181.783V260.918ZM195.558 259.172V269H194.298V267.272C194.01 267.884 193.566 268.352 192.966 268.676C192.366 269 191.694 269.162 190.95 269.162C189.774 269.162 188.814 268.802 188.07 268.082C187.326 267.35 186.954 266.294 186.954 264.914V259.172H188.196V264.77C188.196 265.838 188.46 266.654 188.988 267.218C189.528 267.782 190.26 268.064 191.184 268.064C192.132 268.064 192.888 267.764 193.452 267.164C194.016 266.564 194.298 265.682 194.298 264.518V259.172H195.558ZM197.859 264.086C197.859 263.066 198.063 262.178 198.471 261.422C198.879 260.654 199.443 260.066 200.163 259.658C200.883 259.238 201.705 259.028 202.629 259.028C203.841 259.028 204.837 259.328 205.617 259.928C206.409 260.528 206.919 261.344 207.147 262.376H205.797C205.629 261.668 205.263 261.116 204.699 260.72C204.147 260.312 203.457 260.108 202.629 260.108C201.969 260.108 201.375 260.258 200.847 260.558C200.319 260.858 199.899 261.308 199.587 261.908C199.287 262.496 199.137 263.222 199.137 264.086C199.137 264.95 199.287 265.682 199.587 266.282C199.899 266.882 200.319 267.332 200.847 267.632C201.375 267.932 201.969 268.082 202.629 268.082C203.457 268.082 204.147 267.884 204.699 267.488C205.263 267.08 205.629 266.516 205.797 265.796H207.147C206.919 266.804 206.409 267.614 205.617 268.226C204.825 268.838 203.829 269.144 202.629 269.144C201.705 269.144 200.883 268.94 200.163 268.532C199.443 268.112 198.879 267.524 198.471 266.768C198.063 266 197.859 265.106 197.859 264.086ZM211.112 260.234V266.336C211.112 266.936 211.226 267.35 211.454 267.578C211.682 267.806 212.084 267.92 212.66 267.92H213.812V269H212.462C211.574 269 210.914 268.796 210.482 268.388C210.05 267.968 209.834 267.284 209.834 266.336V260.234H208.466V259.172H209.834V256.706H211.112V259.172H213.812V260.234H211.112ZM220.192 269.144C219.268 269.144 218.434 268.94 217.69 268.532C216.958 268.112 216.376 267.524 215.944 266.768C215.524 266 215.314 265.106 215.314 264.086C215.314 263.066 215.53 262.178 215.962 261.422C216.394 260.654 216.982 260.066 217.726 259.658C218.47 259.238 219.304 259.028 220.228 259.028C221.152 259.028 221.986 259.238 222.73 259.658C223.486 260.066 224.074 260.654 224.494 261.422C224.926 262.178 225.142 263.066 225.142 264.086C225.142 265.094 224.926 265.982 224.494 266.75C224.062 267.518 223.468 268.112 222.712 268.532C221.956 268.94 221.116 269.144 220.192 269.144ZM220.192 268.046C220.84 268.046 221.44 267.902 221.992 267.614C222.544 267.314 222.988 266.87 223.324 266.282C223.672 265.682 223.846 264.95 223.846 264.086C223.846 263.222 223.678 262.496 223.342 261.908C223.006 261.308 222.562 260.864 222.01 260.576C221.458 260.276 220.858 260.126 220.21 260.126C219.562 260.126 218.962 260.276 218.41 260.576C217.858 260.864 217.414 261.308 217.078 261.908C216.754 262.496 216.592 263.222 216.592 264.086C216.592 264.95 216.754 265.682 217.078 266.282C217.414 266.87 217.852 267.314 218.392 267.614C218.944 267.902 219.544 268.046 220.192 268.046ZM228.699 260.918C228.975 260.306 229.395 259.832 229.959 259.496C230.535 259.16 231.237 258.992 232.065 258.992V260.306H231.723C230.811 260.306 230.079 260.552 229.527 261.044C228.975 261.536 228.699 262.358 228.699 263.51V269H227.439V259.172H228.699V260.918ZM237.345 269.144C236.217 269.144 235.293 268.886 234.573 268.37C233.865 267.842 233.469 267.128 233.385 266.228H234.681C234.741 266.78 234.999 267.23 235.455 267.578C235.923 267.914 236.547 268.082 237.327 268.082C238.011 268.082 238.545 267.92 238.929 267.596C239.325 267.272 239.523 266.87 239.523 266.39C239.523 266.054 239.415 265.778 239.199 265.562C238.983 265.346 238.707 265.178 238.371 265.058C238.047 264.926 237.603 264.788 237.039 264.644C236.307 264.452 235.713 264.26 235.257 264.068C234.801 263.876 234.411 263.594 234.087 263.222C233.775 262.838 233.619 262.328 233.619 261.692C233.619 261.212 233.763 260.768 234.051 260.36C234.339 259.952 234.747 259.628 235.275 259.388C235.803 259.148 236.403 259.028 237.075 259.028C238.131 259.028 238.983 259.298 239.631 259.838C240.279 260.366 240.627 261.098 240.675 262.034H239.415C239.379 261.458 239.151 260.996 238.731 260.648C238.323 260.288 237.759 260.108 237.039 260.108C236.403 260.108 235.887 260.258 235.491 260.558C235.095 260.858 234.897 261.23 234.897 261.674C234.897 262.058 235.011 262.376 235.239 262.628C235.479 262.868 235.773 263.06 236.121 263.204C236.469 263.336 236.937 263.486 237.525 263.654C238.233 263.846 238.797 264.032 239.217 264.212C239.637 264.392 239.997 264.656 240.297 265.004C240.597 265.352 240.753 265.814 240.765 266.39C240.765 266.918 240.621 267.392 240.333 267.812C240.045 268.22 239.643 268.544 239.127 268.784C238.611 269.024 238.017 269.144 237.345 269.144ZM248.706 257.318C248.454 257.318 248.238 257.228 248.058 257.048C247.878 256.868 247.788 256.646 247.788 256.382C247.788 256.118 247.878 255.902 248.058 255.734C248.238 255.554 248.454 255.464 248.706 255.464C248.958 255.464 249.174 255.554 249.354 255.734C249.534 255.902 249.624 256.118 249.624 256.382C249.624 256.646 249.534 256.868 249.354 257.048C249.174 257.228 248.958 257.318 248.706 257.318ZM249.336 259.172V269H248.076V259.172H249.336ZM255.573 269.144C254.445 269.144 253.521 268.886 252.801 268.37C252.093 267.842 251.697 267.128 251.613 266.228H252.909C252.969 266.78 253.227 267.23 253.683 267.578C254.151 267.914 254.775 268.082 255.555 268.082C256.239 268.082 256.773 267.92 257.157 267.596C257.553 267.272 257.751 266.87 257.751 266.39C257.751 266.054 257.643 265.778 257.427 265.562C257.211 265.346 256.935 265.178 256.599 265.058C256.275 264.926 255.831 264.788 255.267 264.644C254.535 264.452 253.941 264.26 253.485 264.068C253.029 263.876 252.639 263.594 252.315 263.222C252.003 262.838 251.847 262.328 251.847 261.692C251.847 261.212 251.991 260.768 252.279 260.36C252.567 259.952 252.975 259.628 253.503 259.388C254.031 259.148 254.631 259.028 255.303 259.028C256.359 259.028 257.211 259.298 257.859 259.838C258.507 260.366 258.855 261.098 258.903 262.034H257.643C257.607 261.458 257.379 260.996 256.959 260.648C256.551 260.288 255.987 260.108 255.267 260.108C254.631 260.108 254.115 260.258 253.719 260.558C253.323 260.858 253.125 261.23 253.125 261.674C253.125 262.058 253.239 262.376 253.467 262.628C253.707 262.868 254.001 263.06 254.349 263.204C254.697 263.336 255.165 263.486 255.753 263.654C256.461 263.846 257.025 264.032 257.445 264.212C257.865 264.392 258.225 264.656 258.525 265.004C258.825 265.352 258.981 265.814 258.993 266.39C258.993 266.918 258.849 267.392 258.561 267.812C258.273 268.22 257.871 268.544 257.355 268.784C256.839 269.024 256.245 269.144 255.573 269.144ZM34.2419 291.068C34.2419 290.06 34.4399 289.178 34.8359 288.422C35.2439 287.654 35.8019 287.066 36.5099 286.658C37.2299 286.238 38.0399 286.028 38.9399 286.028C39.8759 286.028 40.6799 286.244 41.3519 286.676C42.0359 287.108 42.5279 287.66 42.8279 288.332V286.172H44.0879V296H42.8279V293.822C42.5159 294.494 42.0179 295.052 41.3339 295.496C40.6619 295.928 39.8579 296.144 38.9219 296.144C38.0339 296.144 37.2299 295.934 36.5099 295.514C35.8019 295.094 35.2439 294.5 34.8359 293.732C34.4399 292.964 34.2419 292.076 34.2419 291.068ZM42.8279 291.086C42.8279 290.294 42.6659 289.598 42.3419 288.998C42.0179 288.398 41.5739 287.936 41.0099 287.612C40.4579 287.288 39.8459 287.126 39.1739 287.126C38.4779 287.126 37.8539 287.282 37.3019 287.594C36.7499 287.906 36.3119 288.362 35.9879 288.962C35.6759 289.55 35.5199 290.252 35.5199 291.068C35.5199 291.872 35.6759 292.58 35.9879 293.192C36.3119 293.792 36.7499 294.254 37.3019 294.578C37.8539 294.89 38.4779 295.046 39.1739 295.046C39.8459 295.046 40.4579 294.884 41.0099 294.56C41.5739 294.236 42.0179 293.774 42.3419 293.174C42.6659 292.574 42.8279 291.878 42.8279 291.086ZM53.1459 288.332C53.4579 287.672 53.9499 287.126 54.6219 286.694C55.3059 286.25 56.1159 286.028 57.0519 286.028C57.9399 286.028 58.7379 286.238 59.4459 286.658C60.1659 287.066 60.7239 287.654 61.1199 288.422C61.5279 289.178 61.7319 290.06 61.7319 291.068C61.7319 292.076 61.5279 292.964 61.1199 293.732C60.7239 294.5 60.1659 295.094 59.4459 295.514C58.7379 295.934 57.9399 296.144 57.0519 296.144C56.1279 296.144 55.3239 295.928 54.6399 295.496C53.9559 295.052 53.4579 294.5 53.1459 293.84V300.644H51.9039V286.172H53.1459V288.332ZM60.4539 291.068C60.4539 290.252 60.2919 289.55 59.9679 288.962C59.6559 288.362 59.2239 287.906 58.6719 287.594C58.1199 287.282 57.4959 287.126 56.7999 287.126C56.1279 287.126 55.5099 287.288 54.9459 287.612C54.3939 287.936 53.9559 288.398 53.6319 288.998C53.3079 289.598 53.1459 290.294 53.1459 291.086C53.1459 291.878 53.3079 292.574 53.6319 293.174C53.9559 293.774 54.3939 294.236 54.9459 294.56C55.5099 294.884 56.1279 295.046 56.7999 295.046C57.4959 295.046 58.1199 294.89 58.6719 294.578C59.2239 294.254 59.6559 293.792 59.9679 293.192C60.2919 292.58 60.4539 291.872 60.4539 291.068ZM63.4744 291.068C63.4744 290.06 63.6724 289.178 64.0684 288.422C64.4764 287.654 65.0344 287.066 65.7424 286.658C66.4624 286.238 67.2724 286.028 68.1724 286.028C69.1084 286.028 69.9124 286.244 70.5844 286.676C71.2684 287.108 71.7604 287.66 72.0604 288.332V286.172H73.3204V296H72.0604V293.822C71.7484 294.494 71.2504 295.052 70.5664 295.496C69.8944 295.928 69.0904 296.144 68.1544 296.144C67.2664 296.144 66.4624 295.934 65.7424 295.514C65.0344 295.094 64.4764 294.5 64.0684 293.732C63.6724 292.964 63.4744 292.076 63.4744 291.068ZM72.0604 291.086C72.0604 290.294 71.8984 289.598 71.5744 288.998C71.2504 288.398 70.8064 287.936 70.2424 287.612C69.6904 287.288 69.0784 287.126 68.4064 287.126C67.7104 287.126 67.0864 287.282 66.5344 287.594C65.9824 287.906 65.5444 288.362 65.2204 288.962C64.9084 289.55 64.7524 290.252 64.7524 291.068C64.7524 291.872 64.9084 292.58 65.2204 293.192C65.5444 293.792 65.9824 294.254 66.5344 294.578C67.0864 294.89 67.7104 295.046 68.4064 295.046C69.0784 295.046 69.6904 294.884 70.2424 294.56C70.8064 294.236 71.2504 293.774 71.5744 293.174C71.8984 292.574 72.0604 291.878 72.0604 291.086ZM75.6208 291.086C75.6208 290.066 75.8248 289.178 76.2328 288.422C76.6408 287.654 77.2048 287.066 77.9248 286.658C78.6448 286.238 79.4668 286.028 80.3908 286.028C81.6028 286.028 82.5988 286.328 83.3788 286.928C84.1708 287.528 84.6808 288.344 84.9088 289.376H83.5588C83.3908 288.668 83.0248 288.116 82.4608 287.72C81.9088 287.312 81.2188 287.108 80.3908 287.108C79.7308 287.108 79.1368 287.258 78.6088 287.558C78.0808 287.858 77.6608 288.308 77.3488 288.908C77.0488 289.496 76.8988 290.222 76.8988 291.086C76.8988 291.95 77.0488 292.682 77.3488 293.282C77.6608 293.882 78.0808 294.332 78.6088 294.632C79.1368 294.932 79.7308 295.082 80.3908 295.082C81.2188 295.082 81.9088 294.884 82.4608 294.488C83.0248 294.08 83.3908 293.516 83.5588 292.796H84.9088C84.6808 293.804 84.1708 294.614 83.3788 295.226C82.5868 295.838 81.5908 296.144 80.3908 296.144C79.4668 296.144 78.6448 295.94 77.9248 295.532C77.2048 295.112 76.6408 294.524 76.2328 293.768C75.8248 293 75.6208 292.106 75.6208 291.086ZM92.5459 296L88.4959 291.59V296H87.2359V282.68H88.4959V290.564L92.4559 286.172H94.2199L89.5579 291.068L94.2559 296H92.5459ZM95.3083 291.068C95.3083 290.06 95.5063 289.178 95.9023 288.422C96.3103 287.654 96.8683 287.066 97.5763 286.658C98.2963 286.238 99.1063 286.028 100.006 286.028C100.942 286.028 101.746 286.244 102.418 286.676C103.102 287.108 103.594 287.66 103.894 288.332V286.172H105.154V296H103.894V293.822C103.582 294.494 103.084 295.052 102.4 295.496C101.728 295.928 100.924 296.144 99.9883 296.144C99.1003 296.144 98.2963 295.934 97.5763 295.514C96.8683 295.094 96.3103 294.5 95.9023 293.732C95.5063 292.964 95.3083 292.076 95.3083 291.068ZM103.894 291.086C103.894 290.294 103.732 289.598 103.408 288.998C103.084 288.398 102.64 287.936 102.076 287.612C101.524 287.288 100.912 287.126 100.24 287.126C99.5443 287.126 98.9203 287.282 98.3683 287.594C97.8163 287.906 97.3783 288.362 97.0543 288.962C96.7423 289.55 96.5863 290.252 96.5863 291.068C96.5863 291.872 96.7423 292.58 97.0543 293.192C97.3783 293.792 97.8163 294.254 98.3683 294.578C98.9203 294.89 99.5443 295.046 100.24 295.046C100.912 295.046 101.524 294.884 102.076 294.56C102.64 294.236 103.084 293.774 103.408 293.174C103.732 292.574 103.894 291.878 103.894 291.086ZM112.153 286.028C113.077 286.028 113.881 286.244 114.565 286.676C115.249 287.108 115.741 287.654 116.041 288.314V286.172H117.301V296.252C117.301 297.152 117.103 297.95 116.707 298.646C116.323 299.342 115.783 299.876 115.087 300.248C114.391 300.632 113.599 300.824 112.711 300.824C111.451 300.824 110.401 300.524 109.561 299.924C108.733 299.324 108.217 298.508 108.013 297.476H109.255C109.471 298.16 109.879 298.706 110.479 299.114C111.091 299.522 111.835 299.726 112.711 299.726C113.347 299.726 113.917 299.588 114.421 299.312C114.925 299.048 115.321 298.652 115.609 298.124C115.897 297.596 116.041 296.972 116.041 296.252V293.822C115.729 294.494 115.231 295.052 114.547 295.496C113.875 295.928 113.077 296.144 112.153 296.144C111.253 296.144 110.443 295.934 109.723 295.514C109.015 295.094 108.457 294.5 108.049 293.732C107.653 292.964 107.455 292.076 107.455 291.068C107.455 290.06 107.653 289.178 108.049 288.422C108.457 287.654 109.015 287.066 109.723 286.658C110.443 286.238 111.253 286.028 112.153 286.028ZM116.041 291.086C116.041 290.294 115.879 289.598 115.555 288.998C115.231 288.398 114.787 287.936 114.223 287.612C113.671 287.288 113.059 287.126 112.387 287.126C111.691 287.126 111.067 287.282 110.515 287.594C109.963 287.906 109.525 288.362 109.201 288.962C108.889 289.55 108.733 290.252 108.733 291.068C108.733 291.872 108.889 292.58 109.201 293.192C109.525 293.792 109.963 294.254 110.515 294.578C111.067 294.89 111.691 295.046 112.387 295.046C113.059 295.046 113.671 294.884 114.223 294.56C114.787 294.236 115.231 293.774 115.555 293.174C115.879 292.574 116.041 291.878 116.041 291.086ZM129.069 290.582C129.069 291.014 129.057 291.344 129.033 291.572H120.879C120.915 292.316 121.095 292.952 121.419 293.48C121.743 294.008 122.169 294.41 122.697 294.686C123.225 294.95 123.801 295.082 124.425 295.082C125.241 295.082 125.925 294.884 126.477 294.488C127.041 294.092 127.413 293.558 127.593 292.886H128.925C128.685 293.846 128.169 294.632 127.377 295.244C126.597 295.844 125.613 296.144 124.425 296.144C123.501 296.144 122.673 295.94 121.941 295.532C121.209 295.112 120.633 294.524 120.213 293.768C119.805 293 119.601 292.106 119.601 291.086C119.601 290.066 119.805 289.172 120.213 288.404C120.621 287.636 121.191 287.048 121.923 286.64C122.655 286.232 123.489 286.028 124.425 286.028C125.361 286.028 126.177 286.232 126.873 286.64C127.581 287.048 128.121 287.6 128.493 288.296C128.877 288.98 129.069 289.742 129.069 290.582ZM127.791 290.546C127.803 289.814 127.653 289.19 127.341 288.674C127.041 288.158 126.627 287.768 126.099 287.504C125.571 287.24 124.995 287.108 124.371 287.108C123.435 287.108 122.637 287.408 121.977 288.008C121.317 288.608 120.951 289.454 120.879 290.546H127.791ZM144.414 286.172L138.582 300.626H137.268L139.176 295.946L135.144 286.172H136.53L139.878 294.56L143.118 286.172H144.414ZM150.425 296.144C149.501 296.144 148.667 295.94 147.923 295.532C147.191 295.112 146.609 294.524 146.177 293.768C145.757 293 145.547 292.106 145.547 291.086C145.547 290.066 145.763 289.178 146.195 288.422C146.627 287.654 147.215 287.066 147.959 286.658C148.703 286.238 149.537 286.028 150.461 286.028C151.385 286.028 152.219 286.238 152.963 286.658C153.719 287.066 154.307 287.654 154.727 288.422C155.159 289.178 155.375 290.066 155.375 291.086C155.375 292.094 155.159 292.982 154.727 293.75C154.295 294.518 153.701 295.112 152.945 295.532C152.189 295.94 151.349 296.144 150.425 296.144ZM150.425 295.046C151.073 295.046 151.673 294.902 152.225 294.614C152.777 294.314 153.221 293.87 153.557 293.282C153.905 292.682 154.079 291.95 154.079 291.086C154.079 290.222 153.911 289.496 153.575 288.908C153.239 288.308 152.795 287.864 152.243 287.576C151.691 287.276 151.091 287.126 150.443 287.126C149.795 287.126 149.195 287.276 148.643 287.576C148.091 287.864 147.647 288.308 147.311 288.908C146.987 289.496 146.825 290.222 146.825 291.086C146.825 291.95 146.987 292.682 147.311 293.282C147.647 293.87 148.085 294.314 148.625 294.614C149.177 294.902 149.777 295.046 150.425 295.046ZM166.185 286.172V296H164.925V294.272C164.637 294.884 164.193 295.352 163.593 295.676C162.993 296 162.321 296.162 161.577 296.162C160.401 296.162 159.441 295.802 158.697 295.082C157.953 294.35 157.581 293.294 157.581 291.914V286.172H158.823V291.77C158.823 292.838 159.087 293.654 159.615 294.218C160.155 294.782 160.887 295.064 161.811 295.064C162.759 295.064 163.515 294.764 164.079 294.164C164.643 293.564 164.925 292.682 164.925 291.518V286.172H166.185ZM177.386 296.144C176.258 296.144 175.334 295.886 174.614 295.37C173.906 294.842 173.51 294.128 173.426 293.228H174.722C174.782 293.78 175.04 294.23 175.496 294.578C175.964 294.914 176.588 295.082 177.368 295.082C178.052 295.082 178.586 294.92 178.97 294.596C179.366 294.272 179.564 293.87 179.564 293.39C179.564 293.054 179.456 292.778 179.24 292.562C179.024 292.346 178.748 292.178 178.412 292.058C178.088 291.926 177.644 291.788 177.08 291.644C176.348 291.452 175.754 291.26 175.298 291.068C174.842 290.876 174.452 290.594 174.128 290.222C173.816 289.838 173.66 289.328 173.66 288.692C173.66 288.212 173.804 287.768 174.092 287.36C174.38 286.952 174.788 286.628 175.316 286.388C175.844 286.148 176.444 286.028 177.116 286.028C178.172 286.028 179.024 286.298 179.672 286.838C180.32 287.366 180.668 288.098 180.716 289.034H179.456C179.42 288.458 179.192 287.996 178.772 287.648C178.364 287.288 177.8 287.108 177.08 287.108C176.444 287.108 175.928 287.258 175.532 287.558C175.136 287.858 174.938 288.23 174.938 288.674C174.938 289.058 175.052 289.376 175.28 289.628C175.52 289.868 175.814 290.06 176.162 290.204C176.51 290.336 176.978 290.486 177.566 290.654C178.274 290.846 178.838 291.032 179.258 291.212C179.678 291.392 180.038 291.656 180.338 292.004C180.638 292.352 180.794 292.814 180.806 293.39C180.806 293.918 180.662 294.392 180.374 294.812C180.086 295.22 179.684 295.544 179.168 295.784C178.652 296.024 178.058 296.144 177.386 296.144ZM187.857 285.992C188.601 285.992 189.267 286.148 189.855 286.46C190.455 286.772 190.923 287.252 191.259 287.9C191.607 288.536 191.781 289.316 191.781 290.24V296H190.539V290.384C190.539 289.316 190.269 288.5 189.729 287.936C189.201 287.372 188.475 287.09 187.551 287.09C186.603 287.09 185.847 287.39 185.283 287.99C184.719 288.59 184.437 289.472 184.437 290.636V296H183.177V282.68H184.437V287.846C184.749 287.258 185.205 286.802 185.805 286.478C186.417 286.154 187.101 285.992 187.857 285.992ZM198.87 296.144C197.946 296.144 197.112 295.94 196.368 295.532C195.636 295.112 195.054 294.524 194.622 293.768C194.202 293 193.992 292.106 193.992 291.086C193.992 290.066 194.208 289.178 194.64 288.422C195.072 287.654 195.66 287.066 196.404 286.658C197.148 286.238 197.982 286.028 198.906 286.028C199.83 286.028 200.664 286.238 201.408 286.658C202.164 287.066 202.752 287.654 203.172 288.422C203.604 289.178 203.82 290.066 203.82 291.086C203.82 292.094 203.604 292.982 203.172 293.75C202.74 294.518 202.146 295.112 201.39 295.532C200.634 295.94 199.794 296.144 198.87 296.144ZM198.87 295.046C199.518 295.046 200.118 294.902 200.67 294.614C201.222 294.314 201.666 293.87 202.002 293.282C202.35 292.682 202.524 291.95 202.524 291.086C202.524 290.222 202.356 289.496 202.02 288.908C201.684 288.308 201.24 287.864 200.688 287.576C200.136 287.276 199.536 287.126 198.888 287.126C198.24 287.126 197.64 287.276 197.088 287.576C196.536 287.864 196.092 288.308 195.756 288.908C195.432 289.496 195.27 290.222 195.27 291.086C195.27 291.95 195.432 292.682 195.756 293.282C196.092 293.87 196.53 294.314 197.07 294.614C197.622 294.902 198.222 295.046 198.87 295.046ZM214.631 286.172V296H213.371V294.272C213.083 294.884 212.639 295.352 212.039 295.676C211.439 296 210.767 296.162 210.023 296.162C208.847 296.162 207.887 295.802 207.143 295.082C206.399 294.35 206.027 293.294 206.027 291.914V286.172H207.269V291.77C207.269 292.838 207.533 293.654 208.061 294.218C208.601 294.782 209.333 295.064 210.257 295.064C211.205 295.064 211.961 294.764 212.525 294.164C213.089 293.564 213.371 292.682 213.371 291.518V286.172H214.631ZM218.767 282.68V296H217.507V282.68H218.767ZM221.045 291.068C221.045 290.06 221.249 289.178 221.657 288.422C222.065 287.654 222.623 287.066 223.331 286.658C224.051 286.238 224.861 286.028 225.761 286.028C226.625 286.028 227.405 286.238 228.101 286.658C228.797 287.078 229.307 287.624 229.631 288.296V282.68H230.891V296H229.631V293.804C229.331 294.488 228.839 295.052 228.155 295.496C227.471 295.928 226.667 296.144 225.743 296.144C224.843 296.144 224.033 295.934 223.313 295.514C222.605 295.094 222.047 294.5 221.639 293.732C221.243 292.964 221.045 292.076 221.045 291.068ZM229.631 291.086C229.631 290.294 229.469 289.598 229.145 288.998C228.821 288.398 228.377 287.936 227.813 287.612C227.261 287.288 226.649 287.126 225.977 287.126C225.281 287.126 224.657 287.282 224.105 287.594C223.553 287.906 223.115 288.362 222.791 288.962C222.479 289.55 222.323 290.252 222.323 291.068C222.323 291.872 222.479 292.58 222.791 293.192C223.115 293.792 223.553 294.254 224.105 294.578C224.657 294.89 225.281 295.046 225.977 295.046C226.649 295.046 227.261 294.884 227.813 294.56C228.377 294.236 228.821 293.774 229.145 293.174C229.469 292.574 229.631 291.878 229.631 291.086ZM243.315 285.992C244.491 285.992 245.451 286.358 246.195 287.09C246.939 287.81 247.311 288.86 247.311 290.24V296H246.069V290.384C246.069 289.316 245.799 288.5 245.259 287.936C244.731 287.372 244.005 287.09 243.081 287.09C242.133 287.09 241.377 287.39 240.813 287.99C240.249 288.59 239.967 289.472 239.967 290.636V296H238.707V286.172H239.967V287.846C240.279 287.246 240.729 286.79 241.317 286.478C241.905 286.154 242.571 285.992 243.315 285.992ZM254.399 296.144C253.475 296.144 252.641 295.94 251.897 295.532C251.165 295.112 250.583 294.524 250.151 293.768C249.731 293 249.521 292.106 249.521 291.086C249.521 290.066 249.737 289.178 250.169 288.422C250.601 287.654 251.189 287.066 251.933 286.658C252.677 286.238 253.511 286.028 254.435 286.028C255.359 286.028 256.193 286.238 256.937 286.658C257.693 287.066 258.281 287.654 258.701 288.422C259.133 289.178 259.349 290.066 259.349 291.086C259.349 292.094 259.133 292.982 258.701 293.75C258.269 294.518 257.675 295.112 256.919 295.532C256.163 295.94 255.323 296.144 254.399 296.144ZM254.399 295.046C255.047 295.046 255.647 294.902 256.199 294.614C256.751 294.314 257.195 293.87 257.531 293.282C257.879 292.682 258.053 291.95 258.053 291.086C258.053 290.222 257.885 289.496 257.549 288.908C257.213 288.308 256.769 287.864 256.217 287.576C255.665 287.276 255.065 287.126 254.417 287.126C253.769 287.126 253.169 287.276 252.617 287.576C252.065 287.864 251.621 288.308 251.285 288.908C250.961 289.496 250.799 290.222 250.799 291.086C250.799 291.95 250.961 292.682 251.285 293.282C251.621 293.87 252.059 294.314 252.599 294.614C253.151 294.902 253.751 295.046 254.399 295.046ZM263.284 287.234V293.336C263.284 293.936 263.398 294.35 263.626 294.578C263.854 294.806 264.256 294.92 264.832 294.92H265.984V296H264.634C263.746 296 263.086 295.796 262.654 295.388C262.222 294.968 262.006 294.284 262.006 293.336V287.234H260.638V286.172H262.006V283.706H263.284V286.172H265.984V287.234H263.284ZM141.071 312.992C142.223 312.992 143.159 313.358 143.879 314.09C144.611 314.81 144.977 315.86 144.977 317.24V323H143.735V317.384C143.735 316.316 143.477 315.5 142.961 314.936C142.445 314.372 141.743 314.09 140.855 314.09C139.931 314.09 139.193 314.396 138.641 315.008C138.089 315.62 137.813 316.508 137.813 317.672V323H136.571V317.384C136.571 316.316 136.313 315.5 135.797 314.936C135.281 314.372 134.573 314.09 133.673 314.09C132.749 314.09 132.011 314.396 131.459 315.008C130.907 315.62 130.631 316.508 130.631 317.672V323H129.371V313.172H130.631V314.864C130.943 314.252 131.387 313.79 131.963 313.478C132.539 313.154 133.181 312.992 133.889 312.992C134.741 312.992 135.485 313.196 136.121 313.604C136.769 314.012 137.237 314.612 137.525 315.404C137.789 314.624 138.239 314.03 138.875 313.622C139.523 313.202 140.255 312.992 141.071 312.992ZM148.405 311.318C148.153 311.318 147.937 311.228 147.757 311.048C147.577 310.868 147.487 310.646 147.487 310.382C147.487 310.118 147.577 309.902 147.757 309.734C147.937 309.554 148.153 309.464 148.405 309.464C148.657 309.464 148.873 309.554 149.053 309.734C149.233 309.902 149.323 310.118 149.323 310.382C149.323 310.646 149.233 310.868 149.053 311.048C148.873 311.228 148.657 311.318 148.405 311.318ZM149.035 313.172V323H147.775V313.172H149.035ZM155.272 323.144C154.144 323.144 153.22 322.886 152.5 322.37C151.792 321.842 151.396 321.128 151.312 320.228H152.608C152.668 320.78 152.926 321.23 153.382 321.578C153.85 321.914 154.474 322.082 155.254 322.082C155.938 322.082 156.472 321.92 156.856 321.596C157.252 321.272 157.45 320.87 157.45 320.39C157.45 320.054 157.342 319.778 157.126 319.562C156.91 319.346 156.634 319.178 156.298 319.058C155.974 318.926 155.53 318.788 154.966 318.644C154.234 318.452 153.64 318.26 153.184 318.068C152.728 317.876 152.338 317.594 152.014 317.222C151.702 316.838 151.546 316.328 151.546 315.692C151.546 315.212 151.69 314.768 151.978 314.36C152.266 313.952 152.674 313.628 153.202 313.388C153.73 313.148 154.33 313.028 155.002 313.028C156.058 313.028 156.91 313.298 157.558 313.838C158.206 314.366 158.554 315.098 158.602 316.034H157.342C157.306 315.458 157.078 314.996 156.658 314.648C156.25 314.288 155.686 314.108 154.966 314.108C154.33 314.108 153.814 314.258 153.418 314.558C153.022 314.858 152.824 315.23 152.824 315.674C152.824 316.058 152.938 316.376 153.166 316.628C153.406 316.868 153.7 317.06 154.048 317.204C154.396 317.336 154.864 317.486 155.452 317.654C156.16 317.846 156.724 318.032 157.144 318.212C157.564 318.392 157.924 318.656 158.224 319.004C158.524 319.352 158.68 319.814 158.692 320.39C158.692 320.918 158.548 321.392 158.26 321.812C157.972 322.22 157.57 322.544 157.054 322.784C156.538 323.024 155.944 323.144 155.272 323.144ZM164.448 323.144C163.32 323.144 162.396 322.886 161.676 322.37C160.968 321.842 160.572 321.128 160.488 320.228H161.784C161.844 320.78 162.102 321.23 162.558 321.578C163.026 321.914 163.65 322.082 164.43 322.082C165.114 322.082 165.648 321.92 166.032 321.596C166.428 321.272 166.626 320.87 166.626 320.39C166.626 320.054 166.518 319.778 166.302 319.562C166.086 319.346 165.81 319.178 165.474 319.058C165.15 318.926 164.706 318.788 164.142 318.644C163.41 318.452 162.816 318.26 162.36 318.068C161.904 317.876 161.514 317.594 161.19 317.222C160.878 316.838 160.722 316.328 160.722 315.692C160.722 315.212 160.866 314.768 161.154 314.36C161.442 313.952 161.85 313.628 162.378 313.388C162.906 313.148 163.506 313.028 164.178 313.028C165.234 313.028 166.086 313.298 166.734 313.838C167.382 314.366 167.73 315.098 167.778 316.034H166.518C166.482 315.458 166.254 314.996 165.834 314.648C165.426 314.288 164.862 314.108 164.142 314.108C163.506 314.108 162.99 314.258 162.594 314.558C162.198 314.858 162 315.23 162 315.674C162 316.058 162.114 316.376 162.342 316.628C162.582 316.868 162.876 317.06 163.224 317.204C163.572 317.336 164.04 317.486 164.628 317.654C165.336 317.846 165.9 318.032 166.32 318.212C166.74 318.392 167.1 318.656 167.4 319.004C167.7 319.352 167.856 319.814 167.868 320.39C167.868 320.918 167.724 321.392 167.436 321.812C167.148 322.22 166.746 322.544 166.23 322.784C165.714 323.024 165.12 323.144 164.448 323.144ZM170.456 323.09C170.192 323.09 169.97 323 169.79 322.82C169.622 322.64 169.538 322.418 169.538 322.154C169.538 321.89 169.622 321.674 169.79 321.506C169.97 321.326 170.192 321.236 170.456 321.236C170.708 321.236 170.918 321.326 171.086 321.506C171.266 321.674 171.356 321.89 171.356 322.154C171.356 322.418 171.266 322.64 171.086 322.82C170.918 323 170.708 323.09 170.456 323.09Z" fill="#333333"/>
</svg>
