<svg width="34" height="37" viewBox="0 0 34 37" fill="none" xmlns="http://www.w3.org/2000/svg">
<path d="M28.6667 17H5.33333C3.49238 17 2 18.4924 2 20.3333V32C2 33.841 3.49238 35.3333 5.33333 35.3333H28.6667C30.5076 35.3333 32 33.841 32 32V20.3333C32 18.4924 30.5076 17 28.6667 17Z" stroke="#0084AE" stroke-width="3" stroke-linecap="round" stroke-linejoin="round"/>
<path d="M8.66669 17V10.3333C8.66669 8.1232 9.54466 6.00358 11.1075 4.44078C12.6703 2.87797 14.7899 2 17 2C19.2102 2 21.3298 2.87797 22.8926 4.44078C24.4554 6.00358 25.3334 8.1232 25.3334 10.3333V17" stroke="#0084AE" stroke-width="3" stroke-linecap="round" stroke-linejoin="round"/>
</svg>
