<svg width="150" height="44" viewBox="0 0 150 44" fill="none" xmlns="http://www.w3.org/2000/svg">
<path d="M145.312 43.5H4.6875C2.35523 43.5 0.5 41.7145 0.5 39.6V4.4C0.5 2.28548 2.35523 0.5 4.6875 0.5H145.312C147.645 0.5 149.5 2.28548 149.5 4.4V39.6C149.5 41.7145 147.645 43.5 145.312 43.5Z" fill="black" stroke="#A6A6A6"/>
<path d="M31.6406 21.78C31.6406 18.37 34.6875 16.72 34.8047 16.61C33.0469 14.3 30.4688 13.97 29.5313 13.86C27.3047 13.64 25.0781 15.07 24.0234 15.07C22.8516 15.07 21.0938 13.86 19.2188 13.86C16.7578 13.86 14.5313 15.18 13.2422 17.27C10.6641 21.45 12.5391 27.61 15 31.02C16.2891 32.67 17.6953 34.54 19.5703 34.43C21.4453 34.32 22.1484 33.33 24.375 33.33C26.6016 33.33 27.1875 34.43 29.1797 34.43C31.1719 34.43 32.4609 32.78 33.6328 31.13C35.0391 29.26 35.625 27.39 35.625 27.28C35.5078 27.17 31.6406 25.85 31.6406 21.78Z" fill="white"/>
<path d="M28.0078 11.66C28.9453 10.45 29.6484 8.91001 29.5312 7.26001C28.125 7.37001 26.25 8.14001 25.3125 9.35001C24.375 10.34 23.5547 11.99 23.7891 13.53C25.3125 13.64 26.9531 12.76 28.0078 11.66Z" fill="white"/>
<path d="M58.3594 34.21H55.7813L54.375 30.03H49.4531L48.1641 34.21H45.7031L50.625 20.02H53.6719L58.3594 34.21ZM53.9063 28.27L52.6172 24.53C52.5 24.2 52.2656 23.21 51.7969 21.89C51.6797 22.44 51.4453 23.43 51.0938 24.53L49.8047 28.27H53.9063Z" fill="white"/>
<path d="M70.8984 29.04C70.8984 30.8 70.4297 32.12 69.375 33.22C68.4375 34.1 67.3828 34.54 65.9766 34.54C64.5703 34.54 63.5156 34.1 62.9297 33.11V38.5H60.4688V27.5C60.4688 26.4 60.4688 25.3 60.3516 24.09H62.4609L62.5781 25.74C63.3984 24.53 64.5703 23.87 66.2109 23.87C67.5 23.87 68.5547 24.31 69.375 25.3C70.4297 26.18 70.8984 27.39 70.8984 29.04ZM68.4375 29.04C68.4375 28.05 68.2031 27.17 67.7344 26.62C67.2656 25.96 66.5625 25.63 65.625 25.63C65.0391 25.63 64.4531 25.85 63.9844 26.18C63.5156 26.51 63.1641 27.06 63.0469 27.61C62.9297 27.94 62.9297 28.16 62.9297 28.27V30.03C62.9297 30.8 63.1641 31.35 63.6328 31.9C64.1016 32.45 64.8047 32.67 65.5078 32.67C66.4453 32.67 67.1484 32.34 67.6172 31.68C68.2031 31.02 68.4375 30.14 68.4375 29.04Z" fill="white"/>
<path d="M83.4375 29.04C83.4375 30.8 82.9688 32.12 81.9141 33.22C80.9766 34.1 79.9219 34.54 78.5156 34.54C77.1094 34.54 76.0547 34.1 75.4687 33.11V38.5H73.0078V27.5C73.0078 26.4 73.0078 25.3 72.8906 24.09H75L75.1172 25.74C75.9375 24.53 77.1094 23.87 78.75 23.87C80.0391 23.87 81.0938 24.31 81.9141 25.3C82.9688 26.18 83.4375 27.39 83.4375 29.04ZM80.9766 29.04C80.9766 28.05 80.7422 27.17 80.2734 26.62C79.8047 25.96 79.1016 25.63 78.1641 25.63C77.5781 25.63 76.9922 25.85 76.5234 26.18C76.0547 26.51 75.7031 27.06 75.5859 27.61C75.4687 27.94 75.4687 28.16 75.4687 28.27V30.03C75.4687 30.8 75.7031 31.35 76.1719 31.9C76.6406 32.45 77.3438 32.67 78.0469 32.67C78.9844 32.67 79.6875 32.34 80.1563 31.68C80.7422 31.02 80.9766 30.14 80.9766 29.04Z" fill="white"/>
<path d="M97.5 30.25C97.5 31.46 97.0313 32.45 96.2109 33.22C95.2734 34.1 93.8672 34.43 92.1094 34.43C90.4688 34.43 89.1797 34.1 88.2422 33.55L88.8281 31.68C89.8828 32.23 91.0547 32.56 92.3438 32.56C93.2813 32.56 93.9844 32.34 94.4531 32.01C94.9219 31.57 95.1563 31.13 95.1563 30.47C95.1563 29.92 94.9219 29.37 94.5703 29.04C94.1016 28.6 93.3984 28.27 92.4609 27.94C89.7656 27.06 88.4766 25.63 88.4766 23.87C88.4766 22.66 88.9453 21.78 89.8828 21.01C90.8203 20.24 91.9922 19.91 93.6328 19.91C95.0391 19.91 96.0938 20.13 97.0313 20.57L96.4453 22.44C95.625 22 94.6875 21.78 93.5156 21.78C92.6953 21.78 91.9922 22 91.5234 22.33C91.1719 22.66 90.9375 23.1 90.9375 23.65C90.9375 24.2 91.1719 24.64 91.6406 25.08C91.9922 25.41 92.8125 25.74 93.8672 26.18C95.1563 26.62 96.0938 27.28 96.7969 27.94C97.1484 28.49 97.5 29.26 97.5 30.25Z" fill="white"/>
<path d="M105.469 25.74H102.773V30.69C102.773 31.9 103.242 32.56 104.18 32.56C104.648 32.56 105 32.56 105.234 32.45L105.352 34.21C104.883 34.43 104.297 34.43 103.477 34.43C102.539 34.43 101.719 34.21 101.25 33.66C100.664 33.11 100.43 32.23 100.43 30.91V25.74H98.7891V23.98H100.43V22.11L102.773 21.45V23.98H105.469V25.74Z" fill="white"/>
<path d="M117.539 29.04C117.539 30.58 117.07 31.9 116.133 32.89C115.078 33.88 113.789 34.43 112.148 34.43C110.508 34.43 109.219 33.88 108.281 32.89C107.344 31.9 106.875 30.69 106.875 29.15C106.875 27.61 107.344 26.29 108.398 25.3C109.336 24.31 110.742 23.76 112.383 23.76C114.023 23.76 115.312 24.31 116.25 25.3C117.07 26.29 117.539 27.5 117.539 29.04ZM114.961 29.15C114.961 28.16 114.727 27.39 114.258 26.73C113.789 25.96 112.969 25.52 112.031 25.52C111.094 25.52 110.273 25.96 109.805 26.73C109.336 27.39 109.102 28.27 109.102 29.15C109.102 30.14 109.336 30.91 109.805 31.57C110.273 32.34 111.094 32.78 112.031 32.78C112.969 32.78 113.672 32.34 114.258 31.57C114.727 30.91 114.961 30.03 114.961 29.15Z" fill="white"/>
<path d="M125.391 25.96C125.156 25.96 124.922 25.85 124.57 25.85C123.75 25.85 123.047 26.18 122.578 26.73C122.227 27.28 121.992 27.94 121.992 28.71V34.1H119.531V27.06C119.531 25.85 119.531 24.86 119.414 23.87H121.523L121.641 25.85H121.758C121.992 25.19 122.461 24.64 122.93 24.2C123.516 23.87 124.102 23.65 124.688 23.65C124.922 23.65 125.156 23.65 125.273 23.65V25.96H125.391Z" fill="white"/>
<path d="M136.172 28.6C136.172 29.04 136.172 29.37 136.055 29.59H128.789C128.789 30.58 129.141 31.35 129.844 31.9C130.43 32.34 131.25 32.67 132.187 32.67C133.242 32.67 134.297 32.56 135.117 32.23L135.469 33.77C134.414 34.21 133.242 34.43 131.836 34.43C130.195 34.43 128.789 33.99 127.852 33C126.914 32.12 126.445 30.8 126.445 29.26C126.445 27.72 126.914 26.4 127.734 25.41C128.672 24.31 129.961 23.76 131.602 23.76C133.125 23.76 134.414 24.31 135.117 25.41C135.938 26.29 136.172 27.39 136.172 28.6ZM133.945 28.05C133.945 27.39 133.828 26.84 133.477 26.29C133.008 25.63 132.422 25.3 131.602 25.3C130.781 25.3 130.195 25.63 129.727 26.18C129.375 26.62 129.141 27.28 129.023 27.94H133.945V28.05Z" fill="white"/>
<path d="M53.2031 11.33C53.2031 12.54 52.8516 13.53 52.0312 14.19C51.3281 14.74 50.2734 15.07 48.8672 15.07C48.1641 15.07 47.5781 15.07 47.1094 14.96V8.14C47.6953 8.03 48.3984 8.03 49.2187 8.03C50.5078 8.03 51.4453 8.25 52.1484 8.8C52.7344 9.35 53.2031 10.23 53.2031 11.33ZM51.9141 11.33C51.9141 10.56 51.6797 9.9 51.2109 9.46C50.7422 9.02 50.0391 8.8 49.2187 8.8C48.8672 8.8 48.5156 8.8 48.2812 8.91V14.08C48.3984 14.08 48.75 14.08 49.1016 14.08C50.0391 14.08 50.7422 13.86 51.2109 13.42C51.6797 12.98 51.9141 12.21 51.9141 11.33Z" fill="white"/>
<path d="M59.7656 12.43C59.7656 13.2 59.5313 13.86 59.0625 14.3C58.5938 14.85 57.8906 15.07 57.0703 15.07C56.25 15.07 55.6641 14.85 55.1953 14.3C54.7266 13.86 54.4922 13.2 54.4922 12.43C54.4922 11.66 54.7266 11 55.1953 10.56C55.6641 10.01 56.3672 9.79001 57.1875 9.79001C58.0078 9.79001 58.5938 10.01 59.0625 10.56C59.5313 11 59.7656 11.66 59.7656 12.43ZM58.5938 12.43C58.5938 11.99 58.4766 11.55 58.2422 11.22C58.0078 10.78 57.6563 10.67 57.1875 10.67C56.7188 10.67 56.3672 10.89 56.1328 11.22C55.8984 11.55 55.7813 11.99 55.7813 12.43C55.7813 12.87 55.8984 13.31 56.1328 13.64C56.3672 14.08 56.7188 14.19 57.1875 14.19C57.6563 14.19 58.0078 13.97 58.2422 13.53C58.4766 13.31 58.5938 12.87 58.5938 12.43Z" fill="white"/>
<path d="M68.7891 9.89999L67.1484 14.96H66.0938L65.3906 12.76C65.1563 12.21 65.0391 11.66 64.9219 11.11C64.8047 11.66 64.6875 12.21 64.4531 12.76L63.75 14.96H62.6953L60.9375 9.89999H62.1094L62.6953 12.32C62.8125 12.87 62.9297 13.42 63.0469 13.97C63.1641 13.53 63.2813 12.98 63.5156 12.32L64.2188 9.89999H65.1563L65.8594 12.21C66.0938 12.76 66.2109 13.31 66.3281 13.86C66.4453 13.31 66.5625 12.76 66.6797 12.21L67.3828 9.89999H68.7891Z" fill="white"/>
<path d="M74.8828 14.96H73.7109V12.1C73.7109 11.22 73.3594 10.78 72.6562 10.78C72.3047 10.78 72.0703 10.89 71.8359 11.11C71.6016 11.33 71.4844 11.66 71.4844 11.99V14.96H70.3125V11.33C70.3125 10.89 70.3125 10.45 70.3125 9.89999H71.3672V10.67C71.4844 10.45 71.7187 10.23 71.9531 10.01C72.3047 9.78999 72.6562 9.67999 73.0078 9.67999C73.4766 9.67999 73.9453 9.78999 74.2969 10.12C74.7656 10.45 74.8828 11 74.8828 11.77V14.96Z" fill="white"/>
<path d="M78.1641 14.96H76.9922V7.59H78.1641V14.96Z" fill="white"/>
<path d="M85.1953 12.43C85.1953 13.2 84.9609 13.86 84.4922 14.3C84.0234 14.85 83.3203 15.07 82.5 15.07C81.6797 15.07 81.0937 14.85 80.625 14.3C80.1562 13.86 79.9219 13.2 79.9219 12.43C79.9219 11.66 80.1562 11 80.625 10.56C81.0937 10.12 81.7969 9.79001 82.6172 9.79001C83.4375 9.79001 84.0234 10.01 84.4922 10.56C84.9609 11 85.1953 11.66 85.1953 12.43ZM84.0234 12.43C84.0234 11.99 83.9062 11.55 83.6719 11.22C83.4375 10.78 83.0859 10.67 82.6172 10.67C82.1484 10.67 81.7969 10.89 81.5625 11.22C81.3281 11.55 81.2109 11.99 81.2109 12.43C81.2109 12.87 81.3281 13.31 81.5625 13.64C81.7969 14.08 82.1484 14.19 82.6172 14.19C83.0859 14.19 83.4375 13.97 83.6719 13.53C83.9062 13.31 84.0234 12.87 84.0234 12.43Z" fill="white"/>
<path d="M90.9375 14.96H89.8828L89.7656 14.41C89.4141 14.85 88.8281 15.07 88.2422 15.07C87.7734 15.07 87.3047 14.96 87.0703 14.63C86.8359 14.3 86.6016 13.97 86.6016 13.64C86.6016 12.98 86.8359 12.54 87.4219 12.21C88.0078 11.88 88.7109 11.77 89.7656 11.77V11.66C89.7656 11 89.4141 10.67 88.7109 10.67C88.125 10.67 87.7734 10.78 87.3047 11L87.0703 10.23C87.5391 9.90001 88.125 9.79001 88.9453 9.79001C90.3516 9.79001 91.0547 10.45 91.0547 11.88V13.75C90.9375 14.3 90.9375 14.63 90.9375 14.96ZM89.7656 13.2V12.43C88.4766 12.43 87.7734 12.76 87.7734 13.42C87.7734 13.64 87.8906 13.86 88.0078 13.97C88.125 14.08 88.3594 14.19 88.5938 14.19C88.8281 14.19 89.0625 14.08 89.2969 13.97C89.5313 13.86 89.6484 13.64 89.7656 13.42C89.7656 13.42 89.7656 13.31 89.7656 13.2Z" fill="white"/>
<path d="M97.7344 14.96H96.6797V14.19C96.3281 14.85 95.7422 15.07 94.9219 15.07C94.2187 15.07 93.75 14.85 93.2812 14.41C92.8125 13.97 92.6953 13.31 92.6953 12.54C92.6953 11.77 92.9297 11.11 93.3984 10.56C93.8672 10.12 94.4531 9.90001 95.0391 9.90001C95.7422 9.90001 96.2109 10.12 96.5625 10.56V7.70001H97.7344V13.64C97.7344 14.08 97.7344 14.52 97.7344 14.96ZM96.5625 12.87V11.99C96.5625 11.88 96.5625 11.77 96.5625 11.66C96.4453 11.44 96.3281 11.22 96.0937 11C95.8594 10.78 95.625 10.78 95.2734 10.78C94.8047 10.78 94.4531 11 94.2187 11.33C93.9844 11.66 93.8672 12.1 93.8672 12.65C93.8672 13.2 93.9844 13.53 94.2187 13.86C94.4531 14.19 94.8047 14.41 95.2734 14.41C95.625 14.41 95.9766 14.3 96.2109 13.97C96.4453 13.53 96.5625 13.2 96.5625 12.87Z" fill="white"/>
<path d="M107.93 12.43C107.93 13.2 107.695 13.86 107.227 14.3C106.758 14.85 106.055 15.07 105.234 15.07C104.414 15.07 103.828 14.85 103.359 14.3C102.891 13.86 102.656 13.2 102.656 12.43C102.656 11.66 102.891 11 103.359 10.56C103.828 10.01 104.531 9.79001 105.352 9.79001C106.172 9.79001 106.758 10.01 107.227 10.56C107.695 11 107.93 11.66 107.93 12.43ZM106.641 12.43C106.641 11.99 106.523 11.55 106.289 11.22C106.055 10.78 105.703 10.67 105.234 10.67C104.766 10.67 104.414 10.89 104.18 11.22C103.945 11.55 103.828 11.99 103.828 12.43C103.828 12.87 103.945 13.31 104.18 13.64C104.414 14.08 104.766 14.19 105.234 14.19C105.703 14.19 106.055 13.97 106.289 13.53C106.523 13.31 106.641 12.87 106.641 12.43Z" fill="white"/>
<path d="M114.375 14.96H113.203V12.1C113.203 11.22 112.852 10.78 112.148 10.78C111.797 10.78 111.563 10.89 111.328 11.11C111.094 11.33 110.977 11.66 110.977 11.99V14.96H109.805V11.33C109.805 10.89 109.805 10.45 109.805 9.89999H110.859V10.67C110.977 10.45 111.211 10.23 111.445 10.01C111.797 9.78999 112.148 9.67999 112.5 9.67999C112.969 9.67999 113.438 9.78999 113.789 10.12C114.258 10.45 114.375 11 114.375 11.77V14.96Z" fill="white"/>
<path d="M122.344 10.78H121.055V13.2C121.055 13.86 121.289 14.08 121.758 14.08C121.992 14.08 122.109 14.08 122.344 14.08V14.96C122.109 15.07 121.758 15.07 121.406 15.07C120.938 15.07 120.586 14.96 120.352 14.63C120.117 14.41 120 13.86 120 13.31V10.78H119.18V9.9H120V9.02L121.172 8.69V9.9H122.461V10.78H122.344Z" fill="white"/>
<path d="M128.672 14.96H127.5V12.1C127.5 11.22 127.148 10.78 126.445 10.78C125.859 10.78 125.508 11 125.273 11.55C125.273 11.66 125.273 11.77 125.273 11.99V14.96H124.102V7.59H125.273V10.67C125.625 10.12 126.211 9.79 126.914 9.79C127.383 9.79 127.852 9.9 128.086 10.23C128.438 10.56 128.672 11.22 128.672 11.88V14.96Z" fill="white"/>
<path d="M135.117 12.21C135.117 12.43 135.117 12.54 135.117 12.76H131.602C131.602 13.31 131.836 13.64 132.07 13.86C132.422 14.08 132.773 14.19 133.242 14.19C133.828 14.19 134.297 14.08 134.648 13.97L134.883 14.74C134.414 14.96 133.828 15.07 133.125 15.07C132.305 15.07 131.602 14.85 131.133 14.41C130.664 13.97 130.43 13.31 130.43 12.54C130.43 11.77 130.664 11.11 131.133 10.67C131.602 10.12 132.187 9.89999 133.008 9.89999C133.828 9.89999 134.414 10.12 134.766 10.67C135 11 135.117 11.55 135.117 12.21ZM134.063 11.88C134.063 11.55 133.945 11.22 133.828 11C133.594 10.67 133.359 10.56 132.891 10.56C132.539 10.56 132.188 10.67 131.953 11C131.719 11.22 131.602 11.55 131.602 11.88H134.063Z" fill="white"/>
</svg>
