<svg width="150" height="45" viewBox="0 0 150 45" fill="none" xmlns="http://www.w3.org/2000/svg">
<g clip-path="url(#clip0)">
<path fill-rule="evenodd" clip-rule="evenodd" d="M144.442 44.2621H5.5576C2.49457 44.2621 0 41.7675 0 38.7294V5.53276C0 2.48354 2.49457 0 5.5576 0H144.442C147.503 0 150 2.48354 150 5.53276V38.7294C150 41.7675 147.503 44.2621 144.442 44.2621Z" fill="black"/>
<path fill-rule="evenodd" clip-rule="evenodd" d="M144.442 0.885794C147.011 0.885794 149.114 2.97472 149.114 5.53276V38.7294C149.114 41.2874 147.025 43.3763 144.442 43.3763H5.5576C2.98852 43.3763 0.885794 41.2874 0.885794 38.7294V5.53276C0.885794 2.97472 2.97472 0.885794 5.5576 0.885794H144.442ZM144.442 0H5.5576C2.49457 0 0 2.49457 0 5.53276V38.7294C0 41.7786 2.49457 44.2621 5.5576 44.2621H144.442C147.503 44.2621 150 41.7786 150 38.7294V5.53276C150 2.49457 147.503 0 144.442 0Z" fill="#A6A6A6"/>
<path d="M79.0205 14.6418C78.0188 14.6418 77.1744 14.2913 76.5066 13.6015C75.8444 12.9309 75.4746 12.0065 75.4911 11.0627C75.4911 10.0555 75.8333 9.20285 76.5066 8.52678C77.1717 7.83691 78.0161 7.48645 79.0177 7.48645C80.0084 7.48645 80.8528 7.83691 81.5316 8.52678C82.205 9.22493 82.5471 10.0776 82.5471 11.0627C82.5361 12.0727 82.1939 12.9254 81.5316 13.5987C80.8666 14.2941 80.0222 14.6418 79.0205 14.6418ZM49.2154 14.6418C48.2358 14.6418 47.3859 14.2969 46.6905 13.6153C46.0006 12.9364 45.6501 12.0782 45.6501 11.0655C45.6501 10.0528 46.0006 9.19457 46.6905 8.51574C47.3721 7.83415 48.222 7.48921 49.2154 7.48921C49.7011 7.48921 50.1729 7.58579 50.6255 7.78172C51.0698 7.97212 51.4313 8.23151 51.6989 8.54885L51.7651 8.62888L51.0173 9.3629L50.9401 9.27184C50.5179 8.76961 49.9522 8.52402 49.2044 8.52402C48.5366 8.52402 47.9543 8.76133 47.4742 9.23044C46.9913 9.70232 46.7457 10.3204 46.7457 11.0683C46.7457 11.8161 46.9913 12.4342 47.4742 12.9061C47.9543 13.3752 48.5366 13.6125 49.2044 13.6125C49.9163 13.6125 50.5151 13.3752 50.9815 12.9061C51.2574 12.6301 51.4285 12.2438 51.4892 11.7554H49.0912V10.7233H52.5185L52.5323 10.8171C52.5571 10.991 52.582 11.1704 52.582 11.3359C52.582 12.288 52.295 13.0578 51.7265 13.6263C51.0808 14.2996 50.2364 14.6418 49.2154 14.6418ZM88.8443 14.4955H87.7874L84.5505 9.31599L84.5781 10.2487V14.4928H83.5212V7.63546H84.7271L84.7602 7.68789L87.8039 12.5667L87.7763 11.6367V7.63546H88.8443V14.4955ZM71.0787 14.4955H70.0081V8.66751H68.1509V7.63546H72.9331V8.66751H71.076V14.4955H71.0787ZM67.2789 14.4955H66.211V7.63546H67.2789V14.4955ZM61.2771 14.4955H60.2091V8.66751H58.352V7.63546H63.1342V8.66751H61.2771V14.4955ZM57.676 14.4845H53.5809V7.63546H57.676V8.66751H54.6516V10.5495H57.3807V11.5705H54.6516V13.4525H57.676V14.4845ZM77.2903 12.8923C77.7677 13.3697 78.3472 13.6097 79.0205 13.6097C79.7131 13.6097 80.2788 13.3752 80.7507 12.8923C81.2198 12.4232 81.4571 11.8078 81.4571 11.0655C81.4571 10.3232 81.2198 9.70508 80.7535 9.23872C80.2761 8.76133 79.6938 8.52126 79.0233 8.52126C78.3306 8.52126 77.7649 8.75581 77.2958 9.23872C76.8267 9.70783 76.5894 10.3232 76.5894 11.0655C76.5894 11.8078 76.824 12.4259 77.2903 12.8923Z" fill="white"/>
<path fill-rule="evenodd" clip-rule="evenodd" d="M75.3918 24.0737C72.7841 24.0737 70.6703 26.0523 70.6703 28.7814C70.6703 31.4857 72.7979 33.4891 75.3918 33.4891C77.9995 33.4891 80.1133 31.4967 80.1133 28.7814C80.1133 26.0523 77.9995 24.0737 75.3918 24.0737ZM75.3918 31.6237C73.9652 31.6237 72.7372 30.4426 72.7372 28.7704C72.7372 27.0733 73.9679 25.9171 75.3918 25.9171C76.8185 25.9171 78.0464 27.0733 78.0464 28.7704C78.0492 30.4536 76.8185 31.6237 75.3918 31.6237ZM65.0907 24.0737C62.4829 24.0737 60.3692 26.0523 60.3692 28.7814C60.3692 31.4857 62.4967 33.4891 65.0907 33.4891C67.6984 33.4891 69.8121 31.4967 69.8121 28.7814C69.8121 26.0523 67.6956 24.0737 65.0907 24.0737ZM65.0907 31.6237C63.664 31.6237 62.436 30.4426 62.436 28.7704C62.436 27.0733 63.6668 25.9171 65.0907 25.9171C66.5173 25.9171 67.7453 27.0733 67.7453 28.7704C67.7453 30.4536 66.5173 31.6237 65.0907 31.6237ZM52.833 25.5114V27.5038H57.6152C57.469 28.6213 57.0992 29.4464 56.5335 30.0121C55.8326 30.713 54.7509 31.4747 52.8441 31.4747C49.9052 31.4747 47.6066 29.1015 47.6066 26.1626C47.6066 23.2238 49.9052 20.8506 52.8441 20.8506C54.4308 20.8506 55.587 21.477 56.4452 22.2773L57.8581 20.8644C56.666 19.722 55.0793 18.8473 52.8551 18.8473C48.8235 18.8473 45.4404 22.131 45.4404 26.1516C45.4404 30.1832 48.8207 33.456 52.8551 33.456C55.0323 33.456 56.666 32.744 57.9574 31.4029C59.2737 30.0866 59.6904 28.2295 59.6904 26.7311C59.6904 26.2648 59.6545 25.8453 59.58 25.4893H52.8303C52.833 25.4866 52.833 25.5114 52.833 25.5114ZM102.97 27.0622C102.576 26.0054 101.383 24.0627 98.9385 24.0627C96.5157 24.0627 94.5013 25.9695 94.5013 28.7704C94.5013 31.4139 96.4936 33.478 99.1731 33.478C101.325 33.478 102.578 32.1618 103.094 31.3891L101.497 30.3184C100.967 31.1049 100.23 31.6209 99.1841 31.6209C98.1272 31.6209 97.3877 31.1408 96.8965 30.1943L103.191 27.5865C103.191 27.5893 102.97 27.0622 102.97 27.0622ZM96.5515 28.6351C96.5019 26.8166 97.9644 25.8922 99.0102 25.8922C99.8353 25.8922 100.522 26.2979 100.757 26.8884L96.5515 28.6351ZM91.4382 33.1966H93.5051V19.366H91.4382V33.1966ZM88.0441 25.1196H87.9695C87.5032 24.5649 86.6174 24.0627 85.486 24.0627C83.1377 24.0627 80.9743 26.1295 80.9743 28.7842C80.9743 31.4277 83.1267 33.4698 85.486 33.4698C86.6036 33.4698 87.5032 32.9648 87.9695 32.3991H88.0441V33.0752C88.0441 34.8716 87.0838 35.8402 85.5357 35.8402C84.2691 35.8402 83.4826 34.9295 83.1625 34.1679L81.3661 34.9185C81.8821 36.1603 83.2591 37.6973 85.5329 37.6973C87.9558 37.6973 90.0088 36.2706 90.0088 32.7909V24.3442H88.0551V25.1196C88.0579 25.1196 88.0441 25.1196 88.0441 25.1196ZM85.6709 31.6237C84.2442 31.6237 83.0521 30.4316 83.0521 28.7842C83.0521 27.1229 84.2442 25.9198 85.6709 25.9198C87.0838 25.9198 88.1793 27.1367 88.1793 28.7842C88.1931 30.4316 87.0865 31.6237 85.6709 31.6237ZM112.648 19.366H107.705V33.1966H109.772V27.9591H112.65C114.938 27.9591 117.187 26.3006 117.187 23.6681C117.187 21.0355 114.946 19.366 112.648 19.366ZM112.708 26.0274H109.769V21.2811H112.708C114.256 21.2811 115.131 22.5588 115.131 23.6543C115.131 24.7388 114.245 26.0274 112.708 26.0274ZM125.471 24.0489C123.97 24.0489 122.422 24.7139 121.782 26.1626L123.614 26.9243C124.008 26.1627 124.731 25.9033 125.496 25.9033C126.566 25.9033 127.648 26.5435 127.673 27.6859V27.8321C127.303 27.6224 126.492 27.3023 125.521 27.3023C123.542 27.3023 121.536 28.384 121.536 30.4123C121.536 32.2694 123.159 33.4615 124.966 33.4615C126.354 33.4615 127.118 32.8351 127.596 32.1093H127.67V33.18H129.663V27.8818C129.663 25.4148 127.83 24.0489 125.471 24.0489ZM125.212 31.6237C124.535 31.6237 123.589 31.2925 123.589 30.4426C123.589 29.3719 124.77 28.9663 125.777 28.9663C126.688 28.9663 127.118 29.1622 127.659 29.4326C127.51 30.6744 126.462 31.6126 125.212 31.6237ZM136.931 24.3442L134.558 30.3433H134.483L132.025 24.3442H129.801L133.49 32.7302L131.387 37.391H133.54L139.216 24.3442H136.931ZM118.327 33.1966H120.393V19.366H118.327V33.1966Z" fill="white"/>
<path fill-rule="evenodd" clip-rule="evenodd" d="M11.5456 8.33641C11.2255 8.68134 11.0406 9.20841 11.0406 9.89828V34.3666C11.0406 35.0565 11.2255 35.5835 11.5567 35.9147L11.6422 35.9892L25.3513 22.2801V21.9738L11.6312 8.2619L11.5456 8.33641Z" fill="url(#paint0_linear)"/>
<path fill-rule="evenodd" clip-rule="evenodd" d="M29.9128 26.8636L25.3403 22.2911V21.971L29.9128 17.3985L30.0121 17.4592L35.4207 20.5333C36.9688 21.4053 36.9688 22.8457 35.4207 23.7288L30.0121 26.8028L29.9128 26.8636Z" fill="url(#paint1_linear)"/>
<path fill-rule="evenodd" clip-rule="evenodd" d="M30.0122 26.8029L25.3404 22.1311L11.5457 35.9257C12.0507 36.4666 12.8979 36.5273 13.8444 36.0002L30.0122 26.8029Z" fill="url(#paint2_linear)"/>
<path fill-rule="evenodd" clip-rule="evenodd" d="M30.0122 17.4593L13.8444 8.2757C12.8979 7.73485 12.0479 7.80935 11.5457 8.35021L25.3404 22.1311L30.0122 17.4593Z" fill="url(#paint3_linear)"/>
<path opacity="0.2" fill-rule="evenodd" clip-rule="evenodd" d="M29.9128 26.7036L13.8553 35.8264C12.9585 36.3424 12.1582 36.3065 11.6422 35.8374L11.5567 35.923L11.6422 35.9975C12.1582 36.4638 12.9585 36.5025 13.8553 35.9864L30.0232 26.8029L29.9128 26.7036Z" fill="black"/>
<path opacity="0.12" fill-rule="evenodd" clip-rule="evenodd" d="M35.4207 23.5688L29.899 26.7035L29.9983 26.8029L35.4069 23.7288C36.1823 23.2873 36.5631 22.7078 36.5631 22.1311C36.5162 22.6609 36.1216 23.1631 35.4207 23.5688Z" fill="black"/>
<path opacity="0.25" fill-rule="evenodd" clip-rule="evenodd" d="M13.8443 8.43575L35.4207 20.6934C36.1216 21.088 36.5162 21.604 36.5769 22.1311C36.5769 21.5543 36.1961 20.9748 35.4207 20.5333L13.8443 8.2757C12.2962 7.38991 11.0406 8.12945 11.0406 9.89828V10.0583C11.0406 8.28674 12.2962 7.561 13.8443 8.43575Z" fill="white"/>
</g>
<defs>
<linearGradient id="paint0_linear" x1="24.1216" y1="9.63429" x2="2.16201" y2="15.4855" gradientUnits="userSpaceOnUse">
<stop stop-color="#00A0FF"/>
<stop offset="0.00657" stop-color="#00A1FF"/>
<stop offset="0.2601" stop-color="#00BEFF"/>
<stop offset="0.5122" stop-color="#00D2FF"/>
<stop offset="0.7604" stop-color="#00DFFF"/>
<stop offset="1" stop-color="#00E3FF"/>
</linearGradient>
<linearGradient id="paint1_linear" x1="37.4395" y1="22.1311" x2="10.6644" y2="22.1311" gradientUnits="userSpaceOnUse">
<stop stop-color="#FFE000"/>
<stop offset="0.4087" stop-color="#FFBD00"/>
<stop offset="0.7754" stop-color="#FFA500"/>
<stop offset="1" stop-color="#FF9C00"/>
</linearGradient>
<linearGradient id="paint2_linear" x1="27.4718" y1="24.6732" x2="9.84275" y2="54.3444" gradientUnits="userSpaceOnUse">
<stop stop-color="#FF3A44"/>
<stop offset="1" stop-color="#C31162"/>
</linearGradient>
<linearGradient id="paint3_linear" x1="8.07207" y1="0.197857" x2="15.9371" y2="13.4495" gradientUnits="userSpaceOnUse">
<stop stop-color="#32A071"/>
<stop offset="0.0685" stop-color="#2DA771"/>
<stop offset="0.4762" stop-color="#15CF74"/>
<stop offset="0.8009" stop-color="#06E775"/>
<stop offset="1" stop-color="#00F076"/>
</linearGradient>
<clipPath id="clip0">
<rect width="150" height="44.2621" fill="white"/>
</clipPath>
</defs>
</svg>
