<svg width="114" height="50" viewBox="0 0 114 50" fill="none" xmlns="http://www.w3.org/2000/svg">
<path d="M16.9911 15.7857C17.376 15.119 18.3383 15.119 18.7232 15.7857L32.4559 39.5714C32.8408 40.2381 32.3596 41.0714 31.5898 41.0714H4.12445C3.35465 41.0714 2.87353 40.2381 3.25843 39.5714L16.9911 15.7857Z" fill="#05279F"/>
<path d="M18.7231 34.2143C18.3382 34.881 17.376 34.881 16.9911 34.2143L3.25837 10.4286C2.87347 9.76191 3.3546 8.92858 4.1244 8.92858L31.5898 8.92858C32.3596 8.92858 32.8407 9.76191 32.4558 10.4286L18.7231 34.2143Z" fill="#5001B4"/>
<path d="M43.7 33C43.5933 33 43.4933 32.96 43.4 32.88C43.32 32.8 43.28 32.7 43.28 32.58L43.32 32.4L48.14 19.5C48.2333 19.1667 48.4667 19 48.84 19H51.02C51.3667 19 51.6 19.1667 51.72 19.5L56.54 32.4C56.5533 32.44 56.56 32.5 56.56 32.58C56.56 32.7 56.52 32.8 56.44 32.88C56.36 32.96 56.2667 33 56.16 33H54.42C54.2467 33 54.1133 32.96 54.02 32.88C53.9267 32.8 53.8667 32.7133 53.84 32.62L52.9 30.18H46.96L46.02 32.62C45.9133 32.8733 45.72 33 45.44 33H43.7ZM52.2 27.88L49.92 21.7L47.66 27.88H52.2ZM58.6672 33C58.5339 33 58.4205 32.9533 58.3272 32.86C58.2339 32.7667 58.1872 32.6533 58.1872 32.52V23.1C58.1872 22.9667 58.2339 22.8533 58.3272 22.76C58.4205 22.6533 58.5339 22.6 58.6672 22.6H60.2872C60.4339 22.6 60.5539 22.6467 60.6472 22.74C60.7405 22.8333 60.7872 22.9533 60.7872 23.1V23.92C61.1072 23.4933 61.5072 23.1667 61.9872 22.94C62.4805 22.7133 63.0405 22.6 63.6672 22.6H64.4872C64.6339 22.6 64.7472 22.6467 64.8272 22.74C64.9205 22.82 64.9672 22.9333 64.9672 23.08V24.52C64.9672 24.6533 64.9205 24.7667 64.8272 24.86C64.7472 24.9533 64.6339 25 64.4872 25H62.9272C62.3005 25 61.8072 25.18 61.4472 25.54C61.0872 25.9 60.9072 26.3933 60.9072 27.02V32.52C60.9072 32.6533 60.8605 32.7667 60.7672 32.86C60.6739 32.9533 60.5539 33 60.4072 33H58.6672ZM66.487 33C66.3537 33 66.2404 32.9533 66.147 32.86C66.0537 32.7667 66.007 32.6533 66.007 32.52V31.38C66.007 31.1933 66.1004 30.98 66.287 30.74L71.407 24.68H66.647C66.5137 24.68 66.4004 24.6333 66.307 24.54C66.2137 24.4467 66.167 24.3333 66.167 24.2V23.08C66.167 22.9467 66.2137 22.8333 66.307 22.74C66.4004 22.6467 66.5137 22.6 66.647 22.6H74.227C74.3737 22.6 74.487 22.6467 74.567 22.74C74.6604 22.82 74.707 22.9333 74.707 23.08V24.3C74.707 24.4867 74.6137 24.6867 74.427 24.9L69.427 30.92H74.647C74.7937 30.92 74.907 30.9667 74.987 31.06C75.0804 31.14 75.127 31.2533 75.127 31.4V32.52C75.127 32.6533 75.0804 32.7667 74.987 32.86C74.907 32.9533 74.7937 33 74.647 33H66.487ZM81.5148 33.2C80.0348 33.2 78.8548 32.7733 77.9748 31.92C77.1082 31.0533 76.6482 29.84 76.5948 28.28L76.5748 27.78L76.5948 27.28C76.6615 25.76 77.1282 24.5667 77.9948 23.7C78.8748 22.8333 80.0482 22.4 81.5148 22.4C83.0882 22.4 84.3015 22.88 85.1548 23.84C86.0215 24.8 86.4548 26.08 86.4548 27.68V28.1C86.4548 28.2333 86.4082 28.3467 86.3148 28.44C86.2215 28.5333 86.1015 28.58 85.9548 28.58H79.3148V28.74C79.3415 29.4733 79.5415 30.0933 79.9148 30.6C80.3015 31.0933 80.8282 31.34 81.4948 31.34C82.2815 31.34 82.9148 31.0333 83.3948 30.42C83.5148 30.2733 83.6082 30.18 83.6748 30.14C83.7548 30.1 83.8682 30.08 84.0148 30.08H85.7348C85.8548 30.08 85.9548 30.12 86.0348 30.2C86.1282 30.2667 86.1748 30.3533 86.1748 30.46C86.1748 30.78 85.9815 31.16 85.5948 31.6C85.2215 32.0267 84.6815 32.4 83.9748 32.72C83.2682 33.04 82.4482 33.2 81.5148 33.2ZM83.7348 26.9V26.84C83.7348 26.0533 83.5348 25.42 83.1348 24.94C82.7482 24.46 82.2082 24.22 81.5148 24.22C80.8215 24.22 80.2815 24.46 79.8948 24.94C79.5082 25.42 79.3148 26.0533 79.3148 26.84V26.9H83.7348ZM89.0578 33C88.9245 33 88.8111 32.9533 88.7178 32.86C88.6245 32.7667 88.5778 32.6533 88.5778 32.52V23.08C88.5778 22.9467 88.6245 22.8333 88.7178 22.74C88.8111 22.6467 88.9245 22.6 89.0578 22.6H90.6978C90.8311 22.6 90.9445 22.6467 91.0378 22.74C91.1311 22.8333 91.1778 22.9467 91.1778 23.08V23.9C91.9645 22.9 93.0778 22.4 94.5178 22.4C95.7445 22.4 96.7178 22.8067 97.4378 23.62C98.1578 24.42 98.5178 25.5133 98.5178 26.9V32.52C98.5178 32.6533 98.4711 32.7667 98.3778 32.86C98.2978 32.9533 98.1845 33 98.0378 33H96.2778C96.1445 33 96.0311 32.9533 95.9378 32.86C95.8445 32.7667 95.7978 32.6533 95.7978 32.52V27.02C95.7978 26.2333 95.6045 25.6267 95.2178 25.2C94.8445 24.76 94.2978 24.54 93.5778 24.54C92.8711 24.54 92.3111 24.76 91.8978 25.2C91.4978 25.64 91.2978 26.2467 91.2978 27.02V32.52C91.2978 32.6533 91.2511 32.7667 91.1578 32.86C91.0778 32.9533 90.9645 33 90.8178 33H89.0578ZM104.078 33.2C103.398 33.2 102.772 33.0667 102.198 32.8C101.638 32.52 101.192 32.1467 100.858 31.68C100.538 31.2133 100.378 30.7 100.378 30.14C100.378 29.2333 100.745 28.5 101.478 27.94C102.212 27.38 103.218 27 104.498 26.8L107.238 26.4V25.98C107.238 25.3933 107.092 24.9533 106.798 24.66C106.505 24.3667 106.032 24.22 105.378 24.22C104.938 24.22 104.578 24.3067 104.298 24.48C104.032 24.64 103.818 24.8 103.658 24.96C103.498 25.1333 103.392 25.2467 103.338 25.3C103.285 25.46 103.185 25.54 103.038 25.54H101.498C101.378 25.54 101.272 25.5 101.178 25.42C101.098 25.34 101.058 25.2333 101.058 25.1C101.072 24.7667 101.232 24.3867 101.538 23.96C101.858 23.5333 102.345 23.1667 102.998 22.86C103.652 22.5533 104.452 22.4 105.398 22.4C106.972 22.4 108.118 22.7533 108.838 23.46C109.558 24.1667 109.918 25.0933 109.918 26.24V32.52C109.918 32.6533 109.872 32.7667 109.778 32.86C109.698 32.9533 109.585 33 109.438 33H107.818C107.685 33 107.572 32.9533 107.478 32.86C107.385 32.7667 107.338 32.6533 107.338 32.52V31.74C107.045 32.1667 106.625 32.52 106.078 32.8C105.545 33.0667 104.878 33.2 104.078 33.2ZM104.758 31.3C105.492 31.3 106.092 31.06 106.558 30.58C107.025 30.1 107.258 29.4 107.258 28.48V28.06L105.258 28.38C104.485 28.5 103.898 28.6933 103.498 28.96C103.112 29.2267 102.918 29.5533 102.918 29.94C102.918 30.3667 103.098 30.7 103.458 30.94C103.818 31.18 104.252 31.3 104.758 31.3Z" fill="black"/>
</svg>
