<svg width="37" height="36" viewBox="0 0 37 36" fill="none" xmlns="http://www.w3.org/2000/svg">
<path d="M31.3248 5.73002C24.3654 -1.01235 13.0835 -1.01073 6.1261 5.73373C-0.831267 12.4782 -0.829597 23.4114 6.12993 30.1537C13.0895 36.8961 24.3713 36.8945 31.3286 30.15C34.67 26.9109 36.5466 22.5182 36.5455 17.9382C36.5446 13.3589 34.6666 8.96755 31.3248 5.73002ZM27.8942 24.7278C27.8934 24.7286 27.8927 24.7294 27.8918 24.7301V24.7244L26.989 25.5935C25.8214 26.7393 24.121 27.2107 22.5048 26.8367C20.8764 26.4144 19.3285 25.742 17.9196 24.8452C16.6106 24.0345 15.3976 23.0869 14.3025 22.0191C13.2949 21.0498 12.3896 19.9854 11.6 18.8419C10.7364 17.6114 10.0528 16.271 9.56877 14.8588C9.01383 13.1998 9.47369 11.3793 10.7567 10.1563L11.8139 9.13179C12.1078 8.84566 12.5854 8.84465 12.8806 9.1295C12.8813 9.13024 12.8822 9.13098 12.8829 9.13179L16.2209 12.3666C16.5161 12.6514 16.5172 13.1143 16.2232 13.4003C16.2225 13.4011 16.2217 13.4018 16.2209 13.4026L14.2609 15.302C13.6985 15.8411 13.6278 16.6977 14.0946 17.3166C14.8035 18.2594 15.588 19.1466 16.4407 19.9701C17.3914 20.8954 18.4249 21.7371 19.5291 22.4854C20.1672 22.9167 21.0322 22.844 21.5841 22.3127L23.4788 20.4478C23.7727 20.1617 24.2503 20.1607 24.5455 20.4455C24.5463 20.4463 24.547 20.447 24.5479 20.4478L27.8918 23.6941C28.1871 23.9789 28.1881 24.4417 27.8942 24.7278Z" fill="white"/>
</svg>
