<svg width="36" height="36" viewBox="0 0 36 36" fill="none" xmlns="http://www.w3.org/2000/svg">
<path d="M21.2287 17.8055C21.2287 15.98 19.7018 14.5003 17.8182 14.5003C15.9346 14.5003 14.4077 15.98 14.4077 17.8055C14.4077 19.631 15.9346 21.1108 17.8182 21.1108C19.7018 21.1108 21.2287 19.631 21.2287 17.8055Z" fill="white"/>
<path d="M25.794 23.653C25.6301 24.0836 25.3685 24.4733 25.0287 24.7932C24.6986 25.1225 24.2968 25.376 23.8522 25.5349C23.4917 25.6706 22.9501 25.8321 21.9526 25.8761C20.8735 25.9238 20.5499 25.9341 17.8181 25.9341C15.0859 25.9341 14.7624 25.9241 13.6835 25.8764C12.686 25.8321 12.1441 25.6706 11.7839 25.5349C11.3394 25.376 10.9373 25.1225 10.6075 24.7932C10.2676 24.4733 10.0061 24.0838 9.84183 23.653C9.70181 23.3036 9.53515 22.7785 9.48975 21.8117C9.44054 20.7662 9.42993 20.4526 9.42993 17.8048C9.42993 15.1572 9.44054 14.8437 9.48975 13.7979C9.53515 12.8311 9.70181 12.3063 9.84183 11.9569C10.0061 11.5261 10.2673 11.1366 10.6072 10.8167C10.9373 10.4874 11.3391 10.2339 11.7836 10.075C12.1441 9.93904 12.686 9.77752 13.6835 9.73351C14.7624 9.68582 15.0856 9.67581 17.8178 9.67581C20.5502 9.67581 20.8738 9.68582 21.9523 9.73351C22.9499 9.77752 23.4917 9.93904 23.8522 10.075C24.7446 10.4086 25.4498 11.0921 25.794 11.9569C25.934 12.3063 26.1007 12.8311 26.1464 13.7979C26.1956 14.8437 26.2059 15.1572 26.2059 17.8048C26.2059 20.4526 26.1956 20.7662 26.1464 21.8117C26.101 22.7785 25.9343 23.3036 25.794 23.653ZM17.8181 12.7133C14.9163 12.7133 12.5639 14.9928 12.5639 17.8051C12.5639 20.6173 14.9163 22.8968 17.8181 22.8968C20.7196 22.8968 23.0719 20.6173 23.0719 17.8051C23.0719 14.9928 20.7196 12.7133 17.8181 12.7133ZM23.2797 21.9082C22.6016 21.9082 22.0518 22.441 22.0518 23.0981C22.0518 23.7553 22.6016 24.288 23.2797 24.288C23.9577 24.288 24.5075 23.7553 24.5075 23.0981C24.5072 22.441 23.9577 21.9082 23.2797 21.9082Z" fill="white"/>
<path d="M17.8182 35.0732C7.97898 35.0732 0 27.3407 0 17.8055C0 8.27021 7.97898 0.537704 17.8182 0.537704C27.6574 0.537704 35.6364 8.27021 35.6364 17.8055C35.6364 27.3407 27.6574 35.0732 17.8182 35.0732ZM27.988 13.7175C27.9385 12.662 27.7653 11.9413 27.5125 11.3106C26.9809 9.97864 25.8945 8.92576 24.5201 8.41064C23.8695 8.1656 23.1256 7.99803 22.0367 7.94981C20.9457 7.90159 20.5971 7.89 17.8185 7.89C15.0395 7.89 14.6912 7.90159 13.5999 7.94981C12.511 7.99803 11.7671 8.1656 11.1165 8.41064C10.4335 8.65964 9.81528 9.04986 9.30414 9.55443C8.78375 10.0495 8.38109 10.649 8.12416 11.3106C7.87131 11.9411 7.69812 12.662 7.64864 13.7172C7.59834 14.7749 7.58665 15.1127 7.58665 17.8055C7.58665 20.4983 7.59834 20.8361 7.64837 21.8934C7.69785 22.949 7.87077 23.6696 8.12362 24.3004C8.38055 24.962 8.78348 25.5614 9.30414 26.0565C9.81501 26.5611 10.4335 26.9513 11.1162 27.2003C11.7671 27.4453 12.5107 27.6129 13.5999 27.6611C14.691 27.7094 15.0395 27.721 17.8182 27.721C20.5968 27.721 20.9454 27.7094 22.0365 27.6609C23.1256 27.6129 23.8692 27.4453 24.5201 27.2006C25.2028 26.9516 25.8214 26.5611 26.3325 26.0565C26.8529 25.5612 27.2558 24.962 27.5125 24.3004C27.7656 23.6696 27.9385 22.949 27.9883 21.8934C28.038 20.8361 28.0497 20.4983 28.0497 17.8055C28.0497 15.1127 28.038 14.7749 27.988 13.7175Z" fill="white"/>
</svg>
