<svg width="37" height="36" viewBox="0 0 37 36" fill="none" xmlns="http://www.w3.org/2000/svg">
<path d="M31.3246 5.73002C24.3651 -1.01235 13.0832 -1.01073 6.12586 5.73373C-0.831511 12.4782 -0.829841 23.4114 6.12969 30.1537C13.0892 36.8961 24.371 36.8945 31.3284 30.15C34.6697 26.9109 36.5463 22.5182 36.5453 17.9382C36.5443 13.3589 34.6664 8.96755 31.3246 5.73002ZM27.894 24.7278C27.8932 24.7286 27.8924 24.7294 27.8916 24.7301V24.7244L26.9888 25.5935C25.8212 26.7393 24.1207 27.2107 22.5045 26.8367C20.8762 26.4144 19.3282 25.742 17.9193 24.8452C16.6104 24.0346 15.3974 23.0869 14.3022 22.0191C13.2946 21.0498 12.3894 19.9854 11.5998 18.8419C10.7362 17.6114 10.0526 16.271 9.56852 14.8588C9.01358 13.1998 9.47345 11.3793 10.7564 10.1563L11.8136 9.13179C12.1075 8.84566 12.5852 8.84465 12.8803 9.1295C12.8811 9.13024 12.8819 9.13098 12.8827 9.13179L16.2206 12.3666C16.5159 12.6514 16.5169 13.1143 16.223 13.4003C16.2222 13.4011 16.2215 13.4018 16.2206 13.4026L14.2606 15.302C13.6982 15.8411 13.6275 16.6977 14.0943 17.3166C14.8032 18.2594 15.5877 19.1466 16.4404 19.9701C17.3911 20.8954 18.4246 21.7371 19.5289 22.4854C20.1669 22.9167 21.0319 22.844 21.5839 22.3127L23.4785 20.4478C23.7725 20.1617 24.2501 20.1607 24.5452 20.4455C24.546 20.4463 24.5468 20.447 24.5476 20.4478L27.8915 23.6941C28.1868 23.9789 28.1879 24.4417 27.894 24.7278Z" fill="white"/>
</svg>
