<svg fill="#000000" xmlns="http://www.w3.org/2000/svg" viewBox="0 0 50 50" width="50px" height="50px"><path d="M 25 2 C 12.316406 2 2 12.316406 2 25 C 2 37.683594 12.316406 48 25 48 C 37.683594 48 48 37.683594 48 25 C 48 12.316406 37.683594 2 25 2 Z M 21.40625 15.824219 C 21.722656 15.285156 22.414063 15.105469 22.953125 15.421875 L 23.957031 16.007813 C 24.496094 16.324219 24.679688 17.015625 24.363281 17.558594 L 23.367188 19.261719 L 20.410156 17.53125 Z M 10.328125 23.324219 L 16.472656 23.324219 L 14.515625 26.632813 L 10.328125 26.632813 Z M 11.808594 36.074219 C 11.734375 36.144531 11.625 36.15625 11.535156 36.105469 C 11.449219 36.054688 11.40625 35.953125 11.433594 35.855469 L 12.863281 30.445313 L 15.820313 32.175781 Z M 13.234375 29.804688 L 20.167969 17.945313 L 23.125 19.675781 L 16.191406 31.535156 Z M 19.589844 26.632813 L 21.425781 23.328125 L 28.511719 23.328125 L 30.347656 26.632813 Z M 23.183594 13.019531 C 22.867188 12.480469 23.054688 11.785156 23.59375 11.472656 L 24.511719 10.9375 C 25.050781 10.625 25.742188 10.808594 26.058594 11.347656 L 33.898438 24.84375 L 31.023438 26.515625 Z M 31.34375 27.070313 L 34.21875 25.398438 L 35.882813 28.261719 L 33.007813 29.929688 Z M 37.394531 35.984375 C 37.328125 36.078125 37.160156 36 37.109375 35.921875 C 36.976563 35.710938 37.09375 35.421875 36.671875 34.777344 C 35.894531 33.59375 34.867188 33.828125 33.875 32.160156 C 33.699219 31.867188 33.105469 30.523438 33.875 30.066406 C 34.285156 29.820313 34.980469 29.40625 35.449219 29.144531 C 36.238281 28.695313 36.96875 29.636719 37.371094 30.226563 C 38.238281 31.492188 38.589844 34.335938 37.394531 35.984375 Z M 39.628906 26.632813 L 35.507813 26.632813 L 33.707031 23.328125 L 39.628906 23.328125 Z"/></svg>