<svg width="36" height="36" viewBox="0 0 36 36" fill="none" xmlns="http://www.w3.org/2000/svg">
<path d="M17.8182 35.0732C7.97898 35.0732 0 27.3407 0 17.8055C0 8.27021 7.97898 0.537704 17.8182 0.537704C27.6574 0.537704 35.6364 8.27021 35.6364 17.8055C35.6364 27.3407 27.6574 35.0732 17.8182 35.0732ZM27.988 13.7175C27.9385 12.662 27.7653 11.9413 27.5125 11.3106C26.9809 9.97864 25.8945 8.92576 24.5201 8.41064C23.8695 8.1656 23.1256 7.99803 22.0367 7.94981C20.9457 7.90159 20.5971 7.89 17.8185 7.89C15.0395 7.89 14.6912 7.90159 13.5999 7.94981C12.511 7.99803 11.7671 8.1656 11.1165 8.41064C10.4335 8.65964 9.81528 9.04986 9.30414 9.55443C8.78375 10.0495 8.38109 10.649 8.12416 11.3106C7.87131 11.9411 7.69812 12.662 7.64864 13.7172C7.59834 14.7749 7.58665 15.1127 7.58665 17.8055C7.58665 20.4983 7.59834 20.8361 7.64837 21.8934C7.69785 22.949 7.87077 23.6696 8.12362 24.3004C8.38055 24.962 8.78348 25.5614 9.30414 26.0565C9.81501 26.5611 10.4335 26.9513 11.1162 27.2003C11.7671 27.4453 12.5107 27.6129 13.5999 27.6611C14.691 27.7094 15.0395 27.7209 17.8182 27.7209C20.5968 27.7209 20.9454 27.7094 22.0365 27.6609C23.1256 27.6129 23.8692 27.4453 24.5201 27.2006C25.2028 26.9516 25.8214 26.5611 26.3325 26.0565C26.8529 25.5612 27.2558 24.962 27.5125 24.3004C27.7656 23.6696 27.9385 22.949 27.9883 21.8934C28.038 20.8361 28.0497 20.4983 28.0497 17.8055C28.0497 15.1127 28.038 14.7749 27.988 13.7175V13.7175Z" fill="white"/>
</svg>
