<svg width="37" height="36" viewBox="0 0 37 36" fill="none" xmlns="http://www.w3.org/2000/svg">
<path d="M36.0912 17.8054C36.0912 8.2701 28.1122 0.537598 18.273 0.537598C8.43381 0.537598 0.454834 8.2701 0.454834 17.8054C0.454834 27.3406 8.43381 35.0731 18.273 35.0731C18.3777 35.0731 18.4818 35.071 18.5862 35.0692V21.627H14.7581V17.3034H18.5862V14.1218C18.5862 10.432 20.9106 8.42371 24.3069 8.42371C25.9333 8.42371 27.3314 8.54123 27.7389 8.59366V12.45H25.3969C23.5492 12.45 23.1914 13.3011 23.1914 14.5497V17.3034H27.6095L27.0337 21.627H23.1914V34.406C30.6391 32.3368 36.0912 25.6873 36.0912 17.8054Z" fill="white"/>
</svg>
