<svg width="36" height="36" viewBox="0 0 36 36" fill="none" xmlns="http://www.w3.org/2000/svg">
<path d="M18.1815 0.537598C8.34226 0.537598 0.363281 8.2701 0.363281 17.8054C0.363281 27.3406 8.34226 35.0731 18.1815 35.0731C28.0207 35.0731 35.9996 27.3406 35.9996 17.8054C35.9996 8.2701 28.0207 0.537598 18.1815 0.537598ZM26.317 14.0012C26.3249 14.1711 26.3287 14.3419 26.3287 14.5134C26.3287 19.7507 22.2151 25.79 14.6924 25.7903C12.3827 25.7903 10.2335 25.1342 8.42355 24.0099C8.74356 24.0465 9.06927 24.0647 9.39907 24.0647C11.3153 24.0647 13.0787 23.4313 14.4787 22.3681C12.6883 22.336 11.1788 21.1901 10.6579 19.6152C10.9072 19.6616 11.1636 19.6869 11.4265 19.6869C11.7998 19.6869 12.1614 19.6382 12.5051 19.5473C10.6337 19.1842 9.22398 17.5814 9.22398 15.6622C9.22398 15.6443 9.22398 15.6282 9.22452 15.6116C9.77563 15.9085 10.4059 16.0872 11.0769 16.1072C9.97873 15.3971 9.25687 14.1832 9.25687 12.8081C9.25687 12.0819 9.45943 11.4016 9.8107 10.8159C11.8275 13.2141 14.8416 14.7914 18.2407 14.9571C18.1706 14.6667 18.1344 14.3642 18.1344 14.0533C18.1344 11.8654 19.9661 10.0903 22.2246 10.0903C23.4011 10.0903 24.4636 10.5722 25.2099 11.3426C26.1417 11.1645 27.0166 10.8346 27.807 10.3806C27.5011 11.3057 26.8529 12.0819 26.0085 12.5728C26.8358 12.4769 27.6243 12.2643 28.357 11.9486C27.8097 12.7436 27.1156 13.4418 26.317 14.0012Z" fill="white"/>
</svg>
