<svg width="19" height="17" viewBox="0 0 19 17" fill="none" xmlns="http://www.w3.org/2000/svg">
<path d="M12.994 10.6207L12.6565 10.9935L13.0313 11.3289L18.4141 16.1451L18.0445 16.4758L12.5786 11.5853L12.2782 11.3165L11.9518 11.553C10.7448 12.4278 9.20442 12.9584 7.52087 12.9584C3.59628 12.9584 0.5 10.1127 0.5 6.72919C0.5 3.34572 3.59624 0.5 7.52083 0.5C11.4454 0.5 14.5417 3.34572 14.5417 6.72919C14.5417 8.19394 13.9659 9.54712 12.994 10.6207ZM18.5507 16.2673C18.5506 16.2672 18.5505 16.2671 18.5504 16.267L18.5506 16.2673L18.5507 16.2673ZM1.08335 6.72919C1.08335 9.98567 4.02434 12.5417 7.52087 12.5417C11.0174 12.5417 13.9584 9.98567 13.9584 6.72919C13.9584 3.47272 11.0174 0.916681 7.52087 0.916681C4.02434 0.916681 1.08335 3.47272 1.08335 6.72919Z" fill="black" stroke="black"/>
</svg>
