<svg width="241" height="81" viewBox="0 0 241 81" fill="none" xmlns="http://www.w3.org/2000/svg">
<path d="M6.60133 0.70874H234.017C237.331 0.70874 240.119 3.77046 240.119 7.68144V73.4412C240.119 77.3521 237.331 80.4139 234.017 80.4139H6.60133C3.28812 80.4139 0.5 77.3521 0.5 73.4412V7.68144C0.5 3.77046 3.28812 0.70874 6.60133 0.70874Z" fill="black" stroke="#A6A6A6"/>
<path fill-rule="evenodd" clip-rule="evenodd" d="M85.09 46.7355V50.3672H92.7898C92.6691 52.0779 92.0409 53.692 91.0074 54.9472C89.4496 56.7434 87.2939 57.7108 85.0722 57.6105C80.3472 57.6105 76.5168 53.2745 76.5168 47.9259C76.5168 42.5772 80.3472 38.2413 85.0722 38.2413C87.2427 38.2012 89.3387 39.1373 90.9005 40.844L93.1641 38.2816C91.034 35.84 88.1213 34.4789 85.09 34.5087C80.7748 34.3186 76.7136 36.8162 74.5061 41.0177C72.2986 45.2191 72.2986 50.4511 74.5061 54.6527C76.7136 58.8541 80.7748 61.3516 85.09 61.1615C88.1766 61.3195 91.1727 59.9584 93.3067 57.4289C95.1741 55.1066 96.171 52.0535 96.0872 48.9145C96.093 48.1499 96.0333 47.3864 95.9089 46.6346L85.09 46.7355ZM104.856 44.0925C100.675 44.1036 97.292 47.9477 97.2986 52.6809C97.3051 57.414 100.698 61.246 104.88 61.2424C109.061 61.2386 112.449 57.4007 112.449 52.6675C112.478 50.3762 111.684 48.1695 110.25 46.553C108.815 44.9365 106.862 44.0485 104.838 44.0925H104.856ZM113.911 52.6942C113.898 47.9637 117.271 44.1148 121.45 44.0925C123.474 44.0485 125.427 44.9365 126.862 46.553C128.297 48.1695 129.09 50.3762 129.061 52.6675C129.061 57.398 125.677 61.2349 121.498 61.2422C117.319 61.2496 113.924 57.4247 113.911 52.6942ZM116.98 54.9239C117.794 56.8526 119.566 58.022 121.45 57.8728C122.632 57.8419 123.753 57.2715 124.558 56.2914C125.364 55.3113 125.785 54.0045 125.727 52.6673C125.723 50.53 124.565 48.6131 122.806 47.8334C121.048 47.0537 119.048 47.5696 117.762 49.1345C116.476 50.6996 116.166 52.9954 116.98 54.9239ZM100.373 54.9395C101.193 56.8668 102.971 58.0305 104.855 57.8729H104.838C106.02 57.8419 107.141 57.2715 107.946 56.2914C108.752 55.3113 109.173 54.0045 109.115 52.6675C109.11 50.5283 107.949 48.6105 106.189 47.8326C104.429 47.0546 102.427 47.5748 101.143 49.1441C99.8592 50.7132 99.5538 53.0121 100.373 54.9395ZM159.361 44.0924C162.316 44.2157 164.897 46.391 165.849 49.5602L166.223 50.4681L156.082 55.2095C156.717 56.8483 158.173 57.8804 159.754 57.8123C161.278 57.8167 162.694 56.9124 163.478 55.4315L166.063 57.4491C164.656 59.8329 162.286 61.2578 159.754 61.2422C157.74 61.2757 155.802 60.3809 154.383 58.7638C152.965 57.1466 152.187 54.9459 152.232 52.6673C152.108 50.4409 152.805 48.2562 154.156 46.6318C155.506 45.0072 157.39 44.0881 159.361 44.0924ZM155.512 52.4252C155.438 51.1646 155.817 49.9236 156.561 48.9824C157.304 48.041 158.353 47.4784 159.468 47.4215C160.643 47.3339 161.751 48.0484 162.285 49.2373L155.512 52.4252ZM150.609 60.7378H147.276V35.5175H150.609V60.7378ZM141.822 46.0091H141.696C140.681 44.7234 139.229 43.9893 137.704 43.9915C133.659 44.2136 130.479 47.9915 130.479 52.5766C130.479 57.1617 133.659 60.9394 137.704 61.1615C139.234 61.1907 140.696 60.4519 141.696 59.1439H141.803V60.3747C141.803 63.6634 140.253 65.4187 137.758 65.4187C136.059 65.3737 134.551 64.1699 133.944 62.3721L131.038 63.7441C132.157 66.8246 134.815 68.8284 137.758 68.8083C141.661 68.8083 144.887 66.2056 144.887 59.8703V44.5968H141.822V46.0091ZM138.002 57.8724L138.007 57.8729H137.99L138.002 57.8724ZM141.006 56.2544C140.241 57.2342 139.156 57.8184 138.002 57.8724C135.622 57.6317 133.797 55.3736 133.797 52.6675C133.797 49.9592 135.624 47.6998 138.007 47.462C139.16 47.5288 140.239 48.1193 141.001 49.0993C141.762 50.0792 142.143 51.3659 142.054 52.6675C142.152 53.9749 141.773 55.2711 141.006 56.2544ZM181.461 35.5176H173.495V60.738H176.827V51.1744H181.48C184.069 51.3849 186.544 49.9405 187.896 47.4316C189.247 44.9226 189.247 41.7693 187.896 39.2603C186.544 36.7514 184.069 35.307 181.48 35.5176H181.461ZM176.81 47.6232H181.463L181.534 47.6838C183.645 47.6838 185.356 45.7461 185.356 43.356C185.356 40.9658 183.645 39.0282 181.534 39.0282H176.81V47.6232ZM202.013 43.9915C199.533 43.8237 197.202 45.3375 196.078 47.8452L199.037 49.2373C199.632 47.9939 200.82 47.2659 202.067 47.3811C202.921 47.2681 203.78 47.5485 204.45 48.1593C205.121 48.7702 205.546 49.6602 205.632 50.6295V50.8918C204.561 50.2502 203.367 49.9175 202.155 49.9233C198.965 49.9233 195.739 51.941 195.739 55.5929C195.802 57.166 196.425 58.6432 197.467 59.6882C198.507 60.7333 199.876 61.2575 201.264 61.1414C202.974 61.2803 204.615 60.3519 205.542 58.7202H205.649V60.7378H208.857V51.033C208.857 46.6144 205.898 44.052 202.102 44.052L202.013 43.9915ZM199.001 55.6736C199.001 57.1868 200.515 57.8123 201.603 57.8123L201.692 57.8728C203.7 57.8175 205.365 56.0961 205.596 53.8375C204.67 53.2533 203.625 52.9605 202.566 52.9901C200.89 52.9901 199.001 53.656 199.001 55.6736ZM220.549 44.5968L216.735 55.5324H216.628L212.671 44.5968H209.106L215.042 59.8904L211.656 68.3846H215.131L224.257 44.5968H220.549ZM193.919 60.7378H190.587V35.5175H193.919V60.7378Z" fill="white"/>
<path fill-rule="evenodd" clip-rule="evenodd" d="M123.357 15.8856C121.254 18.4051 121.254 22.3446 123.357 24.8641C125.526 27.3059 129.03 27.3059 131.199 24.8641C133.311 22.3486 133.311 18.4011 131.199 15.8856C130.162 14.7028 128.75 14.0375 127.278 14.0375C125.806 14.0375 124.394 14.7028 123.357 15.8856ZM83.1827 24.9034C84.0976 23.8221 84.5808 22.3636 84.5195 20.8681C84.5196 20.5637 84.4957 20.2599 84.4482 19.9602H79.2615V21.4129H83.1293C83.1029 22.3279 82.7865 23.2016 82.2381 23.8744C81.0164 25.2111 79.2044 25.5846 77.6449 24.8212C76.0854 24.0576 75.0848 22.3071 75.1087 20.3839C75.0698 19.1112 75.4907 17.8755 76.2745 16.9619C77.058 16.0481 78.1367 15.5353 79.2615 15.5416C80.3807 15.4723 81.4634 16.003 82.1846 16.9741L83.1293 15.9048C82.673 15.3107 82.0988 14.8474 81.4539 14.5529C80.7611 14.2173 80.015 14.0457 79.2615 14.0485C77.7832 14.0112 76.3572 14.6686 75.3225 15.8644C73.73 17.6788 73.2537 20.3972 74.1136 22.7625C74.9735 25.1277 77.0022 26.6791 79.2615 26.6991C80.7347 26.7584 82.1605 26.1055 83.1827 24.9034ZM87.87 15.8251H92.6823V14.3321H86.4441V26.4378H92.6823V24.9448H87.87V21.1113H92.2546V19.6586H87.87V15.8251ZM98.5286 26.4378H97.1562V15.8251H94.1618V14.3321H101.594V15.8251H98.5286V26.4378ZM106.835 14.3321V26.4378H108.207V14.3321H106.835ZM114.302 26.4378H112.929V15.8251H109.935V14.3321H117.278V15.8251H114.302V26.4378ZM124.373 23.8553C125.979 25.6662 128.577 25.6662 130.183 23.8553C131.761 21.8864 131.761 18.8835 130.183 16.9146C128.577 15.1037 125.979 15.1037 124.373 16.9146C122.795 18.8835 122.795 21.8864 124.373 23.8553ZM134.71 14.3321V26.4378H136.101V16.5716L141.538 26.4378H142.963V14.3321H141.59V23.7544L136.386 14.3321H134.71Z" fill="white"/>
<path d="M123.357 24.8639L123.261 24.9666L123.264 24.9699L123.357 24.8639ZM123.357 15.8855L123.263 15.7801L123.261 15.7828L123.357 15.8855ZM131.199 24.8639L131.292 24.9699L131.295 24.9669L131.199 24.8639ZM131.199 15.8855L131.295 15.7825L131.293 15.7801L131.199 15.8855ZM84.5196 20.868L84.3874 20.8678L84.3877 20.8749L84.5196 20.868ZM83.1828 24.9032L83.278 25.0068L83.2782 25.0065L83.1828 24.9032ZM84.4483 19.9601L84.5782 19.9336L84.5587 19.8106H84.4483V19.9601ZM79.2616 19.9601V19.8106H79.1296V19.9601H79.2616ZM79.2616 21.4128H79.1296V21.5622H79.2616V21.4128ZM83.1294 21.4128L83.2614 21.4175L83.2657 21.2633H83.1294V21.4128ZM82.2382 23.8743L82.3301 23.9819L82.3352 23.9756L82.2382 23.8743ZM77.645 24.821L77.5926 24.9581L77.645 24.821ZM75.1087 20.3838L75.2409 20.3859L75.2406 20.3785L75.1087 20.3838ZM79.2616 15.5415L79.261 15.6911L79.2689 15.6906L79.2616 15.5415ZM82.1847 16.974L82.0837 17.0701L82.1763 17.1949L82.2781 17.0796L82.1847 16.974ZM83.1294 15.9046L83.2227 16.0103L83.3098 15.9117L83.229 15.8064L83.1294 15.9046ZM81.4539 14.5528L81.4021 14.6902L81.4046 14.6914L81.4539 14.5528ZM79.2616 14.0483L79.2587 14.1978L79.262 14.1978L79.2616 14.0483ZM75.3226 15.8643L75.4164 15.9695L75.4169 15.9687L75.3226 15.8643ZM74.1137 22.7623L74.2358 22.7054L74.1137 22.7623ZM79.2616 26.6989L79.2664 26.5495H79.2627L79.2616 26.6989ZM92.6824 15.825V15.9744H92.8144V15.825H92.6824ZM87.87 15.825V15.6755H87.738V15.825H87.87ZM92.6824 14.332H92.8144V14.1825H92.6824V14.332ZM86.4442 14.332V14.1825H86.3121V14.332H86.4442ZM86.4442 26.4377H86.3121V26.5871H86.4442V26.4377ZM92.6824 26.4377V26.5871H92.8144V26.4377H92.6824ZM92.6824 24.9446H92.8144V24.7952H92.6824V24.9446ZM87.87 24.9446H87.738V25.0941H87.87V24.9446ZM87.87 21.1112V20.9617H87.738V21.1112H87.87ZM92.2547 21.1112V21.2606H92.3867V21.1112H92.2547ZM92.2547 19.6585H92.3867V19.509H92.2547V19.6585ZM87.87 19.6585H87.738V19.8079H87.87V19.6585ZM97.1563 26.4377H97.0243V26.5871H97.1563V26.4377ZM98.5287 26.4377V26.5871H98.6607V26.4377H98.5287ZM97.1563 15.825H97.2883V15.6755H97.1563V15.825ZM94.1619 15.825H94.0299V15.9744H94.1619V15.825ZM94.1619 14.332V14.1825H94.0299V14.332H94.1619ZM101.594 14.332H101.726V14.1825H101.594V14.332ZM101.594 15.825V15.9744H101.726V15.825H101.594ZM98.5287 15.825V15.6755H98.3967V15.825H98.5287ZM106.835 26.4377H106.703V26.5871H106.835V26.4377ZM106.835 14.332V14.1825H106.703V14.332H106.835ZM108.208 26.4377V26.5871H108.34V26.4377H108.208ZM108.208 14.332H108.34V14.1825H108.208V14.332ZM112.93 26.4377H112.797V26.5871H112.93V26.4377ZM114.302 26.4377V26.5871H114.434V26.4377H114.302ZM112.93 15.825H113.062V15.6755H112.93V15.825ZM109.935 15.825H109.803V15.9744H109.935V15.825ZM109.935 14.332V14.1825H109.803V14.332H109.935ZM117.278 14.332H117.41V14.1825H117.278V14.332ZM117.278 15.825V15.9744H117.41V15.825H117.278ZM114.302 15.825V15.6755H114.17V15.825H114.302ZM130.184 23.8551L130.277 23.9612L130.281 23.9556L130.184 23.8551ZM124.373 23.8551L124.275 23.9557L124.28 23.9611L124.373 23.8551ZM130.184 16.9145L130.281 16.8139L130.277 16.8085L130.184 16.9145ZM124.373 16.9145L124.28 16.8085L124.275 16.8141L124.373 16.9145ZM134.711 26.4377H134.579V26.5871H134.711V26.4377ZM134.711 14.332V14.1825H134.579V14.332H134.711ZM136.101 26.4377V26.5871H136.233V26.4377H136.101ZM136.101 16.5715L136.213 16.4924L135.969 16.0494V16.5715H136.101ZM141.538 26.4377L141.425 26.5168L141.464 26.5871H141.538V26.4377ZM142.964 26.4377V26.5871H143.096V26.4377H142.964ZM142.964 14.332H143.096V14.1825H142.964V14.332ZM141.591 14.332V14.1825H141.458V14.332H141.591ZM141.591 23.7542L141.478 23.8335L141.723 24.2752V23.7542H141.591ZM136.386 14.332L136.498 14.2527L136.459 14.1825H136.386V14.332ZM123.453 24.7613C121.398 22.2993 121.398 18.4501 123.453 15.9882L123.261 15.7828C121.11 18.36 121.11 22.3894 123.261 24.9666L123.453 24.7613ZM131.106 24.758C128.989 27.1418 125.568 27.1418 123.45 24.758L123.264 24.9699C125.484 27.4697 129.072 27.4697 131.292 24.9699L131.106 24.758ZM131.104 15.9885C133.167 18.4462 133.167 22.3032 131.104 24.761L131.295 24.9669C133.455 22.3936 133.455 18.3557 131.295 15.7825L131.104 15.9885ZM127.278 14.1868C128.715 14.1868 130.093 14.8362 131.106 15.9907L131.293 15.7801C130.231 14.5691 128.786 13.8879 127.278 13.8879V14.1868ZM123.451 15.9907C124.463 14.8362 125.841 14.1868 127.278 14.1868V13.8879C125.771 13.8879 124.325 14.5691 123.263 15.7801L123.451 15.9907ZM84.3877 20.8749C84.4473 22.3295 83.9774 23.7481 83.0875 24.7998L83.2782 25.0065C84.2181 23.8958 84.7143 22.3974 84.6515 20.861L84.3877 20.8749ZM84.3184 19.9864C84.3645 20.2773 84.3877 20.5724 84.3876 20.8678L84.6516 20.868C84.6518 20.5547 84.6272 20.2419 84.5782 19.9336L84.3184 19.9864ZM79.2616 20.1095H84.4483V19.8106H79.2616V20.1095ZM79.3937 21.4128V19.9601H79.1296V21.4128H79.3937ZM83.1294 21.2633H79.2616V21.5622H83.1294V21.2633ZM82.3352 23.9756C82.9052 23.2764 83.2339 22.3684 83.2614 21.4175L82.9975 21.4078C82.972 22.2869 82.6681 23.1264 82.1411 23.7728L82.3352 23.9756ZM77.5926 24.9581C79.2009 25.7456 81.07 25.3604 82.3299 23.9817L82.1464 23.7668C80.9632 25.0615 79.2079 25.4233 77.6974 24.6838L77.5926 24.9581ZM74.9767 20.3817C74.9522 22.3651 75.9841 24.1706 77.5926 24.9581L77.6974 24.6838C76.1867 23.9442 75.2177 22.2486 75.2408 20.3859L74.9767 20.3817ZM76.1797 16.8575C75.3711 17.8004 74.9367 19.0756 74.9768 20.3888L75.2406 20.3785C75.2031 19.1464 75.6106 17.9504 76.3692 17.0657L76.1797 16.8575ZM79.2623 15.392C78.1014 15.3854 76.9884 15.9148 76.1797 16.8575L76.3692 17.0657C77.1278 16.1813 78.172 15.6848 79.261 15.6909L79.2623 15.392ZM82.2858 16.8777C81.5378 15.8707 80.415 15.3204 79.2545 15.3921L79.2689 15.6906C80.3465 15.624 81.3891 16.1349 82.0837 17.0701L82.2858 16.8777ZM83.036 15.7988L82.0914 16.8682L82.2781 17.0796L83.2227 16.0103L83.036 15.7988ZM81.4046 14.6914C82.0302 14.977 82.5871 15.4264 83.0297 16.0027L83.229 15.8064C82.759 15.1946 82.1677 14.7175 81.5033 14.4142L81.4046 14.6914ZM79.262 14.1978C79.9976 14.195 80.7258 14.3626 81.4021 14.6901L81.506 14.4153C80.7966 14.0717 80.0327 13.896 79.2612 13.8989L79.262 14.1978ZM75.4169 15.9687C76.4261 14.8025 77.8169 14.1614 79.2587 14.1978L79.2645 13.8989C77.7498 13.8607 76.2885 14.5343 75.2284 15.7597L75.4169 15.9687ZM74.2358 22.7054C73.3961 20.3957 73.8612 17.7414 75.4164 15.9695L75.229 15.7589C73.599 17.616 73.1114 20.3983 73.9915 22.8191L74.2358 22.7054ZM79.2627 26.5495C77.0564 26.5299 75.0755 25.015 74.2358 22.7054L73.9915 22.8191C74.8718 25.2401 76.948 26.8278 79.2606 26.8484L79.2627 26.5495ZM83.0878 24.7995C82.0915 25.9711 80.7019 26.6073 79.2664 26.5495L79.257 26.8482C80.7675 26.9091 82.2296 26.2395 83.278 25.0068L83.0878 24.7995ZM92.6824 15.6755H87.87V15.9744H92.6824V15.6755ZM92.5504 14.332V15.825H92.8144V14.332H92.5504ZM86.4442 14.4814H92.6824V14.1825H86.4442V14.4814ZM86.5762 26.4377V14.332H86.3121V26.4377H86.5762ZM92.6824 26.2882H86.4442V26.5871H92.6824V26.2882ZM92.5504 24.9446V26.4377H92.8144V24.9446H92.5504ZM87.87 25.0941H92.6824V24.7952H87.87V25.0941ZM87.738 21.1112V24.9446H88.0021V21.1112H87.738ZM92.2547 20.9617H87.87V21.2606H92.2547V20.9617ZM92.1226 19.6585V21.1112H92.3867V19.6585H92.1226ZM87.87 19.8079H92.2547V19.509H87.87V19.8079ZM87.738 15.825V19.6585H88.0021V15.825H87.738ZM97.1563 26.5871H98.5287V26.2882H97.1563V26.5871ZM97.0243 15.825V26.4377H97.2883V15.825H97.0243ZM94.1619 15.9744H97.1563V15.6755H94.1619V15.9744ZM94.0299 14.332V15.825H94.2939V14.332H94.0299ZM101.594 14.1825H94.1619V14.4814H101.594V14.1825ZM101.726 15.825V14.332H101.462V15.825H101.726ZM98.5287 15.9744H101.594V15.6755H98.5287V15.9744ZM98.6607 26.4377V15.825H98.3967V26.4377H98.6607ZM106.967 26.4377V14.332H106.703V26.4377H106.967ZM108.208 26.2882H106.835V26.5871H108.208V26.2882ZM108.076 14.332V26.4377H108.34V14.332H108.076ZM106.835 14.4814H108.208V14.1825H106.835V14.4814ZM112.93 26.5871H114.302V26.2882H112.93V26.5871ZM112.797 15.825V26.4377H113.062V15.825H112.797ZM109.935 15.9744H112.93V15.6755H109.935V15.9744ZM109.803 14.332V15.825H110.067V14.332H109.803ZM117.278 14.1825H109.935V14.4814H117.278V14.1825ZM117.41 15.825V14.332H117.146V15.825H117.41ZM114.302 15.9744H117.278V15.6755H114.302V15.9744ZM114.434 26.4377V15.825H114.17V26.4377H114.434ZM130.09 23.7492C128.535 25.5021 126.021 25.5021 124.466 23.7492L124.28 23.9611C125.938 25.83 128.619 25.83 130.277 23.9611L130.09 23.7492ZM130.086 17.0149C131.618 18.9267 131.618 21.8429 130.086 23.7547L130.281 23.9556C131.905 21.9297 131.905 18.8399 130.281 16.8141L130.086 17.0149ZM124.466 17.0204C126.021 15.2675 128.535 15.2675 130.09 17.0204L130.277 16.8085C128.619 14.9396 125.938 14.9396 124.28 16.8085L124.466 17.0204ZM124.471 23.7547C122.939 21.8429 122.939 18.9267 124.471 17.0149L124.275 16.8141C122.652 18.8399 122.652 21.9297 124.275 23.9556L124.471 23.7547ZM134.843 26.4377V14.332H134.579V26.4377H134.843ZM136.101 26.2882H134.711V26.5871H136.101V26.2882ZM135.969 16.5715V26.4377H136.233V16.5715H135.969ZM141.649 26.3586L136.213 16.4924L135.989 16.6506L141.425 26.5168L141.649 26.3586ZM142.964 26.2882H141.538V26.5871H142.964V26.2882ZM142.832 14.332V26.4377H143.096V14.332H142.832ZM141.591 14.4814H142.964V14.1825H141.591V14.4814ZM141.723 23.7542V14.332H141.458V23.7542H141.723ZM136.274 14.4112L141.478 23.8335L141.703 23.675L136.498 14.2527L136.274 14.4112ZM134.711 14.4814H136.386V14.1825H134.711V14.4814Z" fill="white"/>
<path d="M18.6083 15.422C18.0273 16.2111 17.7341 17.2213 17.7884 18.2467V62.8766C17.7341 63.9019 18.0273 64.9122 18.6083 65.7013L18.733 65.8426L40.8165 40.8643V40.2792L18.733 15.2808L18.6083 15.422Z" fill="url(#paint0_linear)"/>
<path d="M48.1227 49.1963L40.8151 40.8635V40.2783L48.1227 31.9254L48.2831 32.0262L57.0345 37.6554C59.5298 39.2494 59.5298 41.8723 57.0345 43.4864L48.3188 49.0954L48.1227 49.1963Z" fill="url(#paint1_linear)"/>
<path d="M48.3366 49.0757L40.815 40.5613L18.6068 65.7009C19.6562 66.7452 21.2134 66.796 22.3141 65.822L48.3544 49.0757" fill="url(#paint2_linear)"/>
<path d="M48.3373 32.047L22.297 15.3007C21.1963 14.3267 19.6391 14.3776 18.5897 15.4217L40.8158 40.5614L48.3373 32.047Z" fill="url(#paint3_linear)"/>
<path opacity="0.2" d="M48.1227 48.894L22.2963 65.5394C21.2394 66.4339 19.7884 66.4339 18.7316 65.5394L18.6068 65.6806L18.7316 65.8219C19.7865 66.7232 21.2414 66.7232 22.2963 65.8219L48.3366 49.0756L48.1227 48.894Z" fill="black"/>
<path opacity="0.12" fill-rule="evenodd" clip-rule="evenodd" d="M48.1235 48.8941L57.0353 43.1842C57.9563 42.6697 58.6146 41.7009 58.8176 40.5613C58.7259 41.8211 58.0461 42.9293 57.0353 43.4667L48.2839 49.0757L48.1235 48.8941ZM17.7841 62.9866C17.8136 63.8743 18.1014 64.7304 18.6078 65.4185L18.7326 65.5799L18.6078 65.7211C18.044 64.9552 17.7511 63.9807 17.7841 62.9866ZM17.7841 62.9866C17.7851 62.9565 17.7864 62.9265 17.788 62.8965V62.5938C17.7811 62.725 17.7798 62.8561 17.7841 62.9866Z" fill="black"/>
<path opacity="0.25" d="M22.2967 15.5819L57.0349 37.9373C57.956 38.4518 58.6141 39.4206 58.8173 40.5602C58.7254 39.3004 58.0457 38.1922 57.0349 37.6548L22.2967 15.2995C19.8014 13.7056 17.7695 15.0372 17.7695 18.2654V18.568C17.823 15.3197 19.8192 13.988 22.2967 15.5819Z" fill="white"/>
<defs>
<linearGradient id="paint0_linear" x1="31.1441" y1="-15.0421" x2="-4.73749" y2="-6.61208" gradientUnits="userSpaceOnUse">
<stop stop-color="#00A0FF"/>
<stop offset="0.01" stop-color="#00A1FF"/>
<stop offset="0.26" stop-color="#00BEFF"/>
<stop offset="0.51" stop-color="#00D2FF"/>
<stop offset="0.76" stop-color="#00DFFF"/>
<stop offset="1" stop-color="#00E3FF"/>
</linearGradient>
<linearGradient id="paint1_linear" x1="60.2962" y1="19.9804" x2="17.181" y2="19.9804" gradientUnits="userSpaceOnUse">
<stop stop-color="#FFE000"/>
<stop offset="0.41" stop-color="#FFBD00"/>
<stop offset="0.78" stop-color="#FFA500"/>
<stop offset="1" stop-color="#FF9C00"/>
</linearGradient>
<linearGradient id="paint2_linear" x1="17.9542" y1="27.5023" x2="-15.9521" y2="77.8855" gradientUnits="userSpaceOnUse">
<stop stop-color="#FF3A44"/>
<stop offset="1" stop-color="#C31162"/>
</linearGradient>
<linearGradient id="paint3_linear" x1="1.26522" y1="8.47303" x2="16.4001" y2="30.9725" gradientUnits="userSpaceOnUse">
<stop stop-color="#32A071"/>
<stop offset="0.07" stop-color="#2DA771"/>
<stop offset="0.48" stop-color="#15CF74"/>
<stop offset="0.8" stop-color="#06E775"/>
<stop offset="1" stop-color="#00F076"/>
</linearGradient>
</defs>
</svg>
