<svg width="40" height="40" viewBox="0 0 40 40" fill="none" xmlns="http://www.w3.org/2000/svg">
<path d="M20 40C31.0457 40 40 31.0457 40 20C40 8.9543 31.0457 0 20 0C8.9543 0 0 8.9543 0 20C0 31.0457 8.9543 40 20 40Z" fill="#C31162"/>
<path fill-rule="evenodd" clip-rule="evenodd" d="M20 10C17.285 10 16.944 10.012 15.877 10.06C14.812 10.108 14.085 10.278 13.449 10.525C12.782 10.776 12.178 11.17 11.678 11.678C11.17 12.178 10.776 12.783 10.525 13.45C10.278 14.085 10.109 14.812 10.06 15.877C10.012 16.944 10 17.285 10 20C10 22.715 10.012 23.056 10.06 24.123C10.108 25.188 10.278 25.915 10.525 26.55C10.781 27.208 11.122 27.765 11.678 28.322C12.178 28.83 12.782 29.224 13.449 29.475C14.085 29.722 14.812 29.891 15.877 29.94C16.944 29.988 17.285 30 20 30C22.715 30 23.056 29.988 24.123 29.94C25.188 29.892 25.915 29.722 26.55 29.475C27.217 29.224 27.822 28.83 28.322 28.322C28.83 27.822 29.224 27.217 29.475 26.55C29.722 25.915 29.891 25.188 29.94 24.123C29.988 23.056 30 22.715 30 20C30 17.285 29.988 16.944 29.94 15.877C29.892 14.812 29.722 14.085 29.475 13.45C29.224 12.783 28.83 12.178 28.322 11.678C27.822 11.17 27.217 10.776 26.55 10.525C25.915 10.278 25.188 10.109 24.123 10.06C23.056 10.012 22.715 10 20 10ZM20 11.802C22.67 11.802 22.986 11.812 24.041 11.86C25.015 11.905 25.545 12.068 25.898 12.205C26.365 12.386 26.698 12.602 27.048 12.952C27.398 13.302 27.614 13.635 27.795 14.102C27.932 14.455 28.095 14.984 28.14 15.959C28.188 17.013 28.198 17.33 28.198 20C28.198 22.67 28.188 22.986 28.14 24.041C28.095 25.016 27.932 25.545 27.795 25.898C27.635 26.332 27.38 26.725 27.048 27.048C26.725 27.38 26.332 27.635 25.898 27.795C25.545 27.932 25.015 28.095 24.041 28.14C22.987 28.188 22.67 28.198 20 28.198C17.33 28.198 17.013 28.188 15.959 28.14C14.984 28.095 14.455 27.932 14.102 27.795C13.668 27.635 13.275 27.38 12.952 27.048C12.62 26.725 12.365 26.332 12.205 25.898C12.068 25.545 11.905 25.016 11.86 24.041C11.812 22.987 11.802 22.67 11.802 20C11.802 17.33 11.812 17.014 11.86 15.959C11.905 14.984 12.068 14.455 12.205 14.102C12.386 13.635 12.602 13.302 12.952 12.952C13.275 12.62 13.668 12.365 14.102 12.205C14.455 12.068 14.984 11.905 15.959 11.86C17.013 11.812 17.33 11.802 20 11.802Z" fill="white"/>
<path fill-rule="evenodd" clip-rule="evenodd" d="M20 14.6149C18.572 14.6149 17.202 15.183 16.192 16.192C15.183 17.202 14.615 18.5719 14.615 19.9999C14.615 21.4279 15.183 22.7979 16.192 23.8069C17.202 24.8169 18.572 25.3849 20 25.3849C21.428 25.3849 22.798 24.8169 23.807 23.8069C24.817 22.7979 25.385 21.4279 25.385 19.9999C25.385 18.5719 24.817 17.202 23.807 16.192C22.798 15.183 21.428 14.6149 20 14.6149ZM20 23.4609C19.082 23.4609 18.201 23.0969 17.552 22.4479C16.903 21.7979 16.538 20.9179 16.538 19.9999C16.538 19.0819 16.903 18.2009 17.552 17.5519C18.201 16.9029 19.082 16.538 20 16.538C20.918 16.538 21.798 16.9029 22.448 17.5519C23.097 18.2009 23.462 19.0819 23.462 19.9999C23.462 20.9179 23.097 21.7979 22.448 22.4479C21.798 23.0969 20.918 23.4609 20 23.4609ZM26.692 14.692C26.692 14.854 26.66 15.014 26.599 15.163C26.537 15.313 26.446 15.448 26.332 15.562C26.218 15.677 26.082 15.7669 25.933 15.8289C25.783 15.8909 25.623 15.9229 25.462 15.9229C25.3 15.9229 25.14 15.8909 24.991 15.8289C24.841 15.7669 24.706 15.677 24.591 15.562C24.477 15.448 24.386 15.313 24.324 15.163C24.263 15.014 24.231 14.854 24.231 14.692C24.231 14.366 24.36 14.053 24.591 13.822C24.822 13.591 25.135 13.4609 25.462 13.4609C25.788 13.4609 26.101 13.591 26.332 13.822C26.563 14.053 26.692 14.366 26.692 14.692Z" fill="white"/>
</svg>
