<svg width="251" height="85" viewBox="0 0 251 85" fill="none" xmlns="http://www.w3.org/2000/svg">
<path d="M230.943 0.732512H20.276C19.5081 0.732512 18.7495 0.732512 17.9835 0.736715C17.3425 0.740917 16.7065 0.753126 16.0592 0.763401C14.6531 0.780005 13.2502 0.904137 11.8629 1.13472C10.4775 1.37032 9.13549 1.8145 7.88227 2.45223C6.63059 3.09535 5.4869 3.93102 4.49267 4.92894C3.49322 5.92404 2.66012 7.07424 2.02536 8.33531C1.38887 9.59388 0.947516 10.9425 0.716557 12.3347C0.483403 13.7252 0.357941 15.1316 0.341296 16.5416C0.321863 17.1858 0.31981 17.8321 0.30957 18.4765V67.0462C0.31981 67.6988 0.321863 68.3308 0.341296 68.9835C0.357946 70.3933 0.483408 71.7997 0.716557 73.1901C0.946878 74.5831 1.38826 75.9324 2.02536 77.1915C2.65982 78.4484 3.49305 79.594 4.49267 80.5836C5.48312 81.586 6.62757 82.4222 7.88227 83.0604C9.13549 83.6999 10.4773 84.1466 11.8629 84.3859C13.2505 84.6146 14.6532 84.7388 16.0592 84.7573C16.7065 84.7717 17.3425 84.7799 17.9835 84.7799C18.7495 84.784 19.5083 84.784 20.276 84.784H230.943C231.694 84.784 232.46 84.784 233.212 84.7799C233.85 84.7799 234.505 84.7717 235.143 84.7573C236.546 84.7397 237.947 84.6156 239.33 84.3859C240.72 84.1449 242.067 83.6983 243.327 83.0604C244.58 82.4218 245.724 81.5855 246.713 80.5836C247.71 79.5901 248.545 78.4455 249.188 77.1915C249.82 75.9315 250.258 74.5821 250.484 73.1901C250.718 71.7994 250.848 70.3934 250.873 68.9835C250.88 68.3308 250.88 67.6988 250.88 67.0462C250.897 66.2828 250.897 65.5237 250.897 64.7479V20.7707C250.897 20.0012 250.897 19.2378 250.88 18.4765C250.88 17.8321 250.88 17.1858 250.873 16.5414C250.848 15.1314 250.718 13.7253 250.484 12.3347C250.256 10.9433 249.82 9.5947 249.188 8.33523C247.895 5.80754 245.846 3.75001 243.327 2.45204C242.067 1.81587 240.72 1.37181 239.33 1.13453C237.947 0.902932 236.546 0.778757 235.143 0.763107C234.505 0.752852 233.85 0.740539 233.212 0.736441C232.46 0.732239 231.694 0.732239 230.943 0.732239V0.732512Z" fill="black"/>
<path d="M17.994 82.9454C17.356 82.9454 16.7334 82.9372 16.1004 82.923C14.789 82.9059 13.4807 82.7913 12.1862 82.5803C10.9792 82.3717 9.80985 81.9836 8.71685 81.429C7.63387 80.8789 6.64611 80.1576 5.7914 79.2928C4.92432 78.4382 4.20243 77.4469 3.65435 76.3584C3.10024 75.2626 2.71675 74.0884 2.51726 72.876C2.30184 71.5736 2.18527 70.2565 2.16859 68.9362C2.15531 68.493 2.13794 67.0174 2.13794 67.0174V18.4765C2.13794 18.4765 2.15645 17.0237 2.1687 16.5969C2.18467 15.2787 2.30054 13.9636 2.51534 12.6631C2.7152 11.4475 3.09897 10.2698 3.6534 9.17053C4.19946 8.08272 4.91733 7.09074 5.7792 6.23303C6.64008 5.36718 7.63101 4.6422 8.71582 4.08453C9.80631 3.53165 10.9734 3.14634 12.178 2.94155C13.4768 2.72842 14.7896 2.61318 16.1055 2.59681L17.9951 2.57116H233.203L235.114 2.59785C236.419 2.6134 237.719 2.7276 239.006 2.93949C240.222 3.14685 241.401 3.53484 242.505 4.09068C244.677 5.21455 246.447 6.99262 247.561 9.17566C248.107 10.2673 248.485 11.4355 248.682 12.6405C248.901 13.9517 249.022 15.2771 249.047 16.6061C249.053 17.2011 249.053 17.8404 249.053 18.4765C249.07 19.2645 249.07 20.0146 249.07 20.7708V64.7479C249.07 65.5112 249.07 66.2562 249.053 67.0073C249.053 67.6905 249.053 68.3165 249.045 68.9607C249.02 70.2661 248.9 71.5677 248.687 72.8555C248.492 74.0765 248.11 75.26 247.555 76.3647C247.003 77.4415 246.287 78.4241 245.429 79.2764C244.574 80.1458 243.584 80.8714 242.499 81.425C241.398 81.9839 240.221 82.3734 239.006 82.5803C237.712 82.7924 236.403 82.907 235.092 82.923C234.479 82.9372 233.836 82.9454 233.212 82.9454L230.943 82.9497L17.994 82.9454Z" fill="white"/>
<path fill-rule="evenodd" clip-rule="evenodd" d="M156.693 61.8302C153.269 61.8302 150.764 60.1313 150.476 57.5437L146.492 57.5434C146.744 62.2633 150.637 65.2489 156.404 65.2489C162.568 65.2489 166.442 62.1914 166.442 57.3096C166.442 53.4928 164.226 51.3422 158.892 50.0762L156.026 49.3703C152.674 48.5392 151.304 47.4537 151.304 45.6089C151.304 43.2941 153.449 41.7038 156.584 41.7038C159.719 41.7038 161.865 43.2758 162.1 45.8797H166.028C165.902 41.3776 162.134 38.2852 156.638 38.2852C151.087 38.2852 147.177 41.3776 147.177 45.8797C147.177 49.516 149.394 51.7569 154.169 52.9141L157.539 53.7288C160.91 54.56 162.332 55.7726 162.332 57.798C162.332 60.1312 159.972 61.8302 156.693 61.8302ZM88.8933 57.7611H78.9811L76.6007 64.814H72.4023L81.7909 38.7202H86.153L95.5416 64.814H91.2716L88.8933 57.7611ZM80.0078 54.5066H87.8648L83.9915 43.0603H83.883L80.0078 54.5066ZM107.906 65.0132C112.665 65.0132 115.818 61.2149 115.818 55.3029C115.818 49.4074 112.646 45.5907 107.834 45.5907C105.358 45.5104 103.039 46.8027 101.797 48.9539H101.726V45.7897H97.9589V71.1078H101.851V61.6848H101.941C103.129 63.8496 105.446 65.1423 107.906 65.0132ZM111.818 55.3028C111.818 51.4511 109.834 48.9189 106.808 48.9189C103.834 48.9189 101.834 51.5045 101.834 55.3028C101.834 59.136 103.834 61.7031 106.808 61.7031C109.834 61.7031 111.818 59.1894 111.818 55.3028H111.818ZM128.773 65.0132C133.532 65.0132 136.686 61.2149 136.686 55.3029C136.686 49.4074 133.513 45.5907 128.702 45.5907C126.226 45.5104 123.906 46.8027 122.665 48.9539H122.593V45.7897H118.826V71.1078H122.718V61.6848H122.808C123.997 63.8496 126.313 65.1423 128.773 65.0132ZM132.685 55.3028C132.685 51.4511 130.702 48.9189 127.675 48.9189C124.702 48.9189 122.701 51.5045 122.701 55.3028C122.701 59.136 124.702 61.7031 127.675 61.7031C130.702 61.7031 132.685 59.1894 132.685 55.3028ZM174.845 41.2873V45.7895H178.45V48.8819H174.845V59.3699C174.845 60.9992 175.566 61.7585 177.151 61.7585C177.58 61.751 178.006 61.7209 178.431 61.6681V64.7421C177.718 64.8757 176.994 64.9362 176.27 64.9226C172.431 64.9226 170.934 63.4759 170.934 59.7864V48.8819H168.177V45.7895H170.934V41.2873H174.845ZM189.528 45.5556C184.049 45.5556 180.536 49.3169 180.536 55.3028C180.536 61.305 184.014 65.0499 189.528 65.0499C195.042 65.0499 198.522 61.305 198.522 55.3028C198.522 49.3169 195.024 45.5556 189.528 45.5556ZM194.557 55.3028C194.557 51.1966 192.681 48.7731 189.528 48.7731C186.373 48.7731 184.499 51.2151 184.499 55.3028C184.499 59.4253 186.373 61.8302 189.528 61.8302C192.681 61.8302 194.557 59.4253 194.557 55.3028ZM205.441 45.7895H201.73V64.814H205.621V53.5298C205.492 52.3881 205.867 51.2467 206.646 50.4052C207.426 49.5637 208.533 49.1062 209.677 49.1527C210.268 49.1355 210.859 49.2151 211.426 49.3888V45.7361C210.988 45.6377 210.541 45.5888 210.092 45.5903C207.953 45.5084 206.05 46.9431 205.532 49.0276H205.441V45.7895ZM229.368 59.2263C228.844 62.6798 225.493 65.0499 221.205 65.0499C215.689 65.0499 212.265 61.3418 212.265 55.393C212.265 49.4258 215.708 45.5556 221.041 45.5556C226.286 45.5556 229.585 49.1713 229.585 54.9396V56.2775H216.195V56.5134C216.069 57.9299 216.556 59.3318 217.532 60.3627C218.509 61.3938 219.878 61.9544 221.294 61.9021C223.184 62.0797 224.964 60.9915 225.673 59.2263H229.368ZM225.691 53.5482H216.213C216.21 52.2638 216.718 51.0312 217.625 50.1246C218.532 49.2178 219.762 48.7122 221.041 48.7197C222.31 48.6924 223.534 49.1979 224.418 50.1144C225.301 51.0311 225.762 52.2755 225.691 53.5482Z" fill="black"/>
<path fill-rule="evenodd" clip-rule="evenodd" d="M124.058 18.4614H125.918V31.6169H124.058V18.4614ZM83.9306 20.7977C82.7915 19.5909 81.1733 18.9601 79.5213 19.0792H75.0079V31.6172H79.5213C83.2432 31.6172 85.4007 29.3147 85.4007 25.3091C85.609 23.6602 85.0694 22.0045 83.9306 20.7977ZM79.3045 29.8438H76.9487V20.8508H79.3045C80.4789 20.7854 81.621 21.2501 82.4184 22.1177C83.2158 22.9855 83.5851 24.1653 83.4252 25.3346C83.5976 26.5087 83.2335 27.6983 82.4343 28.5732C81.6348 29.448 80.4852 29.9146 79.3045 29.8438ZM87.5925 26.882C87.4309 25.186 88.2413 23.5447 89.6841 22.6464C91.1267 21.7481 92.9522 21.7481 94.3948 22.6464C95.8376 23.5447 96.648 25.186 96.4864 26.882C96.651 28.5798 95.8413 30.2244 94.3974 31.1247C92.9534 32.025 91.1255 32.025 89.6815 31.1247C88.2374 30.2244 87.4279 28.5798 87.5925 26.882ZM92.0428 23.6314C93.6543 23.6314 94.5724 24.8309 94.5724 26.8818H94.5725C94.5725 28.9411 93.6543 30.1394 92.0428 30.1394C90.4252 30.1394 89.5153 28.9493 89.5153 26.8818C89.5153 24.8309 90.4252 23.6314 92.0428 23.6314ZM108.309 31.6169H106.378L104.43 24.6483H104.282L102.342 31.6169H100.43L97.8303 22.1551H99.7179L101.407 29.375H101.546L103.485 22.1551H105.27L107.209 29.375H107.356L109.037 22.1551H110.898L108.309 31.6169ZM114.875 22.1549H113.084V31.6168H114.945V26.0815C114.878 25.4518 115.089 24.8243 115.522 24.3633C115.954 23.9024 116.566 23.6542 117.197 23.6836C118.573 23.6836 119.231 24.4398 119.231 25.9604V31.6168H121.092V25.4915C121.229 24.5663 120.939 23.6292 120.304 22.9444C119.669 22.2598 118.758 21.9021 117.828 21.9723C116.628 21.8743 115.498 22.5514 115.015 23.658H114.875V22.1549ZM130.597 22.6462C129.154 23.5445 128.343 25.1859 128.505 26.882C128.341 28.5798 129.15 30.2242 130.594 31.1245C132.039 32.0248 133.866 32.0248 135.31 31.1245C136.754 30.2242 137.564 28.5798 137.4 26.882C137.561 25.1859 136.751 23.5445 135.308 22.6462C133.865 21.7478 132.04 21.7478 130.597 22.6462ZM135.485 26.8818C135.485 24.8309 134.567 23.6314 132.955 23.6314C131.338 23.6314 130.428 24.8309 130.428 26.8818C130.428 28.9493 131.338 30.1394 132.955 30.1394C134.567 30.1394 135.485 28.9411 135.485 26.8818ZM142.867 26.1165C140.623 26.256 139.359 27.2379 139.359 28.9411C139.363 29.7487 139.706 30.5172 140.305 31.0568C140.904 31.5963 141.702 31.8563 142.503 31.7729C143.644 31.8258 144.727 31.2583 145.335 30.2872H145.482V31.6169H147.274V25.1521C147.274 23.1533 145.94 21.9724 143.576 21.9724C141.437 21.9724 139.914 23.0148 139.723 24.6401H141.525C141.732 23.971 142.451 23.5883 143.49 23.5883C144.762 23.5883 145.421 24.1526 145.421 25.1521V25.9687L142.867 26.1165ZM145.421 28.1326V27.3415L143.118 27.4893C141.82 27.5765 141.231 28.0197 141.231 28.8539C141.231 29.7055 141.967 30.201 142.979 30.201C143.578 30.2619 144.177 30.0762 144.637 29.6862C145.097 29.2962 145.38 28.7356 145.421 28.1326ZM153.634 21.998C151.251 21.998 149.719 23.8921 149.719 26.882C149.719 29.8789 151.235 31.773 153.634 31.7729C154.85 31.8179 155.991 31.1821 156.595 30.122H156.742V31.6169H158.526V18.4614H156.664V23.658H156.526C155.963 22.5893 154.836 21.9425 153.634 21.998ZM151.642 26.882C151.642 28.8888 152.585 30.0964 154.161 30.0964C155.729 30.0964 156.699 28.8714 156.699 26.8902C156.699 24.9181 155.72 23.6756 154.161 23.6756C152.595 23.6756 151.642 24.8914 151.642 26.882H151.642ZM168.316 22.6464C166.874 23.5447 166.063 25.186 166.225 26.882C166.06 28.5798 166.869 30.2244 168.313 31.1247C169.758 32.025 171.586 32.025 173.029 31.1247C174.473 30.2244 175.283 28.5798 175.118 26.882C175.28 25.186 174.47 23.5447 173.026 22.6464C171.584 21.7481 169.759 21.7481 168.316 22.6464ZM173.204 26.8818C173.204 24.8309 172.287 23.6314 170.674 23.6314C169.057 23.6314 168.147 24.8309 168.147 26.8818C168.147 28.9493 169.057 30.1394 170.674 30.1394C172.287 30.1394 173.204 28.9411 173.204 26.8818ZM179.408 22.1549H177.615V31.6168H179.477V26.0815C179.409 25.4518 179.62 24.8243 180.053 24.3633C180.485 23.9024 181.097 23.6542 181.727 23.6836C183.105 23.6836 183.763 24.4398 183.763 25.9604V31.6168H185.623V25.4915C185.76 24.5663 185.469 23.6292 184.834 22.9444C184.2 22.2598 183.289 21.9021 182.359 21.9723C181.16 21.8743 180.03 22.5514 179.546 23.658H179.408V22.1549ZM196.139 19.7993V22.1981H198.182V23.771H196.139V28.6364C196.139 29.6276 196.546 30.0615 197.473 30.0615C197.71 30.0607 197.947 30.0464 198.182 30.0185V31.5739C197.848 31.6339 197.51 31.6658 197.17 31.6692C195.101 31.6692 194.277 30.9388 194.277 29.1145V23.771H192.779V22.1981H194.277V19.7993H196.139ZM202.569 18.4614H200.724V31.6169H202.585V26.0908C202.528 25.4415 202.758 24.7999 203.217 24.3374C203.675 23.8749 204.313 23.6388 204.96 23.692C206.274 23.692 206.975 24.4574 206.975 25.9687V31.6169H208.839V25.5081C208.962 24.5876 208.67 23.66 208.042 22.9779C207.413 22.2957 206.516 21.9301 205.592 21.9806C204.373 21.8814 203.223 22.5592 202.715 23.6756H202.569V18.4614ZM219.689 29.062C219.168 30.8469 217.446 32.0001 215.605 31.7996C214.347 31.8327 213.139 31.3098 212.299 30.3694C211.461 29.4289 211.075 28.1659 211.248 26.9156C211.08 25.6619 211.464 24.397 212.298 23.4486C213.132 22.5001 214.335 21.9615 215.595 21.9723C218.22 21.9723 219.803 23.771 219.803 26.7422V27.3938H213.143V27.4984C213.085 28.2006 213.325 28.8951 213.803 29.4111C214.281 29.9271 214.953 30.217 215.655 30.2091C216.565 30.3188 217.452 29.8656 217.898 29.062H219.689ZM217.906 26.0129H213.143C213.136 25.3605 213.389 24.7322 213.849 24.2708C214.309 23.8092 214.936 23.5536 215.586 23.5618C216.227 23.547 216.845 23.8047 217.286 24.2715C217.729 24.7383 217.954 25.3708 217.906 26.0129Z" fill="black"/>
<path fill-rule="evenodd" clip-rule="evenodd" d="M49.133 17.2211C49.3438 19.9836 48.4732 22.7198 46.7059 24.8486C44.9914 26.9884 42.3936 28.2208 39.6574 28.1926C39.4834 25.5096 40.3794 22.8673 42.1481 20.8475C43.9391 18.8004 46.4331 17.5057 49.133 17.2211ZM57.7863 33.453C54.6389 35.3945 52.7021 38.8187 52.6546 42.5256C52.6591 46.7197 55.162 50.5047 59.0117 52.1384C58.2713 54.5518 57.1554 56.8324 55.705 58.896C53.7574 61.8195 51.7153 64.6756 48.4741 64.7284C46.9326 64.764 45.8921 64.3193 44.8078 63.8557C43.677 63.3724 42.4984 62.8686 40.6542 62.8686C38.6984 62.8686 37.4672 63.3886 36.2796 63.89C35.2534 64.3235 34.2598 64.7431 32.8596 64.8012C29.7729 64.916 27.414 61.6811 25.3954 58.785C21.3611 52.8707 18.2199 42.1176 22.4313 34.8009C24.4089 31.2348 28.1067 28.9719 32.1716 28.8402C33.9223 28.8041 35.6022 29.4811 37.075 30.0747C38.2012 30.5286 39.2065 30.9338 40.0296 30.9338C40.7532 30.9338 41.7305 30.5446 42.8692 30.0911C44.6632 29.3767 46.8582 28.5025 49.095 28.7381C52.5708 28.8473 55.7917 30.5946 57.7863 33.453Z" fill="black"/>
</svg>
