<svg width="40" height="40" viewBox="0 0 40 40" fill="none" xmlns="http://www.w3.org/2000/svg">
<path d="M20 40C31.0457 40 40 31.0457 40 20C40 8.9543 31.0457 0 20 0C8.9543 0 0 8.9543 0 20C0 31.0457 8.9543 40 20 40Z" fill="#C31162"/>
<path d="M28.538 10H11.462C10.615 10 10 10.615 10 11.462V28.538C10 29.308 10.692 30 11.462 30H28.538C29.385 30 30 29.385 30 28.538V11.462C30 10.615 29.308 10 28.538 10ZM16.154 26.923H13.077V17.692H16.154V26.923ZM14.615 16.462C13.615 16.462 12.769 15.615 12.769 14.615C12.769 13.615 13.615 12.769 14.615 12.769C15.615 12.769 16.462 13.615 16.462 14.615C16.462 15.615 15.615 16.462 14.615 16.462ZM26.923 26.923H23.846V22.308C23.846 21.077 23.538 19.846 22.308 19.846C21.077 19.846 20.769 21.077 20.769 22.308V26.923H17.692V17.692H20.769V18.769H20.923C21.308 18 22.308 17.385 23.462 17.385C26.308 17.385 26.923 19.231 26.923 21.538V26.923Z" fill="white"/>
</svg>
