<svg width="40" height="40" viewBox="0 0 40 40" fill="none" xmlns="http://www.w3.org/2000/svg">
<path d="M20 40C31.0457 40 40 31.0457 40 20C40 8.9543 31.0457 0 20 0C8.9543 0 0 8.9543 0 20C0 31.0457 8.9543 40 20 40Z" fill="#C31162"/>
<path d="M32.435 12.259C31.515 12.678 30.594 12.929 29.506 13.096C30.51 12.427 31.347 11.506 31.766 10.335C30.762 10.921 29.674 11.339 28.586 11.59C27.665 10.586 26.326 10 24.904 10C22.142 10 19.799 12.259 19.799 15.105C19.799 15.523 19.883 15.858 19.967 16.276C15.782 16.109 12.017 14.017 9.50598 11.004C9.08798 11.59 8.83698 12.427 8.83698 13.347C8.83698 15.105 9.75701 16.695 11.096 17.531C10.259 17.531 9.50598 17.28 8.83698 16.862V16.946C8.83698 19.372 10.594 21.464 12.937 21.883C12.519 21.967 12.1 22.05 11.598 22.05C11.264 22.05 10.929 22.05 10.678 21.967C11.347 23.975 13.188 25.481 15.448 25.481C13.69 26.82 11.515 27.657 9.172 27.657C8.753 27.657 8.335 27.657 8 27.573C10.008 29.163 12.686 30 15.531 30C24.82 30 29.925 22.301 29.925 15.607V14.937C30.929 14.184 31.766 13.347 32.435 12.259Z" fill="white"/>
</svg>
