<svg width="58" height="58" viewBox="0 0 58 58" fill="none" xmlns="http://www.w3.org/2000/svg">
<path d="M33.4225 45.9167C33.0615 45.9179 32.7047 45.8382 32.3785 45.6835C32.0523 45.5288 31.765 45.3029 31.5375 45.0225L19.865 30.5225C19.5096 30.0901 19.3152 29.5477 19.3152 28.9879C19.3152 28.4282 19.5096 27.8858 19.865 27.4533L31.9483 12.9533C32.3585 12.4598 32.948 12.1495 33.587 12.0905C34.2261 12.0316 34.8623 12.229 35.3558 12.6392C35.8494 13.0494 36.1597 13.6388 36.2186 14.2779C36.2776 14.9169 36.0802 15.5532 35.67 16.0467L24.8675 29L35.3075 41.9534C35.603 42.3081 35.7907 42.74 35.8485 43.1981C35.9062 43.6562 35.8314 44.1212 35.6331 44.5382C35.4348 44.9551 35.1213 45.3065 34.7295 45.5508C34.3377 45.7951 33.8842 45.9221 33.4225 45.9167Z" fill="#2871FA"/>
</svg>
