<svg width="68" height="68" viewBox="0 0 68 68" fill="none" xmlns="http://www.w3.org/2000/svg">
<path d="M34 64.751C35.1899 64.7236 36.3317 64.2763 37.2236 63.4881C38.1154 62.7 38.6998 61.6218 38.8733 60.4443H28.9378C29.1162 61.6538 29.7279 62.7573 30.6591 63.5495C31.5903 64.3417 32.7776 64.7687 34 64.751Z" fill="#2871FA"/>
<path d="M62.05 53.1342L61.4078 52.5675C59.5858 50.9442 57.9911 49.0826 56.6667 47.0331C55.2202 44.2046 54.3532 41.1156 54.1167 37.9475V28.6164C54.109 27.483 54.0079 26.3521 53.8144 25.2353C50.6149 24.5777 47.7409 22.8346 45.679 20.3011C43.6171 17.7677 42.4941 14.5995 42.5 11.3331V10.1431C40.5279 9.17256 38.409 8.53435 36.2289 8.25421V5.87421C36.2289 5.20542 35.9632 4.56402 35.4903 4.09112C35.0174 3.61821 34.376 3.35254 33.7072 3.35254C33.0384 3.35254 32.397 3.61821 31.9241 4.09112C31.4512 4.56402 31.1856 5.20542 31.1856 5.87421V8.34865C26.3041 9.03725 21.8366 11.4686 18.6079 15.1939C15.3791 18.9191 13.607 23.6867 13.6189 28.6164V37.9475C13.3823 41.1156 12.5154 44.2046 11.0689 47.0331C9.76722 49.0775 8.19814 50.9388 6.40333 52.5675L5.76111 53.1342V58.4609H62.05V53.1342Z" fill="#2871FA"/>
<path d="M56.6667 20.7778C61.8827 20.7778 66.1111 16.5494 66.1111 11.3334C66.1111 6.11734 61.8827 1.88892 56.6667 1.88892C51.4507 1.88892 47.2222 6.11734 47.2222 11.3334C47.2222 16.5494 51.4507 20.7778 56.6667 20.7778Z" fill="#2871FA"/>
</svg>
