<svg width="26" height="26" viewBox="0 0 26 26" fill="none" xmlns="http://www.w3.org/2000/svg">
<path d="M3 0.5H23C23.663 0.5 24.2989 0.763392 24.7678 1.23223C25.2366 1.70107 25.5 2.33696 25.5 3V19.6625L19.6625 25.5H3C2.33696 25.5 1.70107 25.2366 1.23223 24.7678C0.763392 24.2989 0.5 23.663 0.5 23V3C0.5 1.625 1.625 0.5 3 0.5ZM19.25 19.25V23.3125L23.3125 19.25H19.25ZM10.5 21.75H15.5V20.5H16.75V14.25C17.7979 13.4621 18.5716 12.3648 18.9617 11.1132C19.3519 9.8616 19.3387 8.51902 18.9242 7.27528C18.5096 6.03155 17.7145 4.94959 16.6515 4.18239C15.5884 3.41519 14.311 3.00157 13 3C11.689 3.00157 10.4116 3.41519 9.34855 4.18239C8.28546 4.94959 7.49042 6.03155 7.07584 7.27528C6.66127 8.51902 6.64812 9.8616 7.03828 11.1132C7.42843 12.3648 8.20213 13.4621 9.25 14.25V20.5H10.5V21.75ZM15.5 19.25H10.5V16.75H15.5V19.25ZM13 4.25C15.7625 4.25 18 6.4875 18 9.25C18 11.125 17 12.7125 15.5 13.575V15.5H10.5V13.575C9 12.7125 8 11.125 8 9.25C8 6.4875 10.2375 4.25 13 4.25Z" fill="#2871FA"/>
</svg>
