<svg width="35" height="35" viewBox="0 0 35 35" fill="none" xmlns="http://www.w3.org/2000/svg">
<path d="M2.91667 8.74984V29.1665H29.1667V32.0832H2.91667C1.30521 32.0832 0 30.7853 0 29.1665V8.74984H2.91667ZM35 5.83317C35 4.229 33.6875 2.9165 32.0833 2.9165H8.75C7.14583 2.9165 5.83333 4.229 5.83333 5.83317V23.3332C5.83333 24.9373 7.14583 26.2498 8.75 26.2498H32.0833C33.6875 26.2498 35 24.9373 35 23.3332V5.83317ZM32.0833 5.83317L20.4167 13.1248L8.75 5.83317H32.0833ZM32.0833 23.3332H8.75V8.74984L20.4167 16.0415L32.0833 8.74984V23.3332Z" fill="#007DFE"/>
</svg>
