<svg width="34" height="35" viewBox="0 0 34 35" fill="none" xmlns="http://www.w3.org/2000/svg">
<path d="M32.9558 31.6785L30.5635 24.5H27.9385L29.3963 31.5H3.73079L5.18854 24.5H2.56354L0.169538 31.6785C-0.437712 33.5055 0.638538 35 2.56354 35H30.5635C32.4885 35 33.5648 33.5055 32.9558 31.6785ZM25.3135 8.75C25.3135 6.42936 24.3917 4.20376 22.7507 2.56282C21.1098 0.921872 18.8842 0 16.5635 0C14.2429 0 12.0173 0.921872 10.3764 2.56282C8.73541 4.20376 7.81354 6.42936 7.81354 8.75C7.81354 17.1063 16.5635 26.25 16.5635 26.25C16.5635 26.25 25.3135 17.1063 25.3135 8.75ZM11.8385 8.855C11.8385 6.24575 13.9525 4.13175 16.5635 4.13175C17.8165 4.13175 19.0181 4.62947 19.904 5.51541C20.7899 6.40136 21.2877 7.60296 21.2877 8.85588C21.2877 10.1088 20.7899 11.3104 19.904 12.1963C19.0181 13.0823 17.8165 13.58 16.5635 13.58C15.3104 13.58 14.1086 13.0822 13.2225 12.1961C12.3363 11.31 11.8385 10.1081 11.8385 8.855Z" fill="#007DFE"/>
</svg>
