<svg width="40" height="40" viewBox="0 0 40 40" fill="none" xmlns="http://www.w3.org/2000/svg">
<path d="M39.273 0.727054C40.1102 1.71649 40.2243 3.12453 39.6155 4.95118C39.0066 6.77783 37.9792 8.4142 36.5332 9.8603L31.9383 14.4555L36.5047 34.3203C36.5998 34.6818 36.4856 34.9957 36.1622 35.2621L32.5091 38.0021C32.3759 38.1163 32.1952 38.1734 31.9669 38.1734C31.8908 38.1734 31.8242 38.1638 31.7671 38.1448C31.4817 38.0877 31.2819 37.9355 31.1678 37.6881L23.2052 23.1891L15.8135 30.5813L17.3261 36.1184C17.4212 36.4418 17.3451 36.7368 17.0978 37.0032L14.358 39.7431C14.1867 39.9144 13.9679 40 13.7016 40H13.6445C13.3591 39.9619 13.1308 39.8383 12.9595 39.629L7.56557 32.4365L0.373608 27.0422C0.164319 26.909 0.0406472 26.6902 0.0025945 26.3858C-0.0164319 26.1384 0.0691868 25.9006 0.25945 25.6722L2.99925 22.9037C3.17048 22.7325 3.38929 22.6468 3.65565 22.6468C3.76981 22.6468 3.84592 22.6564 3.88397 22.6754L9.42064 24.1881L16.8124 16.7959L2.3143 8.83281C2.04793 8.68059 1.8862 8.45226 1.82912 8.14781C1.79107 7.84337 1.87669 7.5865 2.08598 7.3772L5.73904 3.7239C6.00541 3.47654 6.29081 3.40043 6.59523 3.49557L25.574 8.03365L30.1403 3.46703C31.5863 2.02093 33.2226 0.993441 35.0491 0.384558C36.8757 -0.224325 38.2836 -0.11016 39.273 0.727054Z" fill="#2871FA"/>
</svg>
