<svg width="35" height="35" viewBox="0 0 35 35" fill="none" xmlns="http://www.w3.org/2000/svg">
<path d="M29.1666 16.0403H32.0833C32.0833 8.55904 26.4352 2.91675 18.9437 2.91675V5.83341C24.8675 5.83341 29.1666 10.1253 29.1666 16.0403Z" fill="#007DFE"/>
<path d="M18.9583 11.6667C22.0252 11.6667 23.3333 12.9748 23.3333 16.0417H26.25C26.25 11.3386 23.6615 8.75002 18.9583 8.75002V11.6667ZM23.9488 19.6044C23.6685 19.3497 23.3003 19.2139 22.9218 19.2256C22.5433 19.2373 22.1842 19.3956 21.9202 19.6671L18.4304 23.2561C17.5904 23.0956 15.9017 22.5692 14.1633 20.8352C12.425 19.0954 11.8986 17.4023 11.7425 16.5681L15.3286 13.0769C15.6004 12.8131 15.759 12.4539 15.7707 12.0753C15.7824 11.6967 15.6463 11.3284 15.3913 11.0484L10.0027 5.12315C9.74758 4.84221 9.39296 4.6718 9.0142 4.64811C8.63543 4.62442 8.26234 4.74932 7.97418 4.99627L4.8096 7.71023C4.55747 7.96327 4.40698 8.30005 4.38668 8.65669C4.36481 9.02127 3.94772 17.6575 10.6444 24.3571C16.4865 30.1977 23.8044 30.625 25.8198 30.625C26.1144 30.625 26.2952 30.6163 26.3433 30.6134C26.6999 30.5934 27.0365 30.4422 27.2883 30.189L30.0008 27.0229C30.248 26.735 30.3731 26.362 30.3497 25.9832C30.3263 25.6045 30.1562 25.2497 29.8754 24.9944L23.9488 19.6044Z" fill="#007DFE"/>
</svg>
