<svg width="68" height="68" viewBox="0 0 68 68" fill="none" xmlns="http://www.w3.org/2000/svg">
<g clip-path="url(#clip0)">
<path d="M67.7025 32.9375C67.4571 32.1234 67.0198 31.3801 66.4275 30.77C65.9754 30.2822 65.3951 29.9317 64.753 29.7585C65.0675 30.2557 65.3523 30.8295 65.5648 31.4415C65.8028 32.0662 65.9557 32.7335 66.0025 33.4262C66.0741 34.0248 66.0741 34.6297 66.0025 35.2282C65.8699 34.7846 65.6661 34.3655 65.399 33.9873C64.8727 33.276 64.1694 32.7148 63.359 32.3595C62.4614 31.9553 61.446 31.8975 60.5083 32.1972C59.5706 32.497 58.777 33.1331 58.2803 33.983C58.0678 34.3315 57.8978 34.7098 57.7703 35.1135C52.7468 26.7495 43.707 21.2118 33.371 21.2118C32.844 21.2118 32.3213 21.2245 31.8028 21.2542C28.5961 21.2602 25.4055 21.7079 22.321 22.5845C22.0575 20.74 19.635 17 8.50001 17L11.9 27.6675C9.76202 29.3957 7.96477 31.5072 6.60026 33.8937L9.2946e-06 34C9.2946e-06 34 -0.72249 51 4.25001 51H6.54501C8.1074 53.6483 10.1978 55.9471 12.6863 57.7533L12.75 68H17.34C22.9075 68 25.5 68 25.5 64.8125V63.155C29.7868 63.9493 34.1842 63.9378 38.4668 63.121L38.25 64.8125C38.25 68 40.885 68 46.495 68H51V57.8425C54.9852 55.0795 57.8532 50.9848 59.0878 46.2952C59.33 46.1805 59.5723 46.1933 59.8188 46.1933C60.0653 46.1933 60.3075 46.1805 60.5498 46.1508C61.6165 45.9553 62.5898 45.5388 63.4355 44.948C64.5786 44.1393 65.4534 43.007 65.9473 41.6967C66.0663 41.3015 66.1555 40.885 66.215 40.4557L66.2193 40.4132C67.1585 39.2997 67.8003 37.9057 68 36.3715C68.1737 35.1991 68.0689 34.0023 67.694 32.878L67.7025 32.9375ZM14.9175 32.9375C15.7629 32.9375 16.5736 33.2733 17.1714 33.8711C17.7692 34.4689 18.105 35.2796 18.105 36.125C18.105 36.9704 17.7692 37.7811 17.1714 38.3789C16.5736 38.9767 15.7629 39.3125 14.9175 39.3125C14.0721 39.3125 13.2614 38.9767 12.6636 38.3789C12.0658 37.7811 11.73 36.9704 11.73 36.125C11.73 35.2796 12.0658 34.4689 12.6636 33.8711C13.2614 33.2733 14.0721 32.9375 14.9175 32.9375ZM24.99 29.75C24.51 29.9039 23.9911 29.883 23.5251 29.6908C23.0591 29.4987 22.6762 29.1477 22.4443 28.7002C22.372 28.4773 22.3478 28.2415 22.3733 28.0084C22.3989 27.7754 22.4736 27.5505 22.5925 27.3484C22.7113 27.1464 22.8717 26.9719 23.063 26.8364C23.2543 26.7009 23.4722 26.6076 23.7023 26.5625C26.4976 25.8922 29.3664 25.5781 32.2405 25.6275L32.6698 25.6232C35.5258 25.6232 38.2968 25.9633 40.953 26.6093C41.4885 26.7113 42.0665 27.3827 42.0665 28.1902C42.0663 28.362 42.0391 28.5327 41.9858 28.696C41.837 28.9716 41.6271 29.2094 41.3722 29.3914C41.1173 29.5733 40.8242 29.6945 40.5153 29.7458H39.865C37.4908 29.174 35.0566 28.8887 32.6145 28.8957H32.2363C29.665 28.8957 27.166 29.206 24.7733 29.7925L24.99 29.75ZM61.965 42.2025C61.3915 42.6196 60.7349 42.9081 60.0398 43.0482L59.5 43.0525V42.5V41.1825C60.2013 41.7137 61.0895 42.0325 62.05 42.0325H62.1393L61.965 42.2025ZM62.305 39.3125C61.9099 39.3679 61.5075 39.2954 61.1566 39.1058C60.8056 38.9162 60.5245 38.6193 60.3543 38.2585C60.1595 37.8874 60.0581 37.4744 60.0588 37.0552C60.0596 36.6361 60.1624 36.2234 60.3585 35.853C60.5606 35.5733 60.8581 35.3774 61.1948 35.3022C61.5316 35.227 61.8842 35.2778 62.186 35.445C62.5711 35.5928 62.9024 35.8539 63.1361 36.1938C63.3697 36.5337 63.4949 36.9365 63.495 37.349V37.3532C63.579 37.9425 63.5775 38.5409 63.4908 39.1297C63.096 39.2058 62.694 39.2372 62.2923 39.2233L62.305 39.3125Z" fill="#2871FA"/>
<path d="M34 12.7499H29.75V12.0274H30.8125V7.39487H29.75L32.0875 5.05737H32.9375V12.0274H34V12.7499Z" fill="#2871FA"/>
<path d="M31.875 3.1875C32.7125 3.18778 33.5417 3.353 34.3153 3.67374C35.0889 3.99448 35.7917 4.46445 36.3837 5.05682C36.9757 5.64919 37.4452 6.35235 37.7654 7.12617C38.0856 7.89998 38.2503 8.72929 38.25 9.56675C38.2497 10.4042 38.0845 11.2334 37.7638 12.007C37.443 12.7806 36.9731 13.4835 36.3807 14.0754C35.7883 14.6674 35.0851 15.1369 34.3113 15.4571C33.5375 15.7774 32.7082 15.942 31.8708 15.9417C30.1794 15.9412 28.5576 15.2688 27.3621 14.0724C26.1665 12.8761 25.4952 11.2538 25.4958 9.5625C25.4963 7.87118 26.1687 6.24936 27.3651 5.05381C28.5614 3.85827 30.1837 3.18694 31.875 3.1875ZM31.875 0C29.3389 0 26.9066 1.00747 25.1133 2.80079C23.32 4.59411 22.3125 7.02637 22.3125 9.5625C22.3125 12.0986 23.32 14.5309 25.1133 16.3242C26.9066 18.1175 29.3389 19.125 31.875 19.125C34.4111 19.125 36.8434 18.1175 38.6367 16.3242C40.43 14.5309 41.4375 12.0986 41.4375 9.5625C41.4375 7.02637 40.43 4.59411 38.6367 2.80079C36.8434 1.00747 34.4111 0 31.875 0V0Z" fill="#2871FA"/>
</g>
<defs>
<clipPath id="clip0">
<rect width="68" height="68" fill="white"/>
</clipPath>
</defs>
</svg>
