<svg width="30" height="30" viewBox="0 0 30 30" fill="none" xmlns="http://www.w3.org/2000/svg">
<path d="M20.1563 9.14062V7.73438C20.1563 7.60547 20.0508 7.5 19.9219 7.5H8.67188C8.54297 7.5 8.4375 7.60547 8.4375 7.73438V9.14062C8.4375 9.26953 8.54297 9.375 8.67188 9.375H19.9219C20.0508 9.375 20.1563 9.26953 20.1563 9.14062ZM8.67188 11.7188C8.54297 11.7188 8.4375 11.8242 8.4375 11.9531V13.3594C8.4375 13.4883 8.54297 13.5938 8.67188 13.5938H14.0625C14.1914 13.5938 14.2969 13.4883 14.2969 13.3594V11.9531C14.2969 11.8242 14.1914 11.7188 14.0625 11.7188H8.67188ZM12.8906 24.9609H6.09375V4.33594H22.5V14.4141C22.5 14.543 22.6055 14.6484 22.7344 14.6484H24.375C24.5039 14.6484 24.6094 14.543 24.6094 14.4141V3.16406C24.6094 2.64551 24.1904 2.22656 23.6719 2.22656H4.92188C4.40332 2.22656 3.98438 2.64551 3.98438 3.16406V26.1328C3.98438 26.6514 4.40332 27.0703 4.92188 27.0703H12.8906C13.0195 27.0703 13.125 26.9648 13.125 26.8359V25.1953C13.125 25.0664 13.0195 24.9609 12.8906 24.9609ZM25.9482 26.4697L23.2148 23.7363C23.8682 22.8721 24.2578 21.7939 24.2578 20.625C24.2578 17.7773 21.9492 15.4688 19.1016 15.4688C16.2539 15.4688 13.9453 17.7773 13.9453 20.625C13.9453 23.4727 16.2539 25.7812 19.1016 25.7812C20.1504 25.7812 21.123 25.4678 21.9375 24.9316L24.7119 27.7061C24.7588 27.7529 24.8174 27.7734 24.876 27.7734C24.9346 27.7734 24.9961 27.75 25.04 27.7061L25.9482 26.7979C25.9699 26.7763 25.987 26.7508 25.9987 26.7226C26.0104 26.6945 26.0164 26.6643 26.0164 26.6338C26.0164 26.6033 26.0104 26.5731 25.9987 26.545C25.987 26.5168 25.9699 26.4912 25.9482 26.4697ZM19.1016 23.9062C17.2881 23.9062 15.8203 22.4385 15.8203 20.625C15.8203 18.8115 17.2881 17.3438 19.1016 17.3438C20.915 17.3438 22.3828 18.8115 22.3828 20.625C22.3828 22.4385 20.915 23.9062 19.1016 23.9062Z" fill="#2871FA"/>
</svg>
