<svg width="68" height="68" viewBox="0 0 68 68" fill="none" xmlns="http://www.w3.org/2000/svg">
<path d="M31.1667 5.66675L51.8443 12.1267C52.421 12.3068 52.9251 12.6664 53.2829 13.1532C53.6407 13.64 53.8336 14.2284 53.8333 14.8326V19.8334H59.5C60.2514 19.8334 60.9721 20.1319 61.5035 20.6633C62.0348 21.1946 62.3333 21.9153 62.3333 22.6667V28.3334H25.5V22.6667C25.5 21.9153 25.7985 21.1946 26.3299 20.6633C26.8612 20.1319 27.5819 19.8334 28.3333 19.8334H48.1667V16.9151L31.1667 11.5997L14.1667 16.9151V37.8931C14.1663 39.6277 14.564 41.3393 15.3294 42.896C16.0947 44.4527 17.2071 45.8129 18.581 46.8719L19.1165 47.2573L31.1667 55.4767L41.8823 48.1668H28.3333C27.5819 48.1668 26.8612 47.8682 26.3299 47.3369C25.7985 46.8055 25.5 46.0849 25.5 45.3334V34.0001H62.3333V45.3334C62.3333 46.0849 62.0348 46.8055 61.5035 47.3369C60.9721 47.8682 60.2514 48.1668 59.5 48.1668L50.3767 48.1696C49.2802 49.6146 47.9485 50.8896 46.41 51.9379L31.1667 62.3334L15.9233 51.9408C13.6355 50.3809 11.7633 48.2857 10.4696 45.8375C9.17583 43.3893 8.49971 40.6621 8.5 37.8931V14.8326C8.50034 14.2289 8.69348 13.6411 9.05126 13.1549C9.40904 12.6687 9.91276 12.3095 10.489 12.1296L31.1667 5.66675Z" fill="#2871FA"/>
</svg>
