<svg width="30" height="30" viewBox="0 0 30 30" fill="none" xmlns="http://www.w3.org/2000/svg">
<path d="M23.3334 3.33334H10C9.55801 3.33334 9.13409 3.50894 8.82153 3.8215C8.50897 4.13406 8.33337 4.55798 8.33337 5.00001H23.3334V25H10V16.8333H8.33337V25C8.33337 25.442 8.50897 25.866 8.82153 26.1785C9.13409 26.4911 9.55801 26.6667 10 26.6667H23.3334C23.7754 26.6667 24.1993 26.4911 24.5119 26.1785C24.8244 25.866 25 25.442 25 25V5.00001C25 4.55798 24.8244 4.13406 24.5119 3.8215C24.1993 3.50894 23.7754 3.33334 23.3334 3.33334Z" fill="#2871FA"/>
<path d="M12.6 15.3833C12.5128 15.458 12.4419 15.55 12.3919 15.6534C12.3419 15.7567 12.3138 15.8694 12.3093 15.9841C12.3049 16.0989 12.3242 16.2133 12.3661 16.3203C12.408 16.4272 12.4716 16.5243 12.5528 16.6055C12.634 16.6867 12.7311 16.7503 12.8381 16.7922C12.945 16.8341 13.0594 16.8534 13.1742 16.849C13.289 16.8446 13.4016 16.8165 13.505 16.7664C13.6084 16.7164 13.7003 16.6456 13.775 16.5583L18.6 11.7333L13.7833 6.90833C13.6239 6.77181 13.4189 6.70047 13.2091 6.70857C12.9994 6.71667 12.8004 6.80361 12.652 6.95202C12.5036 7.10044 12.4167 7.29939 12.4086 7.50912C12.4005 7.71885 12.4718 7.92391 12.6083 8.08333L15.4167 10.8333H3.33333C3.11232 10.8333 2.90036 10.9211 2.74408 11.0774C2.5878 11.2337 2.5 11.4456 2.5 11.6667C2.5 11.8877 2.5878 12.0996 2.74408 12.2559C2.90036 12.4122 3.11232 12.5 3.33333 12.5H15.4167L12.6 15.3833Z" fill="#2871FA"/>
</svg>
