<svg width="68" height="68" viewBox="0 0 68 68" fill="none" xmlns="http://www.w3.org/2000/svg">
<g clip-path="url(#clip0)">
<path fill-rule="evenodd" clip-rule="evenodd" d="M55.4965 5.9498L58.2973 14.2331L54.2895 15.5208L52.4663 10.1106L15.946 22.4611L18.8615 31.0758L14.8963 32.3041L11.9765 23.6893L9.74101 24.6031C9.27351 25.5381 9.18001 26.7408 8.35126 28.2283L-0.165741 31.1268L3.43401 41.7816L11.0585 39.0403C12.6608 39.7288 14.3863 40.1793 15.368 40.6043L61.8928 24.8963L62.8108 27.6035L67.8385 25.9036L60.5328 4.2583L55.4965 5.9498Z" fill="#2871FA"/>
<path fill-rule="evenodd" clip-rule="evenodd" d="M37.8931 55.6322V37.5272C39.5548 36.5539 39.5293 34.5565 39.5378 32.4825C39.5446 30.996 38.9612 29.5677 37.9157 28.5111C36.8703 27.4545 35.4482 26.8559 33.9618 26.8469C33.2251 26.8447 32.4951 26.9876 31.8137 27.2675C31.1322 27.5473 30.5125 27.9587 29.99 28.4781C29.4674 28.9974 29.0523 29.6146 28.7683 30.2944C28.4844 30.9742 28.337 31.7032 28.3348 32.4399C28.3263 34.5394 28.3221 36.3542 30.0178 37.3232V55.4069C21.9598 55.8404 16.9703 60.8767 16.9703 63.6137H50.9661C50.9618 60.881 45.9511 56.0572 37.8931 55.6322Z" fill="#2871FA"/>
</g>
<defs>
<clipPath id="clip0">
<rect width="68" height="68" fill="white"/>
</clipPath>
</defs>
</svg>
