<svg xmlns="http://www.w3.org/2000/svg" width="82.811" height="82.812" viewBox="0 0 82.811 82.812"><defs><style>.a{fill:#a7a5a5;}</style></defs><path class="a" d="M3,3H85.811V85.812H3ZM79.026,66.061c-.6-3.777-3.064-6.952-10.361-9.914-2.54-1.192-5.36-2.015-6.206-3.929a4.092,4.092,0,0,1-.156-2.434c.52-2.227,3.161-2.894,5.231-2.277a5.6,5.6,0,0,1,3.368,3.11c3.565-2.333,3.565-2.333,6.054-3.883a15.039,15.039,0,0,0-2.02-2.7c-2.176-2.429-5.075-3.671-9.781-3.565l-2.429.308a11.159,11.159,0,0,0-5.9,3.469c-3.934,4.453-2.8,12.215,1.964,15.431,4.706,3.519,11.6,4.292,12.477,7.6.828,4.039-3,5.332-6.786,4.867-2.793-.626-4.348-2.02-6.054-4.61l-6.312,3.625A13.971,13.971,0,0,0,54.9,75c6,6.054,21.016,5.746,23.707-3.469a11.725,11.725,0,0,0,.258-5.691l.156.225Zm-30.994-25H40.274c0,6.685-.032,13.333-.032,20.031,0,4.251.216,8.152-.478,9.353-1.136,2.379-4.076,2.075-5.406,1.652a6.636,6.636,0,0,1-2.866-2.949,2.9,2.9,0,0,0-.437-.672l-6.294,3.883a12.165,12.165,0,0,0,4.573,5.231,15.17,15.17,0,0,0,11.06,1.4,9.674,9.674,0,0,0,6.248-4.872c1.767-3.207,1.389-7.145,1.376-11.543.037-7.09,0-14.184,0-21.324l.014-.193Z" transform="translate(-3 -3)"/></svg>