<svg xmlns="http://www.w3.org/2000/svg" width="73.642" height="87.443" viewBox="0 0 73.642 87.443"><defs><style>.a{fill:#a7a5a5;}</style></defs><path class="a" d="M76.091,70.144a47.459,47.459,0,0,1-4.7,8.451,43.13,43.13,0,0,1-6.054,7.324,11.767,11.767,0,0,1-7.784,3.423,19.506,19.506,0,0,1-7.186-1.716,20.6,20.6,0,0,0-7.743-1.707,21.31,21.31,0,0,0-7.959,1.707,21.234,21.234,0,0,1-6.878,1.808q-3.982.173-7.955-3.515A45.281,45.281,0,0,1,13.5,78.337,52.352,52.352,0,0,1,6.8,65.037,48.768,48.768,0,0,1,3.994,49.179a28.954,28.954,0,0,1,3.8-15.145,22.344,22.344,0,0,1,7.959-8.056,21.392,21.392,0,0,1,10.765-3.046,25.223,25.223,0,0,1,8.327,1.941c3.437,1.288,5.645,1.941,6.607,1.941q1.09,0,7.329-2.291a24.2,24.2,0,0,1,9.951-1.767q11.042.89,16.562,8.718-9.868,5.983-9.767,16.733a18.447,18.447,0,0,0,6.059,13.908,19.922,19.922,0,0,0,6.05,3.97c-.488,1.412-1,2.76-1.546,4.058ZM59.22,3.752a18.674,18.674,0,0,1-4.78,12.233c-3.846,4.49-8.493,7.09-13.53,6.68a13.593,13.593,0,0,1-.1-1.656A19.136,19.136,0,0,1,45.887,8.642,19.539,19.539,0,0,1,52.066,4a18.421,18.421,0,0,1,7.067-2,17.332,17.332,0,0,1,.087,1.753Z" transform="translate(-3.994 -1.999)"/></svg>