<svg xmlns="http://www.w3.org/2000/svg" width="70.141" height="82.679" viewBox="0 0 70.141 82.679"><defs><style>.a{fill:#a7a5a5;}</style></defs><path class="a" d="M68.634,29.274a5.88,5.88,0,0,0-5.884,5.88V55.994a5.884,5.884,0,1,0,11.768,0V35.154A5.88,5.88,0,0,0,68.634,29.274Zm-58.373,0a5.88,5.88,0,0,0-5.884,5.88V55.994a5.884,5.884,0,1,0,11.768,0V35.154A5.877,5.877,0,0,0,10.261,29.274Zm40.9-17.524L54.69,5.364a1.589,1.589,0,1,0-2.779-1.541l-3.63,6.533a23.92,23.92,0,0,0-17.666,0l-3.63-6.524a1.589,1.589,0,1,0-2.779,1.541l3.533,6.386A20.278,20.278,0,0,0,17.125,29.274a.946.946,0,0,0,.009.156.283.283,0,0,0-.009.087v0h44.64v-.248A20.283,20.283,0,0,0,51.156,11.75ZM29.142,20.8a1.592,1.592,0,1,1,1.6-1.592A1.593,1.593,0,0,1,29.142,20.8Zm20.611,0a1.592,1.592,0,1,1,1.583-1.592A1.6,1.6,0,0,1,49.753,20.8ZM17.125,63.365a5.4,5.4,0,0,0,5.4,5.387h2.7V79.8a5.884,5.884,0,0,0,11.768,0V68.752h4.9V79.8a5.884,5.884,0,0,0,11.768,0V68.752h2.7a5.4,5.4,0,0,0,5.4-5.387V30.737H17.125Z" transform="translate(-4.377 -2.999)"/></svg>