<svg width="79" height="85" viewBox="0 0 79 85" fill="none" xmlns="http://www.w3.org/2000/svg">
<path d="M15.5834 67.976V69.32H15.4234V69.08C15.4234 68.8667 15.3487 68.6854 15.1994 68.536C15.05 68.376 14.8634 68.296 14.6394 68.296H11.2634V73.24H13.9674C14.1807 73.2294 14.362 73.1494 14.5114 73C14.6607 72.8507 14.7354 72.6694 14.7354 72.456V72.216H14.8954V74.744H14.7354V74.504C14.7354 74.2907 14.6607 74.1094 14.5114 73.96C14.3727 73.8107 14.1967 73.7307 13.9834 73.72H11.2634V77.832C11.2634 78.1094 11.3647 78.3494 11.5674 78.552C11.77 78.744 12.01 78.84 12.2874 78.84H12.4954V79H8.99137V78.84H9.19937C9.47671 78.84 9.71137 78.744 9.90337 78.552C10.106 78.3494 10.2127 78.1094 10.2234 77.832V68.872C10.2234 68.616 10.1167 68.4027 9.90337 68.232C9.70071 68.0507 9.46604 67.96 9.19937 67.96H9.00737L8.99137 67.8H13.6794C14.01 67.8 14.3674 67.768 14.7514 67.704C15.146 67.64 15.4234 67.576 15.5834 67.512V67.976ZM20.9436 68.296H19.9196V77.832C19.9196 78.1094 20.0156 78.3494 20.2076 78.552C20.4103 78.744 20.6556 78.84 20.9436 78.84H21.1356L21.1516 79H17.6476V78.84H17.8556C18.133 78.84 18.3676 78.744 18.5596 78.552C18.7623 78.36 18.869 78.1254 18.8796 77.848V68.968C18.869 68.6907 18.7623 68.456 18.5596 68.264C18.3676 68.0614 18.133 67.96 17.8556 67.96H17.6476V67.8H21.9676C22.9383 67.8 23.701 68.072 24.2556 68.616C24.8103 69.1494 25.0876 69.848 25.0876 70.712C25.0876 71.5654 24.821 72.3067 24.2876 72.936C23.765 73.5547 23.125 73.864 22.3676 73.864C22.5276 73.9387 22.7143 74.088 22.9276 74.312C23.1516 74.5254 23.349 74.7494 23.5196 74.984C24.437 76.296 25.0343 77.1067 25.3116 77.416C25.589 77.7147 25.7863 77.9227 25.9036 78.04C26.021 78.1467 26.149 78.2534 26.2876 78.36C26.4263 78.4667 26.565 78.552 26.7036 78.616C27.013 78.7654 27.3436 78.84 27.6956 78.84V79H26.8156C26.357 79 25.9303 78.92 25.5356 78.76C25.141 78.5894 24.8423 78.4187 24.6396 78.248C24.4476 78.0667 24.277 77.896 24.1276 77.736C23.989 77.5654 23.5943 77.0107 22.9436 76.072C22.293 75.1334 21.9143 74.6 21.8076 74.472C21.701 74.3334 21.589 74.2 21.4716 74.072C21.1303 73.7094 20.789 73.528 20.4476 73.528V73.368C20.533 73.3787 20.645 73.384 20.7836 73.384C20.9223 73.384 21.093 73.3787 21.2956 73.368C22.6183 73.336 23.4503 72.7814 23.7916 71.704C23.8556 71.4907 23.8876 71.2934 23.8876 71.112C23.8876 70.92 23.8876 70.7974 23.8876 70.744C23.8663 70.0294 23.6796 69.4534 23.3276 69.016C22.9756 68.5787 22.501 68.344 21.9036 68.312C21.6476 68.3014 21.3276 68.296 20.9436 68.296ZM38.4874 78.84H38.6154V79H35.0154V78.84H35.1594C35.3834 78.84 35.5487 78.7707 35.6554 78.632C35.7727 78.4827 35.8314 78.344 35.8314 78.216C35.8314 78.088 35.81 77.96 35.7674 77.832L34.7434 75.112H30.4234L29.3514 77.848C29.3087 77.976 29.2874 78.104 29.2874 78.232C29.2874 78.3494 29.3407 78.4827 29.4474 78.632C29.5647 78.7707 29.7354 78.84 29.9594 78.84H30.1034V79H26.8874V78.84H27.0314C27.298 78.84 27.5594 78.7547 27.8154 78.584C28.0714 78.4134 28.2794 78.1627 28.4394 77.832L32.0554 69.224C32.45 68.36 32.6474 67.8107 32.6474 67.576H32.7914L37.0794 77.832C37.2287 78.1627 37.4314 78.4134 37.6874 78.584C37.9434 78.7547 38.21 78.84 38.4874 78.84ZM30.6154 74.632H34.5514L32.6314 69.496L30.6154 74.632ZM52.822 78.84H53.078V79H49.606V78.856H49.846C50.0273 78.856 50.182 78.7867 50.31 78.648C50.438 78.4987 50.4913 78.3387 50.47 78.168L49.75 70.12L46.39 77.592C46.0913 78.2427 45.91 78.7867 45.846 79.224H45.686L41.59 70.344L40.902 78.168C40.8807 78.3387 40.934 78.4987 41.062 78.648C41.19 78.7867 41.3393 78.856 41.51 78.856H41.766V79H38.662V78.84H38.918C39.2167 78.84 39.4727 78.7494 39.686 78.568C39.91 78.3867 40.0433 78.1414 40.086 77.832L41.286 67.576H41.446L45.91 77.224L50.278 67.576H50.422L51.654 77.832C51.7073 78.2587 51.9207 78.5574 52.294 78.728C52.454 78.8027 52.63 78.84 52.822 78.84ZM54.4806 78.84C54.758 78.84 54.9926 78.744 55.1846 78.552C55.3873 78.3494 55.494 78.1094 55.5046 77.832V68.872C55.4726 68.616 55.3606 68.4027 55.1686 68.232C54.9766 68.0507 54.7473 67.96 54.4806 67.96H54.2886L54.2726 67.8H58.9606C59.2913 67.8 59.6486 67.768 60.0326 67.704C60.4273 67.64 60.7046 67.576 60.8646 67.512V69.528H60.7046V69.24C60.7046 68.984 60.614 68.7654 60.4326 68.584C60.262 68.4027 60.054 68.3067 59.8086 68.296H56.5446V73.24H59.2486C59.462 73.2294 59.6433 73.1494 59.7926 73C59.942 72.8507 60.0166 72.664 60.0166 72.44V72.216H60.1766V74.744H60.0166V74.504C60.0166 74.2907 59.942 74.1094 59.7926 73.96C59.654 73.8107 59.478 73.7307 59.2646 73.72H56.5446V78.504H58.8326C59.622 78.504 60.2246 78.328 60.6406 77.976C61.0566 77.624 61.4033 77.1014 61.6806 76.408H61.8406L60.9126 79H54.2726V78.84H54.4806ZM71.891 79H63.507V78.856L70.227 68.264H64.835C64.5683 68.2747 64.3443 68.3707 64.163 68.552C63.9817 68.7334 63.891 68.9574 63.891 69.224V69.512H63.731V67.496C63.891 67.56 64.1737 67.624 64.579 67.688C64.9843 67.752 65.267 67.784 65.427 67.784C65.5977 67.784 65.683 67.784 65.683 67.784H70.131C70.6537 67.784 71.0537 67.7574 71.331 67.704C71.6083 67.64 71.7737 67.5974 71.827 67.576V67.72L64.979 78.52H70.067C70.6323 78.52 71.0963 78.3387 71.459 77.976C71.8217 77.6134 72.0883 77.1334 72.259 76.536H72.419L71.891 79Z" fill="black"/>
<rect x="40.0001" y="0.29483" width="39" height="55.7051" fill="black"/>
<path d="M40.0001 2.28329H2.72076V54H40.0001" stroke="black" stroke-width="4"/>
<path d="M40.0001 14.0383H13.9885V42.2449H40.0001" stroke="black" stroke-width="4"/>
<path d="M39.7208 2.28329H77.0001V54H39.7208" stroke="white" stroke-width="4"/>
<path d="M39.7208 14.0383H65.7324V42.2449H39.7208" stroke="white" stroke-width="4"/>
</svg>
