<svg width="153" height="30" viewBox="0 0 153 30" fill="none" xmlns="http://www.w3.org/2000/svg">
<path d="M19.96 24.04H9.48L7.8 29H0.64L10.8 0.919999H18.72L28.88 29H21.64L19.96 24.04ZM18.2 18.76L14.72 8.48L11.28 18.76H18.2ZM30.8122 14.92C30.8122 12.1467 31.4122 9.68 32.6122 7.52C33.8122 5.33333 35.4789 3.64 37.6122 2.44C39.7722 1.21333 42.2122 0.599998 44.9322 0.599998C48.2655 0.599998 51.1189 1.48 53.4922 3.24C55.8655 5 57.4522 7.4 58.2522 10.44H50.7322C50.1722 9.26667 49.3722 8.37333 48.3322 7.76C47.3189 7.14667 46.1589 6.84 44.8522 6.84C42.7455 6.84 41.0389 7.57333 39.7322 9.04C38.4255 10.5067 37.7722 12.4667 37.7722 14.92C37.7722 17.3733 38.4255 19.3333 39.7322 20.8C41.0389 22.2667 42.7455 23 44.8522 23C46.1589 23 47.3189 22.6933 48.3322 22.08C49.3722 21.4667 50.1722 20.5733 50.7322 19.4H58.2522C57.4522 22.44 55.8655 24.84 53.4922 26.6C51.1189 28.3333 48.2655 29.2 44.9322 29.2C42.2122 29.2 39.7722 28.6 37.6122 27.4C35.4789 26.1733 33.8122 24.48 32.6122 22.32C31.4122 20.16 30.8122 17.6933 30.8122 14.92ZM69.2809 6.4V12.08H78.4409V17.36H69.2809V23.52H79.6409V29H62.4409V0.919999H79.6409V6.4H69.2809Z" fill="#251297"/>
<path d="M101.082 14.6C102.708 14.9467 104.015 15.76 105.002 17.04C105.988 18.2933 106.482 19.7333 106.482 21.36C106.482 23.7067 105.655 25.5733 104.002 26.96C102.375 28.32 100.095 29 97.1616 29H84.0816V0.919999H96.7216C99.5749 0.919999 101.802 1.57333 103.402 2.88C105.028 4.18667 105.842 5.96 105.842 8.2C105.842 9.85333 105.402 11.2267 104.522 12.32C103.668 13.4133 102.522 14.1733 101.082 14.6ZM90.9216 12.28H95.4016C96.5216 12.28 97.3749 12.04 97.9616 11.56C98.5749 11.0533 98.8816 10.32 98.8816 9.36C98.8816 8.4 98.5749 7.66667 97.9616 7.16C97.3749 6.65333 96.5216 6.4 95.4016 6.4H90.9216V12.28ZM95.9616 23.48C97.1082 23.48 97.9882 23.2267 98.6016 22.72C99.2416 22.1867 99.5616 21.4267 99.5616 20.44C99.5616 19.4533 99.2282 18.68 98.5616 18.12C97.9216 17.56 97.0282 17.28 95.8816 17.28H90.9216V23.48H95.9616ZM117.289 6.4V12.08H126.449V17.36H117.289V23.52H127.649V29H110.449V0.919999H127.649V6.4H117.289ZM152.289 0.919999V6.4H144.849V29H138.009V6.4H130.569V0.919999H152.289Z" fill="black" fill-opacity="0.6"/>
</svg>
