<svg width="792" height="40" viewBox="0 0 792 40" fill="none" xmlns="http://www.w3.org/2000/svg">
<path d="M11.04 1.6H15.92L26.72 30H21.04L18.4 22.92H8.48L5.88 30H0.2L11.04 1.6ZM17.4 19.04L13.48 7.88L9.4 19.04H17.4ZM27.0603 15.6C27.0603 13.8667 27.367 12.16 27.9803 10.48C28.6203 8.77333 29.5403 7.25333 30.7403 5.92C31.9403 4.58667 33.407 3.50667 35.1403 2.68C36.8736 1.85333 38.847 1.44 41.0603 1.44C43.6736 1.44 45.927 2.01333 47.8203 3.16C49.7403 4.30667 51.167 5.8 52.1003 7.64L47.8603 10.56C47.487 9.76 47.0336 9.09333 46.5003 8.56C45.967 8 45.3936 7.56 44.7803 7.24C44.167 6.92 43.527 6.69333 42.8603 6.56C42.1936 6.4 41.5403 6.32 40.9003 6.32C39.5136 6.32 38.3003 6.6 37.2603 7.16C36.247 7.72 35.3936 8.45333 34.7003 9.36C34.0336 10.24 33.527 11.2533 33.1803 12.4C32.8336 13.52 32.6603 14.64 32.6603 15.76C32.6603 17.0133 32.8603 18.2267 33.2603 19.4C33.6603 20.5467 34.2203 21.56 34.9403 22.44C35.687 23.32 36.567 24.0267 37.5803 24.56C38.6203 25.0933 39.7536 25.36 40.9803 25.36C41.6203 25.36 42.287 25.28 42.9803 25.12C43.6736 24.96 44.327 24.7067 44.9403 24.36C45.5803 24.0133 46.167 23.5733 46.7003 23.04C47.2336 22.48 47.6603 21.8133 47.9803 21.04L52.5003 23.64C52.047 24.7067 51.3936 25.6533 50.5403 26.48C49.7136 27.28 48.767 27.96 47.7003 28.52C46.6603 29.08 45.5403 29.5067 44.3403 29.8C43.1403 30.0933 41.967 30.24 40.8203 30.24C38.7936 30.24 36.9403 29.8133 35.2603 28.96C33.5803 28.1067 32.127 27 30.9003 25.64C29.7003 24.2533 28.7536 22.6933 28.0603 20.96C27.3936 19.2 27.0603 17.4133 27.0603 15.6ZM75.9222 25.16V30H56.2022V1.6H75.5622V6.44H61.7222V13.28H73.6822V17.76H61.7222V25.16H75.9222Z" fill="#251297"/>
<path d="M103.106 22.68C103.106 23.88 102.866 24.9333 102.386 25.84C101.906 26.7467 101.239 27.5067 100.386 28.12C99.559 28.7333 98.5856 29.2 97.4656 29.52C96.3723 29.84 95.199 30 93.9456 30H80.2256V1.6H95.4256C96.4123 1.6 97.3056 1.81333 98.1056 2.24C98.9056 2.66667 99.5856 3.22667 100.146 3.92C100.706 4.58667 101.132 5.36 101.426 6.24C101.746 7.09333 101.906 7.96 101.906 8.84C101.906 10.2267 101.559 11.5333 100.866 12.76C100.172 13.96 99.159 14.8533 97.8256 15.44C99.4523 15.92 100.732 16.7867 101.666 18.04C102.626 19.2667 103.106 20.8133 103.106 22.68ZM97.5456 21.64C97.5456 21.1333 97.4523 20.6533 97.2656 20.2C97.1056 19.72 96.879 19.3067 96.5856 18.96C96.2923 18.6133 95.9456 18.3467 95.5456 18.16C95.1456 17.9467 94.7056 17.84 94.2256 17.84H85.7456V25.32H93.9456C94.4523 25.32 94.919 25.2267 95.3456 25.04C95.799 24.8533 96.1856 24.6 96.5056 24.28C96.8256 23.9333 97.079 23.5333 97.2656 23.08C97.4523 22.6267 97.5456 22.1467 97.5456 21.64ZM85.7456 6.32V13.48H93.1056C94.039 13.48 94.8256 13.16 95.4656 12.52C96.1323 11.88 96.4656 11 96.4656 9.88C96.4656 8.78667 96.159 7.92 95.5456 7.28C94.959 6.64 94.2256 6.32 93.3456 6.32H85.7456ZM127.133 25.16V30H107.413V1.6H126.773V6.44H112.933V13.28H124.893V17.76H112.933V25.16H127.133ZM152.677 6.44H143.597V30H138.117V6.44H129.037V1.6H152.677V6.44ZM171.509 1.6H176.389L187.189 30H181.509L178.869 22.92H168.949L166.349 30H160.669L171.509 1.6ZM177.869 19.04L173.949 7.88L169.869 19.04H177.869ZM201.719 28.92C200.999 29.24 200.119 29.56 199.079 29.88C198.039 30.2 196.945 30.36 195.799 30.36C195.052 30.36 194.345 30.2667 193.679 30.08C193.039 29.8933 192.465 29.6 191.959 29.2C191.479 28.7733 191.092 28.24 190.799 27.6C190.505 26.9333 190.359 26.1333 190.359 25.2V13.16H187.599V9.04H190.359V2.24H195.719V9.04H200.119V13.16H195.719V23.4C195.719 24.1467 195.905 24.68 196.279 25C196.679 25.2933 197.159 25.44 197.719 25.44C198.279 25.44 198.825 25.3467 199.359 25.16C199.892 24.9733 200.319 24.8133 200.639 24.68L201.719 28.92ZM213.427 34.08C213.88 34.2133 214.32 34.3067 214.747 34.36C215.174 34.44 215.534 34.48 215.827 34.48C216.174 34.48 216.494 34.4133 216.787 34.28C217.08 34.1467 217.347 33.9067 217.587 33.56C217.827 33.24 218.067 32.7867 218.307 32.2C218.547 31.6133 218.8 30.88 219.067 30L210.787 9.04H216.307L221.987 25.36L227.027 9.04H232.067L223.267 34.16C222.76 35.6267 221.894 36.8267 220.667 37.76C219.44 38.6933 217.92 39.16 216.107 39.16C215.68 39.16 215.24 39.12 214.787 39.04C214.36 38.9867 213.907 38.88 213.427 38.72V34.08ZM243.956 30.4C242.249 30.4 240.716 30.1067 239.356 29.52C237.996 28.9333 236.836 28.1467 235.876 27.16C234.943 26.1467 234.223 24.9867 233.716 23.68C233.209 22.3733 232.956 21 232.956 19.56C232.956 18.0933 233.209 16.7067 233.716 15.4C234.223 14.0933 234.943 12.9467 235.876 11.96C236.836 10.9467 237.996 10.1467 239.356 9.56C240.716 8.97333 242.249 8.68 243.956 8.68C245.663 8.68 247.183 8.97333 248.516 9.56C249.876 10.1467 251.023 10.9467 251.956 11.96C252.916 12.9467 253.649 14.0933 254.156 15.4C254.663 16.7067 254.916 18.0933 254.916 19.56C254.916 21 254.663 22.3733 254.156 23.68C253.649 24.9867 252.929 26.1467 251.996 27.16C251.063 28.1467 249.916 28.9333 248.556 29.52C247.196 30.1067 245.663 30.4 243.956 30.4ZM238.476 19.56C238.476 20.4933 238.609 21.3467 238.876 22.12C239.169 22.8667 239.556 23.52 240.036 24.08C240.543 24.64 241.129 25.08 241.796 25.4C242.463 25.6933 243.183 25.84 243.956 25.84C244.729 25.84 245.449 25.6933 246.116 25.4C246.783 25.08 247.356 24.64 247.836 24.08C248.343 23.52 248.729 22.8533 248.996 22.08C249.289 21.3067 249.436 20.4533 249.436 19.52C249.436 18.6133 249.289 17.7733 248.996 17C248.729 16.2267 248.343 15.56 247.836 15C247.356 14.44 246.783 14.0133 246.116 13.72C245.449 13.4 244.729 13.24 243.956 13.24C243.183 13.24 242.463 13.4 241.796 13.72C241.129 14.04 240.543 14.48 240.036 15.04C239.556 15.6 239.169 16.2667 238.876 17.04C238.609 17.8133 238.476 18.6533 238.476 19.56ZM264.934 30.4C262.774 30.4 261.134 29.7067 260.014 28.32C258.894 26.9333 258.334 24.88 258.334 22.16V9.04H263.694V21C263.694 24.2267 264.854 25.84 267.174 25.84C268.214 25.84 269.214 25.5333 270.174 24.92C271.16 24.28 271.96 23.32 272.574 22.04V9.04H277.934V23.84C277.934 24.4 278.027 24.8 278.214 25.04C278.427 25.28 278.76 25.4133 279.214 25.44V30C278.68 30.1067 278.227 30.1733 277.854 30.2C277.507 30.2267 277.187 30.24 276.894 30.24C275.934 30.24 275.147 30.0267 274.534 29.6C273.947 29.1467 273.6 28.5333 273.494 27.76L273.374 26.08C272.44 27.52 271.24 28.6 269.774 29.32C268.307 30.04 266.694 30.4 264.934 30.4ZM295.74 13.68C294.114 13.7067 292.66 14.0267 291.38 14.64C290.1 15.2267 289.18 16.12 288.62 17.32V30H283.26V9.04H288.18V13.52C288.554 12.8 288.994 12.16 289.5 11.6C290.007 11.0133 290.554 10.5067 291.14 10.08C291.727 9.65333 292.314 9.33333 292.9 9.12C293.514 8.88 294.1 8.76 294.66 8.76C294.954 8.76 295.167 8.76 295.3 8.76C295.46 8.76 295.607 8.77333 295.74 8.8V13.68ZM307.882 30V1.6H326.962V6.44H313.402V13.76H324.682V18.24H313.402V30H307.882ZM330.331 30V9.04H335.691V30H330.331ZM330.331 6.12V0.799999H335.691V6.12H330.331ZM360.006 30H354.646V18.24C354.646 16.56 354.353 15.3333 353.766 14.56C353.179 13.7867 352.366 13.4 351.326 13.4C350.793 13.4 350.246 13.5067 349.686 13.72C349.126 13.9333 348.593 14.24 348.086 14.64C347.606 15.0133 347.166 15.4667 346.766 16C346.366 16.5333 346.073 17.12 345.886 17.76V30H340.526V9.04H345.366V12.92C346.139 11.5867 347.259 10.5467 348.726 9.8C350.193 9.05333 351.846 8.68 353.686 8.68C354.993 8.68 356.059 8.92 356.886 9.4C357.713 9.88 358.353 10.5067 358.806 11.28C359.259 12.0533 359.566 12.9333 359.726 13.92C359.913 14.9067 360.006 15.9067 360.006 16.92V30ZM372.867 30.12C371.453 30.12 370.173 29.84 369.027 29.28C367.88 28.72 366.88 27.96 366.027 27C365.2 26.0133 364.56 24.88 364.107 23.6C363.653 22.32 363.427 20.96 363.427 19.52C363.427 18 363.667 16.5867 364.147 15.28C364.627 13.9733 365.293 12.8267 366.147 11.84C367 10.8533 368.027 10.08 369.227 9.52C370.427 8.96 371.747 8.68 373.187 8.68C374.813 8.68 376.24 9.05333 377.467 9.8C378.693 10.52 379.707 11.4933 380.507 12.72V9.04H385.187V29C385.187 30.5467 384.893 31.9333 384.307 33.16C383.72 34.3867 382.907 35.4267 381.867 36.28C380.853 37.1333 379.627 37.7867 378.187 38.24C376.773 38.6933 375.227 38.92 373.547 38.92C371.253 38.92 369.32 38.5333 367.747 37.76C366.2 37.0133 364.867 35.9467 363.747 34.56L366.667 31.72C367.467 32.7067 368.467 33.48 369.667 34.04C370.893 34.6 372.187 34.88 373.547 34.88C374.373 34.88 375.16 34.76 375.907 34.52C376.68 34.3067 377.36 33.96 377.947 33.48C378.533 33 378.987 32.3867 379.307 31.64C379.653 30.8933 379.827 30.0133 379.827 29V26.36C379.133 27.56 378.16 28.4933 376.907 29.16C375.653 29.8 374.307 30.12 372.867 30.12ZM374.667 25.84C375.253 25.84 375.813 25.7467 376.347 25.56C376.88 25.3733 377.373 25.12 377.827 24.8C378.28 24.48 378.68 24.1067 379.027 23.68C379.373 23.2533 379.64 22.8 379.827 22.32V17.32C379.347 16.0933 378.587 15.1067 377.547 14.36C376.533 13.6133 375.467 13.24 374.347 13.24C373.52 13.24 372.773 13.4267 372.107 13.8C371.44 14.1467 370.867 14.6267 370.387 15.24C369.907 15.8267 369.533 16.5067 369.267 17.28C369.027 18.0533 368.907 18.8533 368.907 19.68C368.907 20.5333 369.053 21.3333 369.347 22.08C369.64 22.8267 370.04 23.48 370.547 24.04C371.08 24.6 371.693 25.04 372.387 25.36C373.08 25.68 373.84 25.84 374.667 25.84ZM399.738 30.4C398.058 30.4 396.538 30.12 395.178 29.56C393.818 28.9733 392.658 28.1867 391.698 27.2C390.738 26.2133 389.991 25.0667 389.458 23.76C388.951 22.4533 388.698 21.08 388.698 19.64C388.698 18.1467 388.951 16.7467 389.458 15.44C389.965 14.1067 390.698 12.9467 391.658 11.96C392.618 10.9467 393.778 10.1467 395.138 9.56C396.525 8.97333 398.071 8.68 399.778 8.68C401.485 8.68 403.005 8.97333 404.338 9.56C405.698 10.1467 406.845 10.9333 407.778 11.92C408.738 12.9067 409.458 14.0533 409.938 15.36C410.445 16.6667 410.698 18.0267 410.698 19.44C410.698 19.7867 410.685 20.12 410.658 20.44C410.658 20.76 410.631 21.0267 410.578 21.24H394.378C394.458 22.0667 394.658 22.8 394.978 23.44C395.298 24.08 395.711 24.6267 396.218 25.08C396.725 25.5333 397.298 25.88 397.938 26.12C398.578 26.36 399.245 26.48 399.938 26.48C401.005 26.48 402.005 26.2267 402.938 25.72C403.898 25.1867 404.551 24.4933 404.898 23.64L409.498 24.92C408.725 26.52 407.485 27.84 405.778 28.88C404.098 29.8933 402.085 30.4 399.738 30.4ZM405.178 17.76C405.045 16.1867 404.458 14.9333 403.418 14C402.405 13.04 401.165 12.56 399.698 12.56C398.978 12.56 398.298 12.6933 397.658 12.96C397.045 13.2 396.498 13.5467 396.018 14C395.538 14.4533 395.138 15 394.818 15.64C394.525 16.28 394.351 16.9867 394.298 17.76H405.178ZM426.443 13.68C424.817 13.7067 423.363 14.0267 422.083 14.64C420.803 15.2267 419.883 16.12 419.323 17.32V30H413.963V9.04H418.883V13.52C419.257 12.8 419.697 12.16 420.203 11.6C420.71 11.0133 421.257 10.5067 421.843 10.08C422.43 9.65333 423.017 9.33333 423.603 9.12C424.217 8.88 424.803 8.76 425.363 8.76C425.657 8.76 425.87 8.76 426.003 8.76C426.163 8.76 426.31 8.77333 426.443 8.8V13.68ZM458.692 6.44H449.612V30H444.132V6.44H435.052V1.6H458.692V6.44ZM461.698 30V9.04H467.058V30H461.698ZM461.698 6.12V0.799999H467.058V6.12H461.698ZM484.453 30.4C482.8 30.4 481.36 30.04 480.133 29.32C478.906 28.5733 477.946 27.5733 477.253 26.32V38.52H471.893V9.04H476.573V12.64C477.346 11.4133 478.346 10.4533 479.573 9.76C480.8 9.04 482.213 8.68 483.813 8.68C485.226 8.68 486.533 8.97333 487.733 9.56C488.933 10.12 489.96 10.8933 490.813 11.88C491.693 12.84 492.373 13.9867 492.853 15.32C493.36 16.6267 493.613 18.0133 493.613 19.48C493.613 21 493.386 22.4267 492.933 23.76C492.48 25.0933 491.84 26.2533 491.013 27.24C490.213 28.2267 489.253 29 488.133 29.56C487.013 30.12 485.786 30.4 484.453 30.4ZM482.653 25.84C483.453 25.84 484.186 25.6667 484.853 25.32C485.546 24.9733 486.133 24.5067 486.613 23.92C487.093 23.3333 487.466 22.6533 487.733 21.88C488 21.1067 488.133 20.3067 488.133 19.48C488.133 18.6 487.986 17.7867 487.693 17.04C487.4 16.2667 486.986 15.6 486.453 15.04C485.946 14.48 485.333 14.04 484.613 13.72C483.92 13.4 483.16 13.24 482.333 13.24C481.826 13.24 481.306 13.3333 480.773 13.52C480.24 13.68 479.746 13.92 479.293 14.24C478.84 14.56 478.426 14.9333 478.053 15.36C477.706 15.7867 477.44 16.2533 477.253 16.76V21.68C477.733 22.88 478.466 23.88 479.453 24.68C480.44 25.4533 481.506 25.84 482.653 25.84ZM505.165 30.4C503.405 30.4 501.685 30.12 500.005 29.56C498.325 29 496.885 28.2 495.685 27.16L497.685 23.8C498.965 24.7067 500.205 25.4 501.405 25.88C502.631 26.3333 503.845 26.56 505.045 26.56C506.111 26.56 506.951 26.36 507.565 25.96C508.178 25.56 508.485 24.9867 508.485 24.24C508.485 23.4933 508.125 22.9467 507.405 22.6C506.685 22.2533 505.511 21.8533 503.885 21.4C502.525 21.0267 501.365 20.6667 500.405 20.32C499.445 19.9733 498.671 19.5867 498.085 19.16C497.498 18.7067 497.071 18.2 496.805 17.64C496.538 17.0533 496.405 16.36 496.405 15.56C496.405 14.4933 496.605 13.5333 497.005 12.68C497.431 11.8267 498.018 11.1067 498.765 10.52C499.511 9.90667 500.378 9.44 501.365 9.12C502.378 8.8 503.471 8.64 504.645 8.64C506.218 8.64 507.685 8.86667 509.045 9.32C510.431 9.77333 511.698 10.5067 512.845 11.52L510.685 14.76C509.618 13.96 508.578 13.3733 507.565 13C506.578 12.6267 505.591 12.44 504.605 12.44C503.698 12.44 502.938 12.6267 502.325 13C501.711 13.3733 501.405 13.9733 501.405 14.8C501.405 15.1733 501.471 15.48 501.605 15.72C501.765 15.96 502.005 16.1733 502.325 16.36C502.645 16.5467 503.058 16.7333 503.565 16.92C504.098 17.08 504.751 17.2533 505.525 17.44C506.965 17.8133 508.191 18.1867 509.205 18.56C510.245 18.9333 511.085 19.36 511.725 19.84C512.391 20.32 512.871 20.88 513.165 21.52C513.485 22.1333 513.645 22.88 513.645 23.76C513.645 25.8133 512.885 27.44 511.365 28.64C509.845 29.8133 507.778 30.4 505.165 30.4ZM517.608 34.6L518.688 29.84H517.008V24.24H521.648V29.84L520.008 34.6H517.608ZM559.434 22.68C559.434 23.88 559.194 24.9333 558.714 25.84C558.234 26.7467 557.567 27.5067 556.714 28.12C555.887 28.7333 554.914 29.2 553.794 29.52C552.7 29.84 551.527 30 550.274 30H536.554V1.6H551.754C552.74 1.6 553.634 1.81333 554.434 2.24C555.234 2.66667 555.914 3.22667 556.474 3.92C557.034 4.58667 557.46 5.36 557.754 6.24C558.074 7.09333 558.234 7.96 558.234 8.84C558.234 10.2267 557.887 11.5333 557.194 12.76C556.5 13.96 555.487 14.8533 554.154 15.44C555.78 15.92 557.06 16.7867 557.994 18.04C558.954 19.2667 559.434 20.8133 559.434 22.68ZM553.874 21.64C553.874 21.1333 553.78 20.6533 553.594 20.2C553.434 19.72 553.207 19.3067 552.914 18.96C552.62 18.6133 552.274 18.3467 551.874 18.16C551.474 17.9467 551.034 17.84 550.554 17.84H542.074V25.32H550.274C550.78 25.32 551.247 25.2267 551.674 25.04C552.127 24.8533 552.514 24.6 552.834 24.28C553.154 23.9333 553.407 23.5333 553.594 23.08C553.78 22.6267 553.874 22.1467 553.874 21.64ZM542.074 6.32V13.48H549.434C550.367 13.48 551.154 13.16 551.794 12.52C552.46 11.88 552.794 11 552.794 9.88C552.794 8.78667 552.487 7.92 551.874 7.28C551.287 6.64 550.554 6.32 549.674 6.32H542.074ZM572.941 30.4C571.261 30.4 569.741 30.12 568.381 29.56C567.021 28.9733 565.861 28.1867 564.901 27.2C563.941 26.2133 563.195 25.0667 562.661 23.76C562.155 22.4533 561.901 21.08 561.901 19.64C561.901 18.1467 562.155 16.7467 562.661 15.44C563.168 14.1067 563.901 12.9467 564.861 11.96C565.821 10.9467 566.981 10.1467 568.341 9.56C569.728 8.97333 571.275 8.68 572.981 8.68C574.688 8.68 576.208 8.97333 577.541 9.56C578.901 10.1467 580.048 10.9333 580.981 11.92C581.941 12.9067 582.661 14.0533 583.141 15.36C583.648 16.6667 583.901 18.0267 583.901 19.44C583.901 19.7867 583.888 20.12 583.861 20.44C583.861 20.76 583.835 21.0267 583.781 21.24H567.581C567.661 22.0667 567.861 22.8 568.181 23.44C568.501 24.08 568.915 24.6267 569.421 25.08C569.928 25.5333 570.501 25.88 571.141 26.12C571.781 26.36 572.448 26.48 573.141 26.48C574.208 26.48 575.208 26.2267 576.141 25.72C577.101 25.1867 577.755 24.4933 578.101 23.64L582.701 24.92C581.928 26.52 580.688 27.84 578.981 28.88C577.301 29.8933 575.288 30.4 572.941 30.4ZM578.381 17.76C578.248 16.1867 577.661 14.9333 576.621 14C575.608 13.04 574.368 12.56 572.901 12.56C572.181 12.56 571.501 12.6933 570.861 12.96C570.248 13.2 569.701 13.5467 569.221 14C568.741 14.4533 568.341 15 568.021 15.64C567.728 16.28 567.555 16.9867 567.501 17.76H578.381ZM599.57 28.92C598.85 29.24 597.97 29.56 596.93 29.88C595.89 30.2 594.797 30.36 593.65 30.36C592.904 30.36 592.197 30.2667 591.53 30.08C590.89 29.8933 590.317 29.6 589.81 29.2C589.33 28.7733 588.944 28.24 588.65 27.6C588.357 26.9333 588.21 26.1333 588.21 25.2V13.16H585.45V9.04H588.21V2.24H593.57V9.04H597.97V13.16H593.57V23.4C593.57 24.1467 593.757 24.68 594.13 25C594.53 25.2933 595.01 25.44 595.57 25.44C596.13 25.44 596.677 25.3467 597.21 25.16C597.744 24.9733 598.17 24.8133 598.49 24.68L599.57 28.92ZM619.321 1.6H624.201L635.001 30H629.321L626.681 22.92H616.761L614.161 30H608.481L619.321 1.6ZM625.681 19.04L621.761 7.88L617.681 19.04H625.681ZM657.076 30H651.716V18.24C651.716 16.56 651.423 15.3333 650.836 14.56C650.25 13.7867 649.436 13.4 648.396 13.4C647.863 13.4 647.316 13.5067 646.756 13.72C646.196 13.9333 645.663 14.24 645.156 14.64C644.676 15.0133 644.236 15.4667 643.836 16C643.436 16.5333 643.143 17.12 642.956 17.76V30H637.596V9.04H642.436V12.92C643.21 11.5867 644.33 10.5467 645.796 9.8C647.263 9.05333 648.916 8.68 650.756 8.68C652.063 8.68 653.13 8.92 653.956 9.4C654.783 9.88 655.423 10.5067 655.876 11.28C656.33 12.0533 656.636 12.9333 656.796 13.92C656.983 14.9067 657.076 15.9067 657.076 16.92V30ZM661.708 34.08C662.161 34.2133 662.601 34.3067 663.028 34.36C663.455 34.44 663.815 34.48 664.108 34.48C664.455 34.48 664.775 34.4133 665.068 34.28C665.361 34.1467 665.628 33.9067 665.868 33.56C666.108 33.24 666.348 32.7867 666.588 32.2C666.828 31.6133 667.081 30.88 667.348 30L659.068 9.04H664.588L670.268 25.36L675.308 9.04H680.348L671.548 34.16C671.041 35.6267 670.175 36.8267 668.948 37.76C667.721 38.6933 666.201 39.16 664.388 39.16C663.961 39.16 663.521 39.12 663.068 39.04C662.641 38.9867 662.188 38.88 661.708 38.72V34.08ZM712.403 6.44H703.323V30H697.843V6.44H688.763V1.6H712.403V6.44ZM715.409 30V9.04H720.769V30H715.409ZM715.409 6.12V0.799999H720.769V6.12H715.409ZM758.164 30H752.804V18.24C752.804 16.56 752.511 15.3333 751.924 14.56C751.364 13.7867 750.577 13.4 749.564 13.4C748.497 13.4 747.497 13.8133 746.564 14.64C745.631 15.44 744.964 16.4933 744.564 17.8V30H739.204V18.24C739.204 16.56 738.911 15.3333 738.324 14.56C737.764 13.7867 736.977 13.4 735.964 13.4C734.924 13.4 733.924 13.8 732.964 14.6C732.031 15.4 731.364 16.4533 730.964 17.76V30H725.604V9.04H730.444V12.92C731.217 11.56 732.271 10.52 733.604 9.8C734.964 9.05333 736.511 8.68 738.244 8.68C740.004 8.68 741.364 9.10666 742.324 9.96C743.284 10.8133 743.897 11.8667 744.164 13.12C745.017 11.68 746.097 10.5867 747.404 9.84C748.711 9.06667 750.204 8.68 751.884 8.68C753.164 8.68 754.217 8.92 755.044 9.4C755.871 9.88 756.511 10.5067 756.964 11.28C757.417 12.0533 757.724 12.9333 757.884 13.92C758.071 14.9067 758.164 15.9067 758.164 16.92V30ZM772.551 30.4C770.871 30.4 769.351 30.12 767.991 29.56C766.631 28.9733 765.471 28.1867 764.511 27.2C763.551 26.2133 762.804 25.0667 762.271 23.76C761.764 22.4533 761.511 21.08 761.511 19.64C761.511 18.1467 761.764 16.7467 762.271 15.44C762.777 14.1067 763.511 12.9467 764.471 11.96C765.431 10.9467 766.591 10.1467 767.951 9.56C769.337 8.97333 770.884 8.68 772.591 8.68C774.297 8.68 775.817 8.97333 777.151 9.56C778.511 10.1467 779.657 10.9333 780.591 11.92C781.551 12.9067 782.271 14.0533 782.751 15.36C783.257 16.6667 783.511 18.0267 783.511 19.44C783.511 19.7867 783.497 20.12 783.471 20.44C783.471 20.76 783.444 21.0267 783.391 21.24H767.191C767.271 22.0667 767.471 22.8 767.791 23.44C768.111 24.08 768.524 24.6267 769.031 25.08C769.537 25.5333 770.111 25.88 770.751 26.12C771.391 26.36 772.057 26.48 772.751 26.48C773.817 26.48 774.817 26.2267 775.751 25.72C776.711 25.1867 777.364 24.4933 777.711 23.64L782.311 24.92C781.537 26.52 780.297 27.84 778.591 28.88C776.911 29.8933 774.897 30.4 772.551 30.4ZM777.991 17.76C777.857 16.1867 777.271 14.9333 776.231 14C775.217 13.04 773.977 12.56 772.511 12.56C771.791 12.56 771.111 12.6933 770.471 12.96C769.857 13.2 769.311 13.5467 768.831 14C768.351 14.4533 767.951 15 767.631 15.64C767.337 16.28 767.164 16.9867 767.111 17.76H777.991ZM786.656 30V24.24H791.056V30H786.656Z" fill="white"/>
</svg>
