<svg width="99" height="99" viewBox="0 0 99 99" fill="none" xmlns="http://www.w3.org/2000/svg">
<g clip-path="url(#clip0)">
<path d="M4.86292 3.48047C4.86292 2.41254 5.72859 1.54688 6.79651 1.54688H56.5759L74.5462 19.5171V95.5195C74.5462 96.5875 73.6805 97.4531 72.6126 97.4531H6.79651C5.72859 97.4531 4.86292 96.5875 4.86292 95.5195V3.48047Z" fill="#251297"/>
<path d="M72.6126 93.9727H6.79651C5.72859 93.9727 4.86292 93.107 4.86292 92.0391V95.5195C4.86292 96.5875 5.72859 97.4531 6.79651 97.4531H72.6126C73.6805 97.4531 74.5462 96.5875 74.5462 95.5195V92.0391C74.5462 93.107 73.6805 93.9727 72.6126 93.9727Z" fill="#251297"/>
<path d="M60.4431 19.5171H74.5462L56.576 1.54688V15.6499C56.576 17.7858 58.3075 19.5171 60.4431 19.5171Z" fill="#251297"/>
<path d="M60.4431 16.0366C58.3073 16.0366 56.576 14.3053 56.576 12.1694V15.6499C56.576 17.7857 58.3073 19.5171 60.4431 19.5171H74.5462L71.0657 16.0366H60.4431Z" fill="#251297"/>
<path d="M90.0153 97.4532H55.8634C53.5872 97.4532 51.7418 95.608 51.7418 93.3317V36.8122C51.7418 34.536 53.587 32.6906 55.8634 32.6906H90.0155C92.2917 32.6906 94.1372 34.5358 94.1372 36.8122V93.3315C94.137 95.6079 92.2915 97.4532 90.0153 97.4532Z" fill="#251297"/>
<path d="M90.0153 93.9727H55.8634C53.5872 93.9727 51.7418 92.1274 51.7418 89.8512V93.3317C51.7418 95.6079 53.587 97.4531 55.8634 97.4531H90.0155C92.2917 97.4531 94.1372 95.6079 94.1372 93.3317V89.8512C94.137 92.1274 92.2915 93.9727 90.0153 93.9727Z" fill="#251297"/>
<path d="M90.0153 32.6915H55.8634C53.5872 32.6915 51.7418 34.5368 51.7418 36.8132V56.2373H94.137V36.813C94.137 34.5368 92.2915 32.6915 90.0153 32.6915Z" fill="#251297"/>
<path d="M63.6419 66.5799H60.8805C59.8932 66.5799 59.0929 65.7796 59.0929 64.7923V62.0309C59.0929 61.0436 59.8932 60.2433 60.8805 60.2433H63.6419C64.6292 60.2433 65.4295 61.0436 65.4295 62.0309V64.7923C65.4295 65.7796 64.6292 66.5799 63.6419 66.5799Z" fill="#251297"/>
<path d="M74.4464 66.5799H71.6851C70.6978 66.5799 69.8975 65.7796 69.8975 64.7923V62.0309C69.8975 61.0436 70.6978 60.2433 71.6851 60.2433H74.4464C75.4337 60.2433 76.234 61.0436 76.234 62.0309V64.7923C76.234 65.7796 75.4337 66.5799 74.4464 66.5799Z" fill="#251297"/>
<path d="M85.2509 66.5799H82.4896C81.5023 66.5799 80.702 65.7796 80.702 64.7923V62.0309C80.702 61.0436 81.5023 60.2433 82.4896 60.2433H85.2509C86.2382 60.2433 87.0385 61.0436 87.0385 62.0309V64.7923C87.0385 65.7796 86.2382 66.5799 85.2509 66.5799Z" fill="#251297"/>
<path d="M63.6419 78.4038H60.8805C59.8932 78.4038 59.0929 77.6035 59.0929 76.6162V73.8549C59.0929 72.8676 59.8932 72.0673 60.8805 72.0673H63.6419C64.6292 72.0673 65.4295 72.8676 65.4295 73.8549V76.6162C65.4295 77.6035 64.6292 78.4038 63.6419 78.4038Z" fill="#251297"/>
<path d="M74.4464 78.4038H71.6851C70.6978 78.4038 69.8975 77.6035 69.8975 76.6162V73.8549C69.8975 72.8676 70.6978 72.0673 71.6851 72.0673H74.4464C75.4337 72.0673 76.234 72.8676 76.234 73.8549V76.6162C76.234 77.6035 75.4337 78.4038 74.4464 78.4038Z" fill="#251297"/>
<path d="M63.6419 63.0994H60.8805C60.0164 63.0994 59.2954 62.4863 59.1291 61.6713C59.1053 61.7875 59.0929 61.9077 59.0929 62.0309V64.7923C59.0929 65.7796 59.8932 66.5799 60.8805 66.5799H63.6419C64.6292 66.5799 65.4295 65.7796 65.4295 64.7923V62.0309C65.4295 61.9077 65.4169 61.7875 65.3934 61.6713C65.2269 62.4863 64.506 63.0994 63.6419 63.0994Z" fill="#251297"/>
<path d="M74.4464 63.0994H71.6851C70.8209 63.0994 70.0999 62.4863 69.9336 61.6713C69.9098 61.7875 69.8975 61.9077 69.8975 62.0309V64.7923C69.8975 65.7796 70.6978 66.5799 71.6851 66.5799H74.4464C75.4337 66.5799 76.234 65.7796 76.234 64.7923V62.0309C76.234 61.9077 76.2215 61.7875 76.1979 61.6713C76.0314 62.4863 75.3106 63.0994 74.4464 63.0994Z" fill="#251297"/>
<path d="M85.2509 63.0994H82.4896C81.6254 63.0994 80.9044 62.4863 80.7381 61.6713C80.7143 61.7875 80.702 61.9077 80.702 62.0309V64.7923C80.702 65.7796 81.5023 66.5799 82.4896 66.5799H85.2509C86.2382 66.5799 87.0385 65.7796 87.0385 64.7923V62.0309C87.0385 61.9077 87.026 61.7875 87.0024 61.6713C86.8359 62.4863 86.1151 63.0994 85.2509 63.0994Z" fill="#251297"/>
<path d="M63.6419 74.9234H60.8805C60.0164 74.9234 59.2954 74.3102 59.1291 73.4952C59.1053 73.6114 59.0929 73.7317 59.0929 73.8549V76.6163C59.0929 77.6035 59.8932 78.4039 60.8805 78.4039H63.6419C64.6292 78.4039 65.4295 77.6035 65.4295 76.6163V73.8549C65.4295 73.7317 65.4169 73.6114 65.3934 73.4952C65.2269 74.3102 64.506 74.9234 63.6419 74.9234Z" fill="#251297"/>
<path d="M74.4464 74.9234H71.6851C70.8209 74.9234 70.0999 74.3102 69.9336 73.4952C69.9098 73.6114 69.8975 73.7317 69.8975 73.8549V76.6163C69.8975 77.6035 70.6978 78.4039 71.6851 78.4039H74.4464C75.4337 78.4039 76.234 77.6035 76.234 76.6163V73.8549C76.234 73.7317 76.2215 73.6114 76.1979 73.4952C76.0314 74.3102 75.3106 74.9234 74.4464 74.9234Z" fill="#251297"/>
<path d="M63.6419 90.2281H60.8805C59.8932 90.2281 59.0929 89.4277 59.0929 88.4405V85.6791C59.0929 84.6918 59.8932 83.8915 60.8805 83.8915H63.6419C64.6292 83.8915 65.4295 84.6918 65.4295 85.6791V88.4405C65.4295 89.4277 64.6292 90.2281 63.6419 90.2281Z" fill="#251297"/>
<path d="M74.4464 90.2281H71.6851C70.6978 90.2281 69.8975 89.4277 69.8975 88.4405V85.6791C69.8975 84.6918 70.6978 83.8915 71.6851 83.8915H74.4464C75.4337 83.8915 76.234 84.6918 76.234 85.6791V88.4405C76.234 89.4277 75.4337 90.2281 74.4464 90.2281Z" fill="#251297"/>
<path d="M63.6419 86.7475H60.8805C60.0164 86.7475 59.2954 86.1343 59.1291 85.3193C59.1053 85.4355 59.0929 85.5558 59.0929 85.679V88.4404C59.0929 89.4276 59.8932 90.228 60.8805 90.228H63.6419C64.6292 90.228 65.4295 89.4276 65.4295 88.4404V85.679C65.4295 85.5558 65.4169 85.4355 65.3934 85.3193C65.2269 86.1343 64.506 86.7475 63.6419 86.7475Z" fill="#251297"/>
<path d="M74.4464 86.7475H71.6851C70.8209 86.7475 70.0999 86.1343 69.9336 85.3193C69.9098 85.4355 69.8975 85.5558 69.8975 85.679V88.4404C69.8975 89.4276 70.6978 90.228 71.6851 90.228H74.4464C75.4337 90.228 76.234 89.4276 76.234 88.4404V85.679C76.234 85.5558 76.2215 85.4355 76.1979 85.3193C76.0314 86.1343 75.3106 86.7475 74.4464 86.7475Z" fill="#251297"/>
<path d="M85.105 51.4321H61.0265C59.9586 51.4321 59.0929 50.5664 59.0929 49.4985V41.3103C59.0929 40.2424 59.9586 39.3767 61.0265 39.3767H85.1052C86.1731 39.3767 87.0388 40.2424 87.0388 41.3103V49.4985C87.0386 50.5664 86.1729 51.4321 85.105 51.4321Z" fill="#251297"/>
<path d="M85.105 47.9517H61.0265C59.9586 47.9517 59.0929 47.086 59.0929 46.0181V49.4985C59.0929 50.5665 59.9586 51.4321 61.0265 51.4321H85.1052C86.1731 51.4321 87.0388 50.5665 87.0388 49.4985V46.0181C87.0386 47.086 86.1729 47.9517 85.105 47.9517Z" fill="#251297"/>
<path d="M84.9771 90.228H82.7634C81.6249 90.228 80.702 89.3051 80.702 88.1666V74.1287C80.702 72.9902 81.6249 72.0673 82.7634 72.0673H84.9771C86.1156 72.0673 87.0385 72.9902 87.0385 74.1287V88.1666C87.0385 89.3051 86.1156 90.228 84.9771 90.228Z" fill="#251297"/>
<path d="M84.9771 86.7477H82.7634C81.6249 86.7477 80.702 85.8248 80.702 84.6863V88.1667C80.702 89.3052 81.6249 90.2282 82.7634 90.2282H84.9771C86.1156 90.2282 87.0385 89.3052 87.0385 88.1667V84.6863C87.0385 85.8248 86.1156 86.7477 84.9771 86.7477Z" fill="#251297"/>
<path d="M94.2244 52.6967C93.4219 52.6967 92.7713 53.3473 92.7713 54.1497V93.4174C92.7713 94.8933 91.5705 96.0938 90.0946 96.0938H55.8758C54.3999 96.0938 53.1993 94.8931 53.1993 93.4174V89.5554C53.1993 88.753 52.5487 88.1023 51.7462 88.1023C50.9438 88.1023 50.2931 88.753 50.2931 89.5554V93.4174C50.2931 94.3867 50.5418 95.2988 50.9782 96.0938H6.71301C6.44598 96.0938 6.22864 95.8765 6.22864 95.6095V60.5538C6.22864 59.7514 5.57799 59.1007 4.77554 59.1007C3.9731 59.1007 3.32245 59.7512 3.32245 60.5538V95.6097C3.32245 97.4791 4.84341 99 6.71281 99H90.0944C93.1727 99 95.6771 96.4956 95.6771 93.4174V54.1497C95.6773 53.3473 95.0268 52.6967 94.2244 52.6967Z" fill="black"/>
<path d="M90.0954 31.2047H76.0492V19.4585C76.05 19.0768 75.8932 18.7002 75.6234 18.4308L57.6184 0.42578C57.349 0.156044 56.9724 -0.00077059 56.5907 2.84767e-06H6.71382C4.84442 2.84767e-06 3.32346 1.52097 3.32346 3.39037V54.7416C3.32346 55.544 3.97411 56.1947 4.77655 56.1947C5.57899 56.1947 6.22965 55.544 6.22965 54.7416V3.39037C6.22965 3.12334 6.44698 2.906 6.71401 2.906H55.1378V15.5836C55.1378 18.5213 57.5279 20.9114 60.4656 20.9114H73.1432V31.2045H55.8768C52.7985 31.2045 50.2941 33.7089 50.2941 36.7872V37.0146H27.2689C26.4664 37.0146 25.8158 37.6651 25.8158 38.4677C25.8158 39.2701 26.4664 39.9208 27.2689 39.9208H50.2941V49.7906H27.2689C26.4664 49.7906 25.8158 50.4413 25.8158 51.2437C25.8158 52.0462 26.4664 52.6968 27.2689 52.6968H50.2941V62.5666H27.2689C26.4664 62.5666 25.8158 63.2173 25.8158 64.0197C25.8158 64.8222 26.4664 65.4728 27.2689 65.4728H50.2941V75.3429H27.2689C26.4664 75.3429 25.8158 75.9933 25.8158 76.796C25.8158 77.5986 26.4664 78.2491 27.2689 78.2491H50.2941V83.7436C50.2941 84.546 50.9446 85.1967 51.7472 85.1967C52.5499 85.1967 53.2003 84.546 53.2003 83.7436V36.7872C53.2003 35.3113 54.4011 34.1107 55.8768 34.1107H90.0956C91.5715 34.1107 92.7723 35.3115 92.7723 36.7872V48.3375C92.7723 49.14 93.4229 49.7906 94.2254 49.7906C95.0278 49.7906 95.6785 49.1402 95.6785 48.3375V36.7872C95.6781 33.7091 93.1737 31.2047 90.0954 31.2047ZM58.0438 15.5836V4.96102L71.0882 18.0054H60.4654C59.1301 18.0054 58.0438 16.9191 58.0438 15.5836Z" fill="black"/>
<path d="M88.5651 41.2944C88.5651 39.425 87.0442 37.9041 85.1748 37.9041H61.0489C59.1795 37.9041 57.6586 39.425 57.6586 41.2944V49.4987C57.6586 51.3681 59.1795 52.889 61.0489 52.889H85.1748C87.0442 52.889 88.5651 51.3681 88.5651 49.4987V41.2944ZM85.6591 49.4985C85.6591 49.7655 85.4418 49.9828 85.1748 49.9828H61.0489C60.7819 49.9828 60.5646 49.7655 60.5646 49.4985V41.2942C60.5646 41.0272 60.7819 40.8099 61.0489 40.8099H85.1748C85.4418 40.8099 85.6591 41.0272 85.6591 41.2942V49.4985Z" fill="black"/>
<path d="M57.6586 64.822C57.6586 66.6108 59.114 68.0662 60.9027 68.0662H63.6695C65.4583 68.0662 66.9137 66.6108 66.9137 64.822V62.0552C66.9137 60.2663 65.4583 58.811 63.6695 58.811H60.9027C59.114 58.811 57.6586 60.2665 57.6586 62.0552V64.822ZM60.5646 62.0554C60.5646 61.869 60.7164 61.7172 60.9027 61.7172H63.6695C63.8559 61.7172 64.0077 61.869 64.0077 62.0554V64.8222C64.0077 65.0086 63.8559 65.1604 63.6695 65.1604H60.9027C60.7164 65.1604 60.5646 65.0086 60.5646 64.8222V62.0554Z" fill="black"/>
<path d="M77.7395 62.0555C77.7395 60.2665 76.2841 58.8113 74.4953 58.8113H71.7286C69.9398 58.8113 68.4844 60.2667 68.4844 62.0555V64.8222C68.4844 66.611 69.9398 68.0664 71.7286 68.0664H74.4953C76.2841 68.0664 77.7395 66.611 77.7395 64.8222V62.0555ZM74.8333 64.822C74.8333 65.0084 74.6815 65.1602 74.4951 65.1602H71.7286C71.5422 65.1602 71.3904 65.0084 71.3904 64.822V62.0553C71.3904 61.8689 71.5422 61.7171 71.7286 61.7171H74.4953C74.6817 61.7171 74.8335 61.8689 74.8335 62.0553V64.822H74.8333Z" fill="black"/>
<path d="M88.5651 62.0555C88.5651 60.2665 87.1097 58.8113 85.3209 58.8113H82.5541C80.7654 58.8113 79.31 60.2667 79.31 62.0555V64.8222C79.31 66.611 80.7654 68.0664 82.5541 68.0664H85.3209C87.1097 68.0664 88.5651 66.611 88.5651 64.8222V62.0555ZM85.6591 64.822C85.6591 65.0084 85.5073 65.1602 85.3209 65.1602H82.5541C82.3677 65.1602 82.216 65.0084 82.216 64.822V62.0553C82.216 61.8689 82.3677 61.7171 82.5541 61.7171H85.3209C85.5073 61.7171 85.6591 61.8689 85.6591 62.0553V64.822Z" fill="black"/>
<path d="M57.6586 76.6693C57.6586 78.4581 59.114 79.9135 60.9027 79.9135H63.6695C65.4583 79.9135 66.9137 78.4581 66.9137 76.6693V73.9025C66.9137 72.1137 65.4583 70.6583 63.6695 70.6583H60.9027C59.114 70.6583 57.6586 72.1136 57.6586 73.9025V76.6693ZM60.5646 73.9025C60.5646 73.7161 60.7164 73.5643 60.9027 73.5643H63.6695C63.8559 73.5643 64.0077 73.7159 64.0077 73.9025V76.6693C64.0077 76.8557 63.8559 77.0075 63.6695 77.0075H60.9027C60.7164 77.0075 60.5646 76.8557 60.5646 76.6693V73.9025Z" fill="black"/>
<path d="M77.7395 73.9025C77.7395 72.1137 76.2841 70.6583 74.4953 70.6583H71.7286C69.9398 70.6583 68.4844 72.1136 68.4844 73.9025V76.6693C68.4844 78.4581 69.9398 79.9135 71.7286 79.9135H74.4953C76.2841 79.9135 77.7395 78.4581 77.7395 76.6693V73.9025ZM74.8333 76.6693C74.8333 76.8557 74.6815 77.0075 74.4951 77.0075H71.7286C71.5422 77.0075 71.3904 76.8557 71.3904 76.6693V73.9025C71.3904 73.7161 71.5422 73.5643 71.7286 73.5643H74.4953C74.6817 73.5643 74.8335 73.7159 74.8335 73.9025V76.6693H74.8333Z" fill="black"/>
<path d="M57.6586 88.5163C57.6586 90.3051 59.114 91.7605 60.9027 91.7605H63.6695C65.4583 91.7605 66.9137 90.3051 66.9137 88.5163V85.7496C66.9137 83.9608 65.4583 82.5054 63.6695 82.5054H60.9027C59.114 82.5054 57.6586 83.9606 57.6586 85.7496V88.5163ZM60.5646 85.7497C60.5646 85.5633 60.7164 85.4116 60.9027 85.4116H63.6695C63.8559 85.4116 64.0077 85.5632 64.0077 85.7497V88.5165C64.0077 88.7029 63.8559 88.8547 63.6695 88.8547H60.9027C60.7164 88.8547 60.5646 88.7029 60.5646 88.5165V85.7497Z" fill="black"/>
<path d="M74.4951 82.5057H71.7286C69.9398 82.5057 68.4844 83.961 68.4844 85.7499V88.5167C68.4844 90.3055 69.9398 91.7609 71.7286 91.7609H74.4953C76.2841 91.7609 77.7395 90.3055 77.7395 88.5167V85.7499C77.7395 83.961 76.2841 82.5057 74.4951 82.5057ZM74.8333 88.5165C74.8333 88.7029 74.6815 88.8547 74.4951 88.8547H71.7286C71.5422 88.8547 71.3904 88.7029 71.3904 88.5165V85.7497C71.3904 85.5633 71.5422 85.4115 71.7286 85.4115H74.4953C74.6817 85.4115 74.8335 85.5631 74.8335 85.7497V88.5165H74.8333Z" fill="black"/>
<path d="M85.0466 70.6583H82.8285C80.8884 70.6583 79.31 72.2367 79.31 74.1769V88.2422C79.31 90.1824 80.8884 91.7608 82.8285 91.7608H85.0466C86.9867 91.7608 88.5651 90.1824 88.5651 88.2422V74.1769C88.5651 72.2367 86.9867 70.6583 85.0466 70.6583ZM85.6591 88.2422C85.6591 88.58 85.3844 88.8548 85.0466 88.8548H82.8285C82.4907 88.8548 82.216 88.58 82.216 88.2422V74.1769C82.216 73.8391 82.4907 73.5645 82.8285 73.5645H85.0466C85.3844 73.5645 85.6591 73.8393 85.6591 74.1769V88.2422Z" fill="black"/>
<path d="M14.9289 27.1447H20.7291C21.5315 27.1447 22.1822 26.4943 22.1822 25.6916C22.1822 24.8892 21.5317 24.2385 20.7291 24.2385H14.9289C14.1265 24.2385 13.4758 24.8892 13.4758 25.6916C13.4758 26.4941 14.1265 27.1447 14.9289 27.1447Z" fill="black"/>
<path d="M27.2679 27.1447H55.2334C56.0359 27.1447 56.6865 26.4943 56.6865 25.6916C56.6865 24.8892 56.0359 24.2385 55.2334 24.2385H27.2679C26.4654 24.2385 25.8148 24.8892 25.8148 25.6916C25.815 26.4941 26.4654 27.1447 27.2679 27.1447Z" fill="black"/>
<path d="M14.9289 39.9206H20.7291C21.5315 39.9206 22.1822 39.2699 22.1822 38.4675C22.1822 37.6651 21.5317 37.0144 20.7291 37.0144H14.9289C14.1265 37.0144 13.4758 37.6649 13.4758 38.4675C13.4758 39.2701 14.1265 39.9206 14.9289 39.9206Z" fill="black"/>
<path d="M14.9289 52.6967H20.7291C21.5315 52.6967 22.1822 52.0461 22.1822 51.2436C22.1822 50.4412 21.5317 49.7905 20.7291 49.7905H14.9289C14.1265 49.7905 13.4758 50.4412 13.4758 51.2436C13.4758 52.0461 14.1265 52.6967 14.9289 52.6967Z" fill="black"/>
<path d="M14.9289 65.4726H20.7291C21.5315 65.4726 22.1822 64.8219 22.1822 64.0195C22.1822 63.2171 21.5317 62.5664 20.7291 62.5664H14.9289C14.1265 62.5664 13.4758 63.2171 13.4758 64.0195C13.4758 64.8221 14.1265 65.4726 14.9289 65.4726Z" fill="black"/>
<path d="M14.9289 78.2487H20.7291C21.5315 78.2487 22.1822 77.5983 22.1822 76.7956C22.1822 75.993 21.5317 75.3425 20.7291 75.3425H14.9289C14.1265 75.3425 13.4758 75.993 13.4758 76.7956C13.4758 77.5983 14.1265 78.2487 14.9289 78.2487Z" fill="black"/>
</g>
<defs>
<clipPath id="clip0">
<rect width="99" height="99" fill="white"/>
</clipPath>
</defs>
</svg>
