<svg width="103" height="103" viewBox="0 0 103 103" fill="none" xmlns="http://www.w3.org/2000/svg">
<g clip-path="url(#clip0)">
<path d="M76.4489 31.4193C73.3955 30.1953 72.5133 29.4551 72.5133 28.1184C72.5133 27.0488 73.3235 25.7991 75.6076 25.7991C77.628 25.7991 79.1775 26.5958 79.1913 26.6027C79.3543 26.6896 79.5372 26.736 79.7183 26.736C80.1604 26.736 80.5515 26.4685 80.7137 26.0543L81.2687 24.6356C81.4619 24.1186 81.1687 23.6682 80.7949 23.5066C79.551 22.9652 77.12 22.5461 77.0952 22.5418C77.056 22.5349 76.9198 22.5058 76.9198 22.3465L76.912 20.2884C76.912 19.6686 76.3945 19.1641 75.7591 19.1641H74.7635C74.1287 19.1641 73.6115 19.6684 73.6115 20.2887L73.6141 22.4525C73.6141 22.6184 73.4343 22.6904 73.3687 22.7057C70.3 23.4366 68.3822 25.6845 68.3822 28.5199C68.3822 32.0546 71.304 33.6519 74.4588 34.8509C76.9809 35.841 78.0096 36.845 78.0096 38.3176C78.0096 39.9201 76.5526 41.0392 74.4651 41.0392C72.6827 41.0392 70.2703 39.9094 70.2464 39.8979C70.092 39.8247 69.9285 39.7879 69.7603 39.7879C69.3012 39.7879 68.9014 40.0655 68.7416 40.4955L68.2117 41.9303C68.0233 42.466 68.3133 42.9009 68.6846 43.0944C70.1661 43.866 73.0329 44.3182 73.1605 44.3381C73.1947 44.343 73.3693 44.4043 73.3693 44.5639V46.7181C73.3693 47.3379 73.8868 47.8425 74.5224 47.8425H75.5512C76.1871 47.8425 76.7046 47.3382 76.7046 46.7181V44.451C76.7046 44.239 76.861 44.2203 76.8933 44.2125C80.1624 43.4781 82.1762 41.0862 82.1762 38.0829C82.1753 34.998 80.4623 33.0047 76.4489 31.4193Z" fill="#251297"/>
<path d="M75.1635 6.48291C60.2402 6.48291 48.1434 18.5806 48.1434 33.503C48.1434 48.4257 60.2402 60.5237 75.1635 60.5237C90.0862 60.5237 102.183 48.4257 102.183 33.503C102.183 18.5806 90.0862 6.48291 75.1635 6.48291ZM75.1635 54.2616C63.6986 54.2616 54.4052 44.9674 54.4052 33.5033C54.4052 22.0392 63.6986 12.7453 75.1635 12.7453C86.6278 12.7453 95.9209 22.0392 95.9209 33.5033C95.9209 44.9674 86.6278 54.2616 75.1635 54.2616Z" fill="#251297"/>
<path d="M96.6929 73.6173C90.9472 76.7885 83.0446 79.7207 75.1636 80.9568C68.1519 82.0564 54.9606 79.4045 54.9606 76.2724C54.9606 75.0855 66.5298 79.1968 73.528 77.3297C78.8945 75.898 78.1327 70.8781 75.2137 70.2159C72.3118 69.5573 55.3103 63.3289 48.0482 63.114C44.6273 63.0129 36.1815 64.3038 32.0947 64.9693C30.6947 65.1971 29.8169 65.1721 29.7293 66.5119C29.3226 72.7386 28.5211 85.4719 28.0842 92.1231C28.075 92.2636 28.2703 94.1535 29.8298 92.8235C31.5368 91.3679 33.931 89.7545 36.1455 90.2568C39.6197 91.0451 69.6763 96.5515 73.8221 95.5878C79.753 94.2091 96.5423 84.2594 99.7613 81.1668C104.751 76.3723 100.872 71.3106 96.6929 73.6173Z" fill="#251297"/>
<path d="M21.4351 64.7267L5.68923 63.9508C4.47356 63.8909 3.23197 64.807 2.92985 65.9858L0.0667862 91.9798C-0.235044 93.1589 0.513195 94.1623 1.72944 94.2092L19.1797 94.2075C20.3962 94.2544 21.467 93.3 21.5604 92.0863L23.4767 67.0419C23.5695 65.8286 22.6507 64.7866 21.4351 64.7267ZM12.1653 90.7638C9.76077 90.7638 7.81183 88.8146 7.81183 86.4103C7.81183 84.0058 9.76105 82.0568 12.1653 82.0568C14.5696 82.0568 16.5188 84.006 16.5188 86.4103C16.5188 88.8149 14.5699 90.7638 12.1653 90.7638Z" fill="#251297"/>
</g>
<defs>
<clipPath id="clip0">
<rect width="102.183" height="102.183" fill="white"/>
</clipPath>
</defs>
</svg>
