<svg width="61" height="61" viewBox="0 0 61 61" fill="none" xmlns="http://www.w3.org/2000/svg">
<g clip-path="url(#clip0)">
<path d="M45.0263 18.5049C43.2279 17.7839 42.7084 17.348 42.7084 16.5608C42.7084 15.9308 43.1855 15.1947 44.5309 15.1947C45.7208 15.1947 46.6334 15.6639 46.6415 15.668C46.7375 15.7192 46.8453 15.7465 46.952 15.7465C47.2123 15.7465 47.4427 15.589 47.5382 15.345L47.8651 14.5095C47.9789 14.205 47.8062 13.9397 47.586 13.8445C46.8534 13.5256 45.4216 13.2788 45.407 13.2763C45.3839 13.2722 45.3037 13.2551 45.3037 13.1613L45.2991 11.9491C45.2991 11.5841 44.9943 11.2869 44.6201 11.2869H44.0337C43.6598 11.2869 43.3552 11.5839 43.3552 11.9493L43.3567 13.2237C43.3567 13.3214 43.2509 13.3638 43.2122 13.3728C41.4048 13.8033 40.2752 15.1272 40.2752 16.7972C40.2752 18.8791 41.9961 19.8198 43.8542 20.526C45.3396 21.1092 45.9456 21.7005 45.9456 22.5678C45.9456 23.5116 45.0874 24.1708 43.8579 24.1708C42.8081 24.1708 41.3873 23.5053 41.3732 23.4985C41.2823 23.4555 41.186 23.4337 41.0869 23.4337C40.8165 23.4337 40.5811 23.5973 40.4869 23.8505L40.1748 24.6956C40.0639 25.0111 40.2347 25.2672 40.4534 25.3812C41.3259 25.8357 43.0144 26.102 43.0895 26.1137C43.1097 26.1166 43.2125 26.1527 43.2125 26.2467V27.5155C43.2125 27.8805 43.5173 28.1777 43.8917 28.1777H44.4976C44.8722 28.1777 45.177 27.8807 45.177 27.5155V26.1802C45.177 26.0553 45.2691 26.0443 45.2881 26.0397C47.2135 25.6072 48.3996 24.1984 48.3996 22.4295C48.3991 20.6127 47.3901 19.4387 45.0263 18.5049Z" fill="#251297"/>
<path d="M44.2692 3.81812C35.4798 3.81812 28.3551 10.9433 28.3551 19.7323C28.3551 28.5213 35.4798 35.6467 44.2692 35.6467C53.0583 35.6467 60.1832 28.5213 60.1832 19.7323C60.1832 10.9433 53.0583 3.81812 44.2692 3.81812ZM44.2692 31.9585C37.5167 31.9585 32.0431 26.4845 32.0431 19.7324C32.0431 12.9804 37.5167 7.5065 44.2692 7.5065C51.0214 7.5065 56.4948 12.9804 56.4948 19.7324C56.4948 26.4845 51.0214 31.9585 44.2692 31.9585Z" fill="#251297"/>
<path d="M56.9497 43.3585C53.5656 45.2263 48.9112 46.9533 44.2695 47.6813C40.1397 48.329 32.3704 46.767 32.3704 44.9223C32.3704 44.2233 39.1844 46.6447 43.3062 45.545C46.4668 44.7018 46.0182 41.7452 44.299 41.3552C42.5898 40.9673 32.5764 37.2989 28.2992 37.1724C26.2844 37.1128 21.31 37.8731 18.903 38.2651C18.0785 38.3993 17.5614 38.3845 17.5099 39.1736C17.2703 42.841 16.7983 50.3406 16.5409 54.258C16.5355 54.3407 16.6505 55.4538 17.5691 54.6705C18.5744 53.8132 19.9846 52.8629 21.2888 53.1588C23.335 53.623 41.0376 56.8661 43.4794 56.2986C46.9725 55.4866 56.8609 49.6264 58.7569 47.805C61.6955 44.9812 59.4111 42 56.9497 43.3585Z" fill="#251297"/>
<path d="M12.6246 38.1222L3.35076 37.6652C2.63476 37.6299 1.90349 38.1695 1.72555 38.8638L0.0392851 54.1736C-0.138485 54.868 0.302208 55.459 1.01855 55.4866L11.2963 55.4856C12.0128 55.5133 12.6435 54.9511 12.6984 54.2363L13.8271 39.4858C13.8818 38.7712 13.3406 38.1575 12.6246 38.1222ZM7.16501 53.4574C5.74878 53.4574 4.60091 52.3093 4.60091 50.8933C4.60091 49.4771 5.74895 48.3292 7.16501 48.3292C8.58106 48.3292 9.7291 49.4772 9.7291 50.8933C9.7291 52.3095 8.58123 53.4574 7.16501 53.4574Z" fill="#251297"/>
</g>
<defs>
<clipPath id="clip0">
<rect width="60.1832" height="60.1832" fill="white"/>
</clipPath>
</defs>
</svg>
