<svg width="61" height="60" viewBox="0 0 61 60" fill="none" xmlns="http://www.w3.org/2000/svg">
<path d="M3.44727 2.10938C3.44727 1.46215 3.97191 0.9375 4.61914 0.9375H34.7885L45.6795 11.8286V57.8906C45.6795 58.5379 45.1549 59.0625 44.5077 59.0625H4.61914C3.97191 59.0625 3.44727 58.5379 3.44727 57.8906V2.10938Z" fill="#251297"/>
<path d="M44.5077 56.9531H4.61914C3.97191 56.9531 3.44727 56.4285 3.44727 55.7812V57.8906C3.44727 58.5379 3.97191 59.0625 4.61914 59.0625H44.5077C45.1549 59.0625 45.6795 58.5379 45.6795 57.8906V55.7812C45.6795 56.4285 45.1549 56.9531 44.5077 56.9531Z" fill="#251297"/>
<path d="M37.1322 11.8286H45.6795L34.7885 0.9375V9.4848C34.7885 10.7793 35.8379 11.8286 37.1322 11.8286Z" fill="#251297"/>
<path d="M37.1322 9.71918C35.8377 9.71918 34.7885 8.66988 34.7885 7.37543V9.4848C34.7885 10.7793 35.8377 11.8286 37.1322 11.8286H45.6795L43.5701 9.71918H37.1322Z" fill="#251297"/>
<path d="M55.0547 59.0626H34.3566C32.9771 59.0626 31.8586 57.9443 31.8586 56.5647V22.3105C31.8586 20.9309 32.977 19.8125 34.3566 19.8125H55.0549C56.4344 19.8125 57.5528 20.9308 57.5528 22.3105V56.5646C57.5527 57.9443 56.4343 59.0626 55.0547 59.0626Z" fill="#251297"/>
<path d="M55.0547 56.9532H34.3566C32.9771 56.9532 31.8586 55.8349 31.8586 54.4553V56.5647C31.8586 57.9442 32.977 59.0625 34.3566 59.0625H55.0549C56.4344 59.0625 57.5528 57.9442 57.5528 56.5647V54.4553C57.5527 55.8349 56.4343 56.9532 55.0547 56.9532Z" fill="#251297"/>
<path d="M55.0547 19.8135H34.3566C32.9771 19.8135 31.8586 20.9318 31.8586 22.3114V34.0836H57.5527V22.3113C57.5527 20.9318 56.4343 19.8135 55.0547 19.8135Z" fill="#251297"/>
<path d="M39.0708 40.3515H37.3972C36.7989 40.3515 36.3138 39.8665 36.3138 39.2681V37.5946C36.3138 36.9962 36.7989 36.5112 37.3972 36.5112H39.0708C39.6692 36.5112 40.1542 36.9962 40.1542 37.5946V39.2681C40.1542 39.8665 39.6692 40.3515 39.0708 40.3515Z" fill="#251297"/>
<path d="M45.619 40.3515H43.9455C43.3471 40.3515 42.8621 39.8665 42.8621 39.2681V37.5946C42.8621 36.9962 43.3471 36.5112 43.9455 36.5112H45.619C46.2174 36.5112 46.7024 36.9962 46.7024 37.5946V39.2681C46.7024 39.8665 46.2174 40.3515 45.619 40.3515Z" fill="#251297"/>
<path d="M52.1672 40.3515H50.4937C49.8953 40.3515 49.4103 39.8665 49.4103 39.2681V37.5946C49.4103 36.9962 49.8953 36.5112 50.4937 36.5112H52.1672C52.7656 36.5112 53.2506 36.9962 53.2506 37.5946V39.2681C53.2506 39.8665 52.7656 40.3515 52.1672 40.3515Z" fill="#251297"/>
<path d="M39.0708 47.5175H37.3972C36.7989 47.5175 36.3138 47.0325 36.3138 46.4341V44.7606C36.3138 44.1622 36.7989 43.6772 37.3972 43.6772H39.0708C39.6692 43.6772 40.1542 44.1622 40.1542 44.7606V46.4341C40.1542 47.0325 39.6692 47.5175 39.0708 47.5175Z" fill="#251297"/>
<path d="M45.619 47.5175H43.9455C43.3471 47.5175 42.8621 47.0325 42.8621 46.4341V44.7606C42.8621 44.1622 43.3471 43.6772 43.9455 43.6772H45.619C46.2174 43.6772 46.7024 44.1622 46.7024 44.7606V46.4341C46.7024 47.0325 46.2174 47.5175 45.619 47.5175Z" fill="#251297"/>
<path d="M39.0708 38.2421H37.3972C36.8735 38.2421 36.4365 37.8705 36.3358 37.3766C36.3213 37.447 36.3138 37.5199 36.3138 37.5946V39.2681C36.3138 39.8665 36.7989 40.3515 37.3972 40.3515H39.0708C39.6692 40.3515 40.1542 39.8665 40.1542 39.2681V37.5946C40.1542 37.5199 40.1466 37.447 40.1323 37.3766C40.0314 37.8705 39.5945 38.2421 39.0708 38.2421Z" fill="#251297"/>
<path d="M45.619 38.2421H43.9455C43.4217 38.2421 42.9848 37.8705 42.884 37.3766C42.8696 37.447 42.8621 37.5199 42.8621 37.5946V39.2681C42.8621 39.8665 43.3471 40.3515 43.9455 40.3515H45.619C46.2174 40.3515 46.7024 39.8665 46.7024 39.2681V37.5946C46.7024 37.5199 46.6948 37.447 46.6805 37.3766C46.5796 37.8705 46.1427 38.2421 45.619 38.2421Z" fill="#251297"/>
<path d="M52.1672 38.2421H50.4937C49.97 38.2421 49.533 37.8705 49.4322 37.3766C49.4178 37.447 49.4103 37.5199 49.4103 37.5946V39.2681C49.4103 39.8665 49.8953 40.3515 50.4937 40.3515H52.1672C52.7656 40.3515 53.2506 39.8665 53.2506 39.2681V37.5946C53.2506 37.5199 53.243 37.447 53.2287 37.3766C53.1278 37.8705 52.6909 38.2421 52.1672 38.2421Z" fill="#251297"/>
<path d="M39.0708 45.4082H37.3972C36.8735 45.4082 36.4365 45.0366 36.3358 44.5427C36.3213 44.6131 36.3138 44.686 36.3138 44.7606V46.4342C36.3138 47.0325 36.7989 47.5176 37.3972 47.5176H39.0708C39.6692 47.5176 40.1542 47.0325 40.1542 46.4342V44.7606C40.1542 44.686 40.1466 44.6131 40.1323 44.5427C40.0314 45.0366 39.5945 45.4082 39.0708 45.4082Z" fill="#251297"/>
<path d="M45.619 45.4082H43.9455C43.4217 45.4082 42.9848 45.0366 42.884 44.5427C42.8696 44.6131 42.8621 44.686 42.8621 44.7606V46.4342C42.8621 47.0325 43.3471 47.5176 43.9455 47.5176H45.619C46.2174 47.5176 46.7024 47.0325 46.7024 46.4342V44.7606C46.7024 44.686 46.6948 44.6131 46.6805 44.5427C46.5796 45.0366 46.1427 45.4082 45.619 45.4082Z" fill="#251297"/>
<path d="M39.0708 54.6837H37.3972C36.7989 54.6837 36.3138 54.1987 36.3138 53.6003V51.9268C36.3138 51.3284 36.7989 50.8434 37.3972 50.8434H39.0708C39.6692 50.8434 40.1542 51.3284 40.1542 51.9268V53.6003C40.1542 54.1987 39.6692 54.6837 39.0708 54.6837Z" fill="#251297"/>
<path d="M45.619 54.6837H43.9455C43.3471 54.6837 42.8621 54.1987 42.8621 53.6003V51.9268C42.8621 51.3284 43.3471 50.8434 43.9455 50.8434H45.619C46.2174 50.8434 46.7024 51.3284 46.7024 51.9268V53.6003C46.7024 54.1987 46.2174 54.6837 45.619 54.6837Z" fill="#251297"/>
<path d="M39.0708 52.5744H37.3972C36.8735 52.5744 36.4365 52.2028 36.3358 51.7089C36.3213 51.7793 36.3138 51.8522 36.3138 51.9268V53.6004C36.3138 54.1987 36.7989 54.6838 37.3972 54.6838H39.0708C39.6692 54.6838 40.1542 54.1987 40.1542 53.6004V51.9268C40.1542 51.8522 40.1466 51.7793 40.1323 51.7089C40.0314 52.2028 39.5945 52.5744 39.0708 52.5744Z" fill="#251297"/>
<path d="M45.619 52.5744H43.9455C43.4217 52.5744 42.9848 52.2028 42.884 51.7089C42.8696 51.7793 42.8621 51.8522 42.8621 51.9268V53.6004C42.8621 54.1987 43.3471 54.6838 43.9455 54.6838H45.619C46.2174 54.6838 46.7024 54.1987 46.7024 53.6004V51.9268C46.7024 51.8522 46.6948 51.7793 46.6805 51.7089C46.5796 52.2028 46.1427 52.5744 45.619 52.5744Z" fill="#251297"/>
<path d="M52.0787 31.1711H37.4857C36.8385 31.1711 36.3138 30.6464 36.3138 29.9992V25.0367C36.3138 24.3895 36.8385 23.8648 37.4857 23.8648H52.0788C52.7261 23.8648 53.2507 24.3895 53.2507 25.0367V29.9992C53.2506 30.6464 52.726 31.1711 52.0787 31.1711Z" fill="#251297"/>
<path d="M52.0787 29.0616H37.4857C36.8385 29.0616 36.3138 28.5369 36.3138 27.8897V29.9991C36.3138 30.6463 36.8385 31.171 37.4857 31.171H52.0788C52.7261 31.171 53.2507 30.6463 53.2507 29.9991V27.8897C53.2506 28.5369 52.726 29.0616 52.0787 29.0616Z" fill="#251297"/>
<path d="M52.0013 54.6837H50.6596C49.9696 54.6837 49.4103 54.1243 49.4103 53.4343V44.9265C49.4103 44.2365 49.9696 43.6772 50.6596 43.6772H52.0013C52.6913 43.6772 53.2506 44.2365 53.2506 44.9265V53.4343C53.2506 54.1243 52.6913 54.6837 52.0013 54.6837Z" fill="#251297"/>
<path d="M52.0013 52.5743H50.6596C49.9696 52.5743 49.4103 52.015 49.4103 51.325V53.4344C49.4103 54.1244 49.9696 54.6837 50.6596 54.6837H52.0013C52.6913 54.6837 53.2506 54.1244 53.2506 53.4344V51.325C53.2506 52.015 52.6913 52.5743 52.0013 52.5743Z" fill="#251297"/>
<path d="M57.6057 31.9373C57.1194 31.9373 56.7251 32.3317 56.7251 32.818V56.6165C56.7251 57.511 55.9973 58.2386 55.1029 58.2386H34.3642C33.4697 58.2386 32.7421 57.5109 32.7421 56.6165V54.2759C32.7421 53.7896 32.3477 53.3953 31.8614 53.3953C31.3751 53.3953 30.9807 53.7896 30.9807 54.2759V56.6165C30.9807 57.204 31.1314 57.7568 31.3959 58.2386H4.56855C4.40672 58.2386 4.275 58.1069 4.275 57.9451V36.6992C4.275 36.2129 3.88066 35.8186 3.39434 35.8186C2.90801 35.8186 2.51367 36.2128 2.51367 36.6992V57.9452C2.51367 59.0782 3.43547 60 4.56844 60H55.1027C56.9684 60 58.4862 58.4822 58.4862 56.6165V32.818C58.4863 32.3317 58.0921 31.9373 57.6057 31.9373Z" fill="black"/>
<path d="M55.1037 18.912H46.5909V11.793C46.5913 11.5617 46.4963 11.3334 46.3328 11.1702L35.4207 0.258049C35.2574 0.094572 35.0291 -0.000467024 34.7978 1.72586e-06H4.56941C3.43645 1.72586e-06 2.51465 0.921799 2.51465 2.05477V33.1767C2.51465 33.663 2.90898 34.0574 3.39531 34.0574C3.88164 34.0574 4.27598 33.663 4.27598 33.1767V2.05477C4.27598 1.89293 4.4077 1.76121 4.56953 1.76121H33.9173V9.44461C33.9173 11.225 35.3658 12.6736 37.1463 12.6736H44.8297V18.9118H34.3652C32.4995 18.9118 30.9817 20.4297 30.9817 22.2953V22.4331H17.027C16.5407 22.4331 16.1464 22.8273 16.1464 23.3138C16.1464 23.8001 16.5407 24.1944 17.027 24.1944H30.9817V30.1761H17.027C16.5407 30.1761 16.1464 30.5705 16.1464 31.0568C16.1464 31.5431 16.5407 31.9375 17.027 31.9375H30.9817V37.9192H17.027C16.5407 37.9192 16.1464 38.3135 16.1464 38.7998C16.1464 39.2862 16.5407 39.6805 17.027 39.6805H30.9817V45.6623H17.027C16.5407 45.6623 16.1464 46.0566 16.1464 46.543C16.1464 47.0295 16.5407 47.4237 17.027 47.4237H30.9817V50.7537C30.9817 51.24 31.3759 51.6343 31.8624 51.6343C32.3488 51.6343 32.7431 51.24 32.7431 50.7537V22.2953C32.7431 21.4008 33.4708 20.6732 34.3652 20.6732H55.1038C55.9983 20.6732 56.7261 21.4009 56.7261 22.2953V29.2955C56.7261 29.7818 57.1204 30.1761 57.6067 30.1761C58.0931 30.1761 58.4874 29.7819 58.4874 29.2955V22.2953C58.4872 20.4298 56.9693 18.912 55.1037 18.912ZM35.6785 9.44461V3.00668L43.5842 10.9124H37.1461C36.3368 10.9124 35.6785 10.254 35.6785 9.44461Z" fill="black"/>
<path d="M54.1758 25.0269C54.1758 23.894 53.254 22.9722 52.1211 22.9722H37.4993C36.3664 22.9722 35.4446 23.894 35.4446 25.0269V29.9992C35.4446 31.1322 36.3664 32.054 37.4993 32.054H52.1211C53.254 32.054 54.1758 31.1322 54.1758 29.9992V25.0269ZM52.4146 29.9991C52.4146 30.1609 52.2829 30.2926 52.1211 30.2926H37.4993C37.3375 30.2926 37.2058 30.1609 37.2058 29.9991V25.0268C37.2058 24.865 37.3375 24.7333 37.4993 24.7333H52.1211C52.2829 24.7333 52.4146 24.865 52.4146 25.0268V29.9991Z" fill="black"/>
<path d="M35.4446 39.2861C35.4446 40.3702 36.3266 41.2522 37.4108 41.2522H39.0876C40.1717 41.2522 41.0538 40.3702 41.0538 39.2861V37.6092C41.0538 36.525 40.1717 35.6431 39.0876 35.6431H37.4108C36.3266 35.6431 35.4446 36.5251 35.4446 37.6092V39.2861ZM37.2058 37.6094C37.2058 37.4964 37.2978 37.4044 37.4108 37.4044H39.0876C39.2006 37.4044 39.2925 37.4964 39.2925 37.6094V39.2862C39.2925 39.3992 39.2006 39.4912 39.0876 39.4912H37.4108C37.2978 39.4912 37.2058 39.3992 37.2058 39.2862V37.6094Z" fill="black"/>
<path d="M47.6149 37.6094C47.6149 36.5251 46.7328 35.6432 45.6487 35.6432H43.9719C42.8878 35.6432 42.0057 36.5253 42.0057 37.6094V39.2862C42.0057 40.3703 42.8878 41.2524 43.9719 41.2524H45.6487C46.7328 41.2524 47.6149 40.3703 47.6149 39.2862V37.6094ZM45.8536 39.2861C45.8536 39.399 45.7616 39.491 45.6486 39.491H43.9719C43.8589 39.491 43.7669 39.399 43.7669 39.2861V37.6092C43.7669 37.4963 43.8589 37.4043 43.9719 37.4043H45.6487C45.7617 37.4043 45.8537 37.4963 45.8537 37.6092V39.2861H45.8536Z" fill="black"/>
<path d="M54.1758 37.6094C54.1758 36.5251 53.2938 35.6432 52.2097 35.6432H50.5328C49.4487 35.6432 48.5667 36.5253 48.5667 37.6094V39.2862C48.5667 40.3703 49.4487 41.2524 50.5328 41.2524H52.2097C53.2938 41.2524 54.1758 40.3703 54.1758 39.2862V37.6094ZM52.4146 39.2861C52.4146 39.399 52.3226 39.491 52.2097 39.491H50.5328C50.4199 39.491 50.3279 39.399 50.3279 39.2861V37.6092C50.3279 37.4963 50.4199 37.4043 50.5328 37.4043H52.2097C52.3226 37.4043 52.4146 37.4963 52.4146 37.6092V39.2861Z" fill="black"/>
<path d="M35.4446 46.4663C35.4446 47.5504 36.3266 48.4325 37.4108 48.4325H39.0876C40.1717 48.4325 41.0538 47.5504 41.0538 46.4663V44.7895C41.0538 43.7054 40.1717 42.8233 39.0876 42.8233H37.4108C36.3266 42.8233 35.4446 43.7053 35.4446 44.7895V46.4663ZM37.2058 44.7895C37.2058 44.6765 37.2978 44.5845 37.4108 44.5845H39.0876C39.2006 44.5845 39.2925 44.6764 39.2925 44.7895V46.4663C39.2925 46.5793 39.2006 46.6713 39.0876 46.6713H37.4108C37.2978 46.6713 37.2058 46.5793 37.2058 46.4663V44.7895Z" fill="black"/>
<path d="M47.6149 44.7895C47.6149 43.7054 46.7328 42.8233 45.6487 42.8233H43.9719C42.8878 42.8233 42.0057 43.7053 42.0057 44.7895V46.4663C42.0057 47.5504 42.8878 48.4325 43.9719 48.4325H45.6487C46.7328 48.4325 47.6149 47.5504 47.6149 46.4663V44.7895ZM45.8536 46.4663C45.8536 46.5793 45.7616 46.6713 45.6486 46.6713H43.9719C43.8589 46.6713 43.7669 46.5793 43.7669 46.4663V44.7895C43.7669 44.6765 43.8589 44.5845 43.9719 44.5845H45.6487C45.7617 44.5845 45.8537 44.6764 45.8537 44.7895V46.4663H45.8536Z" fill="black"/>
<path d="M35.4446 53.6462C35.4446 54.7303 36.3266 55.6124 37.4108 55.6124H39.0876C40.1717 55.6124 41.0538 54.7303 41.0538 53.6462V51.9694C41.0538 50.8853 40.1717 50.0032 39.0876 50.0032H37.4108C36.3266 50.0032 35.4446 50.8852 35.4446 51.9694V53.6462ZM37.2058 51.9695C37.2058 51.8566 37.2978 51.7646 37.4108 51.7646H39.0876C39.2006 51.7646 39.2925 51.8564 39.2925 51.9695V53.6464C39.2925 53.7593 39.2006 53.8513 39.0876 53.8513H37.4108C37.2978 53.8513 37.2058 53.7593 37.2058 53.6464V51.9695Z" fill="black"/>
<path d="M45.6486 50.0034H43.9719C42.8878 50.0034 42.0057 50.8854 42.0057 51.9696V53.6464C42.0057 54.7305 42.8878 55.6126 43.9719 55.6126H45.6487C46.7328 55.6126 47.6149 54.7305 47.6149 53.6464V51.9696C47.6149 50.8854 46.7328 50.0034 45.6486 50.0034ZM45.8536 53.6463C45.8536 53.7593 45.7616 53.8513 45.6486 53.8513H43.9719C43.8589 53.8513 43.7669 53.7593 43.7669 53.6463V51.9695C43.7669 51.8565 43.8589 51.7645 43.9719 51.7645H45.6487C45.7617 51.7645 45.8537 51.8564 45.8537 51.9695V53.6463H45.8536Z" fill="black"/>
<path d="M52.0434 42.8233H50.6991C49.5233 42.8233 48.5667 43.7799 48.5667 44.9558V53.4802C48.5667 54.6561 49.5233 55.6127 50.6991 55.6127H52.0434C53.2192 55.6127 54.1758 54.6561 54.1758 53.4802V44.9558C54.1758 43.7799 53.2192 42.8233 52.0434 42.8233ZM52.4146 53.4802C52.4146 53.6849 52.2481 53.8515 52.0434 53.8515H50.6991C50.4944 53.8515 50.3279 53.6849 50.3279 53.4802V44.9558C50.3279 44.751 50.4944 44.5846 50.6991 44.5846H52.0434C52.2481 44.5846 52.4146 44.7512 52.4146 44.9558V53.4802Z" fill="black"/>
<path d="M9.54778 16.4513H13.0631C13.5494 16.4513 13.9437 16.0571 13.9437 15.5707C13.9437 15.0843 13.5495 14.69 13.0631 14.69H9.54778C9.06145 14.69 8.66711 15.0843 8.66711 15.5707C8.66711 16.057 9.06145 16.4513 9.54778 16.4513Z" fill="black"/>
<path d="M17.026 16.4513H33.9749C34.4612 16.4513 34.8555 16.0571 34.8555 15.5707C34.8555 15.0843 34.4612 14.69 33.9749 14.69H17.026C16.5397 14.69 16.1454 15.0843 16.1454 15.5707C16.1455 16.057 16.5397 16.4513 17.026 16.4513Z" fill="black"/>
<path d="M9.54778 24.1943H13.0631C13.5494 24.1943 13.9437 23.8 13.9437 23.3136C13.9437 22.8273 13.5495 22.433 13.0631 22.433H9.54778C9.06145 22.433 8.66711 22.8272 8.66711 23.3136C8.66711 23.8001 9.06145 24.1943 9.54778 24.1943Z" fill="black"/>
<path d="M9.54778 31.9374H13.0631C13.5494 31.9374 13.9437 31.5431 13.9437 31.0567C13.9437 30.5704 13.5495 30.1761 13.0631 30.1761H9.54778C9.06145 30.1761 8.66711 30.5704 8.66711 31.0567C8.66711 31.5431 9.06145 31.9374 9.54778 31.9374Z" fill="black"/>
<path d="M9.54778 39.6803H13.0631C13.5494 39.6803 13.9437 39.286 13.9437 38.7997C13.9437 38.3133 13.5495 37.919 13.0631 37.919H9.54778C9.06145 37.919 8.66711 38.3133 8.66711 38.7997C8.66711 39.2861 9.06145 39.6803 9.54778 39.6803Z" fill="black"/>
<path d="M9.54778 47.4234H13.0631C13.5494 47.4234 13.9437 47.0292 13.9437 46.5428C13.9437 46.0563 13.5495 45.6621 13.0631 45.6621H9.54778C9.06145 45.6621 8.66711 46.0563 8.66711 46.5428C8.66711 47.0292 9.06145 47.4234 9.54778 47.4234Z" fill="black"/>
</svg>
