<svg width="164" height="45" viewBox="0 0 164 45" fill="none" xmlns="http://www.w3.org/2000/svg">
<path d="M27.03 11.76V33H20.4V22.41L17.13 33H11.43L8.16 22.41V33H1.5V11.76H9.66L14.34 24.51L18.9 11.76H27.03ZM36.1252 15.87C37.2252 15.87 38.1752 16.1 38.9752 16.56C39.7752 17 40.3852 17.61 40.8052 18.39V16.08H47.4352V33H40.8052V30.69C40.3852 31.47 39.7752 32.09 38.9752 32.55C38.1752 32.99 37.2252 33.21 36.1252 33.21C34.8052 33.21 33.6152 32.87 32.5552 32.19C31.4952 31.49 30.6552 30.49 30.0352 29.19C29.4352 27.87 29.1352 26.32 29.1352 24.54C29.1352 22.76 29.4352 21.22 30.0352 19.92C30.6552 18.6 31.4952 17.6 32.5552 16.92C33.6152 16.22 34.8052 15.87 36.1252 15.87ZM38.3452 21.69C37.6252 21.69 37.0352 21.94 36.5752 22.44C36.1152 22.94 35.8852 23.64 35.8852 24.54C35.8852 25.44 36.1152 26.14 36.5752 26.64C37.0352 27.14 37.6252 27.39 38.3452 27.39C39.0652 27.39 39.6552 27.14 40.1152 26.64C40.5752 26.14 40.8052 25.44 40.8052 24.54C40.8052 23.64 40.5752 22.94 40.1152 22.44C39.6552 21.94 39.0652 21.69 38.3452 21.69ZM73.0158 15.96C75.1758 15.96 76.8458 16.61 78.0258 17.91C79.2258 19.21 79.8258 20.97 79.8258 23.19V33H73.1958V24.03C73.1958 23.31 72.9758 22.75 72.5358 22.35C72.1158 21.93 71.5458 21.72 70.8258 21.72C70.0858 21.72 69.5058 21.93 69.0858 22.35C68.6658 22.75 68.4558 23.31 68.4558 24.03V33H61.8258V24.03C61.8258 23.31 61.6058 22.75 61.1658 22.35C60.7458 21.93 60.1758 21.72 59.4558 21.72C58.7158 21.72 58.1358 21.93 57.7158 22.35C57.2958 22.75 57.0858 23.31 57.0858 24.03V33H50.4258V16.08H57.0858V18.36C57.5658 17.64 58.2158 17.06 59.0358 16.62C59.8758 16.18 60.8558 15.96 61.9758 15.96C63.1958 15.96 64.2758 16.23 65.2158 16.77C66.1558 17.29 66.9058 18.03 67.4658 18.99C68.0858 18.11 68.8758 17.39 69.8358 16.83C70.7958 16.25 71.8558 15.96 73.0158 15.96ZM88.8009 15.87C89.9009 15.87 90.8509 16.1 91.6509 16.56C92.4509 17 93.0609 17.61 93.4809 18.39V16.08H100.111V33H93.4809V30.69C93.0609 31.47 92.4509 32.09 91.6509 32.55C90.8509 32.99 89.9009 33.21 88.8009 33.21C87.4809 33.21 86.2909 32.87 85.2309 32.19C84.1709 31.49 83.3309 30.49 82.7109 29.19C82.1109 27.87 81.8109 26.32 81.8109 24.54C81.8109 22.76 82.1109 21.22 82.7109 19.92C83.3309 18.6 84.1709 17.6 85.2309 16.92C86.2909 16.22 87.4809 15.87 88.8009 15.87ZM91.0209 21.69C90.3009 21.69 89.7109 21.94 89.2509 22.44C88.7909 22.94 88.5609 23.64 88.5609 24.54C88.5609 25.44 88.7909 26.14 89.2509 26.64C89.7109 27.14 90.3009 27.39 91.0209 27.39C91.7409 27.39 92.3309 27.14 92.7909 26.64C93.2509 26.14 93.4809 25.44 93.4809 24.54C93.4809 23.64 93.2509 22.94 92.7909 22.44C92.3309 21.94 91.7409 21.69 91.0209 21.69ZM114.412 15.87C115.732 15.87 116.922 16.22 117.982 16.92C119.042 17.6 119.872 18.6 120.472 19.92C121.092 21.22 121.402 22.76 121.402 24.54C121.402 26.32 121.092 27.87 120.472 29.19C119.872 30.49 119.042 31.49 117.982 32.19C116.922 32.87 115.732 33.21 114.412 33.21C113.312 33.21 112.362 32.99 111.562 32.55C110.782 32.09 110.182 31.47 109.762 30.69V41.1H103.102V16.08H109.762V18.39C110.182 17.61 110.782 17 111.562 16.56C112.362 16.1 113.312 15.87 114.412 15.87ZM112.192 21.69C111.472 21.69 110.882 21.94 110.422 22.44C109.962 22.94 109.732 23.64 109.732 24.54C109.732 25.44 109.962 26.14 110.422 26.64C110.882 27.14 111.472 27.39 112.192 27.39C112.912 27.39 113.502 27.14 113.962 26.64C114.422 26.14 114.652 25.44 114.652 24.54C114.652 23.64 114.422 22.94 113.962 22.44C113.502 21.94 112.912 21.69 112.192 21.69ZM141.402 16.08V33H134.742V30.42C134.222 31.22 133.522 31.87 132.642 32.37C131.782 32.87 130.752 33.12 129.552 33.12C127.612 33.12 126.092 32.47 124.992 31.17C123.912 29.87 123.372 28.11 123.372 25.89V16.08H130.002V25.05C130.002 25.85 130.212 26.49 130.632 26.97C131.072 27.43 131.652 27.66 132.372 27.66C133.112 27.66 133.692 27.43 134.112 26.97C134.532 26.49 134.742 25.85 134.742 25.05V16.08H141.402ZM154.94 27.33V33H152.42C147.78 33 145.46 30.69 145.46 26.07V21.63H143.36V16.08H145.46V12H152.12V16.08H154.88V21.63H152.12V26.19C152.12 26.59 152.21 26.88 152.39 27.06C152.59 27.24 152.91 27.33 153.35 27.33H154.94Z" fill="black"/>
<circle cx="160.5" cy="15.5" r="3.5" fill="black"/>
</svg>
