<svg width="220" height="60" viewBox="0 0 220 60" fill="none" xmlns="http://www.w3.org/2000/svg">
<path d="M36.04 15.68V44H27.2V29.88L22.84 44H15.24L10.88 29.88V44H2V15.68H12.88L19.12 32.68L25.2 15.68H36.04ZM48.1669 21.16C49.6335 21.16 50.9002 21.4667 51.9669 22.08C53.0335 22.6667 53.8469 23.48 54.4069 24.52V21.44H63.2469V44H54.4069V40.92C53.8469 41.96 53.0335 42.7867 51.9669 43.4C50.9002 43.9867 49.6335 44.28 48.1669 44.28C46.4069 44.28 44.8202 43.8267 43.4069 42.92C41.9935 41.9867 40.8735 40.6533 40.0469 38.92C39.2469 37.16 38.8469 35.0933 38.8469 32.72C38.8469 30.3467 39.2469 28.2933 40.0469 26.56C40.8735 24.8 41.9935 23.4667 43.4069 22.56C44.8202 21.6267 46.4069 21.16 48.1669 21.16ZM51.1269 28.92C50.1669 28.92 49.3802 29.2533 48.7669 29.92C48.1535 30.5867 47.8469 31.52 47.8469 32.72C47.8469 33.92 48.1535 34.8533 48.7669 35.52C49.3802 36.1867 50.1669 36.52 51.1269 36.52C52.0869 36.52 52.8735 36.1867 53.4869 35.52C54.1002 34.8533 54.4069 33.92 54.4069 32.72C54.4069 31.52 54.1002 30.5867 53.4869 29.92C52.8735 29.2533 52.0869 28.92 51.1269 28.92ZM97.3544 21.28C100.234 21.28 102.461 22.1467 104.034 23.88C105.634 25.6133 106.434 27.96 106.434 30.92V44H97.5944V32.04C97.5944 31.08 97.301 30.3333 96.7144 29.8C96.1544 29.24 95.3944 28.96 94.4344 28.96C93.4477 28.96 92.6744 29.24 92.1144 29.8C91.5544 30.3333 91.2744 31.08 91.2744 32.04V44H82.4344V32.04C82.4344 31.08 82.141 30.3333 81.5544 29.8C80.9944 29.24 80.2344 28.96 79.2744 28.96C78.2877 28.96 77.5144 29.24 76.9544 29.8C76.3944 30.3333 76.1144 31.08 76.1144 32.04V44H67.2344V21.44H76.1144V24.48C76.7544 23.52 77.621 22.7467 78.7144 22.16C79.8344 21.5733 81.141 21.28 82.6344 21.28C84.261 21.28 85.701 21.64 86.9544 22.36C88.2077 23.0533 89.2077 24.04 89.9544 25.32C90.781 24.1467 91.8344 23.1867 93.1144 22.44C94.3944 21.6667 95.8077 21.28 97.3544 21.28ZM118.401 21.16C119.868 21.16 121.135 21.4667 122.201 22.08C123.268 22.6667 124.081 23.48 124.641 24.52V21.44H133.481V44H124.641V40.92C124.081 41.96 123.268 42.7867 122.201 43.4C121.135 43.9867 119.868 44.28 118.401 44.28C116.641 44.28 115.055 43.8267 113.641 42.92C112.228 41.9867 111.108 40.6533 110.281 38.92C109.481 37.16 109.081 35.0933 109.081 32.72C109.081 30.3467 109.481 28.2933 110.281 26.56C111.108 24.8 112.228 23.4667 113.641 22.56C115.055 21.6267 116.641 21.16 118.401 21.16ZM121.361 28.92C120.401 28.92 119.615 29.2533 119.001 29.92C118.388 30.5867 118.081 31.52 118.081 32.72C118.081 33.92 118.388 34.8533 119.001 35.52C119.615 36.1867 120.401 36.52 121.361 36.52C122.321 36.52 123.108 36.1867 123.721 35.52C124.335 34.8533 124.641 33.92 124.641 32.72C124.641 31.52 124.335 30.5867 123.721 29.92C123.108 29.2533 122.321 28.92 121.361 28.92ZM152.549 21.16C154.309 21.16 155.895 21.6267 157.309 22.56C158.722 23.4667 159.829 24.8 160.629 26.56C161.455 28.2933 161.869 30.3467 161.869 32.72C161.869 35.0933 161.455 37.16 160.629 38.92C159.829 40.6533 158.722 41.9867 157.309 42.92C155.895 43.8267 154.309 44.28 152.549 44.28C151.082 44.28 149.815 43.9867 148.749 43.4C147.709 42.7867 146.909 41.96 146.349 40.92V54.8H137.469V21.44H146.349V24.52C146.909 23.48 147.709 22.6667 148.749 22.08C149.815 21.4667 151.082 21.16 152.549 21.16ZM149.589 28.92C148.629 28.92 147.842 29.2533 147.229 29.92C146.615 30.5867 146.309 31.52 146.309 32.72C146.309 33.92 146.615 34.8533 147.229 35.52C147.842 36.1867 148.629 36.52 149.589 36.52C150.549 36.52 151.335 36.1867 151.949 35.52C152.562 34.8533 152.869 33.92 152.869 32.72C152.869 31.52 152.562 30.5867 151.949 29.92C151.335 29.2533 150.549 28.92 149.589 28.92ZM188.536 21.44V44H179.656V40.56C178.963 41.6267 178.03 42.4933 176.856 43.16C175.71 43.8267 174.336 44.16 172.736 44.16C170.15 44.16 168.123 43.2933 166.656 41.56C165.216 39.8267 164.496 37.48 164.496 34.52V21.44H173.336V33.4C173.336 34.4667 173.616 35.32 174.176 35.96C174.763 36.5733 175.536 36.88 176.496 36.88C177.483 36.88 178.256 36.5733 178.816 35.96C179.376 35.32 179.656 34.4667 179.656 33.4V21.44H188.536ZM206.587 36.44V44H203.227C197.04 44 193.947 40.92 193.947 34.76V28.84H191.147V21.44H193.947V16H202.827V21.44H206.507V28.84H202.827V34.92C202.827 35.4533 202.947 35.84 203.187 36.08C203.454 36.32 203.88 36.44 204.467 36.44H206.587Z" fill="#EC5451"/>
<circle cx="215" cy="22" r="5" fill="#971D12"/>
</svg>
