<svg width="30" height="30" viewBox="0 0 30 30" fill="none" xmlns="http://www.w3.org/2000/svg">
<path d="M29.8457 27.153L27.6792 21H25.302L26.6221 27H3.37871L4.69889 21H2.32161L0.153538 27.153C-0.396405 28.719 0.578278 30 2.32161 30H27.6792C29.4226 30 30.3972 28.719 29.8457 27.153ZM22.9247 7.5C22.9247 5.51088 22.0898 3.60322 20.6037 2.1967C19.1176 0.790176 17.1021 0 15.0004 0C12.8988 0 10.8832 0.790176 9.39713 2.1967C7.91104 3.60322 7.07617 5.51088 7.07617 7.5C7.07617 14.6625 15.0004 22.5 15.0004 22.5C15.0004 22.5 22.9247 14.6625 22.9247 7.5ZM10.7213 7.59C10.7213 5.3535 12.6358 3.5415 15.0004 3.5415C16.1351 3.5415 17.2233 3.96812 18.0256 4.7275C18.828 5.48688 19.2787 6.51682 19.2787 7.59075C19.2787 8.66468 18.828 9.69462 18.0256 10.454C17.2233 11.2134 16.1351 11.64 15.0004 11.64C13.8655 11.64 12.7771 11.2133 11.9746 10.4538C11.1722 9.69426 10.7213 8.66413 10.7213 7.59Z" fill="white"/>
</svg>
