<svg width="150" height="45" viewBox="0 0 150 45" fill="none" xmlns="http://www.w3.org/2000/svg">
<path d="M149.005 39.1973C149.005 39.7567 148.895 40.3106 148.681 40.8274C148.467 41.3442 148.153 41.8137 147.757 42.209C147.361 42.6044 146.891 42.9179 146.374 43.1315C145.857 43.3452 145.302 43.4548 144.743 43.4542H5.25741C4.12689 43.4554 3.0422 43.0076 2.24186 42.2094C1.44153 41.4111 0.991097 40.3278 0.989624 39.1975V5.25139C0.991096 4.12066 1.44135 3.03673 2.24152 2.2376C3.0417 1.43847 4.12638 0.98946 5.25741 0.989166H144.742C145.302 0.98913 145.856 1.09936 146.373 1.31355C146.891 1.52775 147.361 1.84171 147.756 2.23751C148.152 2.63332 148.466 3.1032 148.68 3.62033C148.895 4.13746 149.005 4.6917 149.005 5.25139L149.005 39.1973Z" fill="white"/>
<path d="M144.743 44.4445H5.25723C3.86451 44.4442 2.52878 43.8916 1.54317 42.9079C0.557562 41.9241 0.00257568 40.5897 0 39.1973L0 5.25279C0.00198621 3.85974 0.556607 2.52437 1.54219 1.53962C2.52777 0.554873 3.86382 0.00117527 5.25723 0L144.742 0C146.135 0.00176168 147.471 0.555647 148.456 1.54027C149.442 2.52489 149.997 3.85992 149.999 5.25279V39.1973C150.001 42.0918 147.639 44.4445 144.743 44.4445H144.743Z" fill="#A6A6A6"/>
<path d="M149.005 39.1973C149.005 39.7567 148.895 40.3106 148.681 40.8274C148.467 41.3442 148.153 41.8137 147.757 42.209C147.361 42.6044 146.891 42.9179 146.374 43.1315C145.857 43.3452 145.302 43.4548 144.743 43.4542H5.25741C4.12689 43.4554 3.0422 43.0076 2.24186 42.2094C1.44153 41.4111 0.991097 40.3278 0.989624 39.1975V5.25139C0.991096 4.12066 1.44135 3.03673 2.24152 2.2376C3.0417 1.43847 4.12638 0.98946 5.25741 0.989166H144.742C145.302 0.98913 145.856 1.09936 146.373 1.31355C146.891 1.52775 147.361 1.84171 147.756 2.23751C148.152 2.63332 148.466 3.1032 148.68 3.62033C148.895 4.13746 149.005 4.6917 149.005 5.25139L149.005 39.1973Z" fill="black"/>
<path d="M33.4937 21.9884C33.4615 18.4061 36.4276 16.6633 36.5631 16.5822C34.8834 14.1339 32.2798 13.7995 31.3648 13.7728C29.1781 13.5425 27.057 15.0808 25.9428 15.0808C24.8067 15.0808 23.0914 13.7947 21.2428 13.8328C18.8637 13.8695 16.6378 15.2467 15.4173 17.3847C12.8981 21.745 14.777 28.1523 17.1903 31.6764C18.3978 33.4037 19.8084 35.3298 21.6551 35.262C23.4617 35.1887 24.1364 34.1117 26.3165 34.1117C28.4765 34.1117 29.1103 35.2617 30.9934 35.2187C32.9323 35.1887 34.1529 33.4848 35.3181 31.7431C36.7131 29.7659 37.2737 27.8167 37.2959 27.7164C37.2515 27.7009 33.5315 26.2806 33.4937 21.9884V21.9884ZM29.9362 11.4542C30.9078 10.2394 31.5726 8.58666 31.3881 6.90971C29.9817 6.97194 28.2231 7.88194 27.2103 9.07027C26.3142 10.1172 25.5139 11.8333 25.7206 13.4469C27.3003 13.5647 28.9223 12.6503 29.9362 11.4542Z" fill="white"/>
<path d="M144.743 0H70.0303L99.2938 44.4446H144.743C146.136 44.4434 147.471 43.89 148.457 42.9058C149.442 41.9216 149.997 40.5869 150 39.1942V5.25257C149.998 3.85965 149.443 2.5245 148.457 1.53986C147.472 0.555229 146.136 0.0014692 144.743 0V0Z" fill="url(#paint0_linear)"/>
<path d="M59.6602 35.0139H57.1355L55.7524 30.6694H50.9455L49.6279 35.0139H47.1702L51.9338 20.2233H54.8755L59.6602 35.0139ZM55.3357 28.8469L54.0849 24.9847C53.9527 24.5903 53.7035 23.6608 53.3391 22.1983H53.2946C53.1477 22.8275 52.9132 23.7567 52.5918 24.9844L51.3624 28.8469H55.3357ZM71.8869 29.5503C71.8869 31.3642 71.3944 32.7978 70.4083 33.8503C69.5255 34.7872 68.4283 35.2553 67.1196 35.2553C65.7069 35.2553 64.6908 34.7517 64.0735 33.7425V39.3386H61.7035V27.8544C61.7035 26.715 61.6735 25.5469 61.6157 24.3489H63.7002L63.8324 26.0394H63.8769C64.6674 24.7658 65.8669 24.1289 67.4769 24.1289C68.7352 24.1289 69.7858 24.6256 70.626 25.6206C71.4655 26.6172 71.8869 27.9267 71.8869 29.5503V29.5503ZM69.4721 29.6369C69.4721 28.5989 69.2388 27.7431 68.7694 27.0686C68.2571 26.3672 67.5688 26.0158 66.7063 26.0158C66.1213 26.0158 65.5899 26.2117 65.1155 26.5972C64.6396 26.9861 64.3283 27.4944 64.1827 28.1233C64.1176 28.3586 64.0806 28.6008 64.0724 28.8447V30.6239C64.0724 31.3989 64.3105 32.0533 64.7863 32.5889C65.2621 33.1222 65.8802 33.3903 66.6405 33.3903C67.5333 33.3903 68.2283 33.0447 68.7252 32.3589C69.223 31.6708 69.4721 30.7639 69.4721 29.6369ZM84.1569 29.5503C84.1569 31.3642 83.6644 32.7978 82.6783 33.8503C81.7944 34.7872 80.6983 35.2553 79.3886 35.2553C77.9758 35.2553 76.9597 34.7517 76.3424 33.7425V39.3386H73.9724V27.8544C73.9724 26.715 73.9424 25.5469 73.8847 24.3489H75.9691L76.1013 26.0394H76.1458C76.9349 24.7658 78.1347 24.1289 79.7455 24.1289C81.0027 24.1289 82.0533 24.6256 82.8961 25.6206C83.7344 26.6172 84.1569 27.9267 84.1569 29.5503V29.5503ZM81.7411 29.6369C81.7411 28.5989 81.5063 27.7431 81.0372 27.0686C80.5247 26.3672 79.8388 26.0158 78.976 26.0158C78.3913 26.0158 77.8599 26.2117 77.383 26.5972C76.9072 26.9861 76.5969 27.4944 76.4516 28.1233C76.3794 28.4167 76.3405 28.6556 76.3405 28.8447V30.6239C76.3405 31.3989 76.5794 32.0533 77.053 32.5889C77.5288 33.1214 78.1469 33.3903 78.9094 33.3903C79.8033 33.3903 80.4983 33.0447 80.9938 32.3589C81.4919 31.6708 81.7411 30.7639 81.7411 29.6369ZM97.8753 30.8653C97.8753 32.1244 97.435 33.1481 96.5602 33.9383C95.5975 34.8006 94.2533 35.2328 92.5302 35.2328C90.9383 35.2328 89.6619 34.9264 88.6991 34.3117L89.2472 32.3367C90.2866 32.9525 91.4286 33.2589 92.6714 33.2589C93.5652 33.2589 94.2602 33.0569 94.7558 32.6556C95.253 32.2533 95.5041 31.7153 95.5041 31.0442C95.5041 30.4428 95.2961 29.9394 94.888 29.5292C94.478 29.1203 93.7997 28.7389 92.8469 28.3889C90.2566 27.4231 88.9605 26.0106 88.9605 24.1522C88.9605 22.9383 89.4186 21.945 90.3325 21.168C91.2464 20.3922 92.458 20.0042 93.9655 20.0042C95.3116 20.0042 96.4333 20.2389 97.3239 20.7069L96.7291 22.6383C95.8908 22.185 94.9447 21.9583 93.8864 21.9583C93.0502 21.9583 92.3947 22.1639 91.9252 22.5728C91.5308 22.9386 91.3308 23.3842 91.3308 23.9133C91.3308 24.4967 91.5586 24.9814 92.0122 25.3614C92.4058 25.7114 93.1239 26.0928 94.1622 26.5017C95.4361 27.0153 96.3722 27.6131 96.9714 28.3C97.5753 28.9869 97.8753 29.8439 97.8753 30.8653V30.8653ZM105.732 26.1272H103.119V31.3053C103.119 32.6222 103.579 33.2792 104.502 33.2792C104.926 33.2792 105.277 33.2436 105.555 33.1692L105.621 34.9686C105.154 35.1431 104.539 35.2308 103.777 35.2308C102.841 35.2308 102.11 34.9453 101.582 34.3739C101.056 33.8025 100.791 32.8458 100.791 31.4989V26.1225H99.235V24.3444H100.791V22.3917L103.119 21.6892V24.3447H105.732V26.1272ZM117.496 29.5939C117.496 31.2328 117.027 32.5789 116.091 33.6314C115.111 34.715 113.808 35.2553 112.184 35.2553C110.617 35.2553 109.37 34.7361 108.441 33.6992C107.512 32.6603 107.047 31.3508 107.047 29.7714C107.047 28.1186 107.527 26.765 108.484 25.7125C109.444 24.6589 110.736 24.1319 112.36 24.1319C113.925 24.1319 115.183 24.6522 116.134 25.6903C117.043 26.6972 117.496 27.9978 117.496 29.5936V29.5939ZM115.039 29.6481C115.039 28.6711 114.828 27.8333 114.404 27.1319C113.907 26.285 113.196 25.8617 112.274 25.8617C111.325 25.8617 110.596 26.285 110.101 27.1319C109.676 27.8333 109.465 28.6856 109.465 29.6925C109.465 30.6706 109.676 31.5108 110.101 32.21C110.613 33.0569 111.328 33.4803 112.254 33.4803C113.16 33.4803 113.871 33.0481 114.384 32.1886C114.82 31.4708 115.039 30.6275 115.039 29.6481V29.6481ZM125.203 26.4328C124.957 26.3883 124.707 26.3663 124.456 26.3672C123.623 26.3672 122.978 26.6806 122.524 27.3119C122.131 27.8675 121.933 28.5703 121.933 29.4181V35.0142H119.563V27.7075C119.565 26.588 119.542 25.4685 119.494 24.35H121.558L121.645 26.3906H121.71C121.962 25.6892 122.355 25.1236 122.896 24.7C123.39 24.3301 123.991 24.1297 124.609 24.1289C124.828 24.1289 125.025 24.1444 125.201 24.1722L125.203 26.4328ZM135.803 29.1769C135.809 29.5371 135.781 29.8971 135.717 30.2517H128.606C128.633 31.3053 128.978 32.1122 129.638 32.6678C130.237 33.1636 131.012 33.4125 131.964 33.4125C133.016 33.4125 133.977 33.2458 134.841 32.9092L135.212 34.5528C134.203 34.9931 133.011 35.2119 131.636 35.2119C129.982 35.2119 128.683 34.725 127.738 33.7536C126.795 32.7814 126.323 31.4742 126.323 29.8369C126.323 28.23 126.762 26.8908 127.641 25.8228C128.562 24.6822 129.806 24.1122 131.371 24.1122C132.909 24.1122 134.073 24.6822 134.863 25.8228C135.489 26.7261 135.804 27.8467 135.804 29.1769H135.803ZM133.543 28.5622C133.56 27.8589 133.404 27.2531 133.083 26.7406C132.673 26.0806 132.042 25.7517 131.196 25.7517C130.421 25.7517 129.789 26.0728 129.309 26.7172C128.914 27.2297 128.68 27.8456 128.608 28.56L133.543 28.5622ZM50.2618 14.9942C49.6024 14.9942 49.0321 14.9619 48.5574 14.9075V7.75665C49.2213 7.65413 49.8923 7.6036 50.5641 7.60554C53.2824 7.60554 54.5341 8.94248 54.5341 11.1219C54.5341 13.6358 53.0555 14.9942 50.2618 14.9942ZM50.6596 8.5222C50.2929 8.5222 49.9804 8.54443 49.7216 8.59804V14.0339C49.8616 14.0561 50.1305 14.0661 50.5085 14.0661C52.2896 14.0661 53.3035 13.0522 53.3035 11.1541C53.3035 9.46137 52.3863 8.5222 50.6596 8.5222ZM58.4352 15.0486C56.9032 15.0486 55.9102 13.905 55.9102 12.3522C55.9102 10.7341 56.9241 9.58026 58.5219 9.58026C60.0316 9.58026 61.0466 10.6697 61.0466 12.2667C61.0466 13.905 60.0005 15.0486 58.4352 15.0486V15.0486ZM58.4796 10.4319C57.638 10.4319 57.0988 11.2186 57.0988 12.3189C57.0988 13.398 57.6491 14.185 58.4682 14.185C59.2874 14.185 59.838 13.3436 59.838 12.2967C59.838 11.23 59.2991 10.4316 58.4796 10.4316V10.4319ZM69.7824 9.68831L68.1424 14.9297H67.0741L66.3949 12.6536C66.226 12.0968 66.0854 11.5318 65.9735 10.9608H65.9513C65.8658 11.5319 65.7035 12.1044 65.531 12.6536L64.8085 14.9297H63.7291L62.186 9.68804H63.3832L63.9769 12.18C64.1171 12.7736 64.2349 13.3336 64.3327 13.8628H64.3549C64.4405 13.4214 64.5805 12.8703 64.7863 12.1911L65.531 9.68943H66.4805L67.1933 12.1378C67.3585 12.7068 67.499 13.2827 67.6144 13.8639H67.6455C67.7213 13.325 67.8399 12.7525 68.0013 12.1378L68.6383 9.68943L69.7824 9.68831ZM75.8188 14.9297H74.6538V11.92C74.6538 10.993 74.2983 10.5283 73.5966 10.5283C72.9063 10.5283 72.4316 11.1219 72.4316 11.8122V14.9297H71.2663V11.1861C71.2663 10.7228 71.2552 10.2258 71.223 9.68693H72.248L72.3024 10.4958H72.3349C72.6483 9.93582 73.2841 9.57998 73.9969 9.57998C75.0974 9.57998 75.8199 10.4216 75.8199 11.7908L75.8188 14.9297ZM79.0319 14.9297H77.8655V7.28304H79.0319V14.9297ZM83.2797 15.0486C81.7488 15.0486 80.7547 13.905 80.7547 12.3522C80.7547 10.7341 81.7686 9.58026 83.3652 9.58026C84.8761 9.58026 85.89 10.6697 85.89 12.2667C85.8911 13.905 84.8438 15.0486 83.2797 15.0486V15.0486ZM83.323 10.4319C82.4813 10.4319 81.9424 11.2186 81.9424 12.3189C81.9424 13.398 82.4936 14.185 83.3108 14.185C84.1311 14.185 84.6802 13.3436 84.6802 12.2967C84.6816 11.23 84.1433 10.4316 83.323 10.4316V10.4319ZM90.4836 14.9297L90.3991 14.3261H90.368C90.0122 14.8119 89.493 15.0483 88.8347 15.0483C87.8955 15.0483 87.2283 14.3905 87.2283 13.5058C87.2283 12.2122 88.3502 11.543 90.2922 11.543V11.4464C90.2922 10.7564 89.9266 10.4105 89.2038 10.4105C88.6872 10.4105 88.2333 10.5405 87.8344 10.7994L87.5975 10.0339C88.0822 9.73165 88.6869 9.58026 89.3975 9.58026C90.7669 9.58026 91.4586 10.3028 91.4586 11.7489V13.6794C91.4586 14.2083 91.4819 14.6183 91.5341 14.9308L90.4836 14.9297ZM90.3233 12.3189C89.0294 12.3189 88.3802 12.6325 88.3802 13.3758C88.3802 13.9258 88.7147 14.195 89.1794 14.195C89.7719 14.195 90.3233 13.7428 90.3233 13.128V12.3189ZM97.1161 14.9297L97.0616 14.088H97.0294C96.6947 14.7242 96.1322 15.0486 95.3461 15.0486C94.0822 15.0486 93.1461 13.9372 93.1461 12.3736C93.1461 10.7341 94.1166 9.57915 95.4416 9.57915C96.1433 9.57915 96.6402 9.81609 96.9202 10.2916H96.9436V7.28331H98.11V13.5167C98.11 14.0236 98.1222 14.498 98.1533 14.9294L97.1161 14.9297ZM96.9439 11.8455C96.9439 11.1119 96.4577 10.4861 95.7164 10.4861C94.8525 10.4861 94.3247 11.2519 94.3247 12.33C94.3247 13.3869 94.8725 14.1105 95.693 14.1105C96.4255 14.1105 96.9436 13.4736 96.9436 12.7189L96.9439 11.8455ZM105.504 15.0483C103.973 15.0483 102.98 13.905 102.98 12.3522C102.98 10.7341 103.994 9.58026 105.591 9.58026C107.102 9.58026 108.116 10.6697 108.116 12.2667C108.116 13.905 107.07 15.0486 105.504 15.0486V15.0483ZM105.547 10.4316C104.707 10.4316 104.167 11.2186 104.167 12.3189C104.167 13.398 104.718 14.185 105.536 14.185C106.357 14.185 106.906 13.3436 106.906 12.2967C106.908 11.23 106.369 10.4316 105.547 10.4316V10.4316ZM114.381 14.9297H113.215V11.92C113.215 10.993 112.859 10.5283 112.157 10.5283C111.467 10.5283 110.994 11.1219 110.994 11.8122V14.9297H109.827V11.1861C109.827 10.7228 109.816 10.2258 109.784 9.68693H110.809L110.863 10.4958H110.896C111.208 9.93582 111.845 9.57915 112.557 9.57915C113.657 9.57915 114.381 10.4203 114.381 11.7897V14.9297ZM122.22 10.5616H120.938V13.1069C120.938 13.755 121.162 14.0783 121.616 14.0783C121.821 14.0783 121.994 14.0561 122.133 14.0239L122.165 14.9086C121.939 14.9953 121.637 15.0386 121.261 15.0386C120.343 15.0386 119.794 14.5317 119.794 13.2047V10.5616H119.029V9.68831H119.794V8.72776L120.938 8.38192V9.68693H122.219L122.22 10.5616ZM128.387 14.9297H127.223V11.9422C127.223 11.0041 126.869 10.5294 126.166 10.5294C125.563 10.5294 125 10.9397 125 11.77V14.9297H123.836V7.28304H125V10.4316H125.023C125.39 9.86054 125.922 9.57915 126.6 9.57915C127.709 9.57915 128.387 10.4416 128.387 11.8122V14.9297ZM134.706 12.5889H131.21C131.232 13.5814 131.889 14.1417 132.862 14.1417C133.379 14.1417 133.855 14.055 134.275 13.8939L134.456 14.703C133.96 14.9186 133.377 15.0264 132.698 15.0264C131.058 15.0264 130.087 13.9903 130.087 12.3847C130.087 10.7775 131.081 9.56915 132.566 9.56915C133.906 9.56915 134.746 10.5616 134.746 12.0608C134.754 12.2378 134.741 12.415 134.706 12.5889V12.5889ZM133.638 11.7589C133.638 10.9497 133.23 10.3783 132.485 10.3783C131.816 10.3783 131.287 10.9608 131.211 11.7589H133.638Z" fill="white"/>
<defs>
<linearGradient id="paint0_linear" x1="110.014" y1="44.5626" x2="110.014" y2="-115.726" gradientUnits="userSpaceOnUse">
<stop stop-color="#1A1A1A" stop-opacity="0.1"/>
<stop offset="0.123" stop-color="#212121" stop-opacity="0.151"/>
<stop offset="0.308" stop-color="#353535" stop-opacity="0.227"/>
<stop offset="0.532" stop-color="#575757" stop-opacity="0.318"/>
<stop offset="0.783" stop-color="#858585" stop-opacity="0.421"/>
<stop offset="1" stop-color="#B3B3B3" stop-opacity="0.51"/>
</linearGradient>
</defs>
</svg>
