<svg width="60" height="60" viewBox="0 0 60 60" fill="none" xmlns="http://www.w3.org/2000/svg">
<path d="M53 0H7C3.13401 0 0 3.13401 0 7V53C0 56.866 3.13401 60 7 60H53C56.866 60 60 56.866 60 53V7C60 3.13401 56.866 0 53 0Z" fill="#265ED7"/>
<path d="M32.5 22.5714H35V24.7143H32.5V22.5714Z" fill="white"/>
<path d="M25 22.5714H27.5V24.7143H25V22.5714Z" fill="white"/>
<path d="M42.5 33.2857H36.25V31.1429H37.5C38.1628 31.1423 38.7983 30.9163 39.267 30.5146C39.7357 30.1129 39.9993 29.5681 40 29V24.7143H42.5V22.5714H40V20.4286C39.9993 19.8604 39.7357 19.3157 39.267 18.914C38.7983 18.5122 38.1628 18.2863 37.5 18.2857H35V14H32.5V18.2857H27.5V14H25V18.2857H22.5C21.8372 18.2863 21.2017 18.5122 20.733 18.914C20.2643 19.3157 20.0007 19.8604 20 20.4286V22.5714H17.5V24.7143H20V29C20.0007 29.5681 20.2643 30.1129 20.733 30.5146C21.2017 30.9163 21.8372 31.1423 22.5 31.1429H23.75V33.2857H17.5C16.8372 33.2863 16.2017 33.5122 15.733 33.914C15.2643 34.3157 15.0007 34.8604 15 35.4286V44H17.5V35.4286H42.5V44H45V35.4286C44.9993 34.8604 44.7357 34.3157 44.267 33.914C43.7983 33.5122 43.1628 33.2863 42.5 33.2857ZM22.5 20.4286H37.5V29H22.5V20.4286ZM26.25 31.1429H33.75V33.2857H26.25V31.1429Z" fill="white"/>
</svg>
