<svg width="30" height="30" viewBox="0 0 30 30" fill="none" xmlns="http://www.w3.org/2000/svg">
<path d="M28.3333 20.8333C26.25 20.8333 24.25 20.5 22.3833 19.8833C22.0903 19.79 21.7774 19.7779 21.478 19.8483C21.1787 19.9188 20.904 20.0691 20.6833 20.2833L17.0167 23.95C12.2853 21.5437 8.43963 17.698 6.03333 12.9667L9.7 9.28333C9.92074 9.0739 10.0772 8.80587 10.151 8.51066C10.2248 8.21546 10.2129 7.90534 10.1167 7.61667C9.48442 5.69676 9.16369 3.688 9.16667 1.66667C9.16667 0.75 8.41667 0 7.5 0H1.66667C0.75 0 0 0.75 0 1.66667C0 17.3167 12.6833 30 28.3333 30C29.25 30 30 29.25 30 28.3333V22.5C30 21.5833 29.25 20.8333 28.3333 20.8333ZM30 5H25V0H21.6667V5H16.6667V8.33333H21.6667V13.3333H25V8.33333H30V5Z" fill="white"/>
</svg>
