<svg width="60" height="60" viewBox="0 0 60 60" fill="none" xmlns="http://www.w3.org/2000/svg">
<path d="M53 0H7C3.13401 0 0 3.13401 0 7V53C0 56.866 3.13401 60 7 60H53C56.866 60 60 56.866 60 53V7C60 3.13401 56.866 0 53 0Z" fill="#265ED7"/>
<path d="M43.3333 35.8333C41.25 35.8333 39.25 35.5 37.3833 34.8833C37.0903 34.79 36.7774 34.7779 36.478 34.8483C36.1787 34.9188 35.904 35.0691 35.6833 35.2833L32.0167 38.95C27.2853 36.5437 23.4396 32.698 21.0333 27.9667L24.7 24.2833C24.9207 24.0739 25.0772 23.8059 25.151 23.5107C25.2248 23.2155 25.2129 22.9053 25.1167 22.6167C24.4844 20.6968 24.1637 18.688 24.1667 16.6667C24.1667 15.75 23.4167 15 22.5 15H16.6667C15.75 15 15 15.75 15 16.6667C15 32.3167 27.6833 45 43.3333 45C44.25 45 45 44.25 45 43.3333V37.5C45 36.5833 44.25 35.8333 43.3333 35.8333ZM45 20H40V15H36.6667V20H31.6667V23.3333H36.6667V28.3333H40V23.3333H45V20Z" fill="white"/>
</svg>
