<svg width="60" height="60" viewBox="0 0 60 60" fill="none" xmlns="http://www.w3.org/2000/svg">
<path d="M53 0H7C3.13401 0 0 3.13401 0 7V53C0 56.866 3.13401 60 7 60H53C56.866 60 60 56.866 60 53V7C60 3.13401 56.866 0 53 0Z" fill="#265ED7"/>
<path d="M27.6649 27.7677V38.7016H15C15 35.8017 16.3343 33.0206 18.7095 30.9701C21.0846 28.9196 24.306 27.7677 27.6649 27.7677ZM27.6649 26.4009C22.4169 26.4009 18.1662 22.7312 18.1662 18.2005C18.1662 13.6697 22.4169 10 27.6649 10C32.9129 10 37.1636 13.6697 37.1636 18.2005C37.1636 22.7312 32.9129 26.4009 27.6649 26.4009ZM42.619 36.0118L45 38.0674L42.7615 40L40.3805 37.9444C39.0528 38.6203 37.4852 38.8549 35.9714 38.6042C34.4577 38.3536 33.1019 37.635 32.158 36.583C31.2141 35.5311 30.747 34.218 30.8443 32.89C30.9416 31.5621 31.5966 30.3103 32.6864 29.3694C33.7763 28.4285 35.2262 27.863 36.7645 27.779C38.3027 27.6951 39.8236 28.0983 41.0421 28.9132C42.2606 29.728 43.093 30.8986 43.3833 32.2054C43.6736 33.5122 43.4018 34.8656 42.619 36.0118ZM37.1636 35.9681C38.0033 35.9681 38.8087 35.6801 39.4024 35.1675C39.9962 34.6549 40.3298 33.9596 40.3298 33.2346C40.3298 32.5097 39.9962 31.8144 39.4024 31.3018C38.8087 30.7891 38.0033 30.5011 37.1636 30.5011C36.3239 30.5011 35.5185 30.7891 34.9247 31.3018C34.3309 31.8144 33.9974 32.5097 33.9974 33.2346C33.9974 33.9596 34.3309 34.6549 34.9247 35.1675C35.5185 35.6801 36.3239 35.9681 37.1636 35.9681Z" fill="white"/>
</svg>
