<svg width="60" height="60" viewBox="0 0 60 60" fill="none" xmlns="http://www.w3.org/2000/svg">
<path d="M53 0H7C3.13401 0 0 3.13401 0 7V53C0 56.866 3.13401 60 7 60H53C56.866 60 60 56.866 60 53V7C60 3.13401 56.866 0 53 0Z" fill="#265ED7"/>
<path d="M41.2244 43H18.7463C17.7122 43 16.8293 42.6338 16.0976 41.9014C15.3659 41.1689 15 40.2852 15 39.25V16.75C15 15.7148 15.3659 14.8311 16.0976 14.0986C16.8293 13.3662 17.7122 13 18.7463 13H41.2244C42.2585 13 43.1415 13.3662 43.8732 14.0986C44.6049 14.8311 44.9707 15.7148 44.9707 16.75V39.25C44.9707 40.2852 44.6049 41.1689 43.8732 41.9014C43.1415 42.6338 42.2585 43 41.2244 43ZM41.2244 26.125C41.2244 25.5977 41.0439 25.1533 40.6829 24.792C40.322 24.4307 39.8781 24.25 39.3512 24.25H33.7317V18.625C33.7317 18.0977 33.5512 17.6533 33.1903 17.292C32.8293 16.9307 32.3854 16.75 31.8585 16.75H28.1122C27.5854 16.75 27.1415 16.9307 26.7805 17.292C26.4195 17.6533 26.239 18.0977 26.239 18.625V24.25H20.6195C20.1122 24.25 19.6732 24.4307 19.3024 24.792C18.9317 25.1533 18.7463 25.5977 18.7463 26.125V29.875C18.7463 30.4023 18.9317 30.8467 19.3024 31.208C19.6732 31.5693 20.1122 31.75 20.6195 31.75H26.239V37.375C26.239 37.9023 26.4244 38.3467 26.7951 38.708C27.1659 39.0693 27.6049 39.25 28.1122 39.25H31.8585C32.3854 39.25 32.8293 39.0693 33.1903 38.708C33.5512 38.3467 33.7317 37.9023 33.7317 37.375V31.75H39.3512C39.8781 31.75 40.322 31.5693 40.6829 31.208C41.0439 30.8467 41.2244 30.4023 41.2244 29.875V26.125Z" fill="white"/>
</svg>
