<svg width="22" height="24" viewBox="0 0 22 24" fill="none" xmlns="http://www.w3.org/2000/svg">
<path d="M20.7858 23.3979C21.4563 23.3979 22 22.8198 22 22.1066V1.29136C22 0.578092 21.4563 0 20.7858 0H1.21421C0.543469 0 0 0.578092 0 1.29136V22.1066C0 22.8198 0.543469 23.3979 1.21421 23.3979H20.7858Z" fill="white"/>
<path d="M15.1796 23.3979V14.3372H18.0393L18.4675 10.8061H15.1796V8.55149C15.1796 7.52912 15.4466 6.83241 16.8251 6.83241L18.5833 6.83159V3.67338C18.2791 3.63033 17.2355 3.53418 16.0214 3.53418C13.4864 3.53418 11.751 5.17978 11.751 8.20189V10.8061H8.88391V14.3372H11.751V23.3979H15.1796Z" fill="#072B77"/>
</svg>
