<svg width="23" height="23" viewBox="0 0 23 23" fill="none" xmlns="http://www.w3.org/2000/svg">
<path d="M3.43916 6.10924C4.89947 6.10924 6.08328 4.92543 6.08328 3.46512C6.08328 2.00481 4.89947 0.820999 3.43916 0.820999C1.97886 0.820999 0.795044 2.00481 0.795044 3.46512C0.795044 4.92543 1.97886 6.10924 3.43916 6.10924Z" fill="white"/>
<path d="M8.57986 8.11287V22.7824H13.1346V15.528C13.1346 13.6138 13.4947 11.76 15.8681 11.76C18.2089 11.76 18.2379 13.9485 18.2379 15.6489V22.7836H22.795V14.7389C22.795 10.7872 21.9443 7.75033 17.3255 7.75033C15.108 7.75033 13.6216 8.96726 13.0137 10.1189H12.9521V8.11287H8.57986V8.11287ZM1.15747 8.11287H5.71942V22.7824H1.15747V8.11287Z" fill="white"/>
</svg>
