<svg width="200" height="35" viewBox="0 0 200 35" fill="none" xmlns="http://www.w3.org/2000/svg">
<path d="M59.4 6.2V23H55.512V16.112H47.88V23H43.992V6.2H47.88V12.824H55.512V6.2H59.4ZM75.7588 16.592C75.7588 16.64 75.7348 16.976 75.6868 17.6H65.9188C66.0948 18.4 66.5108 19.032 67.1668 19.496C67.8228 19.96 68.6388 20.192 69.6148 20.192C70.2868 20.192 70.8788 20.096 71.3908 19.904C71.9188 19.696 72.4068 19.376 72.8548 18.944L74.8468 21.104C73.6308 22.496 71.8548 23.192 69.5188 23.192C68.0628 23.192 66.7748 22.912 65.6548 22.352C64.5348 21.776 63.6708 20.984 63.0628 19.976C62.4548 18.968 62.1508 17.824 62.1508 16.544C62.1508 15.28 62.4468 14.144 63.0388 13.136C63.6468 12.112 64.4708 11.32 65.5108 10.76C66.5668 10.184 67.7428 9.896 69.0388 9.896C70.3028 9.896 71.4468 10.168 72.4708 10.712C73.4948 11.256 74.2948 12.04 74.8708 13.064C75.4628 14.072 75.7588 15.248 75.7588 16.592ZM69.0628 12.728C68.2148 12.728 67.5028 12.968 66.9268 13.448C66.3508 13.928 65.9988 14.584 65.8708 15.416H72.2308C72.1028 14.6 71.7508 13.952 71.1748 13.472C70.5988 12.976 69.8948 12.728 69.0628 12.728ZM83.1079 9.896C85.1079 9.896 86.6439 10.376 87.7159 11.336C88.7879 12.28 89.3239 13.712 89.3239 15.632V23H85.8199V21.392C85.1159 22.592 83.8039 23.192 81.8839 23.192C80.8919 23.192 80.0279 23.024 79.2919 22.688C78.5719 22.352 78.0199 21.888 77.6359 21.296C77.2519 20.704 77.0599 20.032 77.0599 19.28C77.0599 18.08 77.5079 17.136 78.4039 16.448C79.3159 15.76 80.7159 15.416 82.6039 15.416H85.5799C85.5799 14.6 85.3319 13.976 84.8359 13.544C84.3399 13.096 83.5959 12.872 82.6039 12.872C81.9159 12.872 81.2359 12.984 80.5639 13.208C79.9079 13.416 79.3479 13.704 78.8839 14.072L77.5399 11.456C78.2439 10.96 79.0839 10.576 80.0599 10.304C81.0519 10.032 82.0679 9.896 83.1079 9.896ZM82.8199 20.672C83.4599 20.672 84.0279 20.528 84.5239 20.24C85.0199 19.936 85.3719 19.496 85.5799 18.92V17.6H83.0119C81.4759 17.6 80.7079 18.104 80.7079 19.112C80.7079 19.592 80.8919 19.976 81.2599 20.264C81.6439 20.536 82.1639 20.672 82.8199 20.672ZM92.7124 5.192H96.4564V23H92.7124V5.192ZM109.197 22.376C108.829 22.648 108.373 22.856 107.829 23C107.301 23.128 106.741 23.192 106.149 23.192C104.613 23.192 103.421 22.8 102.573 22.016C101.741 21.232 101.325 20.08 101.325 18.56V13.256H99.3326V10.376H101.325V7.232H105.069V10.376H108.285V13.256H105.069V18.512C105.069 19.056 105.205 19.48 105.477 19.784C105.765 20.072 106.165 20.216 106.677 20.216C107.269 20.216 107.773 20.056 108.189 19.736L109.197 22.376ZM119.146 9.896C120.746 9.896 122.034 10.376 123.01 11.336C124.002 12.296 124.498 13.72 124.498 15.608V23H120.754V16.184C120.754 15.16 120.53 14.4 120.082 13.904C119.634 13.392 118.986 13.136 118.138 13.136C117.194 13.136 116.442 13.432 115.882 14.024C115.322 14.6 115.042 15.464 115.042 16.616V23H111.298V5.192H115.042V11.432C115.538 10.936 116.138 10.56 116.842 10.304C117.546 10.032 118.314 9.896 119.146 9.896ZM134.953 6.2H138.841V19.832H147.265V23H134.953V6.2ZM149.173 10.088H152.917V23H149.173V10.088ZM151.045 8.288C150.357 8.288 149.797 8.088 149.365 7.688C148.933 7.288 148.717 6.792 148.717 6.2C148.717 5.608 148.933 5.112 149.365 4.712C149.797 4.312 150.357 4.112 151.045 4.112C151.733 4.112 152.293 4.304 152.725 4.688C153.157 5.072 153.373 5.552 153.373 6.128C153.373 6.752 153.157 7.272 152.725 7.688C152.293 8.088 151.733 8.288 151.045 8.288ZM164.24 9.896C165.84 9.896 167.128 10.376 168.104 11.336C169.096 12.296 169.592 13.72 169.592 15.608V23H165.848V16.184C165.848 15.16 165.624 14.4 165.176 13.904C164.728 13.392 164.08 13.136 163.232 13.136C162.288 13.136 161.536 13.432 160.976 14.024C160.416 14.6 160.136 15.464 160.136 16.616V23H156.392V10.088H159.968V11.6C160.464 11.056 161.08 10.64 161.816 10.352C162.552 10.048 163.36 9.896 164.24 9.896ZM178.53 17.936L176.73 19.712V23H172.986V5.192H176.73V15.272L182.202 10.088H186.666L181.29 15.56L187.146 23H182.61L178.53 17.936Z" fill="white"/>
<path d="M26.2244 30H3.74634C2.7122 30 1.82927 29.6338 1.09756 28.9014C0.365854 28.1689 0 27.2852 0 26.25V3.75C0 2.71484 0.365854 1.83105 1.09756 1.09863C1.82927 0.366211 2.7122 0 3.74634 0H26.2244C27.2585 0 28.1415 0.366211 28.8732 1.09863C29.6049 1.83105 29.9707 2.71484 29.9707 3.75V26.25C29.9707 27.2852 29.6049 28.1689 28.8732 28.9014C28.1415 29.6338 27.2585 30 26.2244 30ZM26.2244 13.125C26.2244 12.5977 26.0439 12.1533 25.6829 11.792C25.322 11.4307 24.8781 11.25 24.3512 11.25H18.7317V5.625C18.7317 5.09766 18.5512 4.65332 18.1903 4.29199C17.8293 3.93066 17.3854 3.75 16.8585 3.75H13.1122C12.5854 3.75 12.1415 3.93066 11.7805 4.29199C11.4195 4.65332 11.239 5.09766 11.239 5.625V11.25H5.61951C5.1122 11.25 4.67317 11.4307 4.30244 11.792C3.93171 12.1533 3.74634 12.5977 3.74634 13.125V16.875C3.74634 17.4023 3.93171 17.8467 4.30244 18.208C4.67317 18.5693 5.1122 18.75 5.61951 18.75H11.239V24.375C11.239 24.9023 11.4244 25.3467 11.7951 25.708C12.1659 26.0693 12.6049 26.25 13.1122 26.25H16.8585C17.3854 26.25 17.8293 26.0693 18.1903 25.708C18.5512 25.3467 18.7317 24.9023 18.7317 24.375V18.75H24.3512C24.8781 18.75 25.322 18.5693 25.6829 18.208C26.0439 17.8467 26.2244 17.4023 26.2244 16.875V13.125Z" fill="white"/>
</svg>
