<svg width="30" height="30" viewBox="0 0 30 30" fill="none" xmlns="http://www.w3.org/2000/svg">
<path d="M20.6897 17.5862H22.7586V22.7586H20.6897V17.5862Z" fill="white"/>
<path d="M21.7241 30C20.0873 30 18.4873 29.5147 17.1263 28.6053C15.7654 27.6959 14.7046 26.4034 14.0782 24.8912C13.4519 23.379 13.288 21.715 13.6073 20.1096C13.9266 18.5043 14.7148 17.0296 15.8722 15.8722C17.0296 14.7148 18.5042 13.9267 20.1096 13.6073C21.715 13.288 23.379 13.4519 24.8912 14.0783C26.4034 14.7046 27.6959 15.7654 28.6053 17.1263C29.5146 18.4873 30 20.0874 30 21.7242C30 23.9191 29.1281 26.0241 27.5761 27.5761C26.024 29.1281 23.919 30 21.7241 30ZM21.7241 15.5173C20.4965 15.5173 19.2965 15.8813 18.2758 16.5633C17.2551 17.2453 16.4595 18.2147 15.9897 19.3489C15.5199 20.4831 15.397 21.7311 15.6365 22.9351C15.876 24.1391 16.4671 25.2451 17.3352 26.1131C18.2032 26.9812 19.3092 27.5723 20.5132 27.8118C21.7173 28.0513 22.9653 27.9284 24.0994 27.4586C25.2336 26.9888 26.203 26.1933 26.885 25.1725C27.567 24.1518 27.931 22.9518 27.931 21.7242C27.931 20.078 27.2771 18.4992 26.1131 17.3352C24.9491 16.1712 23.3703 15.5173 21.7241 15.5173Z" fill="white"/>
<path d="M21.7241 25.8621C22.2955 25.8621 22.7586 25.3989 22.7586 24.8276C22.7586 24.2562 22.2955 23.7931 21.7241 23.7931C21.1528 23.7931 20.6897 24.2562 20.6897 24.8276C20.6897 25.3989 21.1528 25.8621 21.7241 25.8621Z" fill="white"/>
<path d="M18.6207 0H2.06897C1.52024 0 0.993992 0.21798 0.605986 0.605986C0.21798 0.993992 0 1.52024 0 2.06897V6.2069C0 6.75562 0.21798 7.28187 0.605986 7.66987C0.993992 8.05788 1.52024 8.27586 2.06897 8.27586V26.8965C2.06897 27.4453 2.28695 27.9715 2.67495 28.3595C3.06296 28.7475 3.58921 28.9655 4.13793 28.9655H12.4138V26.8965H4.13793V24.8276H9.31034V10.3448H4.13793V8.27586H16.5517V11.3793H18.6207V8.27586C19.1694 8.27586 19.6957 8.05788 20.0837 7.66987C20.4717 7.28187 20.6897 6.75562 20.6897 6.2069V2.06897C20.6897 1.52024 20.4717 0.993992 20.0837 0.605986C19.6957 0.21798 19.1694 0 18.6207 0ZM7.24138 12.4138V22.7586H4.13793V12.4138H7.24138ZM2.06897 6.2069V2.06897H18.6207V6.2069H2.06897Z" fill="white"/>
</svg>
