<svg width="60" height="60" viewBox="0 0 60 60" fill="none" xmlns="http://www.w3.org/2000/svg">
<path d="M53 0H7C3.13401 0 0 3.13401 0 7V53C0 56.866 3.13401 60 7 60H53C56.866 60 60 56.866 60 53V7C60 3.13401 56.866 0 53 0Z" fill="#265ED7"/>
<path d="M35.6897 32.5862H37.7586V37.7586H35.6897V32.5862Z" fill="white"/>
<path d="M36.7241 45C35.0873 45 33.4873 44.5147 32.1263 43.6053C30.7654 42.6959 29.7046 41.4034 29.0782 39.8912C28.4519 38.379 28.288 36.715 28.6073 35.1096C28.9266 33.5043 29.7148 32.0296 30.8722 30.8722C32.0296 29.7148 33.5042 28.9267 35.1096 28.6073C36.715 28.288 38.379 28.4519 39.8912 29.0783C41.4034 29.7046 42.6959 30.7654 43.6053 32.1263C44.5146 33.4873 45 35.0874 45 36.7242C45 38.9191 44.1281 41.0241 42.5761 42.5761C41.024 44.1281 38.919 45 36.7241 45ZM36.7241 30.5173C35.4965 30.5173 34.2965 30.8813 33.2758 31.5633C32.2551 32.2453 31.4595 33.2147 30.9897 34.3489C30.5199 35.4831 30.397 36.7311 30.6365 37.9351C30.876 39.1391 31.4671 40.2451 32.3352 41.1131C33.2032 41.9812 34.3092 42.5723 35.5132 42.8118C36.7173 43.0513 37.9653 42.9284 39.0994 42.4586C40.2336 41.9888 41.203 41.1933 41.885 40.1725C42.567 39.1518 42.931 37.9518 42.931 36.7242C42.931 35.078 42.2771 33.4992 41.1131 32.3352C39.9491 31.1712 38.3703 30.5173 36.7241 30.5173Z" fill="white"/>
<path d="M36.7241 40.8621C37.2955 40.8621 37.7586 40.3989 37.7586 39.8276C37.7586 39.2562 37.2955 38.7931 36.7241 38.7931C36.1528 38.7931 35.6897 39.2562 35.6897 39.8276C35.6897 40.3989 36.1528 40.8621 36.7241 40.8621Z" fill="white"/>
<path d="M33.6207 15H17.069C16.5202 15 15.994 15.218 15.606 15.606C15.218 15.994 15 16.5202 15 17.069V21.2069C15 21.7556 15.218 22.2819 15.606 22.6699C15.994 23.0579 16.5202 23.2759 17.069 23.2759V41.8965C17.069 42.4453 17.2869 42.9715 17.675 43.3595C18.063 43.7475 18.5892 43.9655 19.1379 43.9655H27.4138V41.8965H19.1379V39.8276H24.3103V25.3448H19.1379V23.2759H31.5517V26.3793H33.6207V23.2759C34.1694 23.2759 34.6957 23.0579 35.0837 22.6699C35.4717 22.2819 35.6897 21.7556 35.6897 21.2069V17.069C35.6897 16.5202 35.4717 15.994 35.0837 15.606C34.6957 15.218 34.1694 15 33.6207 15ZM22.2414 27.4138V37.7586H19.1379V27.4138H22.2414ZM17.069 21.2069V17.069H33.6207V21.2069H17.069Z" fill="white"/>
</svg>
