<svg width="30" height="30" viewBox="0 0 30 30" fill="none" xmlns="http://www.w3.org/2000/svg">
<path fill-rule="evenodd" clip-rule="evenodd" d="M30 14.0644C30 21.832 23.2838 28.1289 15 28.1289C13.5143 28.131 12.0349 27.9243 10.5994 27.514C9.50437 28.1088 6.99 29.25 2.76 29.9934C2.385 30.0577 2.1 29.6398 2.24813 29.2661C2.91188 27.5864 3.51187 25.3481 3.69187 23.3068C1.395 20.8355 0 17.6006 0 14.0644C0 6.29685 6.71625 0 15 0C23.2838 0 30 6.29685 30 14.0644ZM9.375 14.0644C9.375 14.5973 9.17746 15.1084 8.82582 15.4852C8.47419 15.862 7.99728 16.0736 7.5 16.0736C7.00272 16.0736 6.52581 15.862 6.17417 15.4852C5.82254 15.1084 5.625 14.5973 5.625 14.0644C5.625 13.5316 5.82254 13.0205 6.17417 12.6437C6.52581 12.2669 7.00272 12.0552 7.5 12.0552C7.99728 12.0552 8.47419 12.2669 8.82582 12.6437C9.17746 13.0205 9.375 13.5316 9.375 14.0644ZM16.875 14.0644C16.875 14.5973 16.6775 15.1084 16.3258 15.4852C15.9742 15.862 15.4973 16.0736 15 16.0736C14.5027 16.0736 14.0258 15.862 13.6742 15.4852C13.3225 15.1084 13.125 14.5973 13.125 14.0644C13.125 13.5316 13.3225 13.0205 13.6742 12.6437C14.0258 12.2669 14.5027 12.0552 15 12.0552C15.4973 12.0552 15.9742 12.2669 16.3258 12.6437C16.6775 13.0205 16.875 13.5316 16.875 14.0644ZM22.5 16.0736C22.9973 16.0736 23.4742 15.862 23.8258 15.4852C24.1775 15.1084 24.375 14.5973 24.375 14.0644C24.375 13.5316 24.1775 13.0205 23.8258 12.6437C23.4742 12.2669 22.9973 12.0552 22.5 12.0552C22.0027 12.0552 21.5258 12.2669 21.1742 12.6437C20.8225 13.0205 20.625 13.5316 20.625 14.0644C20.625 14.5973 20.8225 15.1084 21.1742 15.4852C21.5258 15.862 22.0027 16.0736 22.5 16.0736Z" fill="white"/>
</svg>
