<svg width="60" height="60" viewBox="0 0 60 60" fill="none" xmlns="http://www.w3.org/2000/svg">
<path d="M53 0H7C3.13401 0 0 3.13401 0 7V53C0 56.866 3.13401 60 7 60H53C56.866 60 60 56.866 60 53V7C60 3.13401 56.866 0 53 0Z" fill="#265ED7"/>
<path fill-rule="evenodd" clip-rule="evenodd" d="M45 29.0644C45 36.832 38.2838 43.1289 30 43.1289C28.5143 43.131 27.0349 42.9243 25.5994 42.514C24.5044 43.1088 21.99 44.25 17.76 44.9934C17.385 45.0577 17.1 44.6398 17.2481 44.2661C17.9119 42.5864 18.5119 40.3481 18.6919 38.3068C16.395 35.8355 15 32.6006 15 29.0644C15 21.2968 21.7162 15 30 15C38.2838 15 45 21.2968 45 29.0644ZM24.375 29.0644C24.375 29.5973 24.1775 30.1084 23.8258 30.4852C23.4742 30.862 22.9973 31.0736 22.5 31.0736C22.0027 31.0736 21.5258 30.862 21.1742 30.4852C20.8225 30.1084 20.625 29.5973 20.625 29.0644C20.625 28.5316 20.8225 28.0205 21.1742 27.6437C21.5258 27.2669 22.0027 27.0552 22.5 27.0552C22.9973 27.0552 23.4742 27.2669 23.8258 27.6437C24.1775 28.0205 24.375 28.5316 24.375 29.0644ZM31.875 29.0644C31.875 29.5973 31.6775 30.1084 31.3258 30.4852C30.9742 30.862 30.4973 31.0736 30 31.0736C29.5027 31.0736 29.0258 30.862 28.6742 30.4852C28.3225 30.1084 28.125 29.5973 28.125 29.0644C28.125 28.5316 28.3225 28.0205 28.6742 27.6437C29.0258 27.2669 29.5027 27.0552 30 27.0552C30.4973 27.0552 30.9742 27.2669 31.3258 27.6437C31.6775 28.0205 31.875 28.5316 31.875 29.0644ZM37.5 31.0736C37.9973 31.0736 38.4742 30.862 38.8258 30.4852C39.1775 30.1084 39.375 29.5973 39.375 29.0644C39.375 28.5316 39.1775 28.0205 38.8258 27.6437C38.4742 27.2669 37.9973 27.0552 37.5 27.0552C37.0027 27.0552 36.5258 27.2669 36.1742 27.6437C35.8225 28.0205 35.625 28.5316 35.625 29.0644C35.625 29.5973 35.8225 30.1084 36.1742 30.4852C36.5258 30.862 37.0027 31.0736 37.5 31.0736Z" fill="white"/>
</svg>
