<svg width="42" height="32" viewBox="0 0 42 32" fill="none" xmlns="http://www.w3.org/2000/svg">
<path d="M38.4349 27.3039C42.3946 23.2246 41.9959 17.9861 41.9833 17.9264V1.99182C41.9833 1.46356 41.7623 0.95693 41.3687 0.583391C40.9752 0.209852 40.4414 0 39.8849 0H27.2943C24.9797 0 23.0974 1.78666 23.0974 3.98364V17.9264C23.0974 18.4547 23.3185 18.9613 23.7121 19.3348C24.1056 19.7084 24.6393 19.9182 25.1959 19.9182H31.6549C31.6105 20.9029 31.3005 21.8604 30.7546 22.6988C29.6886 24.2942 27.6804 25.3838 24.7825 25.9335L23.0974 26.2522V31.8691H25.1959C31.0358 31.8691 35.4908 30.3334 38.4349 27.3039ZM15.3374 27.3039C19.2993 23.2246 18.8985 17.9861 18.8859 17.9264V1.99182C18.8859 1.46356 18.6648 0.95693 18.2713 0.583391C17.8777 0.209852 17.344 0 16.7875 0H4.19686C1.88229 0 0 1.78666 0 3.98364V17.9264C0 18.4547 0.221084 18.9613 0.614617 19.3348C1.00815 19.7084 1.54189 19.9182 2.09843 19.9182H8.55741C8.51307 20.9029 8.2031 21.8604 7.65718 22.6988C6.59118 24.2942 4.58298 25.3838 1.68504 25.9335L0 26.2522V31.8691H2.09843C7.93837 31.8691 12.3933 30.3334 15.3374 27.3039Z" fill="#9A9292"/>
</svg>
