<svg width="30" height="35" viewBox="0 0 30 35" fill="none" xmlns="http://www.w3.org/2000/svg">
<path d="M17.2403 16.2652L21.6466 11.8586C13.5986 7.09241 1.70655 0.1 1.03448 0L0.98069 0.00551724L17.2403 16.2652Z" fill="#08B059"/>
<path d="M0.00551724 0.981033L0 1.03448V33.4483L0.00517241 33.4997L16.2648 17.2403L0.00551724 0.981033Z" fill="#1BB899"/>
<path d="M17.2424 18.2179L0.983448 34.4772L1.03448 34.4831C1.70965 34.3755 13.5997 27.3866 21.6466 22.6224L17.2424 18.2179Z" fill="#F04F3E"/>
<path d="M28.9655 16.2069C28.9655 16.2069 26.4234 14.6903 22.8741 12.5862L18.2179 17.2428L22.8721 21.8969C26.4224 19.7924 28.9655 18.2759 28.9655 18.2759C29.5197 17.9848 30 17.8128 30 17.2414C30 16.6703 29.4538 16.4741 28.9655 16.2069Z" fill="#F99C1C"/>
</svg>
