<svg width="23" height="24" viewBox="0 0 23 24" fill="none" xmlns="http://www.w3.org/2000/svg">
<path d="M22.0667 2.76979C21.2571 3.23956 20.3873 3.55705 19.4743 3.69988C20.4063 2.96886 21.1219 1.81125 21.4588 0.431979C20.5728 1.12003 19.6035 1.6048 18.5927 1.86535C17.7693 0.717416 16.5964 0 15.2981 0C12.8054 0 10.7844 2.64473 10.7844 5.90668C10.7844 6.3697 10.8244 6.82046 10.9013 7.25289C7.15013 7.00647 3.82435 4.65494 1.59814 1.08124C1.2097 1.95363 0.987127 2.96841 0.987127 4.05077C0.987127 6.10012 1.78403 7.908 2.99506 8.96731C2.27829 8.93793 1.5773 8.68458 0.950604 8.22841C0.950346 8.25315 0.950346 8.27789 0.950346 8.30275C0.950346 11.1647 2.50616 13.5521 4.57089 14.0947C3.90624 14.3313 3.20907 14.3659 2.53263 14.1959C3.10695 16.5426 4.77388 18.2503 6.74889 18.2981C5.20417 19.8823 3.25794 20.8267 1.14336 20.8267C0.778986 20.8267 0.419768 20.7987 0.0666504 20.7441C2.0641 22.4201 4.43657 23.3979 6.98548 23.3979C15.2876 23.3979 19.8275 14.3972 19.8275 6.5917C19.8275 6.33551 19.8232 6.08077 19.8144 5.8275C20.698 4.99153 21.4607 3.9561 22.0667 2.76979Z" fill="white"/>
</svg>
